ISO-10303-21;
HEADER;
FILE_DESCRIPTION (( 'STEP AP214' ),
    '1' );
FILE_NAME ('2036-3-57-15-00-00-03-0.STEP',
    '2024-02-24T14:42:51',
    ( '' ),
    ( '' ),
    'SwSTEP 2.0',
    'SolidWorks 2024',
    '' );
FILE_SCHEMA (( 'AUTOMOTIVE_DESIGN' ));
ENDSEC;

DATA;
#1 = ORIENTED_EDGE ( 'NONE', *, *, #131, .T. ) ;
#2 = CARTESIAN_POINT ( 'NONE',  ( 0.000000000000000000, 1.399999999999999911, 0.000000000000000000 ) ) ;
#3 = ADVANCED_FACE ( 'NONE', ( #126 ), #115, .T. ) ;
#4 = PRESENTATION_LAYER_ASSIGNMENT (  '', '', ( #50 ) ) ;
#5 = FACE_OUTER_BOUND ( 'NONE', #209, .T. ) ;
#6 = DIRECTION ( 'NONE',  ( 0.000000000000000000, 0.000000000000000000, 1.000000000000000000 ) ) ;
#7 =( GEOMETRIC_REPRESENTATION_CONTEXT ( 3 ) GLOBAL_UNCERTAINTY_ASSIGNED_CONTEXT ( ( #214 ) ) GLOBAL_UNIT_ASSIGNED_CONTEXT ( ( #133, #216, #204 ) ) REPRESENTATION_CONTEXT ( 'NONE', 'WORKASPACE' ) );
#8 = AXIS2_PLACEMENT_3D ( 'NONE', #53, #195, #87 ) ;
#9 = CARTESIAN_POINT ( 'NONE',  ( 0.000000000000000000, 1.399999999999999911, -2.944999999999996287 ) ) ;
#10 = PRODUCT_RELATED_PRODUCT_CATEGORY ( 'part', '', ( #185 ) ) ;
#11 = AXIS2_PLACEMENT_3D ( 'NONE', #15, #103, #69 ) ;
#12 = EDGE_CURVE ( 'NONE', #192, #224, #139, .T. ) ;
#13 = AXIS2_PLACEMENT_3D ( 'NONE', #59, #125, #116 ) ;
#14 = ORIENTED_EDGE ( 'NONE', *, *, #143, .F. ) ;
#15 = CARTESIAN_POINT ( 'NONE',  ( 0.000000000000000000, 0.04999999999999969746, 0.000000000000000000 ) ) ;
#16 = ORIENTED_EDGE ( 'NONE', *, *, #168, .T. ) ;
#17 = APPLICATION_PROTOCOL_DEFINITION ( 'draft international standard', 'automotive_design', 1998, #89 ) ;
#18 = MECHANICAL_DESIGN_GEOMETRIC_PRESENTATION_REPRESENTATION (  '', ( #50 ), #7 ) ;
#19 = DIRECTION ( 'NONE',  ( -0.000000000000000000, -1.000000000000000000, -0.000000000000000000 ) ) ;
#20 = ORIENTED_EDGE ( 'NONE', *, *, #49, .T. ) ;
#21 = DIRECTION ( 'NONE',  ( 0.000000000000000000, 0.000000000000000000, -1.000000000000000000 ) ) ;
#22 = ORIENTED_EDGE ( 'NONE', *, *, #117, .F. ) ;
#23 = DIRECTION ( 'NONE',  ( 0.000000000000000000, 1.000000000000000000, 0.000000000000000000 ) ) ;
#24 = DIRECTION ( 'NONE',  ( 0.000000000000000000, 0.7071067811865444641, 0.7071067811865505703 ) ) ;
#25 = FACE_OUTER_BOUND ( 'NONE', #178, .T. ) ;
#26 = DIRECTION ( 'NONE',  ( 0.000000000000000000, 0.000000000000000000, 1.000000000000000000 ) ) ;
#27 = CARTESIAN_POINT ( 'NONE',  ( 0.000000000000000000, 0.04999999999999969746, 2.995000000000000107 ) ) ;
#28 = AXIS2_PLACEMENT_3D ( 'NONE', #110, #167, #128 ) ;
#29 = MANIFOLD_SOLID_BREP ( 'Chamfer1', #86 ) ;
#30 = EDGE_CURVE ( 'NONE', #48, #224, #80, .T. ) ;
#31 = ORIENTED_EDGE ( 'NONE', *, *, #220, .T. ) ;
#32 = VECTOR ( 'NONE', #145, 1000.000000000000000 ) ;
#33 = DIRECTION ( 'NONE',  ( 0.000000000000000000, 0.000000000000000000, 1.000000000000000000 ) ) ;
#34 = DIRECTION ( 'NONE',  ( 0.000000000000000000, -1.000000000000000000, 0.000000000000000000 ) ) ;
#35 = EDGE_LOOP ( 'NONE', ( #172, #20, #88, #157 ) ) ;
#36 = FACE_OUTER_BOUND ( 'NONE', #38, .T. ) ;
#37 = AXIS2_PLACEMENT_3D ( 'NONE', #132, #203, #6 ) ;
#38 = EDGE_LOOP ( 'NONE', ( #118, #190 ) ) ;
#39 = DIRECTION ( 'NONE',  ( 0.000000000000000000, -0.000000000000000000, 1.000000000000000000 ) ) ;
#40 = VERTEX_POINT ( 'NONE', #120 ) ;
#41 = UNCERTAINTY_MEASURE_WITH_UNIT (LENGTH_MEASURE( 1.000000000000000082E-05 ), #77, 'distance_accuracy_value', 'NONE');
#42 = DIRECTION ( 'NONE',  ( 0.000000000000000000, -0.7071067811865474617, -0.7071067811865475727 ) ) ;
#43 = DIRECTION ( 'NONE',  ( -0.000000000000000000, -1.000000000000000000, -0.000000000000000000 ) ) ;
#44 = DIRECTION ( 'NONE',  ( -0.000000000000000000, -1.000000000000000000, -0.000000000000000000 ) ) ;
#45 = LINE ( 'NONE', #62, #32 ) ;
#46 = CONICAL_SURFACE ( 'NONE', #28, 2.944999999999996287, 0.7853981633974482790 ) ;
#47 = PRODUCT_DEFINITION_FORMATION_WITH_SPECIFIED_SOURCE ( 'ANY', '', #185, .NOT_KNOWN. ) ;
#48 = VERTEX_POINT ( 'NONE', #147 ) ;
#49 = EDGE_CURVE ( 'NONE', #174, #66, #45, .T. ) ;
#50 = STYLED_ITEM ( 'NONE', ( #76 ), #29 ) ;
#51 = ADVANCED_BREP_SHAPE_REPRESENTATION ( '2036-3-57-15-00-00-03-0', ( #29, #113 ), #148 ) ;
#52 = EDGE_LOOP ( 'NONE', ( #206, #22, #91, #122 ) ) ;
#53 = CARTESIAN_POINT ( 'NONE',  ( 0.000000000000000000, 0.04999999999999969746, 0.000000000000000000 ) ) ;
#54 = DIRECTION ( 'NONE',  ( 8.659560562354969836E-17, 0.7071067811865444641, -0.7071067811865505703 ) ) ;
#55 = ADVANCED_FACE ( 'NONE', ( #25 ), #60, .T. ) ;
#56 = CARTESIAN_POINT ( 'NONE',  ( 0.000000000000000000, 0.000000000000000000, 0.000000000000000000 ) ) ;
#57 = CIRCLE ( 'NONE', #13, 2.944999999999996287 ) ;
#58 = ORIENTED_EDGE ( 'NONE', *, *, #194, .T. ) ;
#59 = CARTESIAN_POINT ( 'NONE',  ( 0.000000000000000000, 1.399999999999999911, 0.000000000000000000 ) ) ;
#60 = CYLINDRICAL_SURFACE ( 'NONE', #123, 2.995000000000000107 ) ;
#61 = FACE_OUTER_BOUND ( 'NONE', #35, .T. ) ;
#62 = CARTESIAN_POINT ( 'NONE',  ( 3.606584823488949798E-16, 1.399999999999999911, 2.944999999999996287 ) ) ;
#63 = VECTOR ( 'NONE', #43, 1000.000000000000000 ) ;
#64 = AXIS2_PLACEMENT_3D ( 'NONE', #56, #141, #39 ) ;
#65 = ORIENTED_EDGE ( 'NONE', *, *, #150, .T. ) ;
#66 = VERTEX_POINT ( 'NONE', #96 ) ;
#67 = DIRECTION ( 'NONE',  ( 1.000000000000000000, 0.000000000000000000, 0.000000000000000000 ) ) ;
#68 = DIRECTION ( 'NONE',  ( -0.000000000000000000, 1.000000000000000000, -0.000000000000000000 ) ) ;
#69 = DIRECTION ( 'NONE',  ( 0.000000000000000000, 0.000000000000000000, 1.000000000000000000 ) ) ;
#70 = EDGE_CURVE ( 'NONE', #213, #142, #79, .T. ) ;
#71 = ORIENTED_EDGE ( 'NONE', *, *, #49, .F. ) ;
#72 = APPLICATION_PROTOCOL_DEFINITION ( 'draft international standard', 'automotive_design', 1998, #218 ) ;
#73 = DIRECTION ( 'NONE',  ( 0.000000000000000000, 1.000000000000000000, 0.000000000000000000 ) ) ;
#74 = ORIENTED_EDGE ( 'NONE', *, *, #151, .F. ) ;
#75 = FACE_OUTER_BOUND ( 'NONE', #114, .T. ) ;
#76 = PRESENTATION_STYLE_ASSIGNMENT (( #94 ) ) ;
#77 =( LENGTH_UNIT ( ) NAMED_UNIT ( * ) SI_UNIT ( .MILLI., .METRE. ) );
#78 = SURFACE_SIDE_STYLE ('',( #164 ) ) ;
#79 = LINE ( 'NONE', #27, #189 ) ;
#80 = LINE ( 'NONE', #109, #83 ) ;
#81 = CIRCLE ( 'NONE', #153, 2.995000000000000107 ) ;
#82 = CARTESIAN_POINT ( 'NONE',  ( 0.000000000000000000, 0.000000000000000000, 0.000000000000000000 ) ) ;
#83 = VECTOR ( 'NONE', #107, 1000.000000000000000 ) ;
#84 = ORIENTED_EDGE ( 'NONE', *, *, #30, .F. ) ;
#85 = ORIENTED_EDGE ( 'NONE', *, *, #168, .F. ) ;
#86 = CLOSED_SHELL ( 'NONE', ( #179, #95, #55, #155, #188, #186, #184, #3 ) ) ;
#87 = DIRECTION ( 'NONE',  ( 0.000000000000000000, 0.000000000000000000, 1.000000000000000000 ) ) ;
#88 = ORIENTED_EDGE ( 'NONE', *, *, #150, .F. ) ;
#89 = APPLICATION_CONTEXT ( 'automotive_design' ) ;
#90 = DIRECTION ( 'NONE',  ( 0.000000000000000000, 0.000000000000000000, 1.000000000000000000 ) ) ;
#91 = ORIENTED_EDGE ( 'NONE', *, *, #70, .T. ) ;
#92 = PRODUCT_DEFINITION_CONTEXT ( 'detailed design', #218, 'design' ) ;
#93 = DIRECTION ( 'NONE',  ( 0.000000000000000000, 0.000000000000000000, 1.000000000000000000 ) ) ;
#94 = SURFACE_STYLE_USAGE ( .BOTH. , #78 ) ;
#95 = ADVANCED_FACE ( 'NONE', ( #61 ), #46, .T. ) ;
#96 = CARTESIAN_POINT ( 'NONE',  ( 3.667817163446323485E-16, 1.349999999999995870, 2.995000000000000107 ) ) ;
#97 = CARTESIAN_POINT ( 'NONE',  ( 0.000000000000000000, 1.349999999999995870, 0.000000000000000000 ) ) ;
#98 = PRODUCT_DEFINITION ( 'UNKNOWN', '', #47, #92 ) ;
#99 = CIRCLE ( 'NONE', #166, 2.945000000000000284 ) ;
#100 = DIRECTION ( 'NONE',  ( 0.000000000000000000, 0.000000000000000000, 1.000000000000000000 ) ) ;
#101 = EDGE_LOOP ( 'NONE', ( #211, #16, #159, #31 ) ) ;
#102 = ORIENTED_EDGE ( 'NONE', *, *, #70, .F. ) ;
#103 = DIRECTION ( 'NONE',  ( -0.000000000000000000, 1.000000000000000000, -0.000000000000000000 ) ) ;
#104 = DIRECTION ( 'NONE',  ( 0.000000000000000000, -0.000000000000000000, 1.000000000000000000 ) ) ;
#105 = CARTESIAN_POINT ( 'NONE',  ( 3.667817163446323485E-16, 0.04999999999999969746, -2.995000000000000107 ) ) ;
#106 = EDGE_CURVE ( 'NONE', #40, #48, #182, .T. ) ;
#107 = DIRECTION ( 'NONE',  ( -0.000000000000000000, -1.000000000000000000, -0.000000000000000000 ) ) ;
#108 = AXIS2_PLACEMENT_3D ( 'NONE', #158, #19, #21 ) ;
#109 = CARTESIAN_POINT ( 'NONE',  ( 0.000000000000000000, 1.399999999999999911, -2.995000000000000107 ) ) ;
#110 = CARTESIAN_POINT ( 'NONE',  ( 0.000000000000000000, 1.399999999999999911, 0.000000000000000000 ) ) ;
#111 = AXIS2_PLACEMENT_3D ( 'NONE', #97, #165, #100 ) ;
#112 = CIRCLE ( 'NONE', #215, 2.944999999999996287 ) ;
#113 = AXIS2_PLACEMENT_3D ( 'NONE', #217, #33, #67 ) ;
#114 = EDGE_LOOP ( 'NONE', ( #71, #74, #154, #85 ) ) ;
#115 = CONICAL_SURFACE ( 'NONE', #170, 2.995000000000000107, 0.7853981633974526089 ) ;
#116 = DIRECTION ( 'NONE',  ( 0.000000000000000000, 0.000000000000000000, 1.000000000000000000 ) ) ;
#117 = EDGE_CURVE ( 'NONE', #213, #192, #197, .T. ) ;
#118 = ORIENTED_EDGE ( 'NONE', *, *, #117, .T. ) ;
#119 = CARTESIAN_POINT ( 'NONE',  ( 0.000000000000000000, 1.399999999999999911, 0.000000000000000000 ) ) ;
#120 = CARTESIAN_POINT ( 'NONE',  ( 0.000000000000000000, 1.399999999999999911, -2.944999999999996287 ) ) ;
#121 = DIRECTION ( 'NONE',  ( 0.000000000000000000, 0.000000000000000000, -1.000000000000000000 ) ) ;
#122 = ORIENTED_EDGE ( 'NONE', *, *, #220, .F. ) ;
#123 = AXIS2_PLACEMENT_3D ( 'NONE', #183, #149, #201 ) ;
#124 = AXIS2_PLACEMENT_3D ( 'NONE', #160, #34, #121 ) ;
#125 = DIRECTION ( 'NONE',  ( 0.000000000000000000, 1.000000000000000000, 0.000000000000000000 ) ) ;
#126 = FACE_OUTER_BOUND ( 'NONE', #52, .T. ) ;
#127 = CARTESIAN_POINT ( 'NONE',  ( 0.000000000000000000, 0.000000000000000000, 2.945000000000000284 ) ) ;
#128 = DIRECTION ( 'NONE',  ( 0.000000000000000000, 0.000000000000000000, -1.000000000000000000 ) ) ;
#129 = LINE ( 'NONE', #202, #63 ) ;
#130 = VECTOR ( 'NONE', #54, 1000.000000000000000 ) ;
#131 = EDGE_CURVE ( 'NONE', #66, #142, #129, .T. ) ;
#132 = CARTESIAN_POINT ( 'NONE',  ( 0.000000000000000000, 0.000000000000000000, 0.000000000000000000 ) ) ;
#133 =( LENGTH_UNIT ( ) NAMED_UNIT ( * ) SI_UNIT ( .MILLI., .METRE. ) );
#134 = VECTOR ( 'NONE', #42, 1000.000000000000000 ) ;
#135 = AXIS2_PLACEMENT_3D ( 'NONE', #119, #73, #104 ) ;
#136 = ORIENTED_EDGE ( 'NONE', *, *, #161, .T. ) ;
#137 = SHAPE_DEFINITION_REPRESENTATION ( #205, #51 ) ;
#138 = CIRCLE ( 'NONE', #169, 2.995000000000000107 ) ;
#139 = LINE ( 'NONE', #105, #130 ) ;
#140 = ORIENTED_EDGE ( 'NONE', *, *, #161, .F. ) ;
#141 = DIRECTION ( 'NONE',  ( 0.000000000000000000, 1.000000000000000000, 0.000000000000000000 ) ) ;
#142 = VERTEX_POINT ( 'NONE', #180 ) ;
#143 = EDGE_CURVE ( 'NONE', #192, #213, #99, .T. ) ;
#144 = FACE_OUTER_BOUND ( 'NONE', #101, .T. ) ;
#145 = DIRECTION ( 'NONE',  ( 8.659560562354932858E-17, -0.7071067811865474617, 0.7071067811865475727 ) ) ;
#146 = FILL_AREA_STYLE ('',( #193 ) ) ;
#147 = CARTESIAN_POINT ( 'NONE',  ( 0.000000000000000000, 1.349999999999995870, -2.995000000000000107 ) ) ;
#148 =( GEOMETRIC_REPRESENTATION_CONTEXT ( 3 ) GLOBAL_UNCERTAINTY_ASSIGNED_CONTEXT ( ( #41 ) ) GLOBAL_UNIT_ASSIGNED_CONTEXT ( ( #77, #163, #191 ) ) REPRESENTATION_CONTEXT ( 'NONE', 'WORKASPACE' ) );
#149 = DIRECTION ( 'NONE',  ( -0.000000000000000000, -1.000000000000000000, -0.000000000000000000 ) ) ;
#150 = EDGE_CURVE ( 'NONE', #48, #66, #152, .T. ) ;
#151 = EDGE_CURVE ( 'NONE', #40, #174, #57, .T. ) ;
#152 = CIRCLE ( 'NONE', #111, 2.995000000000000107 ) ;
#153 = AXIS2_PLACEMENT_3D ( 'NONE', #156, #210, #200 ) ;
#154 = ORIENTED_EDGE ( 'NONE', *, *, #106, .T. ) ;
#155 = ADVANCED_FACE ( 'NONE', ( #144 ), #208, .T. ) ;
#156 = CARTESIAN_POINT ( 'NONE',  ( 0.000000000000000000, 0.04999999999999969746, 0.000000000000000000 ) ) ;
#157 = ORIENTED_EDGE ( 'NONE', *, *, #106, .F. ) ;
#158 = CARTESIAN_POINT ( 'NONE',  ( 0.000000000000000000, 1.399999999999999911, 0.000000000000000000 ) ) ;
#159 = ORIENTED_EDGE ( 'NONE', *, *, #30, .T. ) ;
#160 = CARTESIAN_POINT ( 'NONE',  ( 0.000000000000000000, 1.399999999999999911, 0.000000000000000000 ) ) ;
#161 = EDGE_CURVE ( 'NONE', #142, #224, #181, .T. ) ;
#162 = CARTESIAN_POINT ( 'NONE',  ( 0.000000000000000000, 1.349999999999995870, 0.000000000000000000 ) ) ;
#163 =( NAMED_UNIT ( * ) PLANE_ANGLE_UNIT ( ) SI_UNIT ( $, .RADIAN. ) );
#164 = SURFACE_STYLE_FILL_AREA ( #146 ) ;
#165 = DIRECTION ( 'NONE',  ( 0.000000000000000000, -1.000000000000000000, 0.000000000000000000 ) ) ;
#166 = AXIS2_PLACEMENT_3D ( 'NONE', #82, #44, #26 ) ;
#167 = DIRECTION ( 'NONE',  ( 0.000000000000000000, -1.000000000000000000, 0.000000000000000000 ) ) ;
#168 = EDGE_CURVE ( 'NONE', #66, #48, #138, .T. ) ;
#169 = AXIS2_PLACEMENT_3D ( 'NONE', #162, #176, #90 ) ;
#170 = AXIS2_PLACEMENT_3D ( 'NONE', #221, #68, #199 ) ;
#171 = ORIENTED_EDGE ( 'NONE', *, *, #151, .T. ) ;
#172 = ORIENTED_EDGE ( 'NONE', *, *, #194, .F. ) ;
#173 = CARTESIAN_POINT ( 'NONE',  ( 3.637200993467636148E-16, 1.399999999999999911, 2.944999999999996287 ) ) ;
#174 = VERTEX_POINT ( 'NONE', #173 ) ;
#175 = COLOUR_RGB ( '',0.9686274509803921573, 0.8784313725490195957, 0.5999999999999999778 ) ;
#176 = DIRECTION ( 'NONE',  ( 0.000000000000000000, -1.000000000000000000, 0.000000000000000000 ) ) ;
#177 = CARTESIAN_POINT ( 'NONE',  ( 3.637200993467639107E-16, 0.000000000000000000, -2.945000000000000284 ) ) ;
#178 = EDGE_LOOP ( 'NONE', ( #65, #1, #136, #84 ) ) ;
#179 = ADVANCED_FACE ( 'NONE', ( #212 ), #223, .T. ) ;
#180 = CARTESIAN_POINT ( 'NONE',  ( 3.667817163446323485E-16, 0.04999999999999969746, 2.995000000000000107 ) ) ;
#181 = CIRCLE ( 'NONE', #11, 2.995000000000000107 ) ;
#182 = LINE ( 'NONE', #9, #134 ) ;
#183 = CARTESIAN_POINT ( 'NONE',  ( 0.000000000000000000, 1.399999999999999911, 0.000000000000000000 ) ) ;
#184 = ADVANCED_FACE ( 'NONE', ( #75 ), #219, .T. ) ;
#185 = PRODUCT ( '2036-3-57-15-00-00-03-0', '2036-3-57-15-00-00-03-0', '', ( #187 ) ) ;
#186 = ADVANCED_FACE ( 'NONE', ( #36 ), #198, .F. ) ;
#187 = PRODUCT_CONTEXT ( 'NONE', #89, 'mechanical' ) ;
#188 = ADVANCED_FACE ( 'NONE', ( #5 ), #225, .T. ) ;
#189 = VECTOR ( 'NONE', #24, 1000.000000000000000 ) ;
#190 = ORIENTED_EDGE ( 'NONE', *, *, #143, .T. ) ;
#191 =( NAMED_UNIT ( * ) SI_UNIT ( $, .STERADIAN. ) SOLID_ANGLE_UNIT ( ) );
#192 = VERTEX_POINT ( 'NONE', #177 ) ;
#193 = FILL_AREA_STYLE_COLOUR ( '', #175 ) ;
#194 = EDGE_CURVE ( 'NONE', #174, #40, #112, .T. ) ;
#195 = DIRECTION ( 'NONE',  ( -0.000000000000000000, 1.000000000000000000, -0.000000000000000000 ) ) ;
#196 = ORIENTED_EDGE ( 'NONE', *, *, #12, .T. ) ;
#197 = CIRCLE ( 'NONE', #37, 2.945000000000000284 ) ;
#198 = PLANE ( 'NONE',  #64 ) ;
#199 = DIRECTION ( 'NONE',  ( 0.000000000000000000, 0.000000000000000000, 1.000000000000000000 ) ) ;
#200 = DIRECTION ( 'NONE',  ( 0.000000000000000000, 0.000000000000000000, 1.000000000000000000 ) ) ;
#201 = DIRECTION ( 'NONE',  ( 0.000000000000000000, 0.000000000000000000, -1.000000000000000000 ) ) ;
#202 = CARTESIAN_POINT ( 'NONE',  ( 3.667817163446323485E-16, 1.399999999999999911, 2.995000000000000107 ) ) ;
#203 = DIRECTION ( 'NONE',  ( -0.000000000000000000, -1.000000000000000000, -0.000000000000000000 ) ) ;
#204 =( NAMED_UNIT ( * ) SI_UNIT ( $, .STERADIAN. ) SOLID_ANGLE_UNIT ( ) );
#205 = PRODUCT_DEFINITION_SHAPE ( 'NONE', 'NONE',  #98 ) ;
#206 = ORIENTED_EDGE ( 'NONE', *, *, #12, .F. ) ;
#207 = EDGE_LOOP ( 'NONE', ( #14, #196, #140, #102 ) ) ;
#208 = CYLINDRICAL_SURFACE ( 'NONE', #108, 2.995000000000000107 ) ;
#209 = EDGE_LOOP ( 'NONE', ( #171, #58 ) ) ;
#210 = DIRECTION ( 'NONE',  ( -0.000000000000000000, 1.000000000000000000, -0.000000000000000000 ) ) ;
#211 = ORIENTED_EDGE ( 'NONE', *, *, #131, .F. ) ;
#212 = FACE_OUTER_BOUND ( 'NONE', #207, .T. ) ;
#213 = VERTEX_POINT ( 'NONE', #127 ) ;
#214 = UNCERTAINTY_MEASURE_WITH_UNIT (LENGTH_MEASURE( 1.000000000000000082E-05 ), #133, 'distance_accuracy_value', 'NONE');
#215 = AXIS2_PLACEMENT_3D ( 'NONE', #2, #23, #93 ) ;
#216 =( NAMED_UNIT ( * ) PLANE_ANGLE_UNIT ( ) SI_UNIT ( $, .RADIAN. ) );
#217 = CARTESIAN_POINT ( 'NONE',  ( 0.000000000000000000, 0.000000000000000000, 0.000000000000000000 ) ) ;
#218 = APPLICATION_CONTEXT ( 'automotive_design' ) ;
#219 = CONICAL_SURFACE ( 'NONE', #124, 2.944999999999996287, 0.7853981633974482790 ) ;
#220 = EDGE_CURVE ( 'NONE', #224, #142, #81, .T. ) ;
#221 = CARTESIAN_POINT ( 'NONE',  ( 0.000000000000000000, 0.04999999999999969746, 0.000000000000000000 ) ) ;
#222 = CARTESIAN_POINT ( 'NONE',  ( 0.000000000000000000, 0.04999999999999969746, -2.995000000000000107 ) ) ;
#223 = CONICAL_SURFACE ( 'NONE', #8, 2.995000000000000107, 0.7853981633974526089 ) ;
#224 = VERTEX_POINT ( 'NONE', #222 ) ;
#225 = PLANE ( 'NONE',  #135 ) ;
ENDSEC;
END-ISO-10303-21;
