ISO-10303-21;
HEADER;
FILE_DESCRIPTION(('STEP AP242'),'1');
FILE_NAME('s1741-46r.stp','2023-11-08T21:22:08',('TraceParts'),('TraceParts S.A.'),'Spatial InterOp 3D',' ',' ');
FILE_SCHEMA(('AP242_MANAGED_MODEL_BASED_3D_ENGINEERING_MIM_LF  {1 0 10303 442 1 1 4}'));
ENDSEC;
DATA;
#1=MECHANICAL_DESIGN_GEOMETRIC_PRESENTATION_REPRESENTATION(' ',(#10),#6);
#2=PRODUCT_DEFINITION_CONTEXT('',#11,'design');
#3=APPLICATION_PROTOCOL_DEFINITION('INTERNATIONAL STANDARD','ap242_managed_model_based_3d_engineering',2014,#11);
#4=PRODUCT_CATEGORY_RELATIONSHIP('NONE','NONE',#12,#13);
#5=SHAPE_DEFINITION_REPRESENTATION(#14,#15);
#6= (GEOMETRIC_REPRESENTATION_CONTEXT(3)GLOBAL_UNCERTAINTY_ASSIGNED_CONTEXT((#18))GLOBAL_UNIT_ASSIGNED_CONTEXT((#20,#21,#22))REPRESENTATION_CONTEXT('NONE','WORKSPACE'));
#10=STYLED_ITEM('',(#24),#25);
#11=APPLICATION_CONTEXT('managed model based 3d engineering');
#12=PRODUCT_CATEGORY('part','NONE');
#13=PRODUCT_RELATED_PRODUCT_CATEGORY('detail',' ',(#26));
#14=PRODUCT_DEFINITION_SHAPE('NONE','NONE',#27);
#15=ADVANCED_BREP_SHAPE_REPRESENTATION('s1741-46r',(#25,#28),#6);
#18=UNCERTAINTY_MEASURE_WITH_UNIT(LENGTH_MEASURE(1.0E-06),#20,'','');
#20= (CONVERSION_BASED_UNIT('MILLIMETRE',#31)LENGTH_UNIT()NAMED_UNIT(#34));
#21= (NAMED_UNIT(#36)PLANE_ANGLE_UNIT()SI_UNIT($,.RADIAN.));
#22= (NAMED_UNIT(#36)SOLID_ANGLE_UNIT()SI_UNIT($,.STERADIAN.));
#24=PRESENTATION_STYLE_ASSIGNMENT((#42));
#25=MANIFOLD_SOLID_BREP('s1741-46r',#43);
#26=PRODUCT('s1741-46r','','PART--DESC',(#44));
#27=PRODUCT_DEFINITION('','NONE',#45,#2);
#28=AXIS2_PLACEMENT_3D('',#46,#47,#48);
#31=LENGTH_MEASURE_WITH_UNIT(LENGTH_MEASURE(1.0),#49);
#34=DIMENSIONAL_EXPONENTS(1.0,0.0,0.0,0.0,0.0,0.0,0.0);
#36=DIMENSIONAL_EXPONENTS(0.0,0.0,0.0,0.0,0.0,0.0,0.0);
#42=SURFACE_STYLE_USAGE(.BOTH.,#50);
#43=CLOSED_SHELL('',(#51,#52,#53,#54,#55,#56,#57,#58,#59,#60,#61,#62,#63,#64,#65,#66,#67,#68,#69,#70,#71,#72,#73,#74,#75,#76,#77,#78,#79,#80,#81,#82,#83,#84,#85,#86,#87,#88,#89,#90,#91,#92,#93,#94,#95,#96,#97,#98,#99,#100,#101,#102));
#44=PRODUCT_CONTEXT('',#11,'mechanical');
#45=PRODUCT_DEFINITION_FORMATION_WITH_SPECIFIED_SOURCE(' ','NONE',#26,.NOT_KNOWN.);
#46=CARTESIAN_POINT('',(0.0,0.0,0.0));
#47=DIRECTION('',(0.0,0.0,1.0));
#48=DIRECTION('',(1.0,0.0,0.0));
#49= (NAMED_UNIT(#34)LENGTH_UNIT()SI_UNIT(.MILLI.,.METRE.));
#50=SURFACE_SIDE_STYLE('',(#104));
#51=ADVANCED_FACE('',(#105),#106,.F.);
#52=ADVANCED_FACE('',(#107),#108,.T.);
#53=ADVANCED_FACE('',(#109),#110,.F.);
#54=ADVANCED_FACE('',(#111),#112,.F.);
#55=ADVANCED_FACE('',(#113),#114,.F.);
#56=ADVANCED_FACE('',(#115),#116,.F.);
#57=ADVANCED_FACE('',(#117),#118,.T.);
#58=ADVANCED_FACE('',(#119),#120,.T.);
#59=ADVANCED_FACE('',(#121),#122,.F.);
#60=ADVANCED_FACE('',(#123,#124),#125,.T.);
#61=ADVANCED_FACE('',(#126),#127,.F.);
#62=ADVANCED_FACE('',(#128,#129),#130,.T.);
#63=ADVANCED_FACE('',(#131),#132,.F.);
#64=ADVANCED_FACE('',(#133),#134,.F.);
#65=ADVANCED_FACE('',(#135),#136,.T.);
#66=ADVANCED_FACE('',(#137),#138,.T.);
#67=ADVANCED_FACE('',(#139),#140,.F.);
#68=ADVANCED_FACE('',(#141),#142,.T.);
#69=ADVANCED_FACE('',(#143),#144,.T.);
#70=ADVANCED_FACE('',(#145),#146,.T.);
#71=ADVANCED_FACE('',(#147),#148,.F.);
#72=ADVANCED_FACE('',(#149),#150,.F.);
#73=ADVANCED_FACE('',(#151),#152,.F.);
#74=ADVANCED_FACE('',(#153),#154,.F.);
#75=ADVANCED_FACE('',(#155),#156,.F.);
#76=ADVANCED_FACE('',(#157),#158,.T.);
#77=ADVANCED_FACE('',(#159),#160,.F.);
#78=ADVANCED_FACE('',(#161),#162,.T.);
#79=ADVANCED_FACE('',(#163),#164,.F.);
#80=ADVANCED_FACE('',(#165),#166,.T.);
#81=ADVANCED_FACE('',(#167),#168,.F.);
#82=ADVANCED_FACE('',(#169),#170,.T.);
#83=ADVANCED_FACE('',(#171),#172,.T.);
#84=ADVANCED_FACE('',(#173),#174,.T.);
#85=ADVANCED_FACE('',(#175),#176,.T.);
#86=ADVANCED_FACE('',(#177),#178,.T.);
#87=ADVANCED_FACE('',(#179),#180,.T.);
#88=ADVANCED_FACE('',(#181),#182,.T.);
#89=ADVANCED_FACE('',(#183),#184,.T.);
#90=ADVANCED_FACE('',(#185),#186,.T.);
#91=ADVANCED_FACE('',(#187),#188,.T.);
#92=ADVANCED_FACE('',(#189),#190,.T.);
#93=ADVANCED_FACE('',(#191),#192,.F.);
#94=ADVANCED_FACE('',(#193),#194,.T.);
#95=ADVANCED_FACE('',(#195),#196,.F.);
#96=ADVANCED_FACE('',(#197),#198,.T.);
#97=ADVANCED_FACE('',(#199),#200,.T.);
#98=ADVANCED_FACE('',(#201),#202,.F.);
#99=ADVANCED_FACE('',(#203),#204,.T.);
#100=ADVANCED_FACE('',(#205),#206,.T.);
#101=ADVANCED_FACE('',(#207),#208,.T.);
#102=ADVANCED_FACE('',(#209),#210,.T.);
#104=SURFACE_STYLE_FILL_AREA(#211);
#105=FACE_OUTER_BOUND('',#212,.T.);
#106=CYLINDRICAL_SURFACE('',#213,0.5);
#107=FACE_OUTER_BOUND('',#214,.T.);
#108=CYLINDRICAL_SURFACE('',#215,0.4);
#109=FACE_OUTER_BOUND('',#216,.T.);
#110=CYLINDRICAL_SURFACE('',#217,0.25);
#111=FACE_OUTER_BOUND('',#218,.T.);
#112=CYLINDRICAL_SURFACE('',#219,0.3);
#113=FACE_OUTER_BOUND('',#220,.T.);
#114=CYLINDRICAL_SURFACE('',#221,0.3);
#115=FACE_OUTER_BOUND('',#222,.T.);
#116=CYLINDRICAL_SURFACE('',#223,0.5);
#117=FACE_OUTER_BOUND('',#224,.T.);
#118=CYLINDRICAL_SURFACE('',#225,0.45);
#119=FACE_OUTER_BOUND('',#226,.T.);
#120=CYLINDRICAL_SURFACE('',#227,0.45);
#121=FACE_OUTER_BOUND('',#228,.T.);
#122=CYLINDRICAL_SURFACE('',#229,0.6);
#123=FACE_OUTER_BOUND('',#230,.T.);
#124=FACE_BOUND('',#231,.T.);
#125=PLANE('',#232);
#126=FACE_OUTER_BOUND('',#233,.T.);
#127=CYLINDRICAL_SURFACE('',#234,0.6);
#128=FACE_OUTER_BOUND('',#235,.T.);
#129=FACE_BOUND('',#236,.T.);
#130=PLANE('',#237);
#131=FACE_OUTER_BOUND('',#238,.T.);
#132=PLANE('',#239);
#133=FACE_OUTER_BOUND('',#240,.T.);
#134=CYLINDRICAL_SURFACE('',#241,0.2);
#135=FACE_OUTER_BOUND('',#242,.T.);
#136=PLANE('',#243);
#137=FACE_OUTER_BOUND('',#244,.T.);
#138=PLANE('',#245);
#139=FACE_OUTER_BOUND('',#246,.T.);
#140=CYLINDRICAL_SURFACE('',#247,0.2);
#141=FACE_OUTER_BOUND('',#248,.T.);
#142=PLANE('',#249);
#143=FACE_OUTER_BOUND('',#250,.T.);
#144=CYLINDRICAL_SURFACE('',#251,0.45);
#145=FACE_OUTER_BOUND('',#252,.T.);
#146=CYLINDRICAL_SURFACE('',#253,0.45);
#147=FACE_OUTER_BOUND('',#254,.T.);
#148=PLANE('',#255);
#149=FACE_OUTER_BOUND('',#256,.T.);
#150=CYLINDRICAL_SURFACE('',#257,0.5);
#151=FACE_OUTER_BOUND('',#258,.T.);
#152=PLANE('',#259);
#153=FACE_OUTER_BOUND('',#260,.T.);
#154=CYLINDRICAL_SURFACE('',#261,0.3);
#155=FACE_OUTER_BOUND('',#262,.T.);
#156=CYLINDRICAL_SURFACE('',#263,0.3);
#157=FACE_OUTER_BOUND('',#264,.T.);
#158=PLANE('',#265);
#159=FACE_OUTER_BOUND('',#266,.T.);
#160=CYLINDRICAL_SURFACE('',#267,0.25);
#161=FACE_OUTER_BOUND('',#268,.T.);
#162=PLANE('',#269);
#163=FACE_OUTER_BOUND('',#270,.T.);
#164=CYLINDRICAL_SURFACE('',#271,0.25);
#165=FACE_OUTER_BOUND('',#272,.T.);
#166=PLANE('',#273);
#167=FACE_OUTER_BOUND('',#274,.T.);
#168=CYLINDRICAL_SURFACE('',#275,0.25);
#169=FACE_OUTER_BOUND('',#276,.T.);
#170=PLANE('',#277);
#171=FACE_OUTER_BOUND('',#278,.T.);
#172=CYLINDRICAL_SURFACE('',#279,0.3);
#173=FACE_OUTER_BOUND('',#280,.T.);
#174=PLANE('',#281);
#175=FACE_OUTER_BOUND('',#282,.T.);
#176=PLANE('',#283);
#177=FACE_OUTER_BOUND('',#284,.T.);
#178=CYLINDRICAL_SURFACE('',#285,0.3);
#179=FACE_OUTER_BOUND('',#286,.T.);
#180=CYLINDRICAL_SURFACE('',#287,0.4);
#181=FACE_OUTER_BOUND('',#288,.T.);
#182=PLANE('',#289);
#183=FACE_OUTER_BOUND('',#290,.T.);
#184=CYLINDRICAL_SURFACE('',#291,0.4);
#185=FACE_OUTER_BOUND('',#292,.T.);
#186=PLANE('',#293);
#187=FACE_OUTER_BOUND('',#294,.T.);
#188=CYLINDRICAL_SURFACE('',#295,0.4);
#189=FACE_OUTER_BOUND('',#296,.T.);
#190=PLANE('',#297);
#191=FACE_OUTER_BOUND('',#298,.T.);
#192=CYLINDRICAL_SURFACE('',#299,0.5);
#193=FACE_OUTER_BOUND('',#300,.T.);
#194=PLANE('',#301);
#195=FACE_OUTER_BOUND('',#302,.T.);
#196=CYLINDRICAL_SURFACE('',#303,0.2);
#197=FACE_OUTER_BOUND('',#304,.T.);
#198=PLANE('',#305);
#199=FACE_OUTER_BOUND('',#306,.T.);
#200=PLANE('',#307);
#201=FACE_OUTER_BOUND('',#308,.T.);
#202=CYLINDRICAL_SURFACE('',#309,0.2);
#203=FACE_OUTER_BOUND('',#310,.T.);
#204=PLANE('',#311);
#205=FACE_OUTER_BOUND('',#312,.T.);
#206=CYLINDRICAL_SURFACE('',#313,0.5);
#207=FACE_OUTER_BOUND('',#314,.T.);
#208=PLANE('',#315);
#209=FACE_OUTER_BOUND('',#316,.T.);
#210=CYLINDRICAL_SURFACE('',#317,0.5);
#211=FILL_AREA_STYLE('',(#318));
#212=EDGE_LOOP('',(#319,#320,#321,#322));
#213=AXIS2_PLACEMENT_3D('',#323,#324,#325);
#214=EDGE_LOOP('',(#326,#327,#328,#329));
#215=AXIS2_PLACEMENT_3D('',#330,#331,#332);
#216=EDGE_LOOP('',(#333,#334,#335,#336));
#217=AXIS2_PLACEMENT_3D('',#337,#338,#339);
#218=EDGE_LOOP('',(#340,#341,#342,#343));
#219=AXIS2_PLACEMENT_3D('',#344,#345,#346);
#220=EDGE_LOOP('',(#347,#348,#349,#350));
#221=AXIS2_PLACEMENT_3D('',#351,#352,#353);
#222=EDGE_LOOP('',(#354,#355,#356,#357));
#223=AXIS2_PLACEMENT_3D('',#358,#359,#360);
#224=EDGE_LOOP('',(#361,#362,#363,#364));
#225=AXIS2_PLACEMENT_3D('',#365,#366,#367);
#226=EDGE_LOOP('',(#368,#369,#370,#371));
#227=AXIS2_PLACEMENT_3D('',#372,#373,#374);
#228=EDGE_LOOP('',(#375,#376,#377,#378));
#229=AXIS2_PLACEMENT_3D('',#379,#380,#381);
#230=EDGE_LOOP('',(#382,#383,#384,#385,#386,#387,#388,#389,#390,#391,#392,#393,#394,#395,#396,#397,#398,#399,#400));
#231=EDGE_LOOP('',(#401,#402));
#232=AXIS2_PLACEMENT_3D('',#403,#404,#405);
#233=EDGE_LOOP('',(#406,#407,#408,#409));
#234=AXIS2_PLACEMENT_3D('',#410,#411,#412);
#235=EDGE_LOOP('',(#413,#414,#415,#416,#417,#418,#419,#420,#421,#422,#423,#424,#425,#426,#427,#428,#429,#430,#431));
#236=EDGE_LOOP('',(#432,#433));
#237=AXIS2_PLACEMENT_3D('',#434,#435,#436);
#238=EDGE_LOOP('',(#437,#438,#439,#440));
#239=AXIS2_PLACEMENT_3D('',#441,#442,#443);
#240=EDGE_LOOP('',(#444,#445,#446,#447));
#241=AXIS2_PLACEMENT_3D('',#448,#449,#450);
#242=EDGE_LOOP('',(#451,#452,#453,#454));
#243=AXIS2_PLACEMENT_3D('',#455,#456,#457);
#244=EDGE_LOOP('',(#458,#459,#460,#461));
#245=AXIS2_PLACEMENT_3D('',#462,#463,#464);
#246=EDGE_LOOP('',(#465,#466,#467,#468,#469,#470));
#247=AXIS2_PLACEMENT_3D('',#471,#472,#473);
#248=EDGE_LOOP('',(#474,#475,#476,#477,#478,#479,#480,#481,#482,#483,#484,#485,#486,#487,#488,#489,#490,#491,#492,#493,#494,#495));
#249=AXIS2_PLACEMENT_3D('',#496,#497,#498);
#250=EDGE_LOOP('',(#499,#500,#501,#502,#503));
#251=AXIS2_PLACEMENT_3D('',#504,#505,#506);
#252=EDGE_LOOP('',(#507,#508,#509,#510,#511));
#253=AXIS2_PLACEMENT_3D('',#512,#513,#514);
#254=EDGE_LOOP('',(#515,#516,#517,#518,#519,#520,#521,#522,#523,#524));
#255=AXIS2_PLACEMENT_3D('',#525,#526,#527);
#256=EDGE_LOOP('',(#528,#529,#530,#531));
#257=AXIS2_PLACEMENT_3D('',#532,#533,#534);
#258=EDGE_LOOP('',(#535,#536,#537,#538,#539,#540,#541,#542,#543,#544));
#259=AXIS2_PLACEMENT_3D('',#545,#546,#547);
#260=EDGE_LOOP('',(#548,#549,#550,#551,#552));
#261=AXIS2_PLACEMENT_3D('',#553,#554,#555);
#262=EDGE_LOOP('',(#556,#557,#558,#559,#560));
#263=AXIS2_PLACEMENT_3D('',#561,#562,#563);
#264=EDGE_LOOP('',(#564,#565,#566,#567,#568,#569,#570,#571,#572));
#265=AXIS2_PLACEMENT_3D('',#573,#574,#575);
#266=EDGE_LOOP('',(#576,#577,#578,#579));
#267=AXIS2_PLACEMENT_3D('',#580,#581,#582);
#268=EDGE_LOOP('',(#583,#584,#585,#586));
#269=AXIS2_PLACEMENT_3D('',#587,#588,#589);
#270=EDGE_LOOP('',(#590,#591,#592,#593));
#271=AXIS2_PLACEMENT_3D('',#594,#595,#596);
#272=EDGE_LOOP('',(#597,#598,#599,#600));
#273=AXIS2_PLACEMENT_3D('',#601,#602,#603);
#274=EDGE_LOOP('',(#604,#605,#606,#607));
#275=AXIS2_PLACEMENT_3D('',#608,#609,#610);
#276=EDGE_LOOP('',(#611,#612,#613,#614,#615,#616));
#277=AXIS2_PLACEMENT_3D('',#617,#618,#619);
#278=EDGE_LOOP('',(#620,#621,#622,#623));
#279=AXIS2_PLACEMENT_3D('',#624,#625,#626);
#280=EDGE_LOOP('',(#627,#628,#629,#630,#631,#632));
#281=AXIS2_PLACEMENT_3D('',#633,#634,#635);
#282=EDGE_LOOP('',(#636,#637,#638,#639));
#283=AXIS2_PLACEMENT_3D('',#640,#641,#642);
#284=EDGE_LOOP('',(#643,#644,#645,#646));
#285=AXIS2_PLACEMENT_3D('',#647,#648,#649);
#286=EDGE_LOOP('',(#650,#651,#652,#653));
#287=AXIS2_PLACEMENT_3D('',#654,#655,#656);
#288=EDGE_LOOP('',(#657,#658,#659,#660));
#289=AXIS2_PLACEMENT_3D('',#661,#662,#663);
#290=EDGE_LOOP('',(#664,#665,#666,#667));
#291=AXIS2_PLACEMENT_3D('',#668,#669,#670);
#292=EDGE_LOOP('',(#671,#672,#673,#674));
#293=AXIS2_PLACEMENT_3D('',#675,#676,#677);
#294=EDGE_LOOP('',(#678,#679,#680,#681));
#295=AXIS2_PLACEMENT_3D('',#682,#683,#684);
#296=EDGE_LOOP('',(#685,#686,#687,#688,#689,#690,#691,#692,#693));
#297=AXIS2_PLACEMENT_3D('',#694,#695,#696);
#298=EDGE_LOOP('',(#697,#698,#699,#700));
#299=AXIS2_PLACEMENT_3D('',#701,#702,#703);
#300=EDGE_LOOP('',(#704,#705,#706,#707,#708,#709,#710,#711,#712,#713,#714,#715,#716,#717,#718,#719,#720,#721,#722,#723,#724,#725));
#301=AXIS2_PLACEMENT_3D('',#726,#727,#728);
#302=EDGE_LOOP('',(#729,#730,#731,#732,#733,#734));
#303=AXIS2_PLACEMENT_3D('',#735,#736,#737);
#304=EDGE_LOOP('',(#738,#739,#740,#741));
#305=AXIS2_PLACEMENT_3D('',#742,#743,#744);
#306=EDGE_LOOP('',(#745,#746,#747,#748));
#307=AXIS2_PLACEMENT_3D('',#749,#750,#751);
#308=EDGE_LOOP('',(#752,#753,#754,#755));
#309=AXIS2_PLACEMENT_3D('',#756,#757,#758);
#310=EDGE_LOOP('',(#759,#760,#761,#762));
#311=AXIS2_PLACEMENT_3D('',#763,#764,#765);
#312=EDGE_LOOP('',(#766,#767,#768,#769));
#313=AXIS2_PLACEMENT_3D('',#770,#771,#772);
#314=EDGE_LOOP('',(#773,#774,#775,#776));
#315=AXIS2_PLACEMENT_3D('',#777,#778,#779);
#316=EDGE_LOOP('',(#780,#781,#782,#783));
#317=AXIS2_PLACEMENT_3D('',#784,#785,#786);
#318=FILL_AREA_STYLE_COLOUR('',#787);
#319=ORIENTED_EDGE('',*,*,#788,.F.);
#320=ORIENTED_EDGE('',*,*,#789,.T.);
#321=ORIENTED_EDGE('',*,*,#790,.T.);
#322=ORIENTED_EDGE('',*,*,#791,.F.);
#323=CARTESIAN_POINT('',(1.195148185441,1.521592259849,0.0));
#324=DIRECTION('',(-0.544639035015019,-0.838670567945429,0.0));
#325=DIRECTION('',(-0.838670567945429,0.544639035015019,-1.22464679914735E-16));
#326=ORIENTED_EDGE('',*,*,#792,.F.);
#327=ORIENTED_EDGE('',*,*,#793,.T.);
#328=ORIENTED_EDGE('',*,*,#794,.T.);
#329=ORIENTED_EDGE('',*,*,#795,.F.);
#330=CARTESIAN_POINT('',(-1.751846223688,1.905317411502,-1.45));
#331=DIRECTION('',(0.0,-0.0,-1.0));
#332=DIRECTION('',(-0.866025403784369,-0.500000000000121,0.0));
#333=ORIENTED_EDGE('',*,*,#796,.F.);
#334=ORIENTED_EDGE('',*,*,#797,.T.);
#335=ORIENTED_EDGE('',*,*,#798,.F.);
#336=ORIENTED_EDGE('',*,*,#799,.F.);
#337=CARTESIAN_POINT('',(-1.751846223688,1.905317411502,-1.45));
#338=DIRECTION('',(0.0,-0.0,-1.0));
#339=DIRECTION('',(-0.866025403784494,-0.499999999999905,0.0));
#340=ORIENTED_EDGE('',*,*,#800,.F.);
#341=ORIENTED_EDGE('',*,*,#801,.T.);
#342=ORIENTED_EDGE('',*,*,#802,.F.);
#343=ORIENTED_EDGE('',*,*,#803,.T.);
#344=CARTESIAN_POINT('',(2.25,0.3,-1.45));
#345=DIRECTION('',(0.0,0.0,-1.0));
#346=DIRECTION('',(1.0,0.0,0.0));
#347=ORIENTED_EDGE('',*,*,#804,.F.);
#348=ORIENTED_EDGE('',*,*,#805,.T.);
#349=ORIENTED_EDGE('',*,*,#806,.F.);
#350=ORIENTED_EDGE('',*,*,#807,.F.);
#351=CARTESIAN_POINT('',(2.25,0.3,-1.45));
#352=DIRECTION('',(0.0,0.0,-1.0));
#353=DIRECTION('',(1.0,0.0,0.0));
#354=ORIENTED_EDGE('',*,*,#808,.F.);
#355=ORIENTED_EDGE('',*,*,#809,.T.);
#356=ORIENTED_EDGE('',*,*,#810,.T.);
#357=ORIENTED_EDGE('',*,*,#811,.F.);
#358=CARTESIAN_POINT('',(2.09783292838,-0.15,0.0));
#359=DIRECTION('',(0.0,1.0,-0.0));
#360=DIRECTION('',(-1.0,0.0,1.22464679914735E-16));
#361=ORIENTED_EDGE('',*,*,#812,.F.);
#362=ORIENTED_EDGE('',*,*,#813,.T.);
#363=ORIENTED_EDGE('',*,*,#814,.T.);
#364=ORIENTED_EDGE('',*,*,#815,.F.);
#365=CARTESIAN_POINT('',(2.25,0.3,-1.45));
#366=DIRECTION('',(0.0,0.0,-1.0));
#367=DIRECTION('',(1.0,0.0,0.0));
#368=ORIENTED_EDGE('',*,*,#816,.F.);
#369=ORIENTED_EDGE('',*,*,#817,.T.);
#370=ORIENTED_EDGE('',*,*,#818,.T.);
#371=ORIENTED_EDGE('',*,*,#819,.T.);
#372=CARTESIAN_POINT('',(2.25,0.3,-1.45));
#373=DIRECTION('',(0.0,0.0,-1.0));
#374=DIRECTION('',(1.0,0.0,0.0));
#375=ORIENTED_EDGE('',*,*,#820,.F.);
#376=ORIENTED_EDGE('',*,*,#821,.T.);
#377=ORIENTED_EDGE('',*,*,#822,.F.);
#378=ORIENTED_EDGE('',*,*,#823,.F.);
#379=CARTESIAN_POINT('',(0.0,-0.15,0.0));
#380=DIRECTION('',(-0.0,-1.0,0.0));
#381=DIRECTION('',(-1.0,0.0,0.0));
#382=ORIENTED_EDGE('',*,*,#824,.F.);
#383=ORIENTED_EDGE('',*,*,#825,.T.);
#384=ORIENTED_EDGE('',*,*,#826,.T.);
#385=ORIENTED_EDGE('',*,*,#827,.T.);
#386=ORIENTED_EDGE('',*,*,#828,.T.);
#387=ORIENTED_EDGE('',*,*,#809,.F.);
#388=ORIENTED_EDGE('',*,*,#829,.F.);
#389=ORIENTED_EDGE('',*,*,#830,.F.);
#390=ORIENTED_EDGE('',*,*,#831,.T.);
#391=ORIENTED_EDGE('',*,*,#832,.T.);
#392=ORIENTED_EDGE('',*,*,#833,.T.);
#393=ORIENTED_EDGE('',*,*,#834,.F.);
#394=ORIENTED_EDGE('',*,*,#835,.T.);
#395=ORIENTED_EDGE('',*,*,#836,.F.);
#396=ORIENTED_EDGE('',*,*,#837,.T.);
#397=ORIENTED_EDGE('',*,*,#838,.F.);
#398=ORIENTED_EDGE('',*,*,#839,.T.);
#399=ORIENTED_EDGE('',*,*,#840,.T.);
#400=ORIENTED_EDGE('',*,*,#841,.T.);
#401=ORIENTED_EDGE('',*,*,#842,.T.);
#402=ORIENTED_EDGE('',*,*,#823,.T.);
#403=CARTESIAN_POINT('',(-2.7,-0.15,-1.45));
#404=DIRECTION('',(0.0,-1.0,0.0));
#405=DIRECTION('',(0.0,0.0,-1.0));
#406=ORIENTED_EDGE('',*,*,#820,.T.);
#407=ORIENTED_EDGE('',*,*,#842,.F.);
#408=ORIENTED_EDGE('',*,*,#822,.T.);
#409=ORIENTED_EDGE('',*,*,#843,.T.);
#410=CARTESIAN_POINT('',(0.0,-0.15,0.0));
#411=DIRECTION('',(-0.0,-1.0,0.0));
#412=DIRECTION('',(-1.0,0.0,0.0));
#413=ORIENTED_EDGE('',*,*,#844,.T.);
#414=ORIENTED_EDGE('',*,*,#845,.T.);
#415=ORIENTED_EDGE('',*,*,#846,.T.);
#416=ORIENTED_EDGE('',*,*,#847,.T.);
#417=ORIENTED_EDGE('',*,*,#848,.F.);
#418=ORIENTED_EDGE('',*,*,#849,.T.);
#419=ORIENTED_EDGE('',*,*,#850,.T.);
#420=ORIENTED_EDGE('',*,*,#851,.T.);
#421=ORIENTED_EDGE('',*,*,#852,.T.);
#422=ORIENTED_EDGE('',*,*,#853,.F.);
#423=ORIENTED_EDGE('',*,*,#854,.T.);
#424=ORIENTED_EDGE('',*,*,#855,.T.);
#425=ORIENTED_EDGE('',*,*,#811,.T.);
#426=ORIENTED_EDGE('',*,*,#856,.F.);
#427=ORIENTED_EDGE('',*,*,#857,.F.);
#428=ORIENTED_EDGE('',*,*,#858,.T.);
#429=ORIENTED_EDGE('',*,*,#859,.T.);
#430=ORIENTED_EDGE('',*,*,#860,.T.);
#431=ORIENTED_EDGE('',*,*,#861,.T.);
#432=ORIENTED_EDGE('',*,*,#843,.F.);
#433=ORIENTED_EDGE('',*,*,#821,.F.);
#434=CARTESIAN_POINT('',(2.25,0.0,-1.45));
#435=DIRECTION('',(-0.0,1.0,0.0));
#436=DIRECTION('',(1.0,0.0,0.0));
#437=ORIENTED_EDGE('',*,*,#862,.F.);
#438=ORIENTED_EDGE('',*,*,#840,.F.);
#439=ORIENTED_EDGE('',*,*,#863,.T.);
#440=ORIENTED_EDGE('',*,*,#844,.F.);
#441=CARTESIAN_POINT('',(0.0,0.0,-1.45));
#442=DIRECTION('',(0.0,0.0,1.0));
#443=DIRECTION('',(1.0,0.0,0.0));
#444=ORIENTED_EDGE('',*,*,#862,.T.);
#445=ORIENTED_EDGE('',*,*,#861,.F.);
#446=ORIENTED_EDGE('',*,*,#864,.F.);
#447=ORIENTED_EDGE('',*,*,#841,.F.);
#448=CARTESIAN_POINT('',(0.02679491924311,-0.1501367690652,-1.65));
#449=DIRECTION('',(0.0,-1.0,0.0));
#450=DIRECTION('',(0.0,0.0,1.0));
#451=ORIENTED_EDGE('',*,*,#864,.T.);
#452=ORIENTED_EDGE('',*,*,#860,.F.);
#453=ORIENTED_EDGE('',*,*,#865,.T.);
#454=ORIENTED_EDGE('',*,*,#824,.T.);
#455=CARTESIAN_POINT('',(2.2,0.0,-1.55));
#456=DIRECTION('',(0.0,0.0,-1.0));
#457=DIRECTION('',(0.0,-1.0,0.0));
#458=ORIENTED_EDGE('',*,*,#866,.T.);
#459=ORIENTED_EDGE('',*,*,#825,.F.);
#460=ORIENTED_EDGE('',*,*,#865,.F.);
#461=ORIENTED_EDGE('',*,*,#859,.F.);
#462=CARTESIAN_POINT('',(2.2,0.0,-1.45));
#463=DIRECTION('',(1.0,0.0,0.0));
#464=DIRECTION('',(0.0,1.0,0.0));
#465=ORIENTED_EDGE('',*,*,#867,.T.);
#466=ORIENTED_EDGE('',*,*,#868,.F.);
#467=ORIENTED_EDGE('',*,*,#826,.F.);
#468=ORIENTED_EDGE('',*,*,#866,.F.);
#469=ORIENTED_EDGE('',*,*,#858,.F.);
#470=ORIENTED_EDGE('',*,*,#869,.F.);
#471=CARTESIAN_POINT('',(2.4,2.363204512873,-1.45));
#472=DIRECTION('',(0.0,1.0,-0.0));
#473=DIRECTION('',(0.0,0.0,1.0));
#474=ORIENTED_EDGE('',*,*,#867,.F.);
#475=ORIENTED_EDGE('',*,*,#870,.T.);
#476=ORIENTED_EDGE('',*,*,#807,.T.);
#477=ORIENTED_EDGE('',*,*,#871,.F.);
#478=ORIENTED_EDGE('',*,*,#872,.T.);
#479=ORIENTED_EDGE('',*,*,#873,.F.);
#480=ORIENTED_EDGE('',*,*,#874,.T.);
#481=ORIENTED_EDGE('',*,*,#875,.F.);
#482=ORIENTED_EDGE('',*,*,#876,.T.);
#483=ORIENTED_EDGE('',*,*,#799,.T.);
#484=ORIENTED_EDGE('',*,*,#877,.F.);
#485=ORIENTED_EDGE('',*,*,#878,.F.);
#486=ORIENTED_EDGE('',*,*,#879,.F.);
#487=ORIENTED_EDGE('',*,*,#793,.F.);
#488=ORIENTED_EDGE('',*,*,#880,.F.);
#489=ORIENTED_EDGE('',*,*,#881,.F.);
#490=ORIENTED_EDGE('',*,*,#882,.F.);
#491=ORIENTED_EDGE('',*,*,#883,.F.);
#492=ORIENTED_EDGE('',*,*,#884,.F.);
#493=ORIENTED_EDGE('',*,*,#885,.F.);
#494=ORIENTED_EDGE('',*,*,#817,.F.);
#495=ORIENTED_EDGE('',*,*,#886,.F.);
#496=CARTESIAN_POINT('',(0.0,0.0,-1.25));
#497=DIRECTION('',(0.0,0.0,-1.0));
#498=DIRECTION('',(0.0,-1.0,0.0));
#499=ORIENTED_EDGE('',*,*,#816,.T.);
#500=ORIENTED_EDGE('',*,*,#887,.T.);
#501=ORIENTED_EDGE('',*,*,#827,.F.);
#502=ORIENTED_EDGE('',*,*,#868,.T.);
#503=ORIENTED_EDGE('',*,*,#886,.T.);
#504=CARTESIAN_POINT('',(2.25,0.3,-1.45));
#505=DIRECTION('',(0.0,0.0,-1.0));
#506=DIRECTION('',(1.0,0.0,0.0));
#507=ORIENTED_EDGE('',*,*,#812,.T.);
#508=ORIENTED_EDGE('',*,*,#888,.F.);
#509=ORIENTED_EDGE('',*,*,#889,.T.);
#510=ORIENTED_EDGE('',*,*,#831,.F.);
#511=ORIENTED_EDGE('',*,*,#890,.T.);
#512=CARTESIAN_POINT('',(2.25,0.3,-1.45));
#513=DIRECTION('',(0.0,0.0,-1.0));
#514=DIRECTION('',(1.0,0.0,0.0));
#515=ORIENTED_EDGE('',*,*,#819,.F.);
#516=ORIENTED_EDGE('',*,*,#891,.T.);
#517=ORIENTED_EDGE('',*,*,#892,.T.);
#518=ORIENTED_EDGE('',*,*,#893,.F.);
#519=ORIENTED_EDGE('',*,*,#805,.F.);
#520=ORIENTED_EDGE('',*,*,#894,.F.);
#521=ORIENTED_EDGE('',*,*,#856,.T.);
#522=ORIENTED_EDGE('',*,*,#810,.F.);
#523=ORIENTED_EDGE('',*,*,#828,.F.);
#524=ORIENTED_EDGE('',*,*,#887,.F.);
#525=CARTESIAN_POINT('',(2.872489321332,0.4323141898187,-0.5));
#526=DIRECTION('',(0.0,0.0,-1.0));
#527=DIRECTION('',(0.0,-1.0,0.0));
#528=ORIENTED_EDGE('',*,*,#808,.T.);
#529=ORIENTED_EDGE('',*,*,#855,.F.);
#530=ORIENTED_EDGE('',*,*,#895,.F.);
#531=ORIENTED_EDGE('',*,*,#829,.T.);
#532=CARTESIAN_POINT('',(2.09783292838,-0.15,0.0));
#533=DIRECTION('',(0.0,1.0,-0.0));
#534=DIRECTION('',(-1.0,0.0,1.22464679914735E-16));
#535=ORIENTED_EDGE('',*,*,#803,.F.);
#536=ORIENTED_EDGE('',*,*,#896,.T.);
#537=ORIENTED_EDGE('',*,*,#790,.F.);
#538=ORIENTED_EDGE('',*,*,#897,.F.);
#539=ORIENTED_EDGE('',*,*,#813,.F.);
#540=ORIENTED_EDGE('',*,*,#890,.F.);
#541=ORIENTED_EDGE('',*,*,#830,.T.);
#542=ORIENTED_EDGE('',*,*,#895,.T.);
#543=ORIENTED_EDGE('',*,*,#854,.F.);
#544=ORIENTED_EDGE('',*,*,#898,.F.);
#545=CARTESIAN_POINT('',(1.195148185441,1.521592259849,0.5));
#546=DIRECTION('',(0.0,0.0,1.0));
#547=DIRECTION('',(1.0,0.0,0.0));
#548=ORIENTED_EDGE('',*,*,#804,.T.);
#549=ORIENTED_EDGE('',*,*,#870,.F.);
#550=ORIENTED_EDGE('',*,*,#869,.T.);
#551=ORIENTED_EDGE('',*,*,#857,.T.);
#552=ORIENTED_EDGE('',*,*,#894,.T.);
#553=CARTESIAN_POINT('',(2.25,0.3,-1.45));
#554=DIRECTION('',(0.0,0.0,-1.0));
#555=DIRECTION('',(1.0,0.0,0.0));
#556=ORIENTED_EDGE('',*,*,#800,.T.);
#557=ORIENTED_EDGE('',*,*,#898,.T.);
#558=ORIENTED_EDGE('',*,*,#853,.T.);
#559=ORIENTED_EDGE('',*,*,#899,.T.);
#560=ORIENTED_EDGE('',*,*,#900,.T.);
#561=CARTESIAN_POINT('',(2.25,0.3,-1.45));
#562=DIRECTION('',(0.0,0.0,-1.0));
#563=DIRECTION('',(1.0,0.0,0.0));
#564=ORIENTED_EDGE('',*,*,#871,.T.);
#565=ORIENTED_EDGE('',*,*,#806,.T.);
#566=ORIENTED_EDGE('',*,*,#893,.T.);
#567=ORIENTED_EDGE('',*,*,#901,.T.);
#568=ORIENTED_EDGE('',*,*,#791,.T.);
#569=ORIENTED_EDGE('',*,*,#896,.F.);
#570=ORIENTED_EDGE('',*,*,#802,.T.);
#571=ORIENTED_EDGE('',*,*,#902,.F.);
#572=ORIENTED_EDGE('',*,*,#903,.F.);
#573=CARTESIAN_POINT('',(-0.06068646493449,2.158286323678,-1.45));
#574=DIRECTION('',(-0.544639035015019,-0.838670567945429,0.0));
#575=DIRECTION('',(-0.838670567945429,0.544639035015019,0.0));
#576=ORIENTED_EDGE('',*,*,#872,.F.);
#577=ORIENTED_EDGE('',*,*,#903,.T.);
#578=ORIENTED_EDGE('',*,*,#904,.T.);
#579=ORIENTED_EDGE('',*,*,#905,.F.);
#580=CARTESIAN_POINT('',(-0.1968462236882,1.948618681692,-1.45));
#581=DIRECTION('',(0.0,0.0,-1.0));
#582=DIRECTION('',(1.0,0.0,0.0));
#583=ORIENTED_EDGE('',*,*,#873,.T.);
#584=ORIENTED_EDGE('',*,*,#905,.T.);
#585=ORIENTED_EDGE('',*,*,#906,.F.);
#586=ORIENTED_EDGE('',*,*,#907,.F.);
#587=CARTESIAN_POINT('',(-1.726846223688,2.198618681692,-1.45));
#588=DIRECTION('',(0.0,-1.0,0.0));
#589=DIRECTION('',(0.0,0.0,-1.0));
#590=ORIENTED_EDGE('',*,*,#874,.F.);
#591=ORIENTED_EDGE('',*,*,#907,.T.);
#592=ORIENTED_EDGE('',*,*,#908,.T.);
#593=ORIENTED_EDGE('',*,*,#909,.F.);
#594=CARTESIAN_POINT('',(-1.726846223688,1.948618681692,-1.45));
#595=DIRECTION('',(0.0,0.0,-1.0));
#596=DIRECTION('',(1.0,0.0,0.0));
#597=ORIENTED_EDGE('',*,*,#875,.T.);
#598=ORIENTED_EDGE('',*,*,#909,.T.);
#599=ORIENTED_EDGE('',*,*,#910,.F.);
#600=ORIENTED_EDGE('',*,*,#911,.F.);
#601=CARTESIAN_POINT('',(-1.968352574634,2.030317411502,-1.45));
#602=DIRECTION('',(0.866025403784429,-0.500000000000017,0.0));
#603=DIRECTION('',(0.0,0.0,-1.0));
#604=ORIENTED_EDGE('',*,*,#796,.T.);
#605=ORIENTED_EDGE('',*,*,#876,.F.);
#606=ORIENTED_EDGE('',*,*,#911,.T.);
#607=ORIENTED_EDGE('',*,*,#912,.T.);
#608=CARTESIAN_POINT('',(-1.751846223688,1.905317411502,-1.45));
#609=DIRECTION('',(0.0,-0.0,-1.0));
#610=DIRECTION('',(-0.866025403784494,-0.499999999999905,0.0));
#611=ORIENTED_EDGE('',*,*,#913,.T.);
#612=ORIENTED_EDGE('',*,*,#914,.F.);
#613=ORIENTED_EDGE('',*,*,#915,.T.);
#614=ORIENTED_EDGE('',*,*,#877,.T.);
#615=ORIENTED_EDGE('',*,*,#798,.T.);
#616=ORIENTED_EDGE('',*,*,#916,.F.);
#617=CARTESIAN_POINT('',(-1.151846223688,1.655317411502,-1.45));
#618=DIRECTION('',(-0.0,1.0,0.0));
#619=DIRECTION('',(1.0,0.0,0.0));
#620=ORIENTED_EDGE('',*,*,#917,.F.);
#621=ORIENTED_EDGE('',*,*,#918,.F.);
#622=ORIENTED_EDGE('',*,*,#913,.F.);
#623=ORIENTED_EDGE('',*,*,#919,.T.);
#624=CARTESIAN_POINT('',(-1.451846223688,1.66554427633,0.95));
#625=DIRECTION('',(0.0,1.0,-0.0));
#626=DIRECTION('',(1.0,0.0,0.0));
#627=ORIENTED_EDGE('',*,*,#917,.T.);
#628=ORIENTED_EDGE('',*,*,#920,.F.);
#629=ORIENTED_EDGE('',*,*,#794,.F.);
#630=ORIENTED_EDGE('',*,*,#879,.T.);
#631=ORIENTED_EDGE('',*,*,#921,.T.);
#632=ORIENTED_EDGE('',*,*,#922,.T.);
#633=CARTESIAN_POINT('',(-1.751846223688,1.505317411502,-1.45));
#634=DIRECTION('',(0.0,-1.0,0.0));
#635=DIRECTION('',(0.0,0.0,-1.0));
#636=ORIENTED_EDGE('',*,*,#918,.T.);
#637=ORIENTED_EDGE('',*,*,#922,.F.);
#638=ORIENTED_EDGE('',*,*,#923,.T.);
#639=ORIENTED_EDGE('',*,*,#914,.T.);
#640=CARTESIAN_POINT('',(-1.151846223688,1.505317411502,-1.45));
#641=DIRECTION('',(1.0,0.0,0.0));
#642=DIRECTION('',(0.0,1.0,0.0));
#643=ORIENTED_EDGE('',*,*,#915,.F.);
#644=ORIENTED_EDGE('',*,*,#923,.F.);
#645=ORIENTED_EDGE('',*,*,#921,.F.);
#646=ORIENTED_EDGE('',*,*,#878,.T.);
#647=CARTESIAN_POINT('',(-1.451846223688,1.494168377466,-0.95));
#648=DIRECTION('',(0.0,-1.0,0.0));
#649=DIRECTION('',(1.0,0.0,0.0));
#650=ORIENTED_EDGE('',*,*,#792,.T.);
#651=ORIENTED_EDGE('',*,*,#924,.F.);
#652=ORIENTED_EDGE('',*,*,#925,.F.);
#653=ORIENTED_EDGE('',*,*,#880,.T.);
#654=CARTESIAN_POINT('',(-1.751846223688,1.905317411502,-1.45));
#655=DIRECTION('',(0.0,-0.0,-1.0));
#656=DIRECTION('',(-0.866025403784369,-0.500000000000121,0.0));
#657=ORIENTED_EDGE('',*,*,#881,.T.);
#658=ORIENTED_EDGE('',*,*,#925,.T.);
#659=ORIENTED_EDGE('',*,*,#926,.F.);
#660=ORIENTED_EDGE('',*,*,#927,.F.);
#661=CARTESIAN_POINT('',(-2.073256385202,2.148618681692,-1.45));
#662=DIRECTION('',(-0.866025403784429,0.500000000000017,0.0));
#663=DIRECTION('',(0.0,0.0,1.0));
#664=ORIENTED_EDGE('',*,*,#882,.T.);
#665=ORIENTED_EDGE('',*,*,#927,.T.);
#666=ORIENTED_EDGE('',*,*,#928,.F.);
#667=ORIENTED_EDGE('',*,*,#929,.F.);
#668=CARTESIAN_POINT('',(-1.726846223688,1.948618681692,-1.45));
#669=DIRECTION('',(0.0,0.0,-1.0));
#670=DIRECTION('',(1.0,0.0,0.0));
#671=ORIENTED_EDGE('',*,*,#883,.T.);
#672=ORIENTED_EDGE('',*,*,#929,.T.);
#673=ORIENTED_EDGE('',*,*,#930,.F.);
#674=ORIENTED_EDGE('',*,*,#931,.F.);
#675=CARTESIAN_POINT('',(-0.1968462236882,2.348618681692,-1.45));
#676=DIRECTION('',(-0.0,1.0,0.0));
#677=DIRECTION('',(1.0,0.0,0.0));
#678=ORIENTED_EDGE('',*,*,#884,.T.);
#679=ORIENTED_EDGE('',*,*,#931,.T.);
#680=ORIENTED_EDGE('',*,*,#932,.F.);
#681=ORIENTED_EDGE('',*,*,#933,.F.);
#682=CARTESIAN_POINT('',(-0.1968462236882,1.948618681692,-1.45));
#683=DIRECTION('',(0.0,0.0,-1.0));
#684=DIRECTION('',(1.0,0.0,0.0));
#685=ORIENTED_EDGE('',*,*,#885,.T.);
#686=ORIENTED_EDGE('',*,*,#933,.T.);
#687=ORIENTED_EDGE('',*,*,#934,.F.);
#688=ORIENTED_EDGE('',*,*,#814,.F.);
#689=ORIENTED_EDGE('',*,*,#897,.T.);
#690=ORIENTED_EDGE('',*,*,#789,.F.);
#691=ORIENTED_EDGE('',*,*,#935,.F.);
#692=ORIENTED_EDGE('',*,*,#891,.F.);
#693=ORIENTED_EDGE('',*,*,#818,.F.);
#694=CARTESIAN_POINT('',(2.495087565757,0.6774017555754,-1.45));
#695=DIRECTION('',(0.544639035015019,0.838670567945429,0.0));
#696=DIRECTION('',(0.0,0.0,-1.0));
#697=ORIENTED_EDGE('',*,*,#788,.T.);
#698=ORIENTED_EDGE('',*,*,#901,.F.);
#699=ORIENTED_EDGE('',*,*,#892,.F.);
#700=ORIENTED_EDGE('',*,*,#935,.T.);
#701=CARTESIAN_POINT('',(1.195148185441,1.521592259849,0.0));
#702=DIRECTION('',(-0.544639035015019,-0.838670567945429,0.0));
#703=DIRECTION('',(-0.838670567945429,0.544639035015019,-1.22464679914735E-16));
#704=ORIENTED_EDGE('',*,*,#936,.F.);
#705=ORIENTED_EDGE('',*,*,#888,.T.);
#706=ORIENTED_EDGE('',*,*,#815,.T.);
#707=ORIENTED_EDGE('',*,*,#934,.T.);
#708=ORIENTED_EDGE('',*,*,#932,.T.);
#709=ORIENTED_EDGE('',*,*,#930,.T.);
#710=ORIENTED_EDGE('',*,*,#928,.T.);
#711=ORIENTED_EDGE('',*,*,#926,.T.);
#712=ORIENTED_EDGE('',*,*,#924,.T.);
#713=ORIENTED_EDGE('',*,*,#795,.T.);
#714=ORIENTED_EDGE('',*,*,#920,.T.);
#715=ORIENTED_EDGE('',*,*,#919,.F.);
#716=ORIENTED_EDGE('',*,*,#916,.T.);
#717=ORIENTED_EDGE('',*,*,#797,.F.);
#718=ORIENTED_EDGE('',*,*,#912,.F.);
#719=ORIENTED_EDGE('',*,*,#910,.T.);
#720=ORIENTED_EDGE('',*,*,#908,.F.);
#721=ORIENTED_EDGE('',*,*,#906,.T.);
#722=ORIENTED_EDGE('',*,*,#904,.F.);
#723=ORIENTED_EDGE('',*,*,#902,.T.);
#724=ORIENTED_EDGE('',*,*,#801,.F.);
#725=ORIENTED_EDGE('',*,*,#900,.F.);
#726=CARTESIAN_POINT('',(0.0,0.0,1.25));
#727=DIRECTION('',(0.0,0.0,1.0));
#728=DIRECTION('',(1.0,0.0,0.0));
#729=ORIENTED_EDGE('',*,*,#936,.T.);
#730=ORIENTED_EDGE('',*,*,#899,.F.);
#731=ORIENTED_EDGE('',*,*,#852,.F.);
#732=ORIENTED_EDGE('',*,*,#937,.F.);
#733=ORIENTED_EDGE('',*,*,#832,.F.);
#734=ORIENTED_EDGE('',*,*,#889,.F.);
#735=CARTESIAN_POINT('',(2.4,-0.1632104738645,1.45));
#736=DIRECTION('',(0.0,-1.0,-0.0));
#737=DIRECTION('',(0.0,0.0,-1.0));
#738=ORIENTED_EDGE('',*,*,#937,.T.);
#739=ORIENTED_EDGE('',*,*,#851,.F.);
#740=ORIENTED_EDGE('',*,*,#938,.T.);
#741=ORIENTED_EDGE('',*,*,#833,.F.);
#742=CARTESIAN_POINT('',(2.2,0.0,1.55));
#743=DIRECTION('',(1.0,0.0,0.0));
#744=DIRECTION('',(0.0,1.0,0.0));
#745=ORIENTED_EDGE('',*,*,#939,.T.);
#746=ORIENTED_EDGE('',*,*,#834,.T.);
#747=ORIENTED_EDGE('',*,*,#938,.F.);
#748=ORIENTED_EDGE('',*,*,#850,.F.);
#749=CARTESIAN_POINT('',(0.2,0.0,1.55));
#750=DIRECTION('',(0.0,0.0,1.0));
#751=DIRECTION('',(1.0,0.0,0.0));
#752=ORIENTED_EDGE('',*,*,#940,.T.);
#753=ORIENTED_EDGE('',*,*,#835,.F.);
#754=ORIENTED_EDGE('',*,*,#939,.F.);
#755=ORIENTED_EDGE('',*,*,#849,.F.);
#756=CARTESIAN_POINT('',(0.02679491924311,0.0001399093653571,1.65));
#757=DIRECTION('',(0.0,1.0,0.0));
#758=DIRECTION('',(0.0,0.0,-1.0));
#759=ORIENTED_EDGE('',*,*,#940,.F.);
#760=ORIENTED_EDGE('',*,*,#848,.T.);
#761=ORIENTED_EDGE('',*,*,#941,.T.);
#762=ORIENTED_EDGE('',*,*,#836,.T.);
#763=CARTESIAN_POINT('',(0.0,0.0,1.45));
#764=DIRECTION('',(0.0,0.0,1.0));
#765=DIRECTION('',(1.0,0.0,0.0));
#766=ORIENTED_EDGE('',*,*,#837,.F.);
#767=ORIENTED_EDGE('',*,*,#941,.F.);
#768=ORIENTED_EDGE('',*,*,#847,.F.);
#769=ORIENTED_EDGE('',*,*,#942,.T.);
#770=CARTESIAN_POINT('',(-2.2,0.01017815780656,0.95));
#771=DIRECTION('',(0.0,1.0,-0.0));
#772=DIRECTION('',(0.0,0.0,1.0));
#773=ORIENTED_EDGE('',*,*,#943,.F.);
#774=ORIENTED_EDGE('',*,*,#838,.T.);
#775=ORIENTED_EDGE('',*,*,#942,.F.);
#776=ORIENTED_EDGE('',*,*,#846,.F.);
#777=CARTESIAN_POINT('',(-2.7,0.0,-1.45));
#778=DIRECTION('',(-1.0,0.0,0.0));
#779=DIRECTION('',(0.0,0.0,1.0));
#780=ORIENTED_EDGE('',*,*,#845,.F.);
#781=ORIENTED_EDGE('',*,*,#863,.F.);
#782=ORIENTED_EDGE('',*,*,#839,.F.);
#783=ORIENTED_EDGE('',*,*,#943,.T.);
#784=CARTESIAN_POINT('',(-2.2,-0.1599819657527,-0.95));
#785=DIRECTION('',(0.0,-1.0,-0.0));
#786=DIRECTION('',(0.0,0.0,-1.0));
#787=COLOUR_RGB('',0.658823549747467,0.658823549747467,0.658823549747467);
#788=EDGE_CURVE('',#944,#945,#946,.T.);
#789=EDGE_CURVE('',#944,#947,#948,.T.);
#790=EDGE_CURVE('',#947,#949,#950,.T.);
#791=EDGE_CURVE('',#945,#949,#951,.T.);
#792=EDGE_CURVE('',#952,#953,#954,.T.);
#793=EDGE_CURVE('',#952,#955,#956,.T.);
#794=EDGE_CURVE('',#955,#957,#958,.T.);
#795=EDGE_CURVE('',#953,#957,#959,.T.);
#796=EDGE_CURVE('',#960,#961,#962,.T.);
#797=EDGE_CURVE('',#960,#963,#964,.T.);
#798=EDGE_CURVE('',#965,#963,#966,.T.);
#799=EDGE_CURVE('',#961,#965,#967,.T.);
#800=EDGE_CURVE('',#968,#969,#970,.T.);
#801=EDGE_CURVE('',#968,#971,#972,.T.);
#802=EDGE_CURVE('',#973,#971,#974,.T.);
#803=EDGE_CURVE('',#973,#969,#975,.T.);
#804=EDGE_CURVE('',#976,#977,#978,.T.);
#805=EDGE_CURVE('',#976,#979,#980,.T.);
#806=EDGE_CURVE('',#981,#979,#982,.T.);
#807=EDGE_CURVE('',#977,#981,#983,.T.);
#808=EDGE_CURVE('',#984,#985,#986,.T.);
#809=EDGE_CURVE('',#984,#987,#988,.T.);
#810=EDGE_CURVE('',#987,#989,#990,.T.);
#811=EDGE_CURVE('',#985,#989,#991,.T.);
#812=EDGE_CURVE('',#992,#993,#994,.T.);
#813=EDGE_CURVE('',#992,#995,#996,.T.);
#814=EDGE_CURVE('',#995,#997,#998,.T.);
#815=EDGE_CURVE('',#993,#997,#999,.T.);
#816=EDGE_CURVE('',#1000,#1001,#1002,.T.);
#817=EDGE_CURVE('',#1000,#1003,#1004,.T.);
#818=EDGE_CURVE('',#1003,#1005,#1006,.T.);
#819=EDGE_CURVE('',#1005,#1001,#1007,.T.);
#820=EDGE_CURVE('',#1008,#1009,#1010,.T.);
#821=EDGE_CURVE('',#1008,#1011,#1012,.T.);
#822=EDGE_CURVE('',#1013,#1011,#1014,.T.);
#823=EDGE_CURVE('',#1009,#1013,#1015,.T.);
#824=EDGE_CURVE('',#1016,#1017,#1018,.T.);
#825=EDGE_CURVE('',#1016,#1019,#1020,.T.);
#826=EDGE_CURVE('',#1019,#1021,#1022,.T.);
#827=EDGE_CURVE('',#1021,#1023,#1024,.T.);
#828=EDGE_CURVE('',#1023,#987,#1025,.T.);
#829=EDGE_CURVE('',#1026,#984,#1027,.T.);
#830=EDGE_CURVE('',#1028,#1026,#1029,.T.);
#831=EDGE_CURVE('',#1028,#1030,#1031,.T.);
#832=EDGE_CURVE('',#1030,#1032,#1033,.T.);
#833=EDGE_CURVE('',#1032,#1034,#1035,.T.);
#834=EDGE_CURVE('',#1036,#1034,#1037,.T.);
#835=EDGE_CURVE('',#1036,#1038,#1039,.T.);
#836=EDGE_CURVE('',#1040,#1038,#1041,.T.);
#837=EDGE_CURVE('',#1040,#1042,#1043,.T.);
#838=EDGE_CURVE('',#1044,#1042,#1045,.T.);
#839=EDGE_CURVE('',#1044,#1046,#1047,.T.);
#840=EDGE_CURVE('',#1046,#1048,#1049,.T.);
#841=EDGE_CURVE('',#1048,#1017,#1050,.T.);
#842=EDGE_CURVE('',#1013,#1009,#1051,.T.);
#843=EDGE_CURVE('',#1011,#1008,#1052,.T.);
#844=EDGE_CURVE('',#1053,#1054,#1055,.T.);
#845=EDGE_CURVE('',#1054,#1056,#1057,.T.);
#846=EDGE_CURVE('',#1056,#1058,#1059,.T.);
#847=EDGE_CURVE('',#1058,#1060,#1061,.T.);
#848=EDGE_CURVE('',#1062,#1060,#1063,.T.);
#849=EDGE_CURVE('',#1062,#1064,#1065,.T.);
#850=EDGE_CURVE('',#1064,#1066,#1067,.T.);
#851=EDGE_CURVE('',#1066,#1068,#1069,.T.);
#852=EDGE_CURVE('',#1068,#1070,#1071,.T.);
#853=EDGE_CURVE('',#1072,#1070,#1073,.T.);
#854=EDGE_CURVE('',#1072,#1074,#1075,.T.);
#855=EDGE_CURVE('',#1074,#985,#1076,.T.);
#856=EDGE_CURVE('',#1077,#989,#1078,.T.);
#857=EDGE_CURVE('',#1079,#1077,#1080,.T.);
#858=EDGE_CURVE('',#1079,#1081,#1082,.T.);
#859=EDGE_CURVE('',#1081,#1083,#1084,.T.);
#860=EDGE_CURVE('',#1083,#1085,#1086,.T.);
#861=EDGE_CURVE('',#1085,#1053,#1087,.T.);
#862=EDGE_CURVE('',#1048,#1053,#1088,.T.);
#863=EDGE_CURVE('',#1046,#1054,#1089,.T.);
#864=EDGE_CURVE('',#1017,#1085,#1090,.T.);
#865=EDGE_CURVE('',#1083,#1016,#1091,.T.);
#866=EDGE_CURVE('',#1081,#1019,#1092,.T.);
#867=EDGE_CURVE('',#1093,#1094,#1095,.T.);
#868=EDGE_CURVE('',#1021,#1094,#1096,.T.);
#869=EDGE_CURVE('',#1093,#1079,#1097,.T.);
#870=EDGE_CURVE('',#1093,#977,#1098,.T.);
#871=EDGE_CURVE('',#1099,#981,#1100,.T.);
#872=EDGE_CURVE('',#1099,#1101,#1102,.T.);
#873=EDGE_CURVE('',#1103,#1101,#1104,.T.);
#874=EDGE_CURVE('',#1103,#1105,#1106,.T.);
#875=EDGE_CURVE('',#1107,#1105,#1108,.T.);
#876=EDGE_CURVE('',#1107,#961,#1109,.T.);
#877=EDGE_CURVE('',#1110,#965,#1111,.T.);
#878=EDGE_CURVE('',#1112,#1110,#1113,.T.);
#879=EDGE_CURVE('',#955,#1112,#1114,.T.);
#880=EDGE_CURVE('',#1115,#952,#1116,.T.);
#881=EDGE_CURVE('',#1117,#1115,#1118,.T.);
#882=EDGE_CURVE('',#1119,#1117,#1120,.T.);
#883=EDGE_CURVE('',#1121,#1119,#1122,.T.);
#884=EDGE_CURVE('',#1123,#1121,#1124,.T.);
#885=EDGE_CURVE('',#1003,#1123,#1125,.T.);
#886=EDGE_CURVE('',#1094,#1000,#1126,.T.);
#887=EDGE_CURVE('',#1001,#1023,#1127,.T.);
#888=EDGE_CURVE('',#1128,#993,#1129,.T.);
#889=EDGE_CURVE('',#1128,#1030,#1130,.T.);
#890=EDGE_CURVE('',#1028,#992,#1131,.T.);
#891=EDGE_CURVE('',#1005,#1132,#1133,.T.);
#892=EDGE_CURVE('',#1132,#1134,#1135,.T.);
#893=EDGE_CURVE('',#979,#1134,#1136,.T.);
#894=EDGE_CURVE('',#1077,#976,#1137,.T.);
#895=EDGE_CURVE('',#1026,#1074,#1138,.T.);
#896=EDGE_CURVE('',#973,#949,#1139,.T.);
#897=EDGE_CURVE('',#995,#947,#1140,.T.);
#898=EDGE_CURVE('',#969,#1072,#1141,.T.);
#899=EDGE_CURVE('',#1070,#1142,#1143,.T.);
#900=EDGE_CURVE('',#1142,#968,#1144,.T.);
#901=EDGE_CURVE('',#1134,#945,#1145,.T.);
#902=EDGE_CURVE('',#1146,#971,#1147,.T.);
#903=EDGE_CURVE('',#1099,#1146,#1148,.T.);
#904=EDGE_CURVE('',#1146,#1149,#1150,.T.);
#905=EDGE_CURVE('',#1101,#1149,#1151,.T.);
#906=EDGE_CURVE('',#1152,#1149,#1153,.T.);
#907=EDGE_CURVE('',#1103,#1152,#1154,.T.);
#908=EDGE_CURVE('',#1152,#1155,#1156,.T.);
#909=EDGE_CURVE('',#1105,#1155,#1157,.T.);
#910=EDGE_CURVE('',#1158,#1155,#1159,.T.);
#911=EDGE_CURVE('',#1107,#1158,#1160,.T.);
#912=EDGE_CURVE('',#1158,#960,#1161,.T.);
#913=EDGE_CURVE('',#1162,#1163,#1164,.T.);
#914=EDGE_CURVE('',#1165,#1163,#1166,.T.);
#915=EDGE_CURVE('',#1165,#1110,#1167,.T.);
#916=EDGE_CURVE('',#1162,#963,#1168,.T.);
#917=EDGE_CURVE('',#1169,#1170,#1171,.T.);
#918=EDGE_CURVE('',#1163,#1169,#1172,.T.);
#919=EDGE_CURVE('',#1162,#1170,#1173,.T.);
#920=EDGE_CURVE('',#957,#1170,#1174,.T.);
#921=EDGE_CURVE('',#1112,#1175,#1176,.T.);
#922=EDGE_CURVE('',#1175,#1169,#1177,.T.);
#923=EDGE_CURVE('',#1175,#1165,#1178,.T.);
#924=EDGE_CURVE('',#1179,#953,#1180,.T.);
#925=EDGE_CURVE('',#1115,#1179,#1181,.T.);
#926=EDGE_CURVE('',#1182,#1179,#1183,.T.);
#927=EDGE_CURVE('',#1117,#1182,#1184,.T.);
#928=EDGE_CURVE('',#1185,#1182,#1186,.T.);
#929=EDGE_CURVE('',#1119,#1185,#1187,.T.);
#930=EDGE_CURVE('',#1188,#1185,#1189,.T.);
#931=EDGE_CURVE('',#1121,#1188,#1190,.T.);
#932=EDGE_CURVE('',#1191,#1188,#1192,.T.);
#933=EDGE_CURVE('',#1123,#1191,#1193,.T.);
#934=EDGE_CURVE('',#997,#1191,#1194,.T.);
#935=EDGE_CURVE('',#1132,#944,#1195,.T.);
#936=EDGE_CURVE('',#1128,#1142,#1196,.T.);
#937=EDGE_CURVE('',#1032,#1068,#1197,.T.);
#938=EDGE_CURVE('',#1066,#1034,#1198,.T.);
#939=EDGE_CURVE('',#1064,#1036,#1199,.T.);
#940=EDGE_CURVE('',#1062,#1038,#1200,.T.);
#941=EDGE_CURVE('',#1060,#1040,#1201,.T.);
#942=EDGE_CURVE('',#1058,#1042,#1202,.T.);
#943=EDGE_CURVE('',#1044,#1056,#1203,.T.);
#944=VERTEX_POINT('',#1204);
#945=VERTEX_POINT('',#1205);
#946=LINE('',#1206,#1207);
#947=VERTEX_POINT('',#1208);
#948=CIRCLE('',#1209,0.5);
#949=VERTEX_POINT('',#1210);
#950=LINE('',#1211,#1212);
#951=CIRCLE('',#1213,0.5);
#952=VERTEX_POINT('',#1214);
#953=VERTEX_POINT('',#1215);
#954=LINE('',#1216,#1217);
#955=VERTEX_POINT('',#1218);
#956=CIRCLE('',#1219,0.4);
#957=VERTEX_POINT('',#1220);
#958=LINE('',#1221,#1222);
#959=CIRCLE('',#1223,0.4);
#960=VERTEX_POINT('',#1224);
#961=VERTEX_POINT('',#1225);
#962=LINE('',#1226,#1227);
#963=VERTEX_POINT('',#1228);
#964=CIRCLE('',#1229,0.25);
#965=VERTEX_POINT('',#1230);
#966=LINE('',#1231,#1232);
#967=CIRCLE('',#1233,0.25);
#968=VERTEX_POINT('',#1234);
#969=VERTEX_POINT('',#1235);
#970=LINE('',#1236,#1237);
#971=VERTEX_POINT('',#1238);
#972=CIRCLE('',#1239,0.3);
#973=VERTEX_POINT('',#1240);
#974=LINE('',#1241,#1242);
#975=CIRCLE('',#1243,0.3);
#976=VERTEX_POINT('',#1244);
#977=VERTEX_POINT('',#1245);
#978=LINE('',#1246,#1247);
#979=VERTEX_POINT('',#1248);
#980=CIRCLE('',#1249,0.3);
#981=VERTEX_POINT('',#1250);
#982=LINE('',#1251,#1252);
#983=CIRCLE('',#1253,0.3);
#984=VERTEX_POINT('',#1254);
#985=VERTEX_POINT('',#1255);
#986=LINE('',#1256,#1257);
#987=VERTEX_POINT('',#1258);
#988=CIRCLE('',#1259,0.5);
#989=VERTEX_POINT('',#1260);
#990=LINE('',#1261,#1262);
#991=CIRCLE('',#1263,0.5);
#992=VERTEX_POINT('',#1264);
#993=VERTEX_POINT('',#1265);
#994=LINE('',#1266,#1267);
#995=VERTEX_POINT('',#1268);
#996=CIRCLE('',#1269,0.45);
#997=VERTEX_POINT('',#1270);
#998=LINE('',#1271,#1272);
#999=CIRCLE('',#1273,0.45);
#1000=VERTEX_POINT('',#1274);
#1001=VERTEX_POINT('',#1275);
#1002=LINE('',#1276,#1277);
#1003=VERTEX_POINT('',#1278);
#1004=CIRCLE('',#1279,0.45);
#1005=VERTEX_POINT('',#1280);
#1006=LINE('',#1281,#1282);
#1007=CIRCLE('',#1283,0.45);
#1008=VERTEX_POINT('',#1284);
#1009=VERTEX_POINT('',#1285);
#1010=LINE('',#1286,#1287);
#1011=VERTEX_POINT('',#1288);
#1012=CIRCLE('',#1289,0.6);
#1013=VERTEX_POINT('',#1290);
#1014=LINE('',#1291,#1292);
#1015=CIRCLE('',#1293,0.6);
#1016=VERTEX_POINT('',#1294);
#1017=VERTEX_POINT('',#1295);
#1018=LINE('',#1296,#1297);
#1019=VERTEX_POINT('',#1298);
#1020=LINE('',#1299,#1300);
#1021=VERTEX_POINT('',#1301);
#1022=CIRCLE('',#1302,0.2);
#1023=VERTEX_POINT('',#1303);
#1024=LINE('',#1304,#1305);
#1025=LINE('',#1306,#1307);
#1026=VERTEX_POINT('',#1308);
#1027=CIRCLE('',#1309,0.5);
#1028=VERTEX_POINT('',#1310);
#1029=LINE('',#1311,#1312);
#1030=VERTEX_POINT('',#1313);
#1031=LINE('',#1314,#1315);
#1032=VERTEX_POINT('',#1316);
#1033=CIRCLE('',#1317,0.2);
#1034=VERTEX_POINT('',#1318);
#1035=LINE('',#1319,#1320);
#1036=VERTEX_POINT('',#1321);
#1037=LINE('',#1322,#1323);
#1038=VERTEX_POINT('',#1324);
#1039=CIRCLE('',#1325,0.2);
#1040=VERTEX_POINT('',#1326);
#1041=LINE('',#1327,#1328);
#1042=VERTEX_POINT('',#1329);
#1043=CIRCLE('',#1330,0.5);
#1044=VERTEX_POINT('',#1331);
#1045=LINE('',#1332,#1333);
#1046=VERTEX_POINT('',#1334);
#1047=CIRCLE('',#1335,0.5);
#1048=VERTEX_POINT('',#1336);
#1049=LINE('',#1337,#1338);
#1050=CIRCLE('',#1339,0.2);
#1051=CIRCLE('',#1340,0.6);
#1052=CIRCLE('',#1341,0.6);
#1053=VERTEX_POINT('',#1342);
#1054=VERTEX_POINT('',#1343);
#1055=LINE('',#1344,#1345);
#1056=VERTEX_POINT('',#1346);
#1057=CIRCLE('',#1347,0.5);
#1058=VERTEX_POINT('',#1348);
#1059=LINE('',#1349,#1350);
#1060=VERTEX_POINT('',#1351);
#1061=CIRCLE('',#1352,0.5);
#1062=VERTEX_POINT('',#1353);
#1063=LINE('',#1354,#1355);
#1064=VERTEX_POINT('',#1356);
#1065=CIRCLE('',#1357,0.2);
#1066=VERTEX_POINT('',#1358);
#1067=LINE('',#1359,#1360);
#1068=VERTEX_POINT('',#1361);
#1069=LINE('',#1362,#1363);
#1070=VERTEX_POINT('',#1364);
#1071=CIRCLE('',#1365,0.2);
#1072=VERTEX_POINT('',#1366);
#1073=LINE('',#1367,#1368);
#1074=VERTEX_POINT('',#1369);
#1075=LINE('',#1370,#1371);
#1076=CIRCLE('',#1372,0.5);
#1077=VERTEX_POINT('',#1373);
#1078=LINE('',#1374,#1375);
#1079=VERTEX_POINT('',#1376);
#1080=LINE('',#1377,#1378);
#1081=VERTEX_POINT('',#1379);
#1082=CIRCLE('',#1380,0.2);
#1083=VERTEX_POINT('',#1381);
#1084=LINE('',#1382,#1383);
#1085=VERTEX_POINT('',#1384);
#1086=LINE('',#1385,#1386);
#1087=CIRCLE('',#1387,0.2);
#1088=LINE('',#1388,#1389);
#1089=LINE('',#1390,#1391);
#1090=LINE('',#1392,#1393);
#1091=LINE('',#1394,#1395);
#1092=LINE('',#1396,#1397);
#1093=VERTEX_POINT('',#1398);
#1094=VERTEX_POINT('',#1399);
#1095=LINE('',#1400,#1401);
#1096=B_SPLINE_CURVE_WITH_KNOTS('',3,(#1402,#1403,#1404,#1405,#1406,#1407,#1408,#1409),.UNSPECIFIED.,.F.,.F.,(4,2,2,4),(0.0778216899527592,0.0791352885184999,0.0867904782642338,0.0944456680099695),.UNSPECIFIED.);
#1097=B_SPLINE_CURVE_WITH_KNOTS('',3,(#1410,#1411,#1412,#1413,#1414,#1415,#1416,#1417,#1418,#1419),.UNSPECIFIED.,.F.,.F.,(4,2,2,2,4),(-0.216946041429427,-0.215695299421805,-0.209495761826691,-0.203760495862514,-0.200188999068052),.UNSPECIFIED.);
#1098=CIRCLE('',#1420,0.3);
#1099=VERTEX_POINT('',#1421);
#1100=LINE('',#1422,#1423);
#1101=VERTEX_POINT('',#1424);
#1102=CIRCLE('',#1425,0.25);
#1103=VERTEX_POINT('',#1426);
#1104=LINE('',#1427,#1428);
#1105=VERTEX_POINT('',#1429);
#1106=CIRCLE('',#1430,0.25);
#1107=VERTEX_POINT('',#1431);
#1108=LINE('',#1432,#1433);
#1109=CIRCLE('',#1434,0.25);
#1110=VERTEX_POINT('',#1435);
#1111=LINE('',#1436,#1437);
#1112=VERTEX_POINT('',#1438);
#1113=LINE('',#1439,#1440);
#1114=LINE('',#1441,#1442);
#1115=VERTEX_POINT('',#1443);
#1116=CIRCLE('',#1444,0.4);
#1117=VERTEX_POINT('',#1445);
#1118=LINE('',#1446,#1447);
#1119=VERTEX_POINT('',#1448);
#1120=CIRCLE('',#1449,0.4);
#1121=VERTEX_POINT('',#1450);
#1122=LINE('',#1451,#1452);
#1123=VERTEX_POINT('',#1453);
#1124=CIRCLE('',#1454,0.4);
#1125=LINE('',#1455,#1456);
#1126=CIRCLE('',#1457,0.45);
#1127=CIRCLE('',#1458,0.45);
#1128=VERTEX_POINT('',#1459);
#1129=CIRCLE('',#1460,0.45);
#1130=B_SPLINE_CURVE_WITH_KNOTS('',3,(#1461,#1462,#1463,#1464,#1465,#1466,#1467,#1468),.UNSPECIFIED.,.F.,.F.,(4,2,2,4),(-0.0304622869342752,-0.0228070971885432,-0.0151519074428094,-0.0138383088770678),.UNSPECIFIED.);
#1131=CIRCLE('',#1469,0.45);
#1132=VERTEX_POINT('',#1470);
#1133=LINE('',#1471,#1472);
#1134=VERTEX_POINT('',#1473);
#1135=LINE('',#1474,#1475);
#1136=LINE('',#1476,#1477);
#1137=CIRCLE('',#1478,0.3);
#1138=LINE('',#1479,#1480);
#1139=LINE('',#1481,#1482);
#1140=LINE('',#1483,#1484);
#1141=CIRCLE('',#1485,0.3);
#1142=VERTEX_POINT('',#1486);
#1143=B_SPLINE_CURVE_WITH_KNOTS('',3,(#1487,#1488,#1489,#1490,#1491,#1492,#1493,#1494,#1495,#1496),.UNSPECIFIED.,.F.,.F.,(4,2,2,2,4),(0.0138842773560383,0.0161067229601526,0.0232601810266049,0.029547211892692,0.0307020965763515),.UNSPECIFIED.);
#1144=CIRCLE('',#1497,0.3);
#1145=CIRCLE('',#1498,0.5);
#1146=VERTEX_POINT('',#1499);
#1147=LINE('',#1500,#1501);
#1148=LINE('',#1502,#1503);
#1149=VERTEX_POINT('',#1504);
#1150=CIRCLE('',#1505,0.25);
#1151=LINE('',#1506,#1507);
#1152=VERTEX_POINT('',#1508);
#1153=LINE('',#1509,#1510);
#1154=LINE('',#1511,#1512);
#1155=VERTEX_POINT('',#1513);
#1156=CIRCLE('',#1514,0.25);
#1157=LINE('',#1515,#1516);
#1158=VERTEX_POINT('',#1517);
#1159=LINE('',#1518,#1519);
#1160=LINE('',#1520,#1521);
#1161=CIRCLE('',#1522,0.25);
#1162=VERTEX_POINT('',#1523);
#1163=VERTEX_POINT('',#1524);
#1164=CIRCLE('',#1525,0.3);
#1165=VERTEX_POINT('',#1526);
#1166=LINE('',#1527,#1528);
#1167=CIRCLE('',#1529,0.3);
#1168=LINE('',#1530,#1531);
#1169=VERTEX_POINT('',#1532);
#1170=VERTEX_POINT('',#1533);
#1171=CIRCLE('',#1534,0.3);
#1172=LINE('',#1535,#1536);
#1173=LINE('',#1537,#1538);
#1174=LINE('',#1539,#1540);
#1175=VERTEX_POINT('',#1541);
#1176=CIRCLE('',#1542,0.3);
#1177=LINE('',#1543,#1544);
#1178=LINE('',#1545,#1546);
#1179=VERTEX_POINT('',#1547);
#1180=CIRCLE('',#1548,0.4);
#1181=LINE('',#1549,#1550);
#1182=VERTEX_POINT('',#1551);
#1183=LINE('',#1552,#1553);
#1184=LINE('',#1554,#1555);
#1185=VERTEX_POINT('',#1556);
#1186=CIRCLE('',#1557,0.4);
#1187=LINE('',#1558,#1559);
#1188=VERTEX_POINT('',#1560);
#1189=LINE('',#1561,#1562);
#1190=LINE('',#1563,#1564);
#1191=VERTEX_POINT('',#1565);
#1192=CIRCLE('',#1566,0.4);
#1193=LINE('',#1567,#1568);
#1194=LINE('',#1569,#1570);
#1195=CIRCLE('',#1571,0.5);
#1196=LINE('',#1572,#1573);
#1197=LINE('',#1574,#1575);
#1198=LINE('',#1576,#1577);
#1199=LINE('',#1578,#1579);
#1200=LINE('',#1580,#1581);
#1201=LINE('',#1582,#1583);
#1202=LINE('',#1584,#1585);
#1203=LINE('',#1586,#1587);
#1204=CARTESIAN_POINT('',(0.775812901468285,1.79391177735651,-2.02226624864954E-21));
#1205=CARTESIAN_POINT('',(0.694117046216285,1.66811119216451,-2.02226624864827E-21));
#1206=CARTESIAN_POINT('',(0.775812901468285,1.79391177735651,-2.02226624864954E-21));
#1207=VECTOR('',#1588,1.0);
#1208=CARTESIAN_POINT('',(1.195148185441,1.521592259849,0.5));
#1209=AXIS2_PLACEMENT_3D('',#1589,#1590,#1591);
#1210=CARTESIAN_POINT('',(1.113452330189,1.395791674657,0.5));
#1211=CARTESIAN_POINT('',(1.195148185441,1.521592259849,0.5));
#1212=VECTOR('',#1592,0.149999999999995);
#1213=AXIS2_PLACEMENT_3D('',#1593,#1594,#1595);
#1214=CARTESIAN_POINT('',(-2.09825638520175,1.70531741150195,-1.25));
#1215=CARTESIAN_POINT('',(-2.09825638520175,1.70531741150195,1.25));
#1216=CARTESIAN_POINT('',(-2.09825638520175,1.70531741150195,0.0));
#1217=VECTOR('',#1596,1.0);
#1218=CARTESIAN_POINT('',(-1.751846223688,1.505317411502,-1.25));
#1219=AXIS2_PLACEMENT_3D('',#1597,#1598,#1599);
#1220=CARTESIAN_POINT('',(-1.751846223688,1.505317411502,1.25));
#1221=CARTESIAN_POINT('',(-1.751846223688,1.505317411502,-1.25));
#1222=VECTOR('',#1600,2.5);
#1223=AXIS2_PLACEMENT_3D('',#1601,#1602,#1603);
#1224=CARTESIAN_POINT('',(-1.96835257463412,1.78031741150202,1.25));
#1225=CARTESIAN_POINT('',(-1.96835257463412,1.78031741150202,-1.25));
#1226=CARTESIAN_POINT('',(-1.96835257463412,1.78031741150202,0.0));
#1227=VECTOR('',#1604,1.0);
#1228=CARTESIAN_POINT('',(-1.751846223688,1.655317411502,1.25));
#1229=AXIS2_PLACEMENT_3D('',#1605,#1606,#1607);
#1230=CARTESIAN_POINT('',(-1.751846223688,1.655317411502,-1.25));
#1231=CARTESIAN_POINT('',(-1.751846223688,1.655317411502,-1.25));
#1232=VECTOR('',#1608,2.5);
#1233=AXIS2_PLACEMENT_3D('',#1609,#1610,#1611);
#1234=CARTESIAN_POINT('',(2.55,0.3,1.25));
#1235=CARTESIAN_POINT('',(2.55,0.3,0.5));
#1236=CARTESIAN_POINT('',(2.55,0.3,0.90935621722345));
#1237=VECTOR('',#1612,1.0);
#1238=CARTESIAN_POINT('',(2.413391710505,0.5516011703836,1.25));
#1239=AXIS2_PLACEMENT_3D('',#1613,#1614,#1615);
#1240=CARTESIAN_POINT('',(2.413391710505,0.5516011703836,0.5));
#1241=CARTESIAN_POINT('',(2.413391710505,0.5516011703836,0.5));
#1242=VECTOR('',#1616,0.75);
#1243=AXIS2_PLACEMENT_3D('',#1617,#1618,#1619);
#1244=CARTESIAN_POINT('',(2.55,0.3,-0.5));
#1245=CARTESIAN_POINT('',(2.55,0.3,-1.25));
#1246=CARTESIAN_POINT('',(2.55,0.3,-0.90935621722345));
#1247=VECTOR('',#1620,1.0);
#1248=CARTESIAN_POINT('',(2.413391710505,0.5516011703836,-0.5));
#1249=AXIS2_PLACEMENT_3D('',#1621,#1622,#1623);
#1250=CARTESIAN_POINT('',(2.413391710505,0.5516011703836,-1.25));
#1251=CARTESIAN_POINT('',(2.413391710505,0.5516011703836,-1.25));
#1252=VECTOR('',#1624,0.75);
#1253=AXIS2_PLACEMENT_3D('',#1625,#1626,#1627);
#1254=CARTESIAN_POINT('',(1.59783292838,-0.15,2.02226624863721E-21));
#1255=CARTESIAN_POINT('',(1.59783292838,0.0,2.02226624863721E-21));
#1256=CARTESIAN_POINT('',(1.59783292838,-0.15,2.02226624863721E-21));
#1257=VECTOR('',#1628,1.0);
#1258=CARTESIAN_POINT('',(2.09783292838,-0.15,-0.5));
#1259=AXIS2_PLACEMENT_3D('',#1629,#1630,#1631);
#1260=CARTESIAN_POINT('',(2.09783292838,0.0,-0.5));
#1261=CARTESIAN_POINT('',(2.09783292838,-0.15,-0.5));
#1262=VECTOR('',#1632,0.15);
#1263=AXIS2_PLACEMENT_3D('',#1633,#1634,#1635);
#1264=CARTESIAN_POINT('',(2.7,0.3,0.5));
#1265=CARTESIAN_POINT('',(2.7,0.3,1.25));
#1266=CARTESIAN_POINT('',(2.7,0.3,0.90935621722345));
#1267=VECTOR('',#1636,1.0);
#1268=CARTESIAN_POINT('',(2.495087565757,0.6774017555754,0.5));
#1269=AXIS2_PLACEMENT_3D('',#1637,#1638,#1639);
#1270=CARTESIAN_POINT('',(2.495087565757,0.6774017555754,1.25));
#1271=CARTESIAN_POINT('',(2.495087565757,0.6774017555754,0.5));
#1272=VECTOR('',#1640,0.75);
#1273=AXIS2_PLACEMENT_3D('',#1641,#1642,#1643);
#1274=CARTESIAN_POINT('',(2.7,0.3,-1.25));
#1275=CARTESIAN_POINT('',(2.7,0.3,-0.5));
#1276=CARTESIAN_POINT('',(2.7,0.3,-0.90935621722345));
#1277=VECTOR('',#1644,1.0);
#1278=CARTESIAN_POINT('',(2.495087565757,0.6774017555754,-1.25));
#1279=AXIS2_PLACEMENT_3D('',#1645,#1646,#1647);
#1280=CARTESIAN_POINT('',(2.495087565757,0.6774017555754,-0.5));
#1281=CARTESIAN_POINT('',(2.495087565757,0.6774017555754,-1.25));
#1282=VECTOR('',#1648,0.75);
#1283=AXIS2_PLACEMENT_3D('',#1649,#1650,#1651);
#1284=CARTESIAN_POINT('',(-0.6,0.0,7.34763812293426E-17));
#1285=CARTESIAN_POINT('',(-0.6,-0.15,7.34763812293426E-17));
#1286=CARTESIAN_POINT('',(-0.6,-0.15,7.34763812293426E-17));
#1287=VECTOR('',#1652,1.0);
#1288=CARTESIAN_POINT('',(0.6,0.0,0.0));
#1289=AXIS2_PLACEMENT_3D('',#1653,#1654,#1655);
#1290=CARTESIAN_POINT('',(0.6,-0.15,0.0));
#1291=CARTESIAN_POINT('',(0.6,-0.15,-7.34788079488412E-17));
#1292=VECTOR('',#1656,0.6);
#1293=AXIS2_PLACEMENT_3D('',#1657,#1658,#1659);
#1294=CARTESIAN_POINT('',(2.2,-0.15,-1.55));
#1295=CARTESIAN_POINT('',(0.2,-0.15,-1.55));
#1296=CARTESIAN_POINT('',(2.2,-0.15,-1.55));
#1297=VECTOR('',#1660,2.0);
#1298=CARTESIAN_POINT('',(2.2,-0.15,-1.45));
#1299=CARTESIAN_POINT('',(2.2,-0.15,-1.55));
#1300=VECTOR('',#1661,0.1);
#1301=CARTESIAN_POINT('',(2.25,-0.15,-1.317712434447));
#1302=AXIS2_PLACEMENT_3D('',#1662,#1663,#1664);
#1303=CARTESIAN_POINT('',(2.25,-0.15,-0.5));
#1304=CARTESIAN_POINT('',(2.25,-0.15,-1.317712434447));
#1305=VECTOR('',#1665,0.8177124344468);
#1306=CARTESIAN_POINT('',(2.25,-0.15,-0.5));
#1307=VECTOR('',#1666,0.1521670716199);
#1308=CARTESIAN_POINT('',(2.09783292838,-0.15,0.5));
#1309=AXIS2_PLACEMENT_3D('',#1667,#1668,#1669);
#1310=CARTESIAN_POINT('',(2.25,-0.15,0.5));
#1311=CARTESIAN_POINT('',(2.25,-0.15,0.5));
#1312=VECTOR('',#1670,0.1521670716199);
#1313=CARTESIAN_POINT('',(2.25,-0.15,1.317712434447));
#1314=CARTESIAN_POINT('',(2.25,-0.15,0.5));
#1315=VECTOR('',#1671,0.8177124344468);
#1316=CARTESIAN_POINT('',(2.2,-0.15,1.45));
#1317=AXIS2_PLACEMENT_3D('',#1672,#1673,#1674);
#1318=CARTESIAN_POINT('',(2.2,-0.15,1.55));
#1319=CARTESIAN_POINT('',(2.2,-0.15,1.45));
#1320=VECTOR('',#1675,0.1);
#1321=CARTESIAN_POINT('',(0.2,-0.15,1.55));
#1322=CARTESIAN_POINT('',(0.2,-0.15,1.55));
#1323=VECTOR('',#1676,2.0);
#1324=CARTESIAN_POINT('',(0.02679491924311,-0.15,1.45));
#1325=AXIS2_PLACEMENT_3D('',#1677,#1678,#1679);
#1326=CARTESIAN_POINT('',(-2.2,-0.15,1.45));
#1327=CARTESIAN_POINT('',(-2.2,-0.15,1.45));
#1328=VECTOR('',#1680,2.226794919243);
#1329=CARTESIAN_POINT('',(-2.7,-0.15,0.95));
#1330=AXIS2_PLACEMENT_3D('',#1681,#1682,#1683);
#1331=CARTESIAN_POINT('',(-2.7,-0.15,-0.95));
#1332=CARTESIAN_POINT('',(-2.7,-0.15,-0.95));
#1333=VECTOR('',#1684,1.9);
#1334=CARTESIAN_POINT('',(-2.2,-0.15,-1.45));
#1335=AXIS2_PLACEMENT_3D('',#1685,#1686,#1687);
#1336=CARTESIAN_POINT('',(0.02679491924311,-0.15,-1.45));
#1337=CARTESIAN_POINT('',(-2.2,-0.15,-1.45));
#1338=VECTOR('',#1688,2.226794919243);
#1339=AXIS2_PLACEMENT_3D('',#1689,#1690,#1691);
#1340=AXIS2_PLACEMENT_3D('',#1692,#1693,#1694);
#1341=AXIS2_PLACEMENT_3D('',#1695,#1696,#1697);
#1342=CARTESIAN_POINT('',(0.02679491924311,0.0,-1.45));
#1343=CARTESIAN_POINT('',(-2.2,0.0,-1.45));
#1344=CARTESIAN_POINT('',(0.02679491924311,0.0,-1.45));
#1345=VECTOR('',#1698,2.226794919243);
#1346=CARTESIAN_POINT('',(-2.7,0.0,-0.95));
#1347=AXIS2_PLACEMENT_3D('',#1699,#1700,#1701);
#1348=CARTESIAN_POINT('',(-2.7,0.0,0.95));
#1349=CARTESIAN_POINT('',(-2.7,0.0,-0.95));
#1350=VECTOR('',#1702,1.9);
#1351=CARTESIAN_POINT('',(-2.2,0.0,1.45));
#1352=AXIS2_PLACEMENT_3D('',#1703,#1704,#1705);
#1353=CARTESIAN_POINT('',(0.02679491924311,0.0,1.45));
#1354=CARTESIAN_POINT('',(0.02679491924311,0.0,1.45));
#1355=VECTOR('',#1706,2.226794919243);
#1356=CARTESIAN_POINT('',(0.2,0.0,1.55));
#1357=AXIS2_PLACEMENT_3D('',#1707,#1708,#1709);
#1358=CARTESIAN_POINT('',(2.2,0.0,1.55));
#1359=CARTESIAN_POINT('',(0.2,0.0,1.55));
#1360=VECTOR('',#1710,2.0);
#1361=CARTESIAN_POINT('',(2.2,0.0,1.45));
#1362=CARTESIAN_POINT('',(2.2,0.0,1.55));
#1363=VECTOR('',#1711,0.1);
#1364=CARTESIAN_POINT('',(2.25,0.0,1.317712434447));
#1365=AXIS2_PLACEMENT_3D('',#1712,#1713,#1714);
#1366=CARTESIAN_POINT('',(2.25,0.0,0.5));
#1367=CARTESIAN_POINT('',(2.25,0.0,0.5));
#1368=VECTOR('',#1715,0.8177124344468);
#1369=CARTESIAN_POINT('',(2.09783292838,0.0,0.5));
#1370=CARTESIAN_POINT('',(2.25,0.0,0.5));
#1371=VECTOR('',#1716,0.1521670716199);
#1372=AXIS2_PLACEMENT_3D('',#1717,#1718,#1719);
#1373=CARTESIAN_POINT('',(2.25,0.0,-0.5));
#1374=CARTESIAN_POINT('',(2.25,0.0,-0.5));
#1375=VECTOR('',#1720,0.1521670716199);
#1376=CARTESIAN_POINT('',(2.25,0.0,-1.317712434447));
#1377=CARTESIAN_POINT('',(2.25,0.0,-1.317712434447));
#1378=VECTOR('',#1721,0.8177124344468);
#1379=CARTESIAN_POINT('',(2.2,0.0,-1.45));
#1380=AXIS2_PLACEMENT_3D('',#1722,#1723,#1724);
#1381=CARTESIAN_POINT('',(2.2,0.0,-1.55));
#1382=CARTESIAN_POINT('',(2.2,0.0,-1.45));
#1383=VECTOR('',#1725,0.1);
#1384=CARTESIAN_POINT('',(0.2,0.0,-1.55));
#1385=CARTESIAN_POINT('',(2.2,0.0,-1.55));
#1386=VECTOR('',#1726,2.0);
#1387=AXIS2_PLACEMENT_3D('',#1727,#1728,#1729);
#1388=CARTESIAN_POINT('',(0.02679491924311,-0.15,-1.45));
#1389=VECTOR('',#1730,0.15);
#1390=CARTESIAN_POINT('',(-2.2,-0.15,-1.45));
#1391=VECTOR('',#1731,0.15);
#1392=CARTESIAN_POINT('',(0.2,-0.15,-1.55));
#1393=VECTOR('',#1732,0.15);
#1394=CARTESIAN_POINT('',(2.2,0.0,-1.55));
#1395=VECTOR('',#1733,0.15);
#1396=CARTESIAN_POINT('',(2.2,0.0,-1.45));
#1397=VECTOR('',#1734,0.15);
#1398=CARTESIAN_POINT('',(2.4,0.04019237886467,-1.25));
#1399=CARTESIAN_POINT('',(2.4,-0.1242640687119,-1.25));
#1400=CARTESIAN_POINT('',(2.4,0.04019237886467,-1.25));
#1401=VECTOR('',#1735,0.1644564475766);
#1402=CARTESIAN_POINT('',(2.24999999999989,-0.15,-1.3177124344469));
#1403=CARTESIAN_POINT('',(2.25295514347909,-0.150000000000001,-1.31436161670354));
#1404=CARTESIAN_POINT('',(2.25599652925475,-0.149970777950178,-1.31113974960484));
#1405=CARTESIAN_POINT('',(2.27721219503377,-0.149541480847073,-1.29008079151212));
#1406=CARTESIAN_POINT('',(2.30013474434779,-0.147898896843088,-1.27468083962764));
#1407=CARTESIAN_POINT('',(2.34951417370872,-0.139572342873736,-1.25465144912896));
#1408=CARTESIAN_POINT('',(2.37594205964232,-0.132769835096077,-1.25));
#1409=CARTESIAN_POINT('',(2.4,-0.124264068711929,-1.25));
#1410=CARTESIAN_POINT('',(2.4,0.0401923788646687,-1.25));
#1411=CARTESIAN_POINT('',(2.39613218569978,0.0379592952372632,-1.25));
#1412=CARTESIAN_POINT('',(2.39220776147529,0.0358094996187038,-1.25010763925237));
#1413=CARTESIAN_POINT('',(2.36861707526985,0.023557398278829,-1.25152431009081));
#1414=CARTESIAN_POINT('',(2.3480143370578,0.0157991068288215,-1.25583974016805));
#1415=CARTESIAN_POINT('',(2.31196658763342,0.00592049595781638,-1.2694645087824));
#1416=CARTESIAN_POINT('',(2.29387638634179,0.00280004270649087,-1.27924612724596));
#1417=CARTESIAN_POINT('',(2.26761939963929,0.000334961190466687,-1.29954381314891));
#1418=CARTESIAN_POINT('',(2.25824915304575,-3.13716260349353E-15,-1.30835877409563));
#1419=CARTESIAN_POINT('',(2.24999999999989,0.0,-1.3177124344469));
#1420=AXIS2_PLACEMENT_3D('',#1736,#1737,#1738);
#1421=CARTESIAN_POINT('',(-0.06068646493449,2.158286323678,-1.25));
#1422=CARTESIAN_POINT('',(-0.06068646493449,2.158286323678,-1.25));
#1423=VECTOR('',#1739,2.9499999999999);
#1424=CARTESIAN_POINT('',(-0.1968462236882,2.198618681692,-1.25));
#1425=AXIS2_PLACEMENT_3D('',#1740,#1741,#1742);
#1426=CARTESIAN_POINT('',(-1.726846223688,2.198618681692,-1.25));
#1427=CARTESIAN_POINT('',(-1.726846223688,2.198618681692,-1.25));
#1428=VECTOR('',#1743,1.53);
#1429=CARTESIAN_POINT('',(-1.943352574634,2.073618681692,-1.25));
#1430=AXIS2_PLACEMENT_3D('',#1744,#1745,#1746);
#1431=CARTESIAN_POINT('',(-1.968352574634,2.030317411502,-1.25));
#1432=CARTESIAN_POINT('',(-1.968352574634,2.030317411502,-1.25));
#1433=VECTOR('',#1747,0.0499999999999983);
#1434=AXIS2_PLACEMENT_3D('',#1748,#1749,#1750);
#1435=CARTESIAN_POINT('',(-1.451846223688,1.655317411502,-1.25));
#1436=CARTESIAN_POINT('',(-1.451846223688,1.655317411502,-1.25));
#1437=VECTOR('',#1751,0.3);
#1438=CARTESIAN_POINT('',(-1.451846223688,1.505317411502,-1.25));
#1439=CARTESIAN_POINT('',(-1.451846223688,1.505317411502,-1.25));
#1440=VECTOR('',#1752,0.15);
#1441=CARTESIAN_POINT('',(-1.751846223688,1.505317411502,-1.25));
#1442=VECTOR('',#1753,0.3);
#1443=CARTESIAN_POINT('',(-2.098256385202,2.105317411502,-1.25));
#1444=AXIS2_PLACEMENT_3D('',#1754,#1755,#1756);
#1445=CARTESIAN_POINT('',(-2.073256385202,2.148618681692,-1.25));
#1446=CARTESIAN_POINT('',(-2.073256385202,2.148618681692,-1.25));
#1447=VECTOR('',#1757,0.0499999999999983);
#1448=CARTESIAN_POINT('',(-1.726846223688,2.348618681692,-1.25));
#1449=AXIS2_PLACEMENT_3D('',#1758,#1759,#1760);
#1450=CARTESIAN_POINT('',(-0.1968462236882,2.348618681692,-1.25));
#1451=CARTESIAN_POINT('',(-0.1968462236882,2.348618681692,-1.25));
#1452=VECTOR('',#1761,1.53);
#1453=CARTESIAN_POINT('',(0.02100939031776,2.28408690887,-1.25));
#1454=AXIS2_PLACEMENT_3D('',#1762,#1763,#1764);
#1455=CARTESIAN_POINT('',(2.495087565757,0.6774017555754,-1.25));
#1456=VECTOR('',#1765,2.9499999999999);
#1457=AXIS2_PLACEMENT_3D('',#1766,#1767,#1768);
#1458=AXIS2_PLACEMENT_3D('',#1769,#1770,#1771);
#1459=CARTESIAN_POINT('',(2.4,-0.1242640687119,1.25));
#1460=AXIS2_PLACEMENT_3D('',#1772,#1773,#1774);
#1461=CARTESIAN_POINT('',(2.4,-0.124264068711929,1.25));
#1462=CARTESIAN_POINT('',(2.37594205964232,-0.132769835096077,1.25));
#1463=CARTESIAN_POINT('',(2.34951417370872,-0.139572342873736,1.25465144912896));
#1464=CARTESIAN_POINT('',(2.30013474434779,-0.147898896843088,1.27468083962764));
#1465=CARTESIAN_POINT('',(2.27721219503377,-0.149541480847073,1.29008079151212));
#1466=CARTESIAN_POINT('',(2.25599652925475,-0.149970777950178,1.31113974960484));
#1467=CARTESIAN_POINT('',(2.25295514347909,-0.150000000000001,1.31436161670354));
#1468=CARTESIAN_POINT('',(2.24999999999989,-0.15,1.3177124344469));
#1469=AXIS2_PLACEMENT_3D('',#1775,#1776,#1777);
#1470=CARTESIAN_POINT('',(1.195148185441,1.521592259849,-0.5));
#1471=CARTESIAN_POINT('',(2.495087565757,0.6774017555754,-0.5));
#1472=VECTOR('',#1778,1.54999999999995);
#1473=CARTESIAN_POINT('',(1.113452330189,1.395791674657,-0.5));
#1474=CARTESIAN_POINT('',(1.195148185441,1.521592259849,-0.5));
#1475=VECTOR('',#1779,0.149999999999995);
#1476=CARTESIAN_POINT('',(2.413391710505,0.5516011703836,-0.5));
#1477=VECTOR('',#1780,1.54999999999995);
#1478=AXIS2_PLACEMENT_3D('',#1781,#1782,#1783);
#1479=CARTESIAN_POINT('',(2.09783292838,-0.15,0.5));
#1480=VECTOR('',#1784,0.15);
#1481=CARTESIAN_POINT('',(2.413391710505,0.5516011703836,0.5));
#1482=VECTOR('',#1785,1.54999999999995);
#1483=CARTESIAN_POINT('',(2.495087565757,0.6774017555754,0.5));
#1484=VECTOR('',#1786,1.54999999999995);
#1485=AXIS2_PLACEMENT_3D('',#1787,#1788,#1789);
#1486=CARTESIAN_POINT('',(2.4,0.04019237886467,1.25));
#1487=CARTESIAN_POINT('',(2.24999999999989,-1.30377363848504E-29,1.3177124344469));
#1488=CARTESIAN_POINT('',(2.25503216752499,-1.91820868970475E-15,1.31200649280673));
#1489=CARTESIAN_POINT('',(2.26033642272695,0.000127732323786726,1.30665118833813));
#1490=CARTESIAN_POINT('',(2.28349509800479,0.00135112609477341,1.28570053582247));
#1491=CARTESIAN_POINT('',(2.3078142793904,0.0047718395213692,1.27101627440684));
#1492=CARTESIAN_POINT('',(2.34841554019841,0.0159185626319634,1.25570372350231));
#1493=CARTESIAN_POINT('',(2.3692981463577,0.0238262126683835,1.25139602614298));
#1494=CARTESIAN_POINT('',(2.39281163917569,0.0361409688856408,1.25009119336107));
#1495=CARTESIAN_POINT('',(2.39642939199937,0.038130887374333,1.25));
#1496=CARTESIAN_POINT('',(2.4,0.0401923788646689,1.25));
#1497=AXIS2_PLACEMENT_3D('',#1790,#1791,#1792);
#1498=AXIS2_PLACEMENT_3D('',#1793,#1794,#1795);
#1499=CARTESIAN_POINT('',(-0.06068646493449,2.158286323678,1.25));
#1500=CARTESIAN_POINT('',(-0.06068646493449,2.158286323678,1.25));
#1501=VECTOR('',#1796,2.9499999999999);
#1502=CARTESIAN_POINT('',(-0.06068646493449,2.158286323678,-1.25));
#1503=VECTOR('',#1797,2.5);
#1504=CARTESIAN_POINT('',(-0.1968462236882,2.198618681692,1.25));
#1505=AXIS2_PLACEMENT_3D('',#1798,#1799,#1800);
#1506=CARTESIAN_POINT('',(-0.1968462236882,2.198618681692,-1.25));
#1507=VECTOR('',#1801,2.5);
#1508=CARTESIAN_POINT('',(-1.726846223688,2.198618681692,1.25));
#1509=CARTESIAN_POINT('',(-1.726846223688,2.198618681692,1.25));
#1510=VECTOR('',#1802,1.53);
#1511=CARTESIAN_POINT('',(-1.726846223688,2.198618681692,-1.25));
#1512=VECTOR('',#1803,2.5);
#1513=CARTESIAN_POINT('',(-1.943352574634,2.073618681692,1.25));
#1514=AXIS2_PLACEMENT_3D('',#1804,#1805,#1806);
#1515=CARTESIAN_POINT('',(-1.943352574634,2.073618681692,-1.25));
#1516=VECTOR('',#1807,2.5);
#1517=CARTESIAN_POINT('',(-1.968352574634,2.030317411502,1.25));
#1518=CARTESIAN_POINT('',(-1.968352574634,2.030317411502,1.25));
#1519=VECTOR('',#1808,0.0499999999999983);
#1520=CARTESIAN_POINT('',(-1.968352574634,2.030317411502,-1.25));
#1521=VECTOR('',#1809,2.5);
#1522=AXIS2_PLACEMENT_3D('',#1810,#1811,#1812);
#1523=CARTESIAN_POINT('',(-1.451846223688,1.655317411502,1.25));
#1524=CARTESIAN_POINT('',(-1.151846223688,1.655317411502,0.95));
#1525=AXIS2_PLACEMENT_3D('',#1813,#1814,#1815);
#1526=CARTESIAN_POINT('',(-1.151846223688,1.655317411502,-0.95));
#1527=CARTESIAN_POINT('',(-1.151846223688,1.655317411502,-0.95));
#1528=VECTOR('',#1816,1.9);
#1529=AXIS2_PLACEMENT_3D('',#1817,#1818,#1819);
#1530=CARTESIAN_POINT('',(-1.451846223688,1.655317411502,1.25));
#1531=VECTOR('',#1820,0.3);
#1532=CARTESIAN_POINT('',(-1.151846223688,1.505317411502,0.95));
#1533=CARTESIAN_POINT('',(-1.451846223688,1.505317411502,1.25));
#1534=AXIS2_PLACEMENT_3D('',#1821,#1822,#1823);
#1535=CARTESIAN_POINT('',(-1.151846223688,1.655317411502,0.95));
#1536=VECTOR('',#1824,0.15);
#1537=CARTESIAN_POINT('',(-1.451846223688,1.655317411502,1.25));
#1538=VECTOR('',#1825,0.15);
#1539=CARTESIAN_POINT('',(-1.751846223688,1.505317411502,1.25));
#1540=VECTOR('',#1826,0.3);
#1541=CARTESIAN_POINT('',(-1.151846223688,1.505317411502,-0.95));
#1542=AXIS2_PLACEMENT_3D('',#1827,#1828,#1829);
#1543=CARTESIAN_POINT('',(-1.151846223688,1.505317411502,-0.95));
#1544=VECTOR('',#1830,1.9);
#1545=CARTESIAN_POINT('',(-1.151846223688,1.505317411502,-0.95));
#1546=VECTOR('',#1831,0.15);
#1547=CARTESIAN_POINT('',(-2.098256385202,2.105317411502,1.25));
#1548=AXIS2_PLACEMENT_3D('',#1832,#1833,#1834);
#1549=CARTESIAN_POINT('',(-2.098256385202,2.105317411502,-1.25));
#1550=VECTOR('',#1835,2.5);
#1551=CARTESIAN_POINT('',(-2.073256385202,2.148618681692,1.25));
#1552=CARTESIAN_POINT('',(-2.073256385202,2.148618681692,1.25));
#1553=VECTOR('',#1836,0.0500000000000027);
#1554=CARTESIAN_POINT('',(-2.073256385202,2.148618681692,-1.25));
#1555=VECTOR('',#1837,2.5);
#1556=CARTESIAN_POINT('',(-1.726846223688,2.348618681692,1.25));
#1557=AXIS2_PLACEMENT_3D('',#1838,#1839,#1840);
#1558=CARTESIAN_POINT('',(-1.726846223688,2.348618681692,-1.25));
#1559=VECTOR('',#1841,2.5);
#1560=CARTESIAN_POINT('',(-0.1968462236882,2.348618681692,1.25));
#1561=CARTESIAN_POINT('',(-0.1968462236882,2.348618681692,1.25));
#1562=VECTOR('',#1842,1.53);
#1563=CARTESIAN_POINT('',(-0.1968462236882,2.348618681692,-1.25));
#1564=VECTOR('',#1843,2.5);
#1565=CARTESIAN_POINT('',(0.02100939031776,2.28408690887,1.25));
#1566=AXIS2_PLACEMENT_3D('',#1844,#1845,#1846);
#1567=CARTESIAN_POINT('',(0.02100939031776,2.28408690887,-1.25));
#1568=VECTOR('',#1847,2.5);
#1569=CARTESIAN_POINT('',(2.495087565757,0.6774017555754,1.25));
#1570=VECTOR('',#1848,2.9499999999999);
#1571=AXIS2_PLACEMENT_3D('',#1849,#1850,#1851);
#1572=CARTESIAN_POINT('',(2.4,-0.1242640687119,1.25));
#1573=VECTOR('',#1852,0.1644564475766);
#1574=CARTESIAN_POINT('',(2.2,-0.15,1.45));
#1575=VECTOR('',#1853,0.15);
#1576=CARTESIAN_POINT('',(2.2,0.0,1.55));
#1577=VECTOR('',#1854,0.15);
#1578=CARTESIAN_POINT('',(0.2,0.0,1.55));
#1579=VECTOR('',#1855,0.15);
#1580=CARTESIAN_POINT('',(0.02679491924311,0.0,1.45));
#1581=VECTOR('',#1856,0.15);
#1582=CARTESIAN_POINT('',(-2.2,0.0,1.45));
#1583=VECTOR('',#1857,0.15);
#1584=CARTESIAN_POINT('',(-2.7,0.0,0.95));
#1585=VECTOR('',#1858,0.15);
#1586=CARTESIAN_POINT('',(-2.7,-0.15,-0.95));
#1587=VECTOR('',#1859,0.15);
#1588=DIRECTION('',(-0.544639035015019,-0.838670567945429,0.0));
#1589=CARTESIAN_POINT('',(1.195148185441,1.521592259849,0.0));
#1590=DIRECTION('',(0.544639035015019,0.838670567945429,0.0));
#1591=DIRECTION('',(0.0,0.0,-1.0));
#1592=DIRECTION('',(-0.544639035015019,-0.838670567945429,0.0));
#1593=CARTESIAN_POINT('',(1.113452330189,1.395791674657,0.0));
#1594=DIRECTION('',(0.544639035015019,0.838670567945429,0.0));
#1595=DIRECTION('',(0.0,0.0,-1.0));
#1596=DIRECTION('',(-0.0,-0.0,1.0));
#1597=CARTESIAN_POINT('',(-1.751846223688,1.905317411502,-1.25));
#1598=DIRECTION('',(0.0,0.0,1.0));
#1599=DIRECTION('',(-0.866025403784429,0.500000000000017,0.0));
#1600=DIRECTION('',(0.0,0.0,1.0));
#1601=CARTESIAN_POINT('',(-1.751846223688,1.905317411502,1.25));
#1602=DIRECTION('',(0.0,0.0,1.0));
#1603=DIRECTION('',(-0.866025403784429,0.500000000000017,0.0));
#1604=DIRECTION('',(0.0,-0.0,-1.0));
#1605=CARTESIAN_POINT('',(-1.751846223688,1.905317411502,1.25));
#1606=DIRECTION('',(0.0,0.0,1.0));
#1607=DIRECTION('',(-0.866025403784429,0.500000000000017,0.0));
#1608=DIRECTION('',(0.0,0.0,1.0));
#1609=CARTESIAN_POINT('',(-1.751846223688,1.905317411502,-1.25));
#1610=DIRECTION('',(0.0,0.0,1.0));
#1611=DIRECTION('',(-0.866025403784429,0.500000000000017,0.0));
#1612=DIRECTION('',(-0.0,-0.0,-1.0));
#1613=CARTESIAN_POINT('',(2.25,0.3,1.25));
#1614=DIRECTION('',(0.0,0.0,1.0));
#1615=DIRECTION('',(0.500000000000017,-0.866025403784429,0.0));
#1616=DIRECTION('',(0.0,0.0,1.0));
#1617=CARTESIAN_POINT('',(2.25,0.3,0.5));
#1618=DIRECTION('',(0.0,0.0,-1.0));
#1619=DIRECTION('',(0.544639035015019,0.838670567945429,0.0));
#1620=DIRECTION('',(-0.0,-0.0,-1.0));
#1621=CARTESIAN_POINT('',(2.25,0.3,-0.5));
#1622=DIRECTION('',(0.0,0.0,1.0));
#1623=DIRECTION('',(0.0,-1.0,0.0));
#1624=DIRECTION('',(0.0,0.0,1.0));
#1625=CARTESIAN_POINT('',(2.25,0.3,-1.25));
#1626=DIRECTION('',(0.0,0.0,1.0));
#1627=DIRECTION('',(0.500000000000017,-0.866025403784429,0.0));
#1628=DIRECTION('',(0.0,1.0,-0.0));
#1629=CARTESIAN_POINT('',(2.09783292838,-0.15,0.0));
#1630=DIRECTION('',(0.0,-1.0,0.0));
#1631=DIRECTION('',(0.0,0.0,1.0));
#1632=DIRECTION('',(0.0,1.0,0.0));
#1633=CARTESIAN_POINT('',(2.09783292838,0.0,0.0));
#1634=DIRECTION('',(0.0,-1.0,0.0));
#1635=DIRECTION('',(0.0,0.0,1.0));
#1636=DIRECTION('',(-0.0,-0.0,1.0));
#1637=CARTESIAN_POINT('',(2.25,0.3,0.5));
#1638=DIRECTION('',(0.0,0.0,1.0));
#1639=DIRECTION('',(0.0,-1.0,0.0));
#1640=DIRECTION('',(0.0,0.0,1.0));
#1641=CARTESIAN_POINT('',(2.25,0.3,1.25));
#1642=DIRECTION('',(0.0,0.0,1.0));
#1643=DIRECTION('',(0.333333333333292,-0.942809041582078,0.0));
#1644=DIRECTION('',(-0.0,-0.0,1.0));
#1645=CARTESIAN_POINT('',(2.25,0.3,-1.25));
#1646=DIRECTION('',(0.0,0.0,1.0));
#1647=DIRECTION('',(0.333333333333292,-0.942809041582078,0.0));
#1648=DIRECTION('',(0.0,0.0,1.0));
#1649=CARTESIAN_POINT('',(2.25,0.3,-0.5));
#1650=DIRECTION('',(0.0,0.0,-1.0));
#1651=DIRECTION('',(0.544639035015019,0.838670567945429,0.0));
#1652=DIRECTION('',(-0.0,-1.0,-0.0));
#1653=CARTESIAN_POINT('',(0.0,0.0,0.0));
#1654=DIRECTION('',(0.0,1.0,0.0));
#1655=DIRECTION('',(-1.0,0.0,0.0));
#1656=DIRECTION('',(0.0,1.0,0.0));
#1657=CARTESIAN_POINT('',(0.0,-0.15,0.0));
#1658=DIRECTION('',(0.0,1.0,0.0));
#1659=DIRECTION('',(-1.0,0.0,0.0));
#1660=DIRECTION('',(-1.0,0.0,0.0));
#1661=DIRECTION('',(0.0,0.0,1.0));
#1662=CARTESIAN_POINT('',(2.4,-0.15,-1.45));
#1663=DIRECTION('',(0.0,1.0,0.0));
#1664=DIRECTION('',(-1.0,0.0,0.0));
#1665=DIRECTION('',(0.0,0.0,1.0));
#1666=DIRECTION('',(-1.0,0.0,0.0));
#1667=CARTESIAN_POINT('',(2.09783292838,-0.15,0.0));
#1668=DIRECTION('',(0.0,-1.0,0.0));
#1669=DIRECTION('',(0.0,0.0,1.0));
#1670=DIRECTION('',(-1.0,0.0,0.0));
#1671=DIRECTION('',(0.0,0.0,1.0));
#1672=CARTESIAN_POINT('',(2.4,-0.15,1.45));
#1673=DIRECTION('',(0.0,1.0,0.0));
#1674=DIRECTION('',(-0.750000000000024,0.0,-0.661437827766121));
#1675=DIRECTION('',(0.0,0.0,1.0));
#1676=DIRECTION('',(1.0,0.0,0.0));
#1677=CARTESIAN_POINT('',(0.02679491924311,-0.15,1.65));
#1678=DIRECTION('',(0.0,1.0,0.0));
#1679=DIRECTION('',(0.866025403784429,0.0,-0.500000000000017));
#1680=DIRECTION('',(1.0,0.0,0.0));
#1681=CARTESIAN_POINT('',(-2.2,-0.15,0.95));
#1682=DIRECTION('',(0.0,-1.0,0.0));
#1683=DIRECTION('',(0.0,0.0,1.0));
#1684=DIRECTION('',(0.0,0.0,1.0));
#1685=CARTESIAN_POINT('',(-2.2,-0.15,-0.95));
#1686=DIRECTION('',(0.0,-1.0,0.0));
#1687=DIRECTION('',(-1.0,0.0,0.0));
#1688=DIRECTION('',(1.0,0.0,0.0));
#1689=CARTESIAN_POINT('',(0.02679491924311,-0.15,-1.65));
#1690=DIRECTION('',(0.0,1.0,0.0));
#1691=DIRECTION('',(0.0,0.0,1.0));
#1692=CARTESIAN_POINT('',(0.0,-0.15,0.0));
#1693=DIRECTION('',(0.0,1.0,0.0));
#1694=DIRECTION('',(-1.0,0.0,0.0));
#1695=CARTESIAN_POINT('',(0.0,0.0,0.0));
#1696=DIRECTION('',(0.0,1.0,0.0));
#1697=DIRECTION('',(-1.0,0.0,0.0));
#1698=DIRECTION('',(-1.0,0.0,0.0));
#1699=CARTESIAN_POINT('',(-2.2,0.0,-0.95));
#1700=DIRECTION('',(0.0,1.0,0.0));
#1701=DIRECTION('',(0.0,0.0,-1.0));
#1702=DIRECTION('',(0.0,0.0,1.0));
#1703=CARTESIAN_POINT('',(-2.2,0.0,0.95));
#1704=DIRECTION('',(0.0,1.0,0.0));
#1705=DIRECTION('',(-1.0,0.0,0.0));
#1706=DIRECTION('',(-1.0,0.0,0.0));
#1707=CARTESIAN_POINT('',(0.02679491924311,0.0,1.65));
#1708=DIRECTION('',(0.0,-1.0,0.0));
#1709=DIRECTION('',(0.0,0.0,-1.0));
#1710=DIRECTION('',(1.0,0.0,0.0));
#1711=DIRECTION('',(0.0,0.0,-1.0));
#1712=CARTESIAN_POINT('',(2.4,0.0,1.45));
#1713=DIRECTION('',(0.0,-1.0,0.0));
#1714=DIRECTION('',(-1.0,0.0,0.0));
#1715=DIRECTION('',(0.0,0.0,1.0));
#1716=DIRECTION('',(-1.0,0.0,0.0));
#1717=CARTESIAN_POINT('',(2.09783292838,0.0,0.0));
#1718=DIRECTION('',(0.0,-1.0,0.0));
#1719=DIRECTION('',(0.0,0.0,1.0));
#1720=DIRECTION('',(-1.0,0.0,0.0));
#1721=DIRECTION('',(0.0,0.0,1.0));
#1722=CARTESIAN_POINT('',(2.4,0.0,-1.45));
#1723=DIRECTION('',(0.0,-1.0,0.0));
#1724=DIRECTION('',(-0.750000000000024,0.0,0.661437827766121));
#1725=DIRECTION('',(0.0,0.0,-1.0));
#1726=DIRECTION('',(-1.0,0.0,0.0));
#1727=CARTESIAN_POINT('',(0.02679491924311,0.0,-1.65));
#1728=DIRECTION('',(0.0,-1.0,0.0));
#1729=DIRECTION('',(0.866025403784429,0.0,0.500000000000017));
#1730=DIRECTION('',(0.0,1.0,0.0));
#1731=DIRECTION('',(0.0,1.0,0.0));
#1732=DIRECTION('',(0.0,1.0,0.0));
#1733=DIRECTION('',(0.0,-1.0,0.0));
#1734=DIRECTION('',(0.0,-1.0,0.0));
#1735=DIRECTION('',(0.0,-1.0,0.0));
#1736=CARTESIAN_POINT('',(2.25,0.3,-1.25));
#1737=DIRECTION('',(0.0,0.0,1.0));
#1738=DIRECTION('',(0.500000000000017,-0.866025403784429,0.0));
#1739=DIRECTION('',(0.838670567945429,-0.544639035015019,0.0));
#1740=CARTESIAN_POINT('',(-0.1968462236882,1.948618681692,-1.25));
#1741=DIRECTION('',(0.0,-0.0,1.0));
#1742=DIRECTION('',(0.544639035015019,0.838670567945429,0.0));
#1743=DIRECTION('',(1.0,0.0,0.0));
#1744=CARTESIAN_POINT('',(-1.726846223688,1.948618681692,-1.25));
#1745=DIRECTION('',(0.0,-0.0,1.0));
#1746=DIRECTION('',(0.0,1.0,0.0));
#1747=DIRECTION('',(0.500000000000017,0.866025403784429,0.0));
#1748=CARTESIAN_POINT('',(-1.751846223688,1.905317411502,-1.25));
#1749=DIRECTION('',(0.0,0.0,1.0));
#1750=DIRECTION('',(-0.866025403784429,0.500000000000017,0.0));
#1751=DIRECTION('',(-1.0,0.0,0.0));
#1752=DIRECTION('',(0.0,1.0,0.0));
#1753=DIRECTION('',(1.0,0.0,0.0));
#1754=CARTESIAN_POINT('',(-1.751846223688,1.905317411502,-1.25));
#1755=DIRECTION('',(0.0,0.0,1.0));
#1756=DIRECTION('',(-0.866025403784429,0.500000000000017,0.0));
#1757=DIRECTION('',(-0.500000000000017,-0.866025403784429,0.0));
#1758=CARTESIAN_POINT('',(-1.726846223688,1.948618681692,-1.25));
#1759=DIRECTION('',(0.0,-0.0,1.0));
#1760=DIRECTION('',(0.0,1.0,0.0));
#1761=DIRECTION('',(-1.0,0.0,0.0));
#1762=CARTESIAN_POINT('',(-0.1968462236882,1.948618681692,-1.25));
#1763=DIRECTION('',(0.0,-0.0,1.0));
#1764=DIRECTION('',(0.544639035015019,0.838670567945429,0.0));
#1765=DIRECTION('',(-0.838670567945429,0.544639035015019,0.0));
#1766=CARTESIAN_POINT('',(2.25,0.3,-1.25));
#1767=DIRECTION('',(0.0,0.0,1.0));
#1768=DIRECTION('',(0.333333333333292,-0.942809041582078,0.0));
#1769=CARTESIAN_POINT('',(2.25,0.3,-0.5));
#1770=DIRECTION('',(0.0,0.0,-1.0));
#1771=DIRECTION('',(0.544639035015019,0.838670567945429,0.0));
#1772=CARTESIAN_POINT('',(2.25,0.3,1.25));
#1773=DIRECTION('',(0.0,0.0,1.0));
#1774=DIRECTION('',(0.333333333333292,-0.942809041582078,0.0));
#1775=CARTESIAN_POINT('',(2.25,0.3,0.5));
#1776=DIRECTION('',(0.0,0.0,1.0));
#1777=DIRECTION('',(0.0,-1.0,0.0));
#1778=DIRECTION('',(-0.838670567945429,0.544639035015019,0.0));
#1779=DIRECTION('',(-0.544639035015019,-0.838670567945429,0.0));
#1780=DIRECTION('',(-0.838670567945429,0.544639035015019,0.0));
#1781=CARTESIAN_POINT('',(2.25,0.3,-0.5));
#1782=DIRECTION('',(0.0,0.0,1.0));
#1783=DIRECTION('',(0.0,-1.0,0.0));
#1784=DIRECTION('',(0.0,1.0,0.0));
#1785=DIRECTION('',(-0.838670567945429,0.544639035015019,0.0));
#1786=DIRECTION('',(-0.838670567945429,0.544639035015019,0.0));
#1787=CARTESIAN_POINT('',(2.25,0.3,0.5));
#1788=DIRECTION('',(0.0,0.0,-1.0));
#1789=DIRECTION('',(0.544639035015019,0.838670567945429,0.0));
#1790=CARTESIAN_POINT('',(2.25,0.3,1.25));
#1791=DIRECTION('',(0.0,0.0,1.0));
#1792=DIRECTION('',(0.500000000000017,-0.866025403784429,0.0));
#1793=CARTESIAN_POINT('',(1.113452330189,1.395791674657,0.0));
#1794=DIRECTION('',(0.544639035015019,0.838670567945429,0.0));
#1795=DIRECTION('',(0.0,0.0,-1.0));
#1796=DIRECTION('',(0.838670567945429,-0.544639035015019,0.0));
#1797=DIRECTION('',(0.0,0.0,1.0));
#1798=CARTESIAN_POINT('',(-0.1968462236882,1.948618681692,1.25));
#1799=DIRECTION('',(0.0,-0.0,1.0));
#1800=DIRECTION('',(0.544639035015019,0.838670567945429,0.0));
#1801=DIRECTION('',(0.0,0.0,1.0));
#1802=DIRECTION('',(1.0,0.0,0.0));
#1803=DIRECTION('',(0.0,0.0,1.0));
#1804=CARTESIAN_POINT('',(-1.726846223688,1.948618681692,1.25));
#1805=DIRECTION('',(0.0,-0.0,1.0));
#1806=DIRECTION('',(0.0,1.0,0.0));
#1807=DIRECTION('',(0.0,0.0,1.0));
#1808=DIRECTION('',(0.500000000000017,0.866025403784429,0.0));
#1809=DIRECTION('',(0.0,0.0,1.0));
#1810=CARTESIAN_POINT('',(-1.751846223688,1.905317411502,1.25));
#1811=DIRECTION('',(0.0,0.0,1.0));
#1812=DIRECTION('',(-0.866025403784429,0.500000000000017,0.0));
#1813=CARTESIAN_POINT('',(-1.451846223688,1.655317411502,0.95));
#1814=DIRECTION('',(0.0,1.0,0.0));
#1815=DIRECTION('',(0.0,0.0,1.0));
#1816=DIRECTION('',(0.0,0.0,1.0));
#1817=CARTESIAN_POINT('',(-1.451846223688,1.655317411502,-0.95));
#1818=DIRECTION('',(-0.0,1.0,0.0));
#1819=DIRECTION('',(1.0,0.0,0.0));
#1820=DIRECTION('',(-1.0,0.0,0.0));
#1821=CARTESIAN_POINT('',(-1.451846223688,1.505317411502,0.95));
#1822=DIRECTION('',(0.0,-1.0,0.0));
#1823=DIRECTION('',(1.0,0.0,0.0));
#1824=DIRECTION('',(0.0,-1.0,0.0));
#1825=DIRECTION('',(0.0,-1.0,0.0));
#1826=DIRECTION('',(1.0,0.0,0.0));
#1827=CARTESIAN_POINT('',(-1.451846223688,1.505317411502,-0.95));
#1828=DIRECTION('',(0.0,-1.0,0.0));
#1829=DIRECTION('',(0.0,0.0,-1.0));
#1830=DIRECTION('',(0.0,0.0,1.0));
#1831=DIRECTION('',(0.0,1.0,0.0));
#1832=CARTESIAN_POINT('',(-1.751846223688,1.905317411502,1.25));
#1833=DIRECTION('',(0.0,0.0,1.0));
#1834=DIRECTION('',(-0.866025403784429,0.500000000000017,0.0));
#1835=DIRECTION('',(0.0,0.0,1.0));
#1836=DIRECTION('',(-0.499999999999974,-0.866025403784454,0.0));
#1837=DIRECTION('',(0.0,0.0,1.0));
#1838=CARTESIAN_POINT('',(-1.726846223688,1.948618681692,1.25));
#1839=DIRECTION('',(0.0,-0.0,1.0));
#1840=DIRECTION('',(0.0,1.0,0.0));
#1841=DIRECTION('',(0.0,0.0,1.0));
#1842=DIRECTION('',(-1.0,0.0,0.0));
#1843=DIRECTION('',(0.0,0.0,1.0));
#1844=CARTESIAN_POINT('',(-0.1968462236882,1.948618681692,1.25));
#1845=DIRECTION('',(0.0,-0.0,1.0));
#1846=DIRECTION('',(0.544639035015019,0.838670567945429,0.0));
#1847=DIRECTION('',(0.0,0.0,1.0));
#1848=DIRECTION('',(-0.838670567945429,0.544639035015019,0.0));
#1849=CARTESIAN_POINT('',(1.195148185441,1.521592259849,0.0));
#1850=DIRECTION('',(0.544639035015019,0.838670567945429,0.0));
#1851=DIRECTION('',(0.0,0.0,-1.0));
#1852=DIRECTION('',(0.0,1.0,0.0));
#1853=DIRECTION('',(0.0,1.0,0.0));
#1854=DIRECTION('',(0.0,-1.0,0.0));
#1855=DIRECTION('',(0.0,-1.0,0.0));
#1856=DIRECTION('',(0.0,-1.0,0.0));
#1857=DIRECTION('',(0.0,-1.0,0.0));
#1858=DIRECTION('',(0.0,-1.0,0.0));
#1859=DIRECTION('',(0.0,1.0,0.0));
ENDSEC;
END-ISO-10303-21;
