ISO-10303-21;
HEADER;
/* Generated by software containing ST-Developer
 * from STEP Tools, Inc. (www.steptools.com) 
 */

FILE_DESCRIPTION(
/* description */ (''),
/* implementation_level */ '2;1');

FILE_NAME(
/* name */ 'S1741-46R.stp.ipt.stp',
/* time_stamp */ '2023-05-03T21:57:01+02:00',
/* author */ ('sbennett'),
/* organization */ (''),
/* preprocessor_version */ 'ST-DEVELOPER v19.2',
/* originating_system */ 'Autodesk Inventor 2024',
/* authorisation */ '');

FILE_SCHEMA (('AUTOMOTIVE_DESIGN { 1 0 10303 214 3 1 1 }'));
ENDSEC;

DATA;
#10=MECHANICAL_DESIGN_GEOMETRIC_PRESENTATION_REPRESENTATION('',(#13),#1533);
#11=SHAPE_REPRESENTATION_RELATIONSHIP('SRR','None',#1540,#12);
#12=ADVANCED_BREP_SHAPE_REPRESENTATION('',(#14),#1532);
#13=STYLED_ITEM('',(#1550),#14);
#14=MANIFOLD_SOLID_BREP('Solide1',#876);
#15=B_SPLINE_CURVE_WITH_KNOTS('',3,(#1333,#1334,#1335,#1336,#1337,#1338,
#1339,#1340),.UNSPECIFIED.,.F.,.F.,(4,2,2,4),(0.0778216899527588,0.0791352885184999,
0.0867904782642338,0.0944456680099676),.UNSPECIFIED.);
#16=B_SPLINE_CURVE_WITH_KNOTS('',3,(#1341,#1342,#1343,#1344,#1345,#1346,
#1347,#1348,#1349,#1350),.UNSPECIFIED.,.F.,.F.,(4,2,2,2,4),(-0.216946041429427,
-0.215695299421805,-0.209495761826691,-0.203760495862514,-0.200188999068052),
 .UNSPECIFIED.);
#17=B_SPLINE_CURVE_WITH_KNOTS('',3,(#1396,#1397,#1398,#1399,#1400,#1401,
#1402,#1403),.UNSPECIFIED.,.F.,.F.,(4,2,2,4),(-0.0304622869342771,-0.0228070971885432,
-0.0151519074428094,-0.0138383088770682),.UNSPECIFIED.);
#18=B_SPLINE_CURVE_WITH_KNOTS('',3,(#1430,#1431,#1432,#1433,#1434,#1435,
#1436,#1437,#1438,#1439),.UNSPECIFIED.,.F.,.F.,(4,2,2,2,4),(0.0138842773560379,
0.0161067229601526,0.0232601810266049,0.029547211892692,0.0307020965763514),
 .UNSPECIFIED.);
#19=CYLINDRICAL_SURFACE('',#908,0.6);
#20=CYLINDRICAL_SURFACE('',#919,0.2);
#21=CYLINDRICAL_SURFACE('',#922,0.2);
#22=CYLINDRICAL_SURFACE('',#932,0.45);
#23=CYLINDRICAL_SURFACE('',#934,0.45);
#24=CYLINDRICAL_SURFACE('',#939,0.5);
#25=CYLINDRICAL_SURFACE('',#942,0.3);
#26=CYLINDRICAL_SURFACE('',#943,0.3);
#27=CYLINDRICAL_SURFACE('',#947,0.25);
#28=CYLINDRICAL_SURFACE('',#950,0.25);
#29=CYLINDRICAL_SURFACE('',#953,0.25);
#30=CYLINDRICAL_SURFACE('',#958,0.3);
#31=CYLINDRICAL_SURFACE('',#963,0.3);
#32=CYLINDRICAL_SURFACE('',#964,0.4);
#33=CYLINDRICAL_SURFACE('',#967,0.4);
#34=CYLINDRICAL_SURFACE('',#970,0.4);
#35=CYLINDRICAL_SURFACE('',#974,0.5);
#36=CYLINDRICAL_SURFACE('',#976,0.2);
#37=CYLINDRICAL_SURFACE('',#979,0.2);
#38=CYLINDRICAL_SURFACE('',#981,0.5);
#39=CYLINDRICAL_SURFACE('',#983,0.5);
#40=FACE_BOUND('',#86,.T.);
#41=FACE_BOUND('',#89,.T.);
#42=FACE_OUTER_BOUND('',#85,.T.);
#43=FACE_OUTER_BOUND('',#87,.T.);
#44=FACE_OUTER_BOUND('',#88,.T.);
#45=FACE_OUTER_BOUND('',#90,.T.);
#46=FACE_OUTER_BOUND('',#91,.T.);
#47=FACE_OUTER_BOUND('',#92,.T.);
#48=FACE_OUTER_BOUND('',#93,.T.);
#49=FACE_OUTER_BOUND('',#94,.T.);
#50=FACE_OUTER_BOUND('',#95,.T.);
#51=FACE_OUTER_BOUND('',#96,.T.);
#52=FACE_OUTER_BOUND('',#97,.T.);
#53=FACE_OUTER_BOUND('',#98,.T.);
#54=FACE_OUTER_BOUND('',#99,.T.);
#55=FACE_OUTER_BOUND('',#100,.T.);
#56=FACE_OUTER_BOUND('',#101,.T.);
#57=FACE_OUTER_BOUND('',#102,.T.);
#58=FACE_OUTER_BOUND('',#103,.T.);
#59=FACE_OUTER_BOUND('',#104,.T.);
#60=FACE_OUTER_BOUND('',#105,.T.);
#61=FACE_OUTER_BOUND('',#106,.T.);
#62=FACE_OUTER_BOUND('',#107,.T.);
#63=FACE_OUTER_BOUND('',#108,.T.);
#64=FACE_OUTER_BOUND('',#109,.T.);
#65=FACE_OUTER_BOUND('',#110,.T.);
#66=FACE_OUTER_BOUND('',#111,.T.);
#67=FACE_OUTER_BOUND('',#112,.T.);
#68=FACE_OUTER_BOUND('',#113,.T.);
#69=FACE_OUTER_BOUND('',#114,.T.);
#70=FACE_OUTER_BOUND('',#115,.T.);
#71=FACE_OUTER_BOUND('',#116,.T.);
#72=FACE_OUTER_BOUND('',#117,.T.);
#73=FACE_OUTER_BOUND('',#118,.T.);
#74=FACE_OUTER_BOUND('',#119,.T.);
#75=FACE_OUTER_BOUND('',#120,.T.);
#76=FACE_OUTER_BOUND('',#121,.T.);
#77=FACE_OUTER_BOUND('',#122,.T.);
#78=FACE_OUTER_BOUND('',#123,.T.);
#79=FACE_OUTER_BOUND('',#124,.T.);
#80=FACE_OUTER_BOUND('',#125,.T.);
#81=FACE_OUTER_BOUND('',#126,.T.);
#82=FACE_OUTER_BOUND('',#127,.T.);
#83=FACE_OUTER_BOUND('',#128,.T.);
#84=FACE_OUTER_BOUND('',#129,.T.);
#85=EDGE_LOOP('',(#553,#554,#555,#556,#557,#558,#559,#560,#561,#562,#563,
#564,#565,#566,#567,#568,#569,#570));
#86=EDGE_LOOP('',(#571));
#87=EDGE_LOOP('',(#572,#573,#574,#575));
#88=EDGE_LOOP('',(#576,#577,#578,#579,#580,#581,#582,#583,#584,#585,#586,
#587,#588,#589,#590,#591,#592,#593));
#89=EDGE_LOOP('',(#594));
#90=EDGE_LOOP('',(#595,#596,#597,#598));
#91=EDGE_LOOP('',(#599,#600,#601,#602));
#92=EDGE_LOOP('',(#603,#604,#605,#606));
#93=EDGE_LOOP('',(#607,#608,#609,#610));
#94=EDGE_LOOP('',(#611,#612,#613,#614,#615,#616));
#95=EDGE_LOOP('',(#617,#618,#619,#620,#621,#622,#623,#624,#625,#626,#627,
#628,#629,#630,#631,#632,#633,#634));
#96=EDGE_LOOP('',(#635,#636,#637,#638,#639));
#97=EDGE_LOOP('',(#640,#641,#642,#643,#644));
#98=EDGE_LOOP('',(#645,#646,#647,#648,#649,#650,#651,#652));
#99=EDGE_LOOP('',(#653,#654,#655,#656));
#100=EDGE_LOOP('',(#657,#658,#659,#660,#661,#662,#663,#664));
#101=EDGE_LOOP('',(#665,#666,#667,#668,#669));
#102=EDGE_LOOP('',(#670,#671,#672,#673,#674));
#103=EDGE_LOOP('',(#675,#676,#677,#678,#679,#680,#681,#682));
#104=EDGE_LOOP('',(#683,#684,#685,#686));
#105=EDGE_LOOP('',(#687,#688,#689,#690));
#106=EDGE_LOOP('',(#691,#692,#693,#694));
#107=EDGE_LOOP('',(#695,#696,#697,#698));
#108=EDGE_LOOP('',(#699,#700,#701,#702));
#109=EDGE_LOOP('',(#703,#704,#705,#706,#707,#708));
#110=EDGE_LOOP('',(#709,#710,#711,#712));
#111=EDGE_LOOP('',(#713,#714,#715,#716,#717,#718));
#112=EDGE_LOOP('',(#719,#720,#721,#722));
#113=EDGE_LOOP('',(#723,#724,#725,#726));
#114=EDGE_LOOP('',(#727,#728,#729,#730));
#115=EDGE_LOOP('',(#731,#732,#733,#734));
#116=EDGE_LOOP('',(#735,#736,#737,#738));
#117=EDGE_LOOP('',(#739,#740,#741,#742));
#118=EDGE_LOOP('',(#743,#744,#745,#746));
#119=EDGE_LOOP('',(#747,#748,#749,#750,#751,#752,#753,#754));
#120=EDGE_LOOP('',(#755,#756,#757,#758));
#121=EDGE_LOOP('',(#759,#760,#761,#762,#763,#764,#765,#766,#767,#768,#769,
#770,#771,#772,#773,#774,#775,#776));
#122=EDGE_LOOP('',(#777,#778,#779,#780,#781,#782));
#123=EDGE_LOOP('',(#783,#784,#785,#786));
#124=EDGE_LOOP('',(#787,#788,#789,#790));
#125=EDGE_LOOP('',(#791,#792,#793,#794));
#126=EDGE_LOOP('',(#795,#796,#797,#798));
#127=EDGE_LOOP('',(#799,#800,#801,#802));
#128=EDGE_LOOP('',(#803,#804,#805,#806));
#129=EDGE_LOOP('',(#807,#808,#809,#810));
#130=CIRCLE('',#900,0.2);
#131=CIRCLE('',#901,0.5);
#132=CIRCLE('',#902,0.2);
#133=CIRCLE('',#903,0.2);
#134=CIRCLE('',#904,0.5);
#135=CIRCLE('',#905,0.5);
#136=CIRCLE('',#906,0.2);
#137=CIRCLE('',#907,0.6);
#138=CIRCLE('',#909,0.6);
#139=CIRCLE('',#911,0.5);
#140=CIRCLE('',#912,0.5);
#141=CIRCLE('',#913,0.2);
#142=CIRCLE('',#914,0.2);
#143=CIRCLE('',#915,0.5);
#144=CIRCLE('',#916,0.2);
#145=CIRCLE('',#917,0.2);
#146=CIRCLE('',#924,0.3);
#147=CIRCLE('',#925,0.25);
#148=CIRCLE('',#926,0.25);
#149=CIRCLE('',#927,0.25);
#150=CIRCLE('',#928,0.4);
#151=CIRCLE('',#929,0.4);
#152=CIRCLE('',#930,0.4);
#153=CIRCLE('',#931,0.45);
#154=CIRCLE('',#933,0.45);
#155=CIRCLE('',#935,0.45);
#156=CIRCLE('',#936,0.45);
#157=CIRCLE('',#938,0.3);
#158=CIRCLE('',#941,0.3);
#159=CIRCLE('',#944,0.3);
#160=CIRCLE('',#946,0.5);
#161=CIRCLE('',#948,0.25);
#162=CIRCLE('',#951,0.25);
#163=CIRCLE('',#954,0.25);
#164=CIRCLE('',#956,0.3);
#165=CIRCLE('',#957,0.3);
#166=CIRCLE('',#959,0.3);
#167=CIRCLE('',#961,0.3);
#168=CIRCLE('',#965,0.4);
#169=CIRCLE('',#968,0.4);
#170=CIRCLE('',#971,0.4);
#171=CIRCLE('',#973,0.5);
#172=LINE('',#1243,#255);
#173=LINE('',#1245,#256);
#174=LINE('',#1249,#257);
#175=LINE('',#1251,#258);
#176=LINE('',#1255,#259);
#177=LINE('',#1257,#260);
#178=LINE('',#1261,#261);
#179=LINE('',#1263,#262);
#180=LINE('',#1267,#263);
#181=LINE('',#1271,#264);
#182=LINE('',#1275,#265);
#183=LINE('',#1281,#266);
#184=LINE('',#1286,#267);
#185=LINE('',#1290,#268);
#186=LINE('',#1294,#269);
#187=LINE('',#1298,#270);
#188=LINE('',#1300,#271);
#189=LINE('',#1304,#272);
#190=LINE('',#1306,#273);
#191=LINE('',#1310,#274);
#192=LINE('',#1312,#275);
#193=LINE('',#1316,#276);
#194=LINE('',#1318,#277);
#195=LINE('',#1321,#278);
#196=LINE('',#1322,#279);
#197=LINE('',#1324,#280);
#198=LINE('',#1326,#281);
#199=LINE('',#1328,#282);
#200=LINE('',#1332,#283);
#201=LINE('',#1355,#284);
#202=LINE('',#1359,#285);
#203=LINE('',#1363,#286);
#204=LINE('',#1367,#287);
#205=LINE('',#1369,#288);
#206=LINE('',#1371,#289);
#207=LINE('',#1375,#290);
#208=LINE('',#1379,#291);
#209=LINE('',#1383,#292);
#210=LINE('',#1387,#293);
#211=LINE('',#1393,#294);
#212=LINE('',#1406,#295);
#213=LINE('',#1408,#296);
#214=LINE('',#1410,#297);
#215=LINE('',#1412,#298);
#216=LINE('',#1414,#299);
#217=LINE('',#1419,#300);
#218=LINE('',#1421,#301);
#219=LINE('',#1422,#302);
#220=LINE('',#1424,#303);
#221=LINE('',#1429,#304);
#222=LINE('',#1443,#305);
#223=LINE('',#1444,#306);
#224=LINE('',#1448,#307);
#225=LINE('',#1451,#308);
#226=LINE('',#1452,#309);
#227=LINE('',#1456,#310);
#228=LINE('',#1459,#311);
#229=LINE('',#1460,#312);
#230=LINE('',#1464,#313);
#231=LINE('',#1470,#314);
#232=LINE('',#1472,#315);
#233=LINE('',#1477,#316);
#234=LINE('',#1478,#317);
#235=LINE('',#1481,#318);
#236=LINE('',#1482,#319);
#237=LINE('',#1485,#320);
#238=LINE('',#1487,#321);
#239=LINE('',#1492,#322);
#240=LINE('',#1495,#323);
#241=LINE('',#1496,#324);
#242=LINE('',#1500,#325);
#243=LINE('',#1503,#326);
#244=LINE('',#1504,#327);
#245=LINE('',#1508,#328);
#246=LINE('',#1510,#329);
#247=LINE('',#1514,#330);
#248=LINE('',#1516,#331);
#249=LINE('',#1518,#332);
#250=LINE('',#1520,#333);
#251=LINE('',#1522,#334);
#252=LINE('',#1524,#335);
#253=LINE('',#1526,#336);
#254=LINE('',#1528,#337);
#255=VECTOR('',#988,2.);
#256=VECTOR('',#989,0.1);
#257=VECTOR('',#992,0.8177124344468);
#258=VECTOR('',#993,0.1521670716199);
#259=VECTOR('',#996,0.1521670716199);
#260=VECTOR('',#997,0.8177124344468);
#261=VECTOR('',#1000,0.1);
#262=VECTOR('',#1001,2.);
#263=VECTOR('',#1004,2.226794919243);
#264=VECTOR('',#1007,1.9);
#265=VECTOR('',#1010,2.226794919243);
#266=VECTOR('',#1017,0.6);
#267=VECTOR('',#1022,2.226794919243);
#268=VECTOR('',#1025,1.9);
#269=VECTOR('',#1028,2.226794919243);
#270=VECTOR('',#1031,2.);
#271=VECTOR('',#1032,0.1);
#272=VECTOR('',#1035,0.8177124344468);
#273=VECTOR('',#1036,0.1521670716199);
#274=VECTOR('',#1039,0.1521670716199);
#275=VECTOR('',#1040,0.8177124344468);
#276=VECTOR('',#1043,0.1);
#277=VECTOR('',#1044,2.);
#278=VECTOR('',#1049,0.15);
#279=VECTOR('',#1050,0.15);
#280=VECTOR('',#1053,0.15);
#281=VECTOR('',#1056,0.15);
#282=VECTOR('',#1059,0.15);
#283=VECTOR('',#1062,0.1644564475766);
#284=VECTOR('',#1067,2.9499999999999);
#285=VECTOR('',#1070,1.53);
#286=VECTOR('',#1073,0.0499999999999983);
#287=VECTOR('',#1076,0.3);
#288=VECTOR('',#1077,0.15);
#289=VECTOR('',#1078,0.3);
#290=VECTOR('',#1081,0.0499999999999983);
#291=VECTOR('',#1084,1.53);
#292=VECTOR('',#1087,2.9499999999999);
#293=VECTOR('',#1092,0.75);
#294=VECTOR('',#1099,0.75);
#295=VECTOR('',#1104,1.54999999999995);
#296=VECTOR('',#1105,0.149999999999995);
#297=VECTOR('',#1106,1.54999999999995);
#298=VECTOR('',#1109,0.15);
#299=VECTOR('',#1112,0.15);
#300=VECTOR('',#1117,1.54999999999995);
#301=VECTOR('',#1118,0.149999999999995);
#302=VECTOR('',#1119,1.54999999999995);
#303=VECTOR('',#1122,0.75);
#304=VECTOR('',#1127,0.75);
#305=VECTOR('',#1132,2.9499999999999);
#306=VECTOR('',#1133,2.5);
#307=VECTOR('',#1138,2.5);
#308=VECTOR('',#1141,1.53);
#309=VECTOR('',#1142,2.5);
#310=VECTOR('',#1147,2.5);
#311=VECTOR('',#1150,0.0499999999999983);
#312=VECTOR('',#1151,2.5);
#313=VECTOR('',#1156,2.5);
#314=VECTOR('',#1161,1.9);
#315=VECTOR('',#1164,0.3);
#316=VECTOR('',#1169,0.15);
#317=VECTOR('',#1170,0.15);
#318=VECTOR('',#1173,0.3);
#319=VECTOR('',#1174,2.5);
#320=VECTOR('',#1177,1.9);
#321=VECTOR('',#1180,0.15);
#322=VECTOR('',#1187,2.5);
#323=VECTOR('',#1190,0.0500000000000027);
#324=VECTOR('',#1191,2.5);
#325=VECTOR('',#1196,2.5);
#326=VECTOR('',#1199,1.53);
#327=VECTOR('',#1200,2.5);
#328=VECTOR('',#1205,2.5);
#329=VECTOR('',#1208,2.9499999999999);
#330=VECTOR('',#1215,0.1644564475766);
#331=VECTOR('',#1218,0.15);
#332=VECTOR('',#1221,0.15);
#333=VECTOR('',#1224,0.15);
#334=VECTOR('',#1227,0.15);
#335=VECTOR('',#1230,0.15);
#336=VECTOR('',#1233,0.15);
#337=VECTOR('',#1236,0.15);
#338=VERTEX_POINT('',#1241);
#339=VERTEX_POINT('',#1242);
#340=VERTEX_POINT('',#1244);
#341=VERTEX_POINT('',#1246);
#342=VERTEX_POINT('',#1248);
#343=VERTEX_POINT('',#1250);
#344=VERTEX_POINT('',#1252);
#345=VERTEX_POINT('',#1254);
#346=VERTEX_POINT('',#1256);
#347=VERTEX_POINT('',#1258);
#348=VERTEX_POINT('',#1260);
#349=VERTEX_POINT('',#1262);
#350=VERTEX_POINT('',#1264);
#351=VERTEX_POINT('',#1266);
#352=VERTEX_POINT('',#1268);
#353=VERTEX_POINT('',#1270);
#354=VERTEX_POINT('',#1272);
#355=VERTEX_POINT('',#1274);
#356=VERTEX_POINT('',#1277);
#357=VERTEX_POINT('',#1280);
#358=VERTEX_POINT('',#1284);
#359=VERTEX_POINT('',#1285);
#360=VERTEX_POINT('',#1287);
#361=VERTEX_POINT('',#1289);
#362=VERTEX_POINT('',#1291);
#363=VERTEX_POINT('',#1293);
#364=VERTEX_POINT('',#1295);
#365=VERTEX_POINT('',#1297);
#366=VERTEX_POINT('',#1299);
#367=VERTEX_POINT('',#1301);
#368=VERTEX_POINT('',#1303);
#369=VERTEX_POINT('',#1305);
#370=VERTEX_POINT('',#1307);
#371=VERTEX_POINT('',#1309);
#372=VERTEX_POINT('',#1311);
#373=VERTEX_POINT('',#1313);
#374=VERTEX_POINT('',#1315);
#375=VERTEX_POINT('',#1317);
#376=VERTEX_POINT('',#1330);
#377=VERTEX_POINT('',#1331);
#378=VERTEX_POINT('',#1352);
#379=VERTEX_POINT('',#1354);
#380=VERTEX_POINT('',#1356);
#381=VERTEX_POINT('',#1358);
#382=VERTEX_POINT('',#1360);
#383=VERTEX_POINT('',#1362);
#384=VERTEX_POINT('',#1364);
#385=VERTEX_POINT('',#1366);
#386=VERTEX_POINT('',#1368);
#387=VERTEX_POINT('',#1370);
#388=VERTEX_POINT('',#1372);
#389=VERTEX_POINT('',#1374);
#390=VERTEX_POINT('',#1376);
#391=VERTEX_POINT('',#1378);
#392=VERTEX_POINT('',#1380);
#393=VERTEX_POINT('',#1382);
#394=VERTEX_POINT('',#1386);
#395=VERTEX_POINT('',#1390);
#396=VERTEX_POINT('',#1392);
#397=VERTEX_POINT('',#1394);
#398=VERTEX_POINT('',#1405);
#399=VERTEX_POINT('',#1407);
#400=VERTEX_POINT('',#1409);
#401=VERTEX_POINT('',#1416);
#402=VERTEX_POINT('',#1418);
#403=VERTEX_POINT('',#1420);
#404=VERTEX_POINT('',#1426);
#405=VERTEX_POINT('',#1427);
#406=VERTEX_POINT('',#1442);
#407=VERTEX_POINT('',#1446);
#408=VERTEX_POINT('',#1450);
#409=VERTEX_POINT('',#1454);
#410=VERTEX_POINT('',#1458);
#411=VERTEX_POINT('',#1462);
#412=VERTEX_POINT('',#1466);
#413=VERTEX_POINT('',#1467);
#414=VERTEX_POINT('',#1469);
#415=VERTEX_POINT('',#1474);
#416=VERTEX_POINT('',#1475);
#417=VERTEX_POINT('',#1480);
#418=VERTEX_POINT('',#1483);
#419=VERTEX_POINT('',#1490);
#420=VERTEX_POINT('',#1494);
#421=VERTEX_POINT('',#1498);
#422=VERTEX_POINT('',#1502);
#423=VERTEX_POINT('',#1506);
#424=EDGE_CURVE('',#338,#339,#172,.T.);
#425=EDGE_CURVE('',#338,#340,#173,.T.);
#426=EDGE_CURVE('',#340,#341,#130,.T.);
#427=EDGE_CURVE('',#341,#342,#174,.T.);
#428=EDGE_CURVE('',#342,#343,#175,.T.);
#429=EDGE_CURVE('',#344,#343,#131,.T.);
#430=EDGE_CURVE('',#345,#344,#176,.T.);
#431=EDGE_CURVE('',#345,#346,#177,.T.);
#432=EDGE_CURVE('',#346,#347,#132,.T.);
#433=EDGE_CURVE('',#347,#348,#178,.T.);
#434=EDGE_CURVE('',#349,#348,#179,.T.);
#435=EDGE_CURVE('',#349,#350,#133,.T.);
#436=EDGE_CURVE('',#351,#350,#180,.T.);
#437=EDGE_CURVE('',#351,#352,#134,.T.);
#438=EDGE_CURVE('',#353,#352,#181,.T.);
#439=EDGE_CURVE('',#353,#354,#135,.T.);
#440=EDGE_CURVE('',#354,#355,#182,.T.);
#441=EDGE_CURVE('',#355,#339,#136,.T.);
#442=EDGE_CURVE('',#356,#356,#137,.T.);
#443=EDGE_CURVE('',#356,#357,#183,.T.);
#444=EDGE_CURVE('',#357,#357,#138,.T.);
#445=EDGE_CURVE('',#358,#359,#184,.T.);
#446=EDGE_CURVE('',#359,#360,#139,.T.);
#447=EDGE_CURVE('',#360,#361,#185,.T.);
#448=EDGE_CURVE('',#361,#362,#140,.T.);
#449=EDGE_CURVE('',#363,#362,#186,.T.);
#450=EDGE_CURVE('',#363,#364,#141,.T.);
#451=EDGE_CURVE('',#364,#365,#187,.T.);
#452=EDGE_CURVE('',#365,#366,#188,.T.);
#453=EDGE_CURVE('',#366,#367,#142,.T.);
#454=EDGE_CURVE('',#368,#367,#189,.T.);
#455=EDGE_CURVE('',#368,#369,#190,.T.);
#456=EDGE_CURVE('',#369,#370,#143,.T.);
#457=EDGE_CURVE('',#371,#370,#191,.T.);
#458=EDGE_CURVE('',#372,#371,#192,.T.);
#459=EDGE_CURVE('',#372,#373,#144,.T.);
#460=EDGE_CURVE('',#373,#374,#193,.T.);
#461=EDGE_CURVE('',#374,#375,#194,.T.);
#462=EDGE_CURVE('',#375,#358,#145,.T.);
#463=EDGE_CURVE('',#355,#358,#195,.T.);
#464=EDGE_CURVE('',#354,#359,#196,.T.);
#465=EDGE_CURVE('',#339,#375,#197,.T.);
#466=EDGE_CURVE('',#374,#338,#198,.T.);
#467=EDGE_CURVE('',#373,#340,#199,.T.);
#468=EDGE_CURVE('',#376,#377,#200,.T.);
#469=EDGE_CURVE('',#341,#377,#15,.T.);
#470=EDGE_CURVE('',#376,#372,#16,.T.);
#471=EDGE_CURVE('',#376,#378,#146,.T.);
#472=EDGE_CURVE('',#379,#378,#201,.T.);
#473=EDGE_CURVE('',#379,#380,#147,.T.);
#474=EDGE_CURVE('',#381,#380,#202,.T.);
#475=EDGE_CURVE('',#381,#382,#148,.T.);
#476=EDGE_CURVE('',#383,#382,#203,.T.);
#477=EDGE_CURVE('',#383,#384,#149,.T.);
#478=EDGE_CURVE('',#385,#384,#204,.T.);
#479=EDGE_CURVE('',#386,#385,#205,.T.);
#480=EDGE_CURVE('',#387,#386,#206,.T.);
#481=EDGE_CURVE('',#388,#387,#150,.T.);
#482=EDGE_CURVE('',#389,#388,#207,.T.);
#483=EDGE_CURVE('',#390,#389,#151,.T.);
#484=EDGE_CURVE('',#391,#390,#208,.T.);
#485=EDGE_CURVE('',#392,#391,#152,.T.);
#486=EDGE_CURVE('',#393,#392,#209,.T.);
#487=EDGE_CURVE('',#377,#393,#153,.T.);
#488=EDGE_CURVE('',#393,#394,#210,.T.);
#489=EDGE_CURVE('',#394,#342,#154,.T.);
#490=EDGE_CURVE('',#345,#395,#155,.T.);
#491=EDGE_CURVE('',#395,#396,#211,.T.);
#492=EDGE_CURVE('',#397,#396,#156,.T.);
#493=EDGE_CURVE('',#397,#346,#17,.T.);
#494=EDGE_CURVE('',#394,#398,#212,.T.);
#495=EDGE_CURVE('',#398,#399,#213,.T.);
#496=EDGE_CURVE('',#400,#399,#214,.T.);
#497=EDGE_CURVE('',#371,#400,#157,.T.);
#498=EDGE_CURVE('',#343,#370,#215,.T.);
#499=EDGE_CURVE('',#344,#369,#216,.T.);
#500=EDGE_CURVE('',#401,#368,#158,.T.);
#501=EDGE_CURVE('',#401,#402,#217,.T.);
#502=EDGE_CURVE('',#403,#402,#218,.T.);
#503=EDGE_CURVE('',#395,#403,#219,.T.);
#504=EDGE_CURVE('',#378,#400,#220,.T.);
#505=EDGE_CURVE('',#404,#405,#159,.T.);
#506=EDGE_CURVE('',#401,#405,#221,.T.);
#507=EDGE_CURVE('',#367,#404,#18,.T.);
#508=EDGE_CURVE('',#399,#402,#160,.T.);
#509=EDGE_CURVE('',#406,#405,#222,.T.);
#510=EDGE_CURVE('',#379,#406,#223,.T.);
#511=EDGE_CURVE('',#406,#407,#161,.T.);
#512=EDGE_CURVE('',#380,#407,#224,.T.);
#513=EDGE_CURVE('',#408,#407,#225,.T.);
#514=EDGE_CURVE('',#381,#408,#226,.T.);
#515=EDGE_CURVE('',#408,#409,#162,.T.);
#516=EDGE_CURVE('',#382,#409,#227,.T.);
#517=EDGE_CURVE('',#410,#409,#228,.T.);
#518=EDGE_CURVE('',#383,#410,#229,.T.);
#519=EDGE_CURVE('',#410,#411,#163,.T.);
#520=EDGE_CURVE('',#384,#411,#230,.T.);
#521=EDGE_CURVE('',#412,#413,#164,.T.);
#522=EDGE_CURVE('',#414,#413,#231,.T.);
#523=EDGE_CURVE('',#414,#385,#165,.T.);
#524=EDGE_CURVE('',#412,#411,#232,.T.);
#525=EDGE_CURVE('',#415,#416,#166,.T.);
#526=EDGE_CURVE('',#413,#415,#233,.T.);
#527=EDGE_CURVE('',#412,#416,#234,.T.);
#528=EDGE_CURVE('',#417,#416,#235,.T.);
#529=EDGE_CURVE('',#387,#417,#236,.T.);
#530=EDGE_CURVE('',#386,#418,#167,.T.);
#531=EDGE_CURVE('',#418,#415,#237,.T.);
#532=EDGE_CURVE('',#418,#414,#238,.T.);
#533=EDGE_CURVE('',#419,#417,#168,.T.);
#534=EDGE_CURVE('',#388,#419,#239,.T.);
#535=EDGE_CURVE('',#420,#419,#240,.T.);
#536=EDGE_CURVE('',#389,#420,#241,.T.);
#537=EDGE_CURVE('',#421,#420,#169,.T.);
#538=EDGE_CURVE('',#390,#421,#242,.T.);
#539=EDGE_CURVE('',#422,#421,#243,.T.);
#540=EDGE_CURVE('',#391,#422,#244,.T.);
#541=EDGE_CURVE('',#423,#422,#170,.T.);
#542=EDGE_CURVE('',#392,#423,#245,.T.);
#543=EDGE_CURVE('',#396,#423,#246,.T.);
#544=EDGE_CURVE('',#398,#403,#171,.T.);
#545=EDGE_CURVE('',#397,#404,#247,.T.);
#546=EDGE_CURVE('',#347,#366,#248,.T.);
#547=EDGE_CURVE('',#365,#348,#249,.T.);
#548=EDGE_CURVE('',#364,#349,#250,.T.);
#549=EDGE_CURVE('',#363,#350,#251,.T.);
#550=EDGE_CURVE('',#362,#351,#252,.T.);
#551=EDGE_CURVE('',#361,#352,#253,.T.);
#552=EDGE_CURVE('',#353,#360,#254,.T.);
#553=ORIENTED_EDGE('',*,*,#424,.F.);
#554=ORIENTED_EDGE('',*,*,#425,.T.);
#555=ORIENTED_EDGE('',*,*,#426,.T.);
#556=ORIENTED_EDGE('',*,*,#427,.T.);
#557=ORIENTED_EDGE('',*,*,#428,.T.);
#558=ORIENTED_EDGE('',*,*,#429,.F.);
#559=ORIENTED_EDGE('',*,*,#430,.F.);
#560=ORIENTED_EDGE('',*,*,#431,.T.);
#561=ORIENTED_EDGE('',*,*,#432,.T.);
#562=ORIENTED_EDGE('',*,*,#433,.T.);
#563=ORIENTED_EDGE('',*,*,#434,.F.);
#564=ORIENTED_EDGE('',*,*,#435,.T.);
#565=ORIENTED_EDGE('',*,*,#436,.F.);
#566=ORIENTED_EDGE('',*,*,#437,.T.);
#567=ORIENTED_EDGE('',*,*,#438,.F.);
#568=ORIENTED_EDGE('',*,*,#439,.T.);
#569=ORIENTED_EDGE('',*,*,#440,.T.);
#570=ORIENTED_EDGE('',*,*,#441,.T.);
#571=ORIENTED_EDGE('',*,*,#442,.T.);
#572=ORIENTED_EDGE('',*,*,#442,.F.);
#573=ORIENTED_EDGE('',*,*,#443,.T.);
#574=ORIENTED_EDGE('',*,*,#444,.T.);
#575=ORIENTED_EDGE('',*,*,#443,.F.);
#576=ORIENTED_EDGE('',*,*,#445,.T.);
#577=ORIENTED_EDGE('',*,*,#446,.T.);
#578=ORIENTED_EDGE('',*,*,#447,.T.);
#579=ORIENTED_EDGE('',*,*,#448,.T.);
#580=ORIENTED_EDGE('',*,*,#449,.F.);
#581=ORIENTED_EDGE('',*,*,#450,.T.);
#582=ORIENTED_EDGE('',*,*,#451,.T.);
#583=ORIENTED_EDGE('',*,*,#452,.T.);
#584=ORIENTED_EDGE('',*,*,#453,.T.);
#585=ORIENTED_EDGE('',*,*,#454,.F.);
#586=ORIENTED_EDGE('',*,*,#455,.T.);
#587=ORIENTED_EDGE('',*,*,#456,.T.);
#588=ORIENTED_EDGE('',*,*,#457,.F.);
#589=ORIENTED_EDGE('',*,*,#458,.F.);
#590=ORIENTED_EDGE('',*,*,#459,.T.);
#591=ORIENTED_EDGE('',*,*,#460,.T.);
#592=ORIENTED_EDGE('',*,*,#461,.T.);
#593=ORIENTED_EDGE('',*,*,#462,.T.);
#594=ORIENTED_EDGE('',*,*,#444,.F.);
#595=ORIENTED_EDGE('',*,*,#463,.F.);
#596=ORIENTED_EDGE('',*,*,#440,.F.);
#597=ORIENTED_EDGE('',*,*,#464,.T.);
#598=ORIENTED_EDGE('',*,*,#445,.F.);
#599=ORIENTED_EDGE('',*,*,#463,.T.);
#600=ORIENTED_EDGE('',*,*,#462,.F.);
#601=ORIENTED_EDGE('',*,*,#465,.F.);
#602=ORIENTED_EDGE('',*,*,#441,.F.);
#603=ORIENTED_EDGE('',*,*,#465,.T.);
#604=ORIENTED_EDGE('',*,*,#461,.F.);
#605=ORIENTED_EDGE('',*,*,#466,.T.);
#606=ORIENTED_EDGE('',*,*,#424,.T.);
#607=ORIENTED_EDGE('',*,*,#467,.T.);
#608=ORIENTED_EDGE('',*,*,#425,.F.);
#609=ORIENTED_EDGE('',*,*,#466,.F.);
#610=ORIENTED_EDGE('',*,*,#460,.F.);
#611=ORIENTED_EDGE('',*,*,#468,.T.);
#612=ORIENTED_EDGE('',*,*,#469,.F.);
#613=ORIENTED_EDGE('',*,*,#426,.F.);
#614=ORIENTED_EDGE('',*,*,#467,.F.);
#615=ORIENTED_EDGE('',*,*,#459,.F.);
#616=ORIENTED_EDGE('',*,*,#470,.F.);
#617=ORIENTED_EDGE('',*,*,#468,.F.);
#618=ORIENTED_EDGE('',*,*,#471,.T.);
#619=ORIENTED_EDGE('',*,*,#472,.F.);
#620=ORIENTED_EDGE('',*,*,#473,.T.);
#621=ORIENTED_EDGE('',*,*,#474,.F.);
#622=ORIENTED_EDGE('',*,*,#475,.T.);
#623=ORIENTED_EDGE('',*,*,#476,.F.);
#624=ORIENTED_EDGE('',*,*,#477,.T.);
#625=ORIENTED_EDGE('',*,*,#478,.F.);
#626=ORIENTED_EDGE('',*,*,#479,.F.);
#627=ORIENTED_EDGE('',*,*,#480,.F.);
#628=ORIENTED_EDGE('',*,*,#481,.F.);
#629=ORIENTED_EDGE('',*,*,#482,.F.);
#630=ORIENTED_EDGE('',*,*,#483,.F.);
#631=ORIENTED_EDGE('',*,*,#484,.F.);
#632=ORIENTED_EDGE('',*,*,#485,.F.);
#633=ORIENTED_EDGE('',*,*,#486,.F.);
#634=ORIENTED_EDGE('',*,*,#487,.F.);
#635=ORIENTED_EDGE('',*,*,#487,.T.);
#636=ORIENTED_EDGE('',*,*,#488,.T.);
#637=ORIENTED_EDGE('',*,*,#489,.T.);
#638=ORIENTED_EDGE('',*,*,#427,.F.);
#639=ORIENTED_EDGE('',*,*,#469,.T.);
#640=ORIENTED_EDGE('',*,*,#431,.F.);
#641=ORIENTED_EDGE('',*,*,#490,.T.);
#642=ORIENTED_EDGE('',*,*,#491,.T.);
#643=ORIENTED_EDGE('',*,*,#492,.F.);
#644=ORIENTED_EDGE('',*,*,#493,.T.);
#645=ORIENTED_EDGE('',*,*,#489,.F.);
#646=ORIENTED_EDGE('',*,*,#494,.T.);
#647=ORIENTED_EDGE('',*,*,#495,.T.);
#648=ORIENTED_EDGE('',*,*,#496,.F.);
#649=ORIENTED_EDGE('',*,*,#497,.F.);
#650=ORIENTED_EDGE('',*,*,#457,.T.);
#651=ORIENTED_EDGE('',*,*,#498,.F.);
#652=ORIENTED_EDGE('',*,*,#428,.F.);
#653=ORIENTED_EDGE('',*,*,#429,.T.);
#654=ORIENTED_EDGE('',*,*,#498,.T.);
#655=ORIENTED_EDGE('',*,*,#456,.F.);
#656=ORIENTED_EDGE('',*,*,#499,.F.);
#657=ORIENTED_EDGE('',*,*,#500,.F.);
#658=ORIENTED_EDGE('',*,*,#501,.T.);
#659=ORIENTED_EDGE('',*,*,#502,.F.);
#660=ORIENTED_EDGE('',*,*,#503,.F.);
#661=ORIENTED_EDGE('',*,*,#490,.F.);
#662=ORIENTED_EDGE('',*,*,#430,.T.);
#663=ORIENTED_EDGE('',*,*,#499,.T.);
#664=ORIENTED_EDGE('',*,*,#455,.F.);
#665=ORIENTED_EDGE('',*,*,#458,.T.);
#666=ORIENTED_EDGE('',*,*,#497,.T.);
#667=ORIENTED_EDGE('',*,*,#504,.F.);
#668=ORIENTED_EDGE('',*,*,#471,.F.);
#669=ORIENTED_EDGE('',*,*,#470,.T.);
#670=ORIENTED_EDGE('',*,*,#505,.T.);
#671=ORIENTED_EDGE('',*,*,#506,.F.);
#672=ORIENTED_EDGE('',*,*,#500,.T.);
#673=ORIENTED_EDGE('',*,*,#454,.T.);
#674=ORIENTED_EDGE('',*,*,#507,.T.);
#675=ORIENTED_EDGE('',*,*,#472,.T.);
#676=ORIENTED_EDGE('',*,*,#504,.T.);
#677=ORIENTED_EDGE('',*,*,#496,.T.);
#678=ORIENTED_EDGE('',*,*,#508,.T.);
#679=ORIENTED_EDGE('',*,*,#501,.F.);
#680=ORIENTED_EDGE('',*,*,#506,.T.);
#681=ORIENTED_EDGE('',*,*,#509,.F.);
#682=ORIENTED_EDGE('',*,*,#510,.F.);
#683=ORIENTED_EDGE('',*,*,#473,.F.);
#684=ORIENTED_EDGE('',*,*,#510,.T.);
#685=ORIENTED_EDGE('',*,*,#511,.T.);
#686=ORIENTED_EDGE('',*,*,#512,.F.);
#687=ORIENTED_EDGE('',*,*,#474,.T.);
#688=ORIENTED_EDGE('',*,*,#512,.T.);
#689=ORIENTED_EDGE('',*,*,#513,.F.);
#690=ORIENTED_EDGE('',*,*,#514,.F.);
#691=ORIENTED_EDGE('',*,*,#475,.F.);
#692=ORIENTED_EDGE('',*,*,#514,.T.);
#693=ORIENTED_EDGE('',*,*,#515,.T.);
#694=ORIENTED_EDGE('',*,*,#516,.F.);
#695=ORIENTED_EDGE('',*,*,#476,.T.);
#696=ORIENTED_EDGE('',*,*,#516,.T.);
#697=ORIENTED_EDGE('',*,*,#517,.F.);
#698=ORIENTED_EDGE('',*,*,#518,.F.);
#699=ORIENTED_EDGE('',*,*,#477,.F.);
#700=ORIENTED_EDGE('',*,*,#518,.T.);
#701=ORIENTED_EDGE('',*,*,#519,.T.);
#702=ORIENTED_EDGE('',*,*,#520,.F.);
#703=ORIENTED_EDGE('',*,*,#521,.T.);
#704=ORIENTED_EDGE('',*,*,#522,.F.);
#705=ORIENTED_EDGE('',*,*,#523,.T.);
#706=ORIENTED_EDGE('',*,*,#478,.T.);
#707=ORIENTED_EDGE('',*,*,#520,.T.);
#708=ORIENTED_EDGE('',*,*,#524,.F.);
#709=ORIENTED_EDGE('',*,*,#525,.F.);
#710=ORIENTED_EDGE('',*,*,#526,.F.);
#711=ORIENTED_EDGE('',*,*,#521,.F.);
#712=ORIENTED_EDGE('',*,*,#527,.T.);
#713=ORIENTED_EDGE('',*,*,#525,.T.);
#714=ORIENTED_EDGE('',*,*,#528,.F.);
#715=ORIENTED_EDGE('',*,*,#529,.F.);
#716=ORIENTED_EDGE('',*,*,#480,.T.);
#717=ORIENTED_EDGE('',*,*,#530,.T.);
#718=ORIENTED_EDGE('',*,*,#531,.T.);
#719=ORIENTED_EDGE('',*,*,#526,.T.);
#720=ORIENTED_EDGE('',*,*,#531,.F.);
#721=ORIENTED_EDGE('',*,*,#532,.T.);
#722=ORIENTED_EDGE('',*,*,#522,.T.);
#723=ORIENTED_EDGE('',*,*,#523,.F.);
#724=ORIENTED_EDGE('',*,*,#532,.F.);
#725=ORIENTED_EDGE('',*,*,#530,.F.);
#726=ORIENTED_EDGE('',*,*,#479,.T.);
#727=ORIENTED_EDGE('',*,*,#481,.T.);
#728=ORIENTED_EDGE('',*,*,#529,.T.);
#729=ORIENTED_EDGE('',*,*,#533,.F.);
#730=ORIENTED_EDGE('',*,*,#534,.F.);
#731=ORIENTED_EDGE('',*,*,#482,.T.);
#732=ORIENTED_EDGE('',*,*,#534,.T.);
#733=ORIENTED_EDGE('',*,*,#535,.F.);
#734=ORIENTED_EDGE('',*,*,#536,.F.);
#735=ORIENTED_EDGE('',*,*,#483,.T.);
#736=ORIENTED_EDGE('',*,*,#536,.T.);
#737=ORIENTED_EDGE('',*,*,#537,.F.);
#738=ORIENTED_EDGE('',*,*,#538,.F.);
#739=ORIENTED_EDGE('',*,*,#484,.T.);
#740=ORIENTED_EDGE('',*,*,#538,.T.);
#741=ORIENTED_EDGE('',*,*,#539,.F.);
#742=ORIENTED_EDGE('',*,*,#540,.F.);
#743=ORIENTED_EDGE('',*,*,#485,.T.);
#744=ORIENTED_EDGE('',*,*,#540,.T.);
#745=ORIENTED_EDGE('',*,*,#541,.F.);
#746=ORIENTED_EDGE('',*,*,#542,.F.);
#747=ORIENTED_EDGE('',*,*,#486,.T.);
#748=ORIENTED_EDGE('',*,*,#542,.T.);
#749=ORIENTED_EDGE('',*,*,#543,.F.);
#750=ORIENTED_EDGE('',*,*,#491,.F.);
#751=ORIENTED_EDGE('',*,*,#503,.T.);
#752=ORIENTED_EDGE('',*,*,#544,.F.);
#753=ORIENTED_EDGE('',*,*,#494,.F.);
#754=ORIENTED_EDGE('',*,*,#488,.F.);
#755=ORIENTED_EDGE('',*,*,#544,.T.);
#756=ORIENTED_EDGE('',*,*,#502,.T.);
#757=ORIENTED_EDGE('',*,*,#508,.F.);
#758=ORIENTED_EDGE('',*,*,#495,.F.);
#759=ORIENTED_EDGE('',*,*,#545,.F.);
#760=ORIENTED_EDGE('',*,*,#492,.T.);
#761=ORIENTED_EDGE('',*,*,#543,.T.);
#762=ORIENTED_EDGE('',*,*,#541,.T.);
#763=ORIENTED_EDGE('',*,*,#539,.T.);
#764=ORIENTED_EDGE('',*,*,#537,.T.);
#765=ORIENTED_EDGE('',*,*,#535,.T.);
#766=ORIENTED_EDGE('',*,*,#533,.T.);
#767=ORIENTED_EDGE('',*,*,#528,.T.);
#768=ORIENTED_EDGE('',*,*,#527,.F.);
#769=ORIENTED_EDGE('',*,*,#524,.T.);
#770=ORIENTED_EDGE('',*,*,#519,.F.);
#771=ORIENTED_EDGE('',*,*,#517,.T.);
#772=ORIENTED_EDGE('',*,*,#515,.F.);
#773=ORIENTED_EDGE('',*,*,#513,.T.);
#774=ORIENTED_EDGE('',*,*,#511,.F.);
#775=ORIENTED_EDGE('',*,*,#509,.T.);
#776=ORIENTED_EDGE('',*,*,#505,.F.);
#777=ORIENTED_EDGE('',*,*,#545,.T.);
#778=ORIENTED_EDGE('',*,*,#507,.F.);
#779=ORIENTED_EDGE('',*,*,#453,.F.);
#780=ORIENTED_EDGE('',*,*,#546,.F.);
#781=ORIENTED_EDGE('',*,*,#432,.F.);
#782=ORIENTED_EDGE('',*,*,#493,.F.);
#783=ORIENTED_EDGE('',*,*,#546,.T.);
#784=ORIENTED_EDGE('',*,*,#452,.F.);
#785=ORIENTED_EDGE('',*,*,#547,.T.);
#786=ORIENTED_EDGE('',*,*,#433,.F.);
#787=ORIENTED_EDGE('',*,*,#548,.T.);
#788=ORIENTED_EDGE('',*,*,#434,.T.);
#789=ORIENTED_EDGE('',*,*,#547,.F.);
#790=ORIENTED_EDGE('',*,*,#451,.F.);
#791=ORIENTED_EDGE('',*,*,#549,.T.);
#792=ORIENTED_EDGE('',*,*,#435,.F.);
#793=ORIENTED_EDGE('',*,*,#548,.F.);
#794=ORIENTED_EDGE('',*,*,#450,.F.);
#795=ORIENTED_EDGE('',*,*,#549,.F.);
#796=ORIENTED_EDGE('',*,*,#449,.T.);
#797=ORIENTED_EDGE('',*,*,#550,.T.);
#798=ORIENTED_EDGE('',*,*,#436,.T.);
#799=ORIENTED_EDGE('',*,*,#437,.F.);
#800=ORIENTED_EDGE('',*,*,#550,.F.);
#801=ORIENTED_EDGE('',*,*,#448,.F.);
#802=ORIENTED_EDGE('',*,*,#551,.T.);
#803=ORIENTED_EDGE('',*,*,#552,.F.);
#804=ORIENTED_EDGE('',*,*,#438,.T.);
#805=ORIENTED_EDGE('',*,*,#551,.F.);
#806=ORIENTED_EDGE('',*,*,#447,.F.);
#807=ORIENTED_EDGE('',*,*,#446,.F.);
#808=ORIENTED_EDGE('',*,*,#464,.F.);
#809=ORIENTED_EDGE('',*,*,#439,.F.);
#810=ORIENTED_EDGE('',*,*,#552,.T.);
#811=PLANE('',#899);
#812=PLANE('',#910);
#813=PLANE('',#918);
#814=PLANE('',#920);
#815=PLANE('',#921);
#816=PLANE('',#923);
#817=PLANE('',#937);
#818=PLANE('',#940);
#819=PLANE('',#945);
#820=PLANE('',#949);
#821=PLANE('',#952);
#822=PLANE('',#955);
#823=PLANE('',#960);
#824=PLANE('',#962);
#825=PLANE('',#966);
#826=PLANE('',#969);
#827=PLANE('',#972);
#828=PLANE('',#975);
#829=PLANE('',#977);
#830=PLANE('',#978);
#831=PLANE('',#980);
#832=PLANE('',#982);
#833=ADVANCED_FACE('',(#42,#40),#811,.T.);
#834=ADVANCED_FACE('',(#43),#19,.F.);
#835=ADVANCED_FACE('',(#44,#41),#812,.T.);
#836=ADVANCED_FACE('',(#45),#813,.F.);
#837=ADVANCED_FACE('',(#46),#20,.F.);
#838=ADVANCED_FACE('',(#47),#814,.T.);
#839=ADVANCED_FACE('',(#48),#815,.T.);
#840=ADVANCED_FACE('',(#49),#21,.F.);
#841=ADVANCED_FACE('',(#50),#816,.T.);
#842=ADVANCED_FACE('',(#51),#22,.T.);
#843=ADVANCED_FACE('',(#52),#23,.T.);
#844=ADVANCED_FACE('',(#53),#817,.F.);
#845=ADVANCED_FACE('',(#54),#24,.F.);
#846=ADVANCED_FACE('',(#55),#818,.F.);
#847=ADVANCED_FACE('',(#56),#25,.F.);
#848=ADVANCED_FACE('',(#57),#26,.F.);
#849=ADVANCED_FACE('',(#58),#819,.T.);
#850=ADVANCED_FACE('',(#59),#27,.F.);
#851=ADVANCED_FACE('',(#60),#820,.T.);
#852=ADVANCED_FACE('',(#61),#28,.F.);
#853=ADVANCED_FACE('',(#62),#821,.T.);
#854=ADVANCED_FACE('',(#63),#29,.F.);
#855=ADVANCED_FACE('',(#64),#822,.T.);
#856=ADVANCED_FACE('',(#65),#30,.T.);
#857=ADVANCED_FACE('',(#66),#823,.T.);
#858=ADVANCED_FACE('',(#67),#824,.T.);
#859=ADVANCED_FACE('',(#68),#31,.T.);
#860=ADVANCED_FACE('',(#69),#32,.T.);
#861=ADVANCED_FACE('',(#70),#825,.T.);
#862=ADVANCED_FACE('',(#71),#33,.T.);
#863=ADVANCED_FACE('',(#72),#826,.T.);
#864=ADVANCED_FACE('',(#73),#34,.T.);
#865=ADVANCED_FACE('',(#74),#827,.T.);
#866=ADVANCED_FACE('',(#75),#35,.F.);
#867=ADVANCED_FACE('',(#76),#828,.T.);
#868=ADVANCED_FACE('',(#77),#36,.F.);
#869=ADVANCED_FACE('',(#78),#829,.T.);
#870=ADVANCED_FACE('',(#79),#830,.T.);
#871=ADVANCED_FACE('',(#80),#37,.F.);
#872=ADVANCED_FACE('',(#81),#831,.T.);
#873=ADVANCED_FACE('',(#82),#38,.T.);
#874=ADVANCED_FACE('',(#83),#832,.T.);
#875=ADVANCED_FACE('',(#84),#39,.T.);
#876=CLOSED_SHELL('',(#833,#834,#835,#836,#837,#838,#839,#840,#841,#842,
#843,#844,#845,#846,#847,#848,#849,#850,#851,#852,#853,#854,#855,#856,#857,
#858,#859,#860,#861,#862,#863,#864,#865,#866,#867,#868,#869,#870,#871,#872,
#873,#874,#875));
#877=DERIVED_UNIT_ELEMENT(#880,1.);
#878=DERIVED_UNIT_ELEMENT(#1535,-3.);
#879=DIMENSIONAL_EXPONENTS(0.,1.,0.,0.,0.,0.,0.);
#880=(
CONVERSION_BASED_UNIT('gram',#882)
MASS_UNIT()
NAMED_UNIT(#879)
);
#881=(
MASS_UNIT()
NAMED_UNIT(*)
SI_UNIT(.KILO.,.GRAM.)
);
#882=MASS_MEASURE_WITH_UNIT(MASS_MEASURE(0.001),#881);
#883=DERIVED_UNIT((#877,#878));
#884=MEASURE_REPRESENTATION_ITEM('density measure',
POSITIVE_RATIO_MEASURE(1.),#883);
#885=PROPERTY_DEFINITION_REPRESENTATION(#890,#887);
#886=PROPERTY_DEFINITION_REPRESENTATION(#891,#888);
#887=REPRESENTATION('material name',(#889),#1532);
#888=REPRESENTATION('density',(#884),#1532);
#889=DESCRIPTIVE_REPRESENTATION_ITEM('G\X\E9n\X\E9rique','G\X\E9n\X\E9
rique');
#890=PROPERTY_DEFINITION('material property','material name',#1542);
#891=PROPERTY_DEFINITION('material property','density of part',#1542);
#892=DATE_TIME_ROLE('creation_date');
#893=APPLIED_DATE_AND_TIME_ASSIGNMENT(#894,#892,(#1542));
#894=DATE_AND_TIME(#895,#896);
#895=CALENDAR_DATE(2013,1,7);
#896=LOCAL_TIME(11,42,15.,#897);
#897=COORDINATED_UNIVERSAL_TIME_OFFSET(0,0,.BEHIND.);
#898=AXIS2_PLACEMENT_3D('',#1239,#984,#985);
#899=AXIS2_PLACEMENT_3D('',#1240,#986,#987);
#900=AXIS2_PLACEMENT_3D('',#1247,#990,#991);
#901=AXIS2_PLACEMENT_3D('',#1253,#994,#995);
#902=AXIS2_PLACEMENT_3D('',#1259,#998,#999);
#903=AXIS2_PLACEMENT_3D('',#1265,#1002,#1003);
#904=AXIS2_PLACEMENT_3D('',#1269,#1005,#1006);
#905=AXIS2_PLACEMENT_3D('',#1273,#1008,#1009);
#906=AXIS2_PLACEMENT_3D('',#1276,#1011,#1012);
#907=AXIS2_PLACEMENT_3D('',#1278,#1013,#1014);
#908=AXIS2_PLACEMENT_3D('',#1279,#1015,#1016);
#909=AXIS2_PLACEMENT_3D('',#1282,#1018,#1019);
#910=AXIS2_PLACEMENT_3D('',#1283,#1020,#1021);
#911=AXIS2_PLACEMENT_3D('',#1288,#1023,#1024);
#912=AXIS2_PLACEMENT_3D('',#1292,#1026,#1027);
#913=AXIS2_PLACEMENT_3D('',#1296,#1029,#1030);
#914=AXIS2_PLACEMENT_3D('',#1302,#1033,#1034);
#915=AXIS2_PLACEMENT_3D('',#1308,#1037,#1038);
#916=AXIS2_PLACEMENT_3D('',#1314,#1041,#1042);
#917=AXIS2_PLACEMENT_3D('',#1319,#1045,#1046);
#918=AXIS2_PLACEMENT_3D('',#1320,#1047,#1048);
#919=AXIS2_PLACEMENT_3D('',#1323,#1051,#1052);
#920=AXIS2_PLACEMENT_3D('',#1325,#1054,#1055);
#921=AXIS2_PLACEMENT_3D('',#1327,#1057,#1058);
#922=AXIS2_PLACEMENT_3D('',#1329,#1060,#1061);
#923=AXIS2_PLACEMENT_3D('',#1351,#1063,#1064);
#924=AXIS2_PLACEMENT_3D('',#1353,#1065,#1066);
#925=AXIS2_PLACEMENT_3D('',#1357,#1068,#1069);
#926=AXIS2_PLACEMENT_3D('',#1361,#1071,#1072);
#927=AXIS2_PLACEMENT_3D('',#1365,#1074,#1075);
#928=AXIS2_PLACEMENT_3D('',#1373,#1079,#1080);
#929=AXIS2_PLACEMENT_3D('',#1377,#1082,#1083);
#930=AXIS2_PLACEMENT_3D('',#1381,#1085,#1086);
#931=AXIS2_PLACEMENT_3D('',#1384,#1088,#1089);
#932=AXIS2_PLACEMENT_3D('',#1385,#1090,#1091);
#933=AXIS2_PLACEMENT_3D('',#1388,#1093,#1094);
#934=AXIS2_PLACEMENT_3D('',#1389,#1095,#1096);
#935=AXIS2_PLACEMENT_3D('',#1391,#1097,#1098);
#936=AXIS2_PLACEMENT_3D('',#1395,#1100,#1101);
#937=AXIS2_PLACEMENT_3D('',#1404,#1102,#1103);
#938=AXIS2_PLACEMENT_3D('',#1411,#1107,#1108);
#939=AXIS2_PLACEMENT_3D('',#1413,#1110,#1111);
#940=AXIS2_PLACEMENT_3D('',#1415,#1113,#1114);
#941=AXIS2_PLACEMENT_3D('',#1417,#1115,#1116);
#942=AXIS2_PLACEMENT_3D('',#1423,#1120,#1121);
#943=AXIS2_PLACEMENT_3D('',#1425,#1123,#1124);
#944=AXIS2_PLACEMENT_3D('',#1428,#1125,#1126);
#945=AXIS2_PLACEMENT_3D('',#1440,#1128,#1129);
#946=AXIS2_PLACEMENT_3D('',#1441,#1130,#1131);
#947=AXIS2_PLACEMENT_3D('',#1445,#1134,#1135);
#948=AXIS2_PLACEMENT_3D('',#1447,#1136,#1137);
#949=AXIS2_PLACEMENT_3D('',#1449,#1139,#1140);
#950=AXIS2_PLACEMENT_3D('',#1453,#1143,#1144);
#951=AXIS2_PLACEMENT_3D('',#1455,#1145,#1146);
#952=AXIS2_PLACEMENT_3D('',#1457,#1148,#1149);
#953=AXIS2_PLACEMENT_3D('',#1461,#1152,#1153);
#954=AXIS2_PLACEMENT_3D('',#1463,#1154,#1155);
#955=AXIS2_PLACEMENT_3D('',#1465,#1157,#1158);
#956=AXIS2_PLACEMENT_3D('',#1468,#1159,#1160);
#957=AXIS2_PLACEMENT_3D('',#1471,#1162,#1163);
#958=AXIS2_PLACEMENT_3D('',#1473,#1165,#1166);
#959=AXIS2_PLACEMENT_3D('',#1476,#1167,#1168);
#960=AXIS2_PLACEMENT_3D('',#1479,#1171,#1172);
#961=AXIS2_PLACEMENT_3D('',#1484,#1175,#1176);
#962=AXIS2_PLACEMENT_3D('',#1486,#1178,#1179);
#963=AXIS2_PLACEMENT_3D('',#1488,#1181,#1182);
#964=AXIS2_PLACEMENT_3D('',#1489,#1183,#1184);
#965=AXIS2_PLACEMENT_3D('',#1491,#1185,#1186);
#966=AXIS2_PLACEMENT_3D('',#1493,#1188,#1189);
#967=AXIS2_PLACEMENT_3D('',#1497,#1192,#1193);
#968=AXIS2_PLACEMENT_3D('',#1499,#1194,#1195);
#969=AXIS2_PLACEMENT_3D('',#1501,#1197,#1198);
#970=AXIS2_PLACEMENT_3D('',#1505,#1201,#1202);
#971=AXIS2_PLACEMENT_3D('',#1507,#1203,#1204);
#972=AXIS2_PLACEMENT_3D('',#1509,#1206,#1207);
#973=AXIS2_PLACEMENT_3D('',#1511,#1209,#1210);
#974=AXIS2_PLACEMENT_3D('',#1512,#1211,#1212);
#975=AXIS2_PLACEMENT_3D('',#1513,#1213,#1214);
#976=AXIS2_PLACEMENT_3D('',#1515,#1216,#1217);
#977=AXIS2_PLACEMENT_3D('',#1517,#1219,#1220);
#978=AXIS2_PLACEMENT_3D('',#1519,#1222,#1223);
#979=AXIS2_PLACEMENT_3D('',#1521,#1225,#1226);
#980=AXIS2_PLACEMENT_3D('',#1523,#1228,#1229);
#981=AXIS2_PLACEMENT_3D('',#1525,#1231,#1232);
#982=AXIS2_PLACEMENT_3D('',#1527,#1234,#1235);
#983=AXIS2_PLACEMENT_3D('',#1529,#1237,#1238);
#984=DIRECTION('axis',(0.,0.,1.));
#985=DIRECTION('refdir',(1.,0.,0.));
#986=DIRECTION('center_axis',(0.,-1.,0.));
#987=DIRECTION('ref_axis',(1.,0.,0.));
#988=DIRECTION('',(-1.,0.,0.));
#989=DIRECTION('',(0.,0.,1.));
#990=DIRECTION('center_axis',(0.,1.,0.));
#991=DIRECTION('ref_axis',(-1.,0.,0.));
#992=DIRECTION('',(0.,0.,1.));
#993=DIRECTION('',(-1.,0.,0.));
#994=DIRECTION('center_axis',(0.,-1.,0.));
#995=DIRECTION('ref_axis',(0.,0.,1.));
#996=DIRECTION('',(-1.,0.,0.));
#997=DIRECTION('',(0.,0.,1.));
#998=DIRECTION('center_axis',(0.,1.,0.));
#999=DIRECTION('ref_axis',(-0.750000000000024,0.,-0.661437827766121));
#1000=DIRECTION('',(0.,0.,1.));
#1001=DIRECTION('',(1.,0.,0.));
#1002=DIRECTION('center_axis',(0.,1.,0.));
#1003=DIRECTION('ref_axis',(0.866025403784429,0.,-0.500000000000017));
#1004=DIRECTION('',(1.,0.,0.));
#1005=DIRECTION('center_axis',(0.,-1.,0.));
#1006=DIRECTION('ref_axis',(0.,0.,1.));
#1007=DIRECTION('',(0.,0.,1.));
#1008=DIRECTION('center_axis',(0.,-1.,0.));
#1009=DIRECTION('ref_axis',(-1.,0.,0.));
#1010=DIRECTION('',(1.,0.,0.));
#1011=DIRECTION('center_axis',(0.,1.,0.));
#1012=DIRECTION('ref_axis',(0.,0.,1.));
#1013=DIRECTION('center_axis',(0.,1.,0.));
#1014=DIRECTION('ref_axis',(-1.,0.,0.));
#1015=DIRECTION('center_axis',(0.,1.,0.));
#1016=DIRECTION('ref_axis',(-1.,0.,0.));
#1017=DIRECTION('',(0.,1.,0.));
#1018=DIRECTION('center_axis',(0.,1.,0.));
#1019=DIRECTION('ref_axis',(-1.,0.,0.));
#1020=DIRECTION('center_axis',(0.,1.,0.));
#1021=DIRECTION('ref_axis',(-1.,0.,0.));
#1022=DIRECTION('',(-1.,0.,0.));
#1023=DIRECTION('center_axis',(0.,1.,0.));
#1024=DIRECTION('ref_axis',(0.,0.,-1.));
#1025=DIRECTION('',(0.,0.,1.));
#1026=DIRECTION('center_axis',(0.,1.,0.));
#1027=DIRECTION('ref_axis',(-1.,0.,0.));
#1028=DIRECTION('',(-1.,0.,0.));
#1029=DIRECTION('center_axis',(0.,-1.,0.));
#1030=DIRECTION('ref_axis',(0.,0.,-1.));
#1031=DIRECTION('',(1.,0.,0.));
#1032=DIRECTION('',(0.,0.,-1.));
#1033=DIRECTION('center_axis',(0.,-1.,0.));
#1034=DIRECTION('ref_axis',(-1.,0.,0.));
#1035=DIRECTION('',(0.,0.,1.));
#1036=DIRECTION('',(-1.,0.,0.));
#1037=DIRECTION('center_axis',(0.,-1.,0.));
#1038=DIRECTION('ref_axis',(0.,0.,1.));
#1039=DIRECTION('',(-1.,0.,0.));
#1040=DIRECTION('',(0.,0.,1.));
#1041=DIRECTION('center_axis',(0.,-1.,0.));
#1042=DIRECTION('ref_axis',(-0.750000000000024,0.,0.661437827766121));
#1043=DIRECTION('',(0.,0.,-1.));
#1044=DIRECTION('',(-1.,0.,0.));
#1045=DIRECTION('center_axis',(0.,-1.,0.));
#1046=DIRECTION('ref_axis',(0.866025403784429,0.,0.500000000000017));
#1047=DIRECTION('center_axis',(0.,0.,1.));
#1048=DIRECTION('ref_axis',(1.,0.,0.));
#1049=DIRECTION('',(0.,1.,0.));
#1050=DIRECTION('',(0.,1.,0.));
#1051=DIRECTION('center_axis',(0.,1.,0.));
#1052=DIRECTION('ref_axis',(0.,0.,1.));
#1053=DIRECTION('',(0.,1.,0.));
#1054=DIRECTION('center_axis',(0.,0.,-1.));
#1055=DIRECTION('ref_axis',(-1.,0.,0.));
#1056=DIRECTION('',(0.,-1.,0.));
#1057=DIRECTION('center_axis',(1.,0.,0.));
#1058=DIRECTION('ref_axis',(0.,0.,-1.));
#1059=DIRECTION('',(0.,-1.,0.));
#1060=DIRECTION('center_axis',(0.,-1.,0.));
#1061=DIRECTION('ref_axis',(0.,0.,1.));
#1062=DIRECTION('',(0.,-1.,0.));
#1063=DIRECTION('center_axis',(0.,0.,-1.));
#1064=DIRECTION('ref_axis',(-1.,0.,0.));
#1065=DIRECTION('center_axis',(0.,0.,1.));
#1066=DIRECTION('ref_axis',(0.500000000000017,-0.866025403784429,0.));
#1067=DIRECTION('',(0.838670567945429,-0.544639035015019,0.));
#1068=DIRECTION('center_axis',(0.,0.,1.));
#1069=DIRECTION('ref_axis',(0.544639035015019,0.838670567945429,0.));
#1070=DIRECTION('',(1.,0.,0.));
#1071=DIRECTION('center_axis',(0.,0.,1.));
#1072=DIRECTION('ref_axis',(0.,1.,0.));
#1073=DIRECTION('',(0.500000000000017,0.866025403784429,0.));
#1074=DIRECTION('center_axis',(0.,0.,1.));
#1075=DIRECTION('ref_axis',(-0.866025403784429,0.500000000000017,0.));
#1076=DIRECTION('',(-1.,0.,0.));
#1077=DIRECTION('',(0.,1.,0.));
#1078=DIRECTION('',(1.,0.,0.));
#1079=DIRECTION('center_axis',(0.,0.,1.));
#1080=DIRECTION('ref_axis',(-0.866025403784429,0.500000000000017,0.));
#1081=DIRECTION('',(-0.500000000000017,-0.866025403784429,0.));
#1082=DIRECTION('center_axis',(0.,0.,1.));
#1083=DIRECTION('ref_axis',(0.,1.,0.));
#1084=DIRECTION('',(-1.,0.,0.));
#1085=DIRECTION('center_axis',(0.,0.,1.));
#1086=DIRECTION('ref_axis',(0.544639035015019,0.838670567945429,0.));
#1087=DIRECTION('',(-0.838670567945429,0.544639035015019,0.));
#1088=DIRECTION('center_axis',(0.,0.,1.));
#1089=DIRECTION('ref_axis',(0.333333333333292,-0.942809041582078,0.));
#1090=DIRECTION('center_axis',(0.,0.,1.));
#1091=DIRECTION('ref_axis',(1.,0.,0.));
#1092=DIRECTION('',(0.,0.,1.));
#1093=DIRECTION('center_axis',(0.,0.,-1.));
#1094=DIRECTION('ref_axis',(0.544639035015019,0.838670567945429,0.));
#1095=DIRECTION('center_axis',(0.,0.,1.));
#1096=DIRECTION('ref_axis',(1.,0.,0.));
#1097=DIRECTION('center_axis',(0.,0.,1.));
#1098=DIRECTION('ref_axis',(0.,-1.,0.));
#1099=DIRECTION('',(0.,0.,1.));
#1100=DIRECTION('center_axis',(0.,0.,1.));
#1101=DIRECTION('ref_axis',(0.333333333333292,-0.942809041582078,0.));
#1102=DIRECTION('center_axis',(0.,0.,-1.));
#1103=DIRECTION('ref_axis',(-0.838670567945429,0.544639035015019,0.));
#1104=DIRECTION('',(-0.838670567945429,0.544639035015019,0.));
#1105=DIRECTION('',(-0.544639035015019,-0.838670567945429,0.));
#1106=DIRECTION('',(-0.838670567945429,0.544639035015019,0.));
#1107=DIRECTION('center_axis',(0.,0.,1.));
#1108=DIRECTION('ref_axis',(0.,-1.,0.));
#1109=DIRECTION('',(0.,1.,0.));
#1110=DIRECTION('center_axis',(0.,-1.,0.));
#1111=DIRECTION('ref_axis',(-1.,0.,1.22464679914735E-16));
#1112=DIRECTION('',(0.,1.,0.));
#1113=DIRECTION('center_axis',(0.,0.,1.));
#1114=DIRECTION('ref_axis',(0.838670567945429,-0.544639035015019,0.));
#1115=DIRECTION('center_axis',(0.,0.,-1.));
#1116=DIRECTION('ref_axis',(0.544639035015019,0.838670567945429,0.));
#1117=DIRECTION('',(-0.838670567945429,0.544639035015019,0.));
#1118=DIRECTION('',(-0.544639035015019,-0.838670567945429,0.));
#1119=DIRECTION('',(-0.838670567945429,0.544639035015019,0.));
#1120=DIRECTION('center_axis',(0.,0.,1.));
#1121=DIRECTION('ref_axis',(1.,0.,0.));
#1122=DIRECTION('',(0.,0.,1.));
#1123=DIRECTION('center_axis',(0.,0.,1.));
#1124=DIRECTION('ref_axis',(1.,0.,0.));
#1125=DIRECTION('center_axis',(0.,0.,1.));
#1126=DIRECTION('ref_axis',(0.500000000000017,-0.866025403784429,0.));
#1127=DIRECTION('',(0.,0.,1.));
#1128=DIRECTION('center_axis',(-0.544639035015019,-0.838670567945429,0.));
#1129=DIRECTION('ref_axis',(0.838670567945429,-0.544639035015019,0.));
#1130=DIRECTION('center_axis',(0.544639035015019,0.838670567945429,0.));
#1131=DIRECTION('ref_axis',(0.,0.,-1.));
#1132=DIRECTION('',(0.838670567945429,-0.544639035015019,0.));
#1133=DIRECTION('',(0.,0.,1.));
#1134=DIRECTION('center_axis',(0.,0.,1.));
#1135=DIRECTION('ref_axis',(1.,0.,0.));
#1136=DIRECTION('center_axis',(0.,0.,1.));
#1137=DIRECTION('ref_axis',(0.544639035015019,0.838670567945429,0.));
#1138=DIRECTION('',(0.,0.,1.));
#1139=DIRECTION('center_axis',(0.,-1.,0.));
#1140=DIRECTION('ref_axis',(1.,0.,0.));
#1141=DIRECTION('',(1.,0.,0.));
#1142=DIRECTION('',(0.,0.,1.));
#1143=DIRECTION('center_axis',(0.,0.,1.));
#1144=DIRECTION('ref_axis',(1.,0.,0.));
#1145=DIRECTION('center_axis',(0.,0.,1.));
#1146=DIRECTION('ref_axis',(0.,1.,0.));
#1147=DIRECTION('',(0.,0.,1.));
#1148=DIRECTION('center_axis',(0.866025403784429,-0.500000000000017,0.));
#1149=DIRECTION('ref_axis',(0.500000000000017,0.866025403784429,0.));
#1150=DIRECTION('',(0.500000000000017,0.866025403784429,0.));
#1151=DIRECTION('',(0.,0.,1.));
#1152=DIRECTION('center_axis',(0.,0.,1.));
#1153=DIRECTION('ref_axis',(-0.866025403784494,-0.499999999999905,0.));
#1154=DIRECTION('center_axis',(0.,0.,1.));
#1155=DIRECTION('ref_axis',(-0.866025403784429,0.500000000000017,0.));
#1156=DIRECTION('',(0.,0.,1.));
#1157=DIRECTION('center_axis',(0.,1.,0.));
#1158=DIRECTION('ref_axis',(-1.,0.,0.));
#1159=DIRECTION('center_axis',(0.,1.,0.));
#1160=DIRECTION('ref_axis',(0.,0.,1.));
#1161=DIRECTION('',(0.,0.,1.));
#1162=DIRECTION('center_axis',(0.,1.,0.));
#1163=DIRECTION('ref_axis',(1.,0.,0.));
#1164=DIRECTION('',(-1.,0.,0.));
#1165=DIRECTION('center_axis',(0.,-1.,0.));
#1166=DIRECTION('ref_axis',(1.,0.,0.));
#1167=DIRECTION('center_axis',(0.,-1.,0.));
#1168=DIRECTION('ref_axis',(1.,0.,0.));
#1169=DIRECTION('',(0.,-1.,0.));
#1170=DIRECTION('',(0.,-1.,0.));
#1171=DIRECTION('center_axis',(0.,-1.,0.));
#1172=DIRECTION('ref_axis',(1.,0.,0.));
#1173=DIRECTION('',(1.,0.,0.));
#1174=DIRECTION('',(0.,0.,1.));
#1175=DIRECTION('center_axis',(0.,-1.,0.));
#1176=DIRECTION('ref_axis',(0.,0.,-1.));
#1177=DIRECTION('',(0.,0.,1.));
#1178=DIRECTION('center_axis',(1.,0.,0.));
#1179=DIRECTION('ref_axis',(0.,1.,0.));
#1180=DIRECTION('',(0.,1.,0.));
#1181=DIRECTION('center_axis',(0.,1.,0.));
#1182=DIRECTION('ref_axis',(1.,0.,0.));
#1183=DIRECTION('center_axis',(0.,0.,1.));
#1184=DIRECTION('ref_axis',(-0.866025403784369,-0.500000000000121,0.));
#1185=DIRECTION('center_axis',(0.,0.,1.));
#1186=DIRECTION('ref_axis',(-0.866025403784429,0.500000000000017,0.));
#1187=DIRECTION('',(0.,0.,1.));
#1188=DIRECTION('center_axis',(-0.866025403784429,0.500000000000017,0.));
#1189=DIRECTION('ref_axis',(-0.500000000000017,-0.866025403784429,0.));
#1190=DIRECTION('',(-0.499999999999974,-0.866025403784454,0.));
#1191=DIRECTION('',(0.,0.,1.));
#1192=DIRECTION('center_axis',(0.,0.,1.));
#1193=DIRECTION('ref_axis',(1.,0.,0.));
#1194=DIRECTION('center_axis',(0.,0.,1.));
#1195=DIRECTION('ref_axis',(0.,1.,0.));
#1196=DIRECTION('',(0.,0.,1.));
#1197=DIRECTION('center_axis',(0.,1.,0.));
#1198=DIRECTION('ref_axis',(-1.,0.,0.));
#1199=DIRECTION('',(-1.,0.,0.));
#1200=DIRECTION('',(0.,0.,1.));
#1201=DIRECTION('center_axis',(0.,0.,1.));
#1202=DIRECTION('ref_axis',(1.,0.,0.));
#1203=DIRECTION('center_axis',(0.,0.,1.));
#1204=DIRECTION('ref_axis',(0.544639035015019,0.838670567945429,0.));
#1205=DIRECTION('',(0.,0.,1.));
#1206=DIRECTION('center_axis',(0.544639035015019,0.838670567945429,0.));
#1207=DIRECTION('ref_axis',(-0.838670567945429,0.544639035015019,0.));
#1208=DIRECTION('',(-0.838670567945429,0.544639035015019,0.));
#1209=DIRECTION('center_axis',(0.544639035015019,0.838670567945429,0.));
#1210=DIRECTION('ref_axis',(0.,0.,-1.));
#1211=DIRECTION('center_axis',(0.544639035015019,0.838670567945429,0.));
#1212=DIRECTION('ref_axis',(-0.838670567945429,0.544639035015019,-1.22464679914735E-16));
#1213=DIRECTION('center_axis',(0.,0.,1.));
#1214=DIRECTION('ref_axis',(1.,0.,0.));
#1215=DIRECTION('',(0.,1.,0.));
#1216=DIRECTION('center_axis',(0.,1.,0.));
#1217=DIRECTION('ref_axis',(0.,0.,-1.));
#1218=DIRECTION('',(0.,1.,0.));
#1219=DIRECTION('center_axis',(1.,0.,0.));
#1220=DIRECTION('ref_axis',(0.,0.,-1.));
#1221=DIRECTION('',(0.,-1.,0.));
#1222=DIRECTION('center_axis',(0.,0.,1.));
#1223=DIRECTION('ref_axis',(1.,0.,0.));
#1224=DIRECTION('',(0.,-1.,0.));
#1225=DIRECTION('center_axis',(0.,-1.,0.));
#1226=DIRECTION('ref_axis',(0.,0.,-1.));
#1227=DIRECTION('',(0.,-1.,0.));
#1228=DIRECTION('center_axis',(0.,0.,1.));
#1229=DIRECTION('ref_axis',(1.,0.,0.));
#1230=DIRECTION('',(0.,-1.,0.));
#1231=DIRECTION('center_axis',(0.,-1.,0.));
#1232=DIRECTION('ref_axis',(0.,0.,1.));
#1233=DIRECTION('',(0.,-1.,0.));
#1234=DIRECTION('center_axis',(-1.,0.,0.));
#1235=DIRECTION('ref_axis',(0.,-1.,0.));
#1236=DIRECTION('',(0.,1.,0.));
#1237=DIRECTION('center_axis',(0.,1.,0.));
#1238=DIRECTION('ref_axis',(0.,0.,-1.));
#1239=CARTESIAN_POINT('',(0.,0.,0.));
#1240=CARTESIAN_POINT('Origin',(-2.7,-0.15,-1.45));
#1241=CARTESIAN_POINT('',(2.2,-0.15,-1.55));
#1242=CARTESIAN_POINT('',(0.2,-0.15,-1.55));
#1243=CARTESIAN_POINT('',(2.2,-0.15,-1.55));
#1244=CARTESIAN_POINT('',(2.2,-0.15,-1.45));
#1245=CARTESIAN_POINT('',(2.2,-0.15,-1.55));
#1246=CARTESIAN_POINT('',(2.25,-0.15,-1.317712434447));
#1247=CARTESIAN_POINT('Origin',(2.4,-0.15,-1.45));
#1248=CARTESIAN_POINT('',(2.25,-0.15,-0.5));
#1249=CARTESIAN_POINT('',(2.25,-0.15,-1.317712434447));
#1250=CARTESIAN_POINT('',(2.09783292838,-0.15,-0.5));
#1251=CARTESIAN_POINT('',(2.25,-0.15,-0.5));
#1252=CARTESIAN_POINT('',(2.09783292838,-0.15,0.5));
#1253=CARTESIAN_POINT('Origin',(2.09783292838,-0.15,0.));
#1254=CARTESIAN_POINT('',(2.25,-0.15,0.5));
#1255=CARTESIAN_POINT('',(2.25,-0.15,0.5));
#1256=CARTESIAN_POINT('',(2.25,-0.15,1.317712434447));
#1257=CARTESIAN_POINT('',(2.25,-0.15,0.5));
#1258=CARTESIAN_POINT('',(2.2,-0.15,1.45));
#1259=CARTESIAN_POINT('Origin',(2.4,-0.15,1.45));
#1260=CARTESIAN_POINT('',(2.2,-0.15,1.55));
#1261=CARTESIAN_POINT('',(2.2,-0.15,1.45));
#1262=CARTESIAN_POINT('',(0.2,-0.15,1.55));
#1263=CARTESIAN_POINT('',(0.2,-0.15,1.55));
#1264=CARTESIAN_POINT('',(0.02679491924311,-0.15,1.45));
#1265=CARTESIAN_POINT('Origin',(0.02679491924311,-0.15,1.65));
#1266=CARTESIAN_POINT('',(-2.2,-0.15,1.45));
#1267=CARTESIAN_POINT('',(-2.2,-0.15,1.45));
#1268=CARTESIAN_POINT('',(-2.7,-0.15,0.95));
#1269=CARTESIAN_POINT('Origin',(-2.2,-0.15,0.95));
#1270=CARTESIAN_POINT('',(-2.7,-0.15,-0.95));
#1271=CARTESIAN_POINT('',(-2.7,-0.15,-0.95));
#1272=CARTESIAN_POINT('',(-2.2,-0.15,-1.45));
#1273=CARTESIAN_POINT('Origin',(-2.2,-0.15,-0.95));
#1274=CARTESIAN_POINT('',(0.02679491924311,-0.15,-1.45));
#1275=CARTESIAN_POINT('',(-2.2,-0.15,-1.45));
#1276=CARTESIAN_POINT('Origin',(0.02679491924311,-0.15,-1.65));
#1277=CARTESIAN_POINT('',(0.6,-0.15,0.));
#1278=CARTESIAN_POINT('Origin',(0.,-0.15,0.));
#1279=CARTESIAN_POINT('Origin',(0.,-0.15,0.));
#1280=CARTESIAN_POINT('',(0.6,0.,0.));
#1281=CARTESIAN_POINT('',(0.6,-0.15,-7.34788079488412E-17));
#1282=CARTESIAN_POINT('Origin',(0.,0.,0.));
#1283=CARTESIAN_POINT('Origin',(2.25,0.,-1.45));
#1284=CARTESIAN_POINT('',(0.02679491924311,0.,-1.45));
#1285=CARTESIAN_POINT('',(-2.2,0.,-1.45));
#1286=CARTESIAN_POINT('',(0.02679491924311,0.,-1.45));
#1287=CARTESIAN_POINT('',(-2.7,0.,-0.95));
#1288=CARTESIAN_POINT('Origin',(-2.2,0.,-0.95));
#1289=CARTESIAN_POINT('',(-2.7,0.,0.95));
#1290=CARTESIAN_POINT('',(-2.7,0.,-0.95));
#1291=CARTESIAN_POINT('',(-2.2,0.,1.45));
#1292=CARTESIAN_POINT('Origin',(-2.2,0.,0.95));
#1293=CARTESIAN_POINT('',(0.02679491924311,0.,1.45));
#1294=CARTESIAN_POINT('',(0.02679491924311,0.,1.45));
#1295=CARTESIAN_POINT('',(0.2,0.,1.55));
#1296=CARTESIAN_POINT('Origin',(0.02679491924311,0.,1.65));
#1297=CARTESIAN_POINT('',(2.2,0.,1.55));
#1298=CARTESIAN_POINT('',(0.2,0.,1.55));
#1299=CARTESIAN_POINT('',(2.2,0.,1.45));
#1300=CARTESIAN_POINT('',(2.2,0.,1.55));
#1301=CARTESIAN_POINT('',(2.25,0.,1.317712434447));
#1302=CARTESIAN_POINT('Origin',(2.4,0.,1.45));
#1303=CARTESIAN_POINT('',(2.25,0.,0.5));
#1304=CARTESIAN_POINT('',(2.25,0.,0.5));
#1305=CARTESIAN_POINT('',(2.09783292838,0.,0.5));
#1306=CARTESIAN_POINT('',(2.25,0.,0.5));
#1307=CARTESIAN_POINT('',(2.09783292838,0.,-0.5));
#1308=CARTESIAN_POINT('Origin',(2.09783292838,0.,0.));
#1309=CARTESIAN_POINT('',(2.25,0.,-0.5));
#1310=CARTESIAN_POINT('',(2.25,0.,-0.5));
#1311=CARTESIAN_POINT('',(2.25,0.,-1.317712434447));
#1312=CARTESIAN_POINT('',(2.25,0.,-1.317712434447));
#1313=CARTESIAN_POINT('',(2.2,0.,-1.45));
#1314=CARTESIAN_POINT('Origin',(2.4,0.,-1.45));
#1315=CARTESIAN_POINT('',(2.2,0.,-1.55));
#1316=CARTESIAN_POINT('',(2.2,0.,-1.45));
#1317=CARTESIAN_POINT('',(0.2,0.,-1.55));
#1318=CARTESIAN_POINT('',(2.2,0.,-1.55));
#1319=CARTESIAN_POINT('Origin',(0.02679491924311,0.,-1.65));
#1320=CARTESIAN_POINT('Origin',(0.,0.,-1.45));
#1321=CARTESIAN_POINT('',(0.02679491924311,-0.15,-1.45));
#1322=CARTESIAN_POINT('',(-2.2,-0.15,-1.45));
#1323=CARTESIAN_POINT('Origin',(0.02679491924311,-0.1501367690652,-1.65));
#1324=CARTESIAN_POINT('',(0.2,-0.15,-1.55));
#1325=CARTESIAN_POINT('Origin',(2.2,0.,-1.55));
#1326=CARTESIAN_POINT('',(2.2,0.,-1.55));
#1327=CARTESIAN_POINT('Origin',(2.2,0.,-1.45));
#1328=CARTESIAN_POINT('',(2.2,0.,-1.45));
#1329=CARTESIAN_POINT('Origin',(2.4,2.363204512873,-1.45));
#1330=CARTESIAN_POINT('',(2.4,0.04019237886467,-1.25));
#1331=CARTESIAN_POINT('',(2.4,-0.1242640687119,-1.25));
#1332=CARTESIAN_POINT('',(2.4,0.04019237886467,-1.25));
#1333=CARTESIAN_POINT('Ctrl Pts',(2.24999999999989,-0.15,-1.3177124344469));
#1334=CARTESIAN_POINT('Ctrl Pts',(2.25295514347909,-0.150000000000001,-1.31436161670354));
#1335=CARTESIAN_POINT('Ctrl Pts',(2.25599652925475,-0.149970777950178,-1.31113974960484));
#1336=CARTESIAN_POINT('Ctrl Pts',(2.27721219503377,-0.149541480847073,-1.29008079151212));
#1337=CARTESIAN_POINT('Ctrl Pts',(2.30013474434779,-0.147898896843088,-1.27468083962764));
#1338=CARTESIAN_POINT('Ctrl Pts',(2.34951417370872,-0.139572342873736,-1.25465144912896));
#1339=CARTESIAN_POINT('Ctrl Pts',(2.37594205964232,-0.132769835096077,-1.25));
#1340=CARTESIAN_POINT('Ctrl Pts',(2.4,-0.124264068711929,-1.25));
#1341=CARTESIAN_POINT('Ctrl Pts',(2.4,0.0401923788646687,-1.25));
#1342=CARTESIAN_POINT('Ctrl Pts',(2.39613218569978,0.0379592952372632,-1.25));
#1343=CARTESIAN_POINT('Ctrl Pts',(2.39220776147529,0.0358094996187038,-1.25010763925237));
#1344=CARTESIAN_POINT('Ctrl Pts',(2.36861707526985,0.023557398278829,-1.25152431009081));
#1345=CARTESIAN_POINT('Ctrl Pts',(2.3480143370578,0.0157991068288215,-1.25583974016805));
#1346=CARTESIAN_POINT('Ctrl Pts',(2.31196658763342,0.00592049595781638,
-1.2694645087824));
#1347=CARTESIAN_POINT('Ctrl Pts',(2.29387638634179,0.00280004270649087,
-1.27924612724596));
#1348=CARTESIAN_POINT('Ctrl Pts',(2.26761939963929,0.000334961190466687,
-1.29954381314891));
#1349=CARTESIAN_POINT('Ctrl Pts',(2.25824915304575,-3.13716260349353E-15,
-1.30835877409563));
#1350=CARTESIAN_POINT('Ctrl Pts',(2.24999999999989,0.,-1.3177124344469));
#1351=CARTESIAN_POINT('Origin',(0.,0.,-1.25));
#1352=CARTESIAN_POINT('',(2.413391710505,0.5516011703836,-1.25));
#1353=CARTESIAN_POINT('Origin',(2.25,0.3,-1.25));
#1354=CARTESIAN_POINT('',(-0.06068646493449,2.158286323678,-1.25));
#1355=CARTESIAN_POINT('',(-0.06068646493449,2.158286323678,-1.25));
#1356=CARTESIAN_POINT('',(-0.1968462236882,2.198618681692,-1.25));
#1357=CARTESIAN_POINT('Origin',(-0.1968462236882,1.948618681692,-1.25));
#1358=CARTESIAN_POINT('',(-1.726846223688,2.198618681692,-1.25));
#1359=CARTESIAN_POINT('',(-1.726846223688,2.198618681692,-1.25));
#1360=CARTESIAN_POINT('',(-1.943352574634,2.073618681692,-1.25));
#1361=CARTESIAN_POINT('Origin',(-1.726846223688,1.948618681692,-1.25));
#1362=CARTESIAN_POINT('',(-1.968352574634,2.030317411502,-1.25));
#1363=CARTESIAN_POINT('',(-1.968352574634,2.030317411502,-1.25));
#1364=CARTESIAN_POINT('',(-1.751846223688,1.655317411502,-1.25));
#1365=CARTESIAN_POINT('Origin',(-1.751846223688,1.905317411502,-1.25));
#1366=CARTESIAN_POINT('',(-1.451846223688,1.655317411502,-1.25));
#1367=CARTESIAN_POINT('',(-1.451846223688,1.655317411502,-1.25));
#1368=CARTESIAN_POINT('',(-1.451846223688,1.505317411502,-1.25));
#1369=CARTESIAN_POINT('',(-1.451846223688,1.505317411502,-1.25));
#1370=CARTESIAN_POINT('',(-1.751846223688,1.505317411502,-1.25));
#1371=CARTESIAN_POINT('',(-1.751846223688,1.505317411502,-1.25));
#1372=CARTESIAN_POINT('',(-2.098256385202,2.105317411502,-1.25));
#1373=CARTESIAN_POINT('Origin',(-1.751846223688,1.905317411502,-1.25));
#1374=CARTESIAN_POINT('',(-2.073256385202,2.148618681692,-1.25));
#1375=CARTESIAN_POINT('',(-2.073256385202,2.148618681692,-1.25));
#1376=CARTESIAN_POINT('',(-1.726846223688,2.348618681692,-1.25));
#1377=CARTESIAN_POINT('Origin',(-1.726846223688,1.948618681692,-1.25));
#1378=CARTESIAN_POINT('',(-0.1968462236882,2.348618681692,-1.25));
#1379=CARTESIAN_POINT('',(-0.1968462236882,2.348618681692,-1.25));
#1380=CARTESIAN_POINT('',(0.02100939031776,2.28408690887,-1.25));
#1381=CARTESIAN_POINT('Origin',(-0.1968462236882,1.948618681692,-1.25));
#1382=CARTESIAN_POINT('',(2.495087565757,0.6774017555754,-1.25));
#1383=CARTESIAN_POINT('',(2.495087565757,0.6774017555754,-1.25));
#1384=CARTESIAN_POINT('Origin',(2.25,0.3,-1.25));
#1385=CARTESIAN_POINT('Origin',(2.25,0.3,-1.45));
#1386=CARTESIAN_POINT('',(2.495087565757,0.6774017555754,-0.5));
#1387=CARTESIAN_POINT('',(2.495087565757,0.6774017555754,-1.25));
#1388=CARTESIAN_POINT('Origin',(2.25,0.3,-0.5));
#1389=CARTESIAN_POINT('Origin',(2.25,0.3,-1.45));
#1390=CARTESIAN_POINT('',(2.495087565757,0.6774017555754,0.5));
#1391=CARTESIAN_POINT('Origin',(2.25,0.3,0.5));
#1392=CARTESIAN_POINT('',(2.495087565757,0.6774017555754,1.25));
#1393=CARTESIAN_POINT('',(2.495087565757,0.6774017555754,0.5));
#1394=CARTESIAN_POINT('',(2.4,-0.1242640687119,1.25));
#1395=CARTESIAN_POINT('Origin',(2.25,0.3,1.25));
#1396=CARTESIAN_POINT('Ctrl Pts',(2.4,-0.124264068711929,1.25));
#1397=CARTESIAN_POINT('Ctrl Pts',(2.37594205964232,-0.132769835096077,1.25));
#1398=CARTESIAN_POINT('Ctrl Pts',(2.34951417370872,-0.139572342873736,1.25465144912896));
#1399=CARTESIAN_POINT('Ctrl Pts',(2.30013474434779,-0.147898896843088,1.27468083962764));
#1400=CARTESIAN_POINT('Ctrl Pts',(2.27721219503377,-0.149541480847073,1.29008079151212));
#1401=CARTESIAN_POINT('Ctrl Pts',(2.25599652925475,-0.149970777950178,1.31113974960484));
#1402=CARTESIAN_POINT('Ctrl Pts',(2.25295514347909,-0.150000000000001,1.31436161670354));
#1403=CARTESIAN_POINT('Ctrl Pts',(2.24999999999989,-0.15,1.3177124344469));
#1404=CARTESIAN_POINT('Origin',(2.872489321332,0.4323141898187,-0.5));
#1405=CARTESIAN_POINT('',(1.195148185441,1.521592259849,-0.5));
#1406=CARTESIAN_POINT('',(2.495087565757,0.6774017555754,-0.5));
#1407=CARTESIAN_POINT('',(1.113452330189,1.395791674657,-0.5));
#1408=CARTESIAN_POINT('',(1.195148185441,1.521592259849,-0.5));
#1409=CARTESIAN_POINT('',(2.413391710505,0.5516011703836,-0.5));
#1410=CARTESIAN_POINT('',(2.413391710505,0.5516011703836,-0.5));
#1411=CARTESIAN_POINT('Origin',(2.25,0.3,-0.5));
#1412=CARTESIAN_POINT('',(2.09783292838,-0.15,-0.5));
#1413=CARTESIAN_POINT('Origin',(2.09783292838,-0.15,0.));
#1414=CARTESIAN_POINT('',(2.09783292838,-0.15,0.5));
#1415=CARTESIAN_POINT('Origin',(1.195148185441,1.521592259849,0.5));
#1416=CARTESIAN_POINT('',(2.413391710505,0.5516011703836,0.5));
#1417=CARTESIAN_POINT('Origin',(2.25,0.3,0.5));
#1418=CARTESIAN_POINT('',(1.113452330189,1.395791674657,0.5));
#1419=CARTESIAN_POINT('',(2.413391710505,0.5516011703836,0.5));
#1420=CARTESIAN_POINT('',(1.195148185441,1.521592259849,0.5));
#1421=CARTESIAN_POINT('',(1.195148185441,1.521592259849,0.5));
#1422=CARTESIAN_POINT('',(2.495087565757,0.6774017555754,0.5));
#1423=CARTESIAN_POINT('Origin',(2.25,0.3,-1.45));
#1424=CARTESIAN_POINT('',(2.413391710505,0.5516011703836,-1.25));
#1425=CARTESIAN_POINT('Origin',(2.25,0.3,-1.45));
#1426=CARTESIAN_POINT('',(2.4,0.04019237886467,1.25));
#1427=CARTESIAN_POINT('',(2.413391710505,0.5516011703836,1.25));
#1428=CARTESIAN_POINT('Origin',(2.25,0.3,1.25));
#1429=CARTESIAN_POINT('',(2.413391710505,0.5516011703836,0.5));
#1430=CARTESIAN_POINT('Ctrl Pts',(2.24999999999989,-1.30377363848504E-29,
1.3177124344469));
#1431=CARTESIAN_POINT('Ctrl Pts',(2.25503216752499,-1.91820868970475E-15,
1.31200649280673));
#1432=CARTESIAN_POINT('Ctrl Pts',(2.26033642272695,0.000127732323786726,
1.30665118833813));
#1433=CARTESIAN_POINT('Ctrl Pts',(2.28349509800479,0.00135112609477341,
1.28570053582247));
#1434=CARTESIAN_POINT('Ctrl Pts',(2.3078142793904,0.0047718395213692,1.27101627440684));
#1435=CARTESIAN_POINT('Ctrl Pts',(2.34841554019841,0.0159185626319634,1.25570372350231));
#1436=CARTESIAN_POINT('Ctrl Pts',(2.3692981463577,0.0238262126683835,1.25139602614298));
#1437=CARTESIAN_POINT('Ctrl Pts',(2.39281163917569,0.0361409688856408,1.25009119336107));
#1438=CARTESIAN_POINT('Ctrl Pts',(2.39642939199937,0.038130887374333,1.25));
#1439=CARTESIAN_POINT('Ctrl Pts',(2.4,0.0401923788646689,1.25));
#1440=CARTESIAN_POINT('Origin',(-0.06068646493449,2.158286323678,-1.45));
#1441=CARTESIAN_POINT('Origin',(1.113452330189,1.395791674657,0.));
#1442=CARTESIAN_POINT('',(-0.06068646493449,2.158286323678,1.25));
#1443=CARTESIAN_POINT('',(-0.06068646493449,2.158286323678,1.25));
#1444=CARTESIAN_POINT('',(-0.06068646493449,2.158286323678,-1.25));
#1445=CARTESIAN_POINT('Origin',(-0.1968462236882,1.948618681692,-1.45));
#1446=CARTESIAN_POINT('',(-0.1968462236882,2.198618681692,1.25));
#1447=CARTESIAN_POINT('Origin',(-0.1968462236882,1.948618681692,1.25));
#1448=CARTESIAN_POINT('',(-0.1968462236882,2.198618681692,-1.25));
#1449=CARTESIAN_POINT('Origin',(-1.726846223688,2.198618681692,-1.45));
#1450=CARTESIAN_POINT('',(-1.726846223688,2.198618681692,1.25));
#1451=CARTESIAN_POINT('',(-1.726846223688,2.198618681692,1.25));
#1452=CARTESIAN_POINT('',(-1.726846223688,2.198618681692,-1.25));
#1453=CARTESIAN_POINT('Origin',(-1.726846223688,1.948618681692,-1.45));
#1454=CARTESIAN_POINT('',(-1.943352574634,2.073618681692,1.25));
#1455=CARTESIAN_POINT('Origin',(-1.726846223688,1.948618681692,1.25));
#1456=CARTESIAN_POINT('',(-1.943352574634,2.073618681692,-1.25));
#1457=CARTESIAN_POINT('Origin',(-1.968352574634,2.030317411502,-1.45));
#1458=CARTESIAN_POINT('',(-1.968352574634,2.030317411502,1.25));
#1459=CARTESIAN_POINT('',(-1.968352574634,2.030317411502,1.25));
#1460=CARTESIAN_POINT('',(-1.968352574634,2.030317411502,-1.25));
#1461=CARTESIAN_POINT('Origin',(-1.751846223688,1.905317411502,-1.45));
#1462=CARTESIAN_POINT('',(-1.751846223688,1.655317411502,1.25));
#1463=CARTESIAN_POINT('Origin',(-1.751846223688,1.905317411502,1.25));
#1464=CARTESIAN_POINT('',(-1.751846223688,1.655317411502,-1.25));
#1465=CARTESIAN_POINT('Origin',(-1.151846223688,1.655317411502,-1.45));
#1466=CARTESIAN_POINT('',(-1.451846223688,1.655317411502,1.25));
#1467=CARTESIAN_POINT('',(-1.151846223688,1.655317411502,0.95));
#1468=CARTESIAN_POINT('Origin',(-1.451846223688,1.655317411502,0.95));
#1469=CARTESIAN_POINT('',(-1.151846223688,1.655317411502,-0.95));
#1470=CARTESIAN_POINT('',(-1.151846223688,1.655317411502,-0.95));
#1471=CARTESIAN_POINT('Origin',(-1.451846223688,1.655317411502,-0.95));
#1472=CARTESIAN_POINT('',(-1.451846223688,1.655317411502,1.25));
#1473=CARTESIAN_POINT('Origin',(-1.451846223688,1.66554427633,0.95));
#1474=CARTESIAN_POINT('',(-1.151846223688,1.505317411502,0.95));
#1475=CARTESIAN_POINT('',(-1.451846223688,1.505317411502,1.25));
#1476=CARTESIAN_POINT('Origin',(-1.451846223688,1.505317411502,0.95));
#1477=CARTESIAN_POINT('',(-1.151846223688,1.655317411502,0.95));
#1478=CARTESIAN_POINT('',(-1.451846223688,1.655317411502,1.25));
#1479=CARTESIAN_POINT('Origin',(-1.751846223688,1.505317411502,-1.45));
#1480=CARTESIAN_POINT('',(-1.751846223688,1.505317411502,1.25));
#1481=CARTESIAN_POINT('',(-1.751846223688,1.505317411502,1.25));
#1482=CARTESIAN_POINT('',(-1.751846223688,1.505317411502,-1.25));
#1483=CARTESIAN_POINT('',(-1.151846223688,1.505317411502,-0.95));
#1484=CARTESIAN_POINT('Origin',(-1.451846223688,1.505317411502,-0.95));
#1485=CARTESIAN_POINT('',(-1.151846223688,1.505317411502,-0.95));
#1486=CARTESIAN_POINT('Origin',(-1.151846223688,1.505317411502,-1.45));
#1487=CARTESIAN_POINT('',(-1.151846223688,1.505317411502,-0.95));
#1488=CARTESIAN_POINT('Origin',(-1.451846223688,1.494168377466,-0.95));
#1489=CARTESIAN_POINT('Origin',(-1.751846223688,1.905317411502,-1.45));
#1490=CARTESIAN_POINT('',(-2.098256385202,2.105317411502,1.25));
#1491=CARTESIAN_POINT('Origin',(-1.751846223688,1.905317411502,1.25));
#1492=CARTESIAN_POINT('',(-2.098256385202,2.105317411502,-1.25));
#1493=CARTESIAN_POINT('Origin',(-2.073256385202,2.148618681692,-1.45));
#1494=CARTESIAN_POINT('',(-2.073256385202,2.148618681692,1.25));
#1495=CARTESIAN_POINT('',(-2.073256385202,2.148618681692,1.25));
#1496=CARTESIAN_POINT('',(-2.073256385202,2.148618681692,-1.25));
#1497=CARTESIAN_POINT('Origin',(-1.726846223688,1.948618681692,-1.45));
#1498=CARTESIAN_POINT('',(-1.726846223688,2.348618681692,1.25));
#1499=CARTESIAN_POINT('Origin',(-1.726846223688,1.948618681692,1.25));
#1500=CARTESIAN_POINT('',(-1.726846223688,2.348618681692,-1.25));
#1501=CARTESIAN_POINT('Origin',(-0.1968462236882,2.348618681692,-1.45));
#1502=CARTESIAN_POINT('',(-0.1968462236882,2.348618681692,1.25));
#1503=CARTESIAN_POINT('',(-0.1968462236882,2.348618681692,1.25));
#1504=CARTESIAN_POINT('',(-0.1968462236882,2.348618681692,-1.25));
#1505=CARTESIAN_POINT('Origin',(-0.1968462236882,1.948618681692,-1.45));
#1506=CARTESIAN_POINT('',(0.02100939031776,2.28408690887,1.25));
#1507=CARTESIAN_POINT('Origin',(-0.1968462236882,1.948618681692,1.25));
#1508=CARTESIAN_POINT('',(0.02100939031776,2.28408690887,-1.25));
#1509=CARTESIAN_POINT('Origin',(2.495087565757,0.6774017555754,-1.45));
#1510=CARTESIAN_POINT('',(2.495087565757,0.6774017555754,1.25));
#1511=CARTESIAN_POINT('Origin',(1.195148185441,1.521592259849,0.));
#1512=CARTESIAN_POINT('Origin',(1.195148185441,1.521592259849,0.));
#1513=CARTESIAN_POINT('Origin',(0.,0.,1.25));
#1514=CARTESIAN_POINT('',(2.4,-0.1242640687119,1.25));
#1515=CARTESIAN_POINT('Origin',(2.4,-0.1632104738645,1.45));
#1516=CARTESIAN_POINT('',(2.2,-0.15,1.45));
#1517=CARTESIAN_POINT('Origin',(2.2,0.,1.55));
#1518=CARTESIAN_POINT('',(2.2,0.,1.55));
#1519=CARTESIAN_POINT('Origin',(0.2,0.,1.55));
#1520=CARTESIAN_POINT('',(0.2,0.,1.55));
#1521=CARTESIAN_POINT('Origin',(0.02679491924311,0.0001399093653571,1.65));
#1522=CARTESIAN_POINT('',(0.02679491924311,0.,1.45));
#1523=CARTESIAN_POINT('Origin',(0.,0.,1.45));
#1524=CARTESIAN_POINT('',(-2.2,0.,1.45));
#1525=CARTESIAN_POINT('Origin',(-2.2,0.01017815780656,0.95));
#1526=CARTESIAN_POINT('',(-2.7,0.,0.95));
#1527=CARTESIAN_POINT('Origin',(-2.7,0.,-1.45));
#1528=CARTESIAN_POINT('',(-2.7,-0.15,-0.95));
#1529=CARTESIAN_POINT('Origin',(-2.2,-0.1599819657527,-0.95));
#1530=UNCERTAINTY_MEASURE_WITH_UNIT(LENGTH_MEASURE(0.01),#1534,
'DISTANCE_ACCURACY_VALUE',
'Maximum model space distance between geometric entities at asserted c
onnectivities');
#1531=UNCERTAINTY_MEASURE_WITH_UNIT(LENGTH_MEASURE(0.01),#1534,
'DISTANCE_ACCURACY_VALUE',
'Maximum model space distance between geometric entities at asserted c
onnectivities');
#1532=(
GEOMETRIC_REPRESENTATION_CONTEXT(3)
GLOBAL_UNCERTAINTY_ASSIGNED_CONTEXT((#1530))
GLOBAL_UNIT_ASSIGNED_CONTEXT((#1534,#1536,#1537))
REPRESENTATION_CONTEXT('','3D')
);
#1533=(
GEOMETRIC_REPRESENTATION_CONTEXT(3)
GLOBAL_UNCERTAINTY_ASSIGNED_CONTEXT((#1531))
GLOBAL_UNIT_ASSIGNED_CONTEXT((#1534,#1536,#1537))
REPRESENTATION_CONTEXT('','3D')
);
#1534=(
LENGTH_UNIT()
NAMED_UNIT(*)
SI_UNIT(.MILLI.,.METRE.)
);
#1535=(
LENGTH_UNIT()
NAMED_UNIT(*)
SI_UNIT(.CENTI.,.METRE.)
);
#1536=(
NAMED_UNIT(*)
PLANE_ANGLE_UNIT()
SI_UNIT($,.RADIAN.)
);
#1537=(
NAMED_UNIT(*)
SI_UNIT($,.STERADIAN.)
SOLID_ANGLE_UNIT()
);
#1538=SHAPE_DEFINITION_REPRESENTATION(#1539,#1540);
#1539=PRODUCT_DEFINITION_SHAPE('',$,#1542);
#1540=SHAPE_REPRESENTATION('',(#898),#1532);
#1541=PRODUCT_DEFINITION_CONTEXT('part definition',#1546,'design');
#1542=PRODUCT_DEFINITION('S1741-46','S1741-46R.stp',#1543,#1541);
#1543=PRODUCT_DEFINITION_FORMATION('41LAST_VERSION',$,#1548);
#1544=PRODUCT_RELATED_PRODUCT_CATEGORY('S1741-46R.stp','S1741-46R.stp',
(#1548));
#1545=APPLICATION_PROTOCOL_DEFINITION('international standard',
'automotive_design',2009,#1546);
#1546=APPLICATION_CONTEXT(
'Core Data for Automotive Mechanical Design Process');
#1547=PRODUCT_CONTEXT('part definition',#1546,'mechanical');
#1548=PRODUCT('S1741-46','S1741-46R.stp',$,(#1547));
#1549=PRESENTATION_STYLE_ASSIGNMENT((#1551));
#1550=PRESENTATION_STYLE_ASSIGNMENT((#1552));
#1551=SURFACE_STYLE_USAGE(.BOTH.,#1557);
#1552=SURFACE_STYLE_USAGE(.BOTH.,#1558);
#1553=SURFACE_STYLE_RENDERING_WITH_PROPERTIES($,#1565,(#1555));
#1554=SURFACE_STYLE_RENDERING_WITH_PROPERTIES($,#1566,(#1556));
#1555=SURFACE_STYLE_TRANSPARENT(0.);
#1556=SURFACE_STYLE_TRANSPARENT(0.);
#1557=SURFACE_SIDE_STYLE('',(#1559,#1553));
#1558=SURFACE_SIDE_STYLE('',(#1560,#1554));
#1559=SURFACE_STYLE_FILL_AREA(#1561);
#1560=SURFACE_STYLE_FILL_AREA(#1562);
#1561=FILL_AREA_STYLE('',(#1563));
#1562=FILL_AREA_STYLE('',(#1564));
#1563=FILL_AREA_STYLE_COLOUR('',#1565);
#1564=FILL_AREA_STYLE_COLOUR('',#1566);
#1565=COLOUR_RGB('',0.749019607843137,0.749019607843137,0.749019607843137);
#1566=COLOUR_RGB('',0.658823529411765,0.658823529411765,0.658823529411765);
ENDSEC;
END-ISO-10303-21;
