ISO-10303-21;
HEADER;
FILE_DESCRIPTION (( 'STEP AP214' ),
    '1' );
FILE_NAME ('S70-332002045R.STEP',
    '2023-05-25T10:15:05',
    ( '' ),
    ( '' ),
    'SwSTEP 2.0',
    'SolidWorks 2021',
    '' );
FILE_SCHEMA (( 'AUTOMOTIVE_DESIGN' ));
ENDSEC;

DATA;
#1 = UNCERTAINTY_MEASURE_WITH_UNIT (LENGTH_MEASURE( 1.000000000000000082E-05 ), #245, 'distance_accuracy_value', 'NONE');
#2 = DIRECTION ( 'NONE',  ( 0.000000000000000000, 0.000000000000000000, 1.000000000000000000 ) ) ;
#3 = SHAPE_DEFINITION_REPRESENTATION ( #294, #21 ) ;
#4 = COLOUR_RGB ( '',0.6470588235294117974, 0.5176470588235293491, 0.000000000000000000 ) ;
#5 = DIRECTION ( 'NONE',  ( 0.000000000000000000, 0.000000000000000000, 1.000000000000000000 ) ) ;
#6 = COLOUR_RGB ( '',0.6470588235294117974, 0.5176470588235293491, 0.000000000000000000 ) ;
#7 = EDGE_LOOP ( 'NONE', ( #37, #318, #270, #348 ) ) ;
#8 = DIRECTION ( 'NONE',  ( 0.000000000000000000, 0.000000000000000000, 1.000000000000000000 ) ) ;
#9 = ORIENTED_EDGE ( 'NONE', *, *, #284, .F. ) ;
#10 = AXIS2_PLACEMENT_3D ( 'NONE', #300, #153, #207 ) ;
#11 = EDGE_CURVE ( 'NONE', #36, #267, #346, .T. ) ;
#12 = DIRECTION ( 'NONE',  ( 0.000000000000000000, 1.000000000000000000, 0.000000000000000000 ) ) ;
#13 = ORIENTED_EDGE ( 'NONE', *, *, #11, .T. ) ;
#14 = CIRCLE ( 'NONE', #225, 1.574999999999999956 ) ;
#15 = DIRECTION ( 'NONE',  ( 0.000000000000000000, -0.000000000000000000, 1.000000000000000000 ) ) ;
#16 =( NAMED_UNIT ( * ) PLANE_ANGLE_UNIT ( ) SI_UNIT ( $, .RADIAN. ) );
#17 =( LENGTH_UNIT ( ) NAMED_UNIT ( * ) SI_UNIT ( .MILLI., .METRE. ) );
#18 = SURFACE_SIDE_STYLE ('',( #44 ) ) ;
#19 = CARTESIAN_POINT ( 'NONE',  ( 1.944126793646423041E-16, 0.000000000000000000, -1.574999999999999956 ) ) ;
#20 = ADVANCED_FACE ( 'NONE', ( #317 ), #58, .F. ) ;
#21 = ADVANCED_BREP_SHAPE_REPRESENTATION ( 'S70-332002045R', ( #167, #230 ), #190 ) ;
#22 = FILL_AREA_STYLE ('',( #43 ) ) ;
#23 = CARTESIAN_POINT ( 'NONE',  ( 1.928818708657081344E-16, 0.1749999999999999889, -1.574999999999999956 ) ) ;
#24 = CARTESIAN_POINT ( 'NONE',  ( 0.000000000000000000, 0.2000000000000000111, -1.600000000000000089 ) ) ;
#25 = MECHANICAL_DESIGN_GEOMETRIC_PRESENTATION_REPRESENTATION (  '', ( #250 ), #126 ) ;
#26 = PRESENTATION_LAYER_ASSIGNMENT (  '', '', ( #46 ) ) ;
#27 = TOROIDAL_SURFACE ( 'NONE', #265, 1.574999999999999956, 0.02500000000000000139 ) ;
#28 = UNCERTAINTY_MEASURE_WITH_UNIT (LENGTH_MEASURE( 1.000000000000000082E-05 ), #188, 'distance_accuracy_value', 'NONE');
#29 = DIRECTION ( 'NONE',  ( -0.000000000000000000, -1.000000000000000000, -0.000000000000000000 ) ) ;
#30 =( GEOMETRIC_REPRESENTATION_CONTEXT ( 3 ) GLOBAL_UNCERTAINTY_ASSIGNED_CONTEXT ( ( #168 ) ) GLOBAL_UNIT_ASSIGNED_CONTEXT ( ( #17, #103, #160 ) ) REPRESENTATION_CONTEXT ( 'NONE', 'WORKASPACE' ) );
#31 = SURFACE_STYLE_USAGE ( .BOTH. , #170 ) ;
#32 = CARTESIAN_POINT ( 'NONE',  ( 0.000000000000000000, 0.000000000000000000, 0.000000000000000000 ) ) ;
#33 = ORIENTED_EDGE ( 'NONE', *, *, #66, .T. ) ;
#34 =( NAMED_UNIT ( * ) SI_UNIT ( $, .STERADIAN. ) SOLID_ANGLE_UNIT ( ) );
#35 = MECHANICAL_DESIGN_GEOMETRIC_PRESENTATION_REPRESENTATION (  '', ( #146 ), #239 ) ;
#36 = VERTEX_POINT ( 'NONE', #218 ) ;
#37 = ORIENTED_EDGE ( 'NONE', *, *, #66, .F. ) ;
#38 = ORIENTED_EDGE ( 'NONE', *, *, #260, .T. ) ;
#39 = SURFACE_STYLE_FILL_AREA ( #22 ) ;
#40 = ORIENTED_EDGE ( 'NONE', *, *, #210, .T. ) ;
#41 = FACE_OUTER_BOUND ( 'NONE', #176, .T. ) ;
#42 = CARTESIAN_POINT ( 'NONE',  ( 0.000000000000000000, 0.1749999999999999889, -1.600000000000000089 ) ) ;
#43 = FILL_AREA_STYLE_COLOUR ( '', #4 ) ;
#44 = SURFACE_STYLE_FILL_AREA ( #102 ) ;
#45 = CARTESIAN_POINT ( 'NONE',  ( 0.000000000000000000, 0.2000000000000000111, 1.574999999999999956 ) ) ;
#46 = STYLED_ITEM ( 'NONE', ( #175 ), #262 ) ;
#47 = FILL_AREA_STYLE ('',( #192 ) ) ;
#48 = UNCERTAINTY_MEASURE_WITH_UNIT (LENGTH_MEASURE( 1.000000000000000082E-05 ), #215, 'distance_accuracy_value', 'NONE');
#49 = DIRECTION ( 'NONE',  ( 1.224646799147353207E-16, 0.000000000000000000, -1.000000000000000000 ) ) ;
#50 = COLOUR_RGB ( '',0.6470588235294117974, 0.5176470588235293491, 0.000000000000000000 ) ;
#51 = APPLICATION_PROTOCOL_DEFINITION ( 'draft international standard', 'automotive_design', 1998, #104 ) ;
#52 = AXIS2_PLACEMENT_3D ( 'NONE', #96, #247, #223 ) ;
#53 = MECHANICAL_DESIGN_GEOMETRIC_PRESENTATION_REPRESENTATION (  '', ( #115 ), #355 ) ;
#54 =( LENGTH_UNIT ( ) NAMED_UNIT ( * ) SI_UNIT ( .MILLI., .METRE. ) );
#55 = AXIS2_PLACEMENT_3D ( 'NONE', #357, #129, #221 ) ;
#56 = AXIS2_PLACEMENT_3D ( 'NONE', #97, #217, #328 ) ;
#57 = COLOUR_RGB ( '',0.6470588235294117974, 0.5176470588235293491, 0.000000000000000000 ) ;
#58 = PLANE ( 'NONE',  #312 ) ;
#59 = EDGE_CURVE ( 'NONE', #216, #267, #280, .T. ) ;
#60 =( LENGTH_UNIT ( ) NAMED_UNIT ( * ) SI_UNIT ( .MILLI., .METRE. ) );
#61 = ORIENTED_EDGE ( 'NONE', *, *, #256, .T. ) ;
#62 = SURFACE_SIDE_STYLE ('',( #316 ) ) ;
#63 = ORIENTED_EDGE ( 'NONE', *, *, #256, .F. ) ;
#64 = DIRECTION ( 'NONE',  ( 0.000000000000000000, 0.000000000000000000, 1.000000000000000000 ) ) ;
#65 = VERTEX_POINT ( 'NONE', #45 ) ;
#66 = EDGE_CURVE ( 'NONE', #68, #238, #76, .T. ) ;
#67 = FILL_AREA_STYLE ('',( #144 ) ) ;
#68 = VERTEX_POINT ( 'NONE', #42 ) ;
#69 = FACE_OUTER_BOUND ( 'NONE', #298, .T. ) ;
#70 =( GEOMETRIC_REPRESENTATION_CONTEXT ( 3 ) GLOBAL_UNCERTAINTY_ASSIGNED_CONTEXT ( ( #257 ) ) GLOBAL_UNIT_ASSIGNED_CONTEXT ( ( #60, #84, #297 ) ) REPRESENTATION_CONTEXT ( 'NONE', 'WORKASPACE' ) );
#71 = CARTESIAN_POINT ( 'NONE',  ( 1.959434878635765230E-16, 0.2000000000000000111, 1.600000000000000089 ) ) ;
#72 = STYLED_ITEM ( 'NONE', ( #306 ), #324 ) ;
#73 = STYLED_ITEM ( 'NONE', ( #356 ), #321 ) ;
#74 =( NAMED_UNIT ( * ) SI_UNIT ( $, .STERADIAN. ) SOLID_ANGLE_UNIT ( ) );
#75 = SURFACE_SIDE_STYLE ('',( #354 ) ) ;
#76 = CIRCLE ( 'NONE', #288, 0.02500000000000006384 ) ;
#77 = CARTESIAN_POINT ( 'NONE',  ( 0.000000000000000000, 0.2000000000000000111, 0.000000000000000000 ) ) ;
#78 = PRESENTATION_LAYER_ASSIGNMENT (  '', '', ( #208 ) ) ;
#79 = CIRCLE ( 'NONE', #361, 0.02500000000000006384 ) ;
#80 = LINE ( 'NONE', #24, #186 ) ;
#81 = CIRCLE ( 'NONE', #171, 1.574999999999999956 ) ;
#82 = CARTESIAN_POINT ( 'NONE',  ( 1.928818708657081344E-16, 0.02500000000000001180, -1.574999999999999956 ) ) ;
#83 = FILL_AREA_STYLE ('',( #231 ) ) ;
#84 =( NAMED_UNIT ( * ) PLANE_ANGLE_UNIT ( ) SI_UNIT ( $, .RADIAN. ) );
#85 = ORIENTED_EDGE ( 'NONE', *, *, #169, .F. ) ;
#86 = COLOUR_RGB ( '',0.6470588235294117974, 0.5176470588235293491, 0.000000000000000000 ) ;
#87 = PRODUCT_DEFINITION_FORMATION_WITH_SPECIFIED_SOURCE ( 'ANY', '', #206, .NOT_KNOWN. ) ;
#88 = EDGE_LOOP ( 'NONE', ( #150, #293 ) ) ;
#89 = PLANE ( 'NONE',  #157 ) ;
#90 = EDGE_LOOP ( 'NONE', ( #181, #242 ) ) ;
#91 = CARTESIAN_POINT ( 'NONE',  ( 0.000000000000000000, 0.1749999999999999889, 0.000000000000000000 ) ) ;
#92 = EDGE_CURVE ( 'NONE', #216, #65, #122, .T. ) ;
#93 = SURFACE_STYLE_USAGE ( .BOTH. , #266 ) ;
#94 = ORIENTED_EDGE ( 'NONE', *, *, #177, .T. ) ;
#95 = AXIS2_PLACEMENT_3D ( 'NONE', #135, #255, #2 ) ;
#96 = CARTESIAN_POINT ( 'NONE',  ( 0.000000000000000000, 0.000000000000000000, 0.000000000000000000 ) ) ;
#97 = CARTESIAN_POINT ( 'NONE',  ( 0.000000000000000000, 0.2000000000000000111, 0.000000000000000000 ) ) ;
#98 = ADVANCED_FACE ( 'NONE', ( #272 ), #269, .T. ) ;
#99 =( LENGTH_UNIT ( ) NAMED_UNIT ( * ) SI_UNIT ( .MILLI., .METRE. ) );
#100 = SURFACE_STYLE_FILL_AREA ( #124 ) ;
#101 =( NAMED_UNIT ( * ) PLANE_ANGLE_UNIT ( ) SI_UNIT ( $, .RADIAN. ) );
#102 = FILL_AREA_STYLE ('',( #156 ) ) ;
#103 =( NAMED_UNIT ( * ) PLANE_ANGLE_UNIT ( ) SI_UNIT ( $, .RADIAN. ) );
#104 = APPLICATION_CONTEXT ( 'automotive_design' ) ;
#105 = CIRCLE ( 'NONE', #52, 1.574999999999999956 ) ;
#106 =( NAMED_UNIT ( * ) SI_UNIT ( $, .STERADIAN. ) SOLID_ANGLE_UNIT ( ) );
#107 = SURFACE_STYLE_USAGE ( .BOTH. , #201 ) ;
#108 = CARTESIAN_POINT ( 'NONE',  ( 1.959434878635765230E-16, 0.1749999999999999889, 1.600000000000000089 ) ) ;
#109 = EDGE_CURVE ( 'NONE', #340, #212, #105, .T. ) ;
#110 = FACE_OUTER_BOUND ( 'NONE', #322, .T. ) ;
#111 = CIRCLE ( 'NONE', #143, 1.600000000000000089 ) ;
#112 = DIRECTION ( 'NONE',  ( 1.000000000000000000, -0.000000000000000000, 1.224646799147353207E-16 ) ) ;
#113 = EDGE_CURVE ( 'NONE', #267, #36, #301, .T. ) ;
#114 =( NAMED_UNIT ( * ) PLANE_ANGLE_UNIT ( ) SI_UNIT ( $, .RADIAN. ) );
#115 = STYLED_ITEM ( 'NONE', ( #183 ), #20 ) ;
#116 = ORIENTED_EDGE ( 'NONE', *, *, #11, .F. ) ;
#117 = COLOUR_RGB ( '',0.7921568627450980005, 0.8196078431372548767, 0.9333333333333333481 ) ;
#118 = DIRECTION ( 'NONE',  ( -0.000000000000000000, -1.000000000000000000, -0.000000000000000000 ) ) ;
#119 = TOROIDAL_SURFACE ( 'NONE', #172, 1.574999999999999956, 0.02500000000000000139 ) ;
#120 = SURFACE_SIDE_STYLE ('',( #347 ) ) ;
#121 = ORIENTED_EDGE ( 'NONE', *, *, #362, .F. ) ;
#122 = CIRCLE ( 'NONE', #204, 0.02500000000000006384 ) ;
#123 = MECHANICAL_DESIGN_GEOMETRIC_PRESENTATION_REPRESENTATION (  '', ( #360 ), #224 ) ;
#124 = FILL_AREA_STYLE ('',( #184 ) ) ;
#125 = EDGE_LOOP ( 'NONE', ( #63, #9, #40, #116 ) ) ;
#126 =( GEOMETRIC_REPRESENTATION_CONTEXT ( 3 ) GLOBAL_UNCERTAINTY_ASSIGNED_CONTEXT ( ( #202 ) ) GLOBAL_UNIT_ASSIGNED_CONTEXT ( ( #237, #173, #34 ) ) REPRESENTATION_CONTEXT ( 'NONE', 'WORKASPACE' ) );
#127 = EDGE_CURVE ( 'NONE', #238, #65, #274, .T. ) ;
#128 = SURFACE_STYLE_USAGE ( .BOTH. , #182 ) ;
#129 = DIRECTION ( 'NONE',  ( 0.000000000000000000, 1.000000000000000000, 0.000000000000000000 ) ) ;
#130 = CARTESIAN_POINT ( 'NONE',  ( 0.000000000000000000, 0.2000000000000000111, 0.000000000000000000 ) ) ;
#131 = SURFACE_STYLE_USAGE ( .BOTH. , #75 ) ;
#132 = DIRECTION ( 'NONE',  ( 0.000000000000000000, -0.000000000000000000, 1.000000000000000000 ) ) ;
#133 = ADVANCED_FACE ( 'NONE', ( #110 ), #27, .T. ) ;
#134 = UNCERTAINTY_MEASURE_WITH_UNIT (LENGTH_MEASURE( 1.000000000000000082E-05 ), #166, 'distance_accuracy_value', 'NONE');
#135 = CARTESIAN_POINT ( 'NONE',  ( 0.000000000000000000, 0.02500000000000001180, 1.574999999999999956 ) ) ;
#136 =( GEOMETRIC_REPRESENTATION_CONTEXT ( 3 ) GLOBAL_UNCERTAINTY_ASSIGNED_CONTEXT ( ( #363 ) ) GLOBAL_UNIT_ASSIGNED_CONTEXT ( ( #54, #229, #334 ) ) REPRESENTATION_CONTEXT ( 'NONE', 'WORKASPACE' ) );
#137 =( NAMED_UNIT ( * ) PLANE_ANGLE_UNIT ( ) SI_UNIT ( $, .RADIAN. ) );
#138 = DIRECTION ( 'NONE',  ( -0.000000000000000000, -1.000000000000000000, -0.000000000000000000 ) ) ;
#139 = DIRECTION ( 'NONE',  ( -0.000000000000000000, -1.000000000000000000, -0.000000000000000000 ) ) ;
#140 = PRODUCT_CONTEXT ( 'NONE', #281, 'mechanical' ) ;
#141 = DIRECTION ( 'NONE',  ( 0.000000000000000000, 0.000000000000000000, 1.000000000000000000 ) ) ;
#142 = PRESENTATION_LAYER_ASSIGNMENT (  '', '', ( #72 ) ) ;
#143 = AXIS2_PLACEMENT_3D ( 'NONE', #311, #139, #283 ) ;
#144 = FILL_AREA_STYLE_COLOUR ( '', #57 ) ;
#145 = ORIENTED_EDGE ( 'NONE', *, *, #59, .T. ) ;
#146 = STYLED_ITEM ( 'NONE', ( #249 ), #133 ) ;
#147 = VECTOR ( 'NONE', #159, 1000.000000000000000 ) ;
#148 = DIRECTION ( 'NONE',  ( 0.000000000000000000, 1.000000000000000000, 0.000000000000000000 ) ) ;
#149 = COLOUR_RGB ( '',0.6470588235294117974, 0.5176470588235293491, 0.000000000000000000 ) ;
#150 = ORIENTED_EDGE ( 'NONE', *, *, #284, .T. ) ;
#151 = ORIENTED_EDGE ( 'NONE', *, *, #92, .F. ) ;
#152 =( NAMED_UNIT ( * ) SI_UNIT ( $, .STERADIAN. ) SOLID_ANGLE_UNIT ( ) );
#153 = DIRECTION ( 'NONE',  ( 0.000000000000000000, 1.000000000000000000, 0.000000000000000000 ) ) ;
#154 = PRESENTATION_LAYER_ASSIGNMENT (  '', '', ( #360 ) ) ;
#155 = CARTESIAN_POINT ( 'NONE',  ( 0.000000000000000000, 0.2000000000000000111, 0.000000000000000000 ) ) ;
#156 = FILL_AREA_STYLE_COLOUR ( '', #331 ) ;
#157 = AXIS2_PLACEMENT_3D ( 'NONE', #155, #12, #15 ) ;
#158 = SURFACE_STYLE_USAGE ( .BOTH. , #222 ) ;
#159 = DIRECTION ( 'NONE',  ( -0.000000000000000000, -1.000000000000000000, -0.000000000000000000 ) ) ;
#160 =( NAMED_UNIT ( * ) SI_UNIT ( $, .STERADIAN. ) SOLID_ANGLE_UNIT ( ) );
#161 = DIRECTION ( 'NONE',  ( 0.000000000000000000, 1.000000000000000000, 0.000000000000000000 ) ) ;
#162 = DIRECTION ( 'NONE',  ( 0.000000000000000000, 0.000000000000000000, 1.000000000000000000 ) ) ;
#163 = PRESENTATION_STYLE_ASSIGNMENT (( #195 ) ) ;
#164 = CARTESIAN_POINT ( 'NONE',  ( 0.000000000000000000, 0.02500000000000001180, 0.000000000000000000 ) ) ;
#165 = AXIS2_PLACEMENT_3D ( 'NONE', #77, #189, #191 ) ;
#166 =( LENGTH_UNIT ( ) NAMED_UNIT ( * ) SI_UNIT ( .MILLI., .METRE. ) );
#167 = MANIFOLD_SOLID_BREP ( 'Fillet1', #339 ) ;
#168 = UNCERTAINTY_MEASURE_WITH_UNIT (LENGTH_MEASURE( 1.000000000000000082E-05 ), #17, 'distance_accuracy_value', 'NONE');
#169 = EDGE_CURVE ( 'NONE', #68, #216, #111, .T. ) ;
#170 = SURFACE_SIDE_STYLE ('',( #285 ) ) ;
#171 = AXIS2_PLACEMENT_3D ( 'NONE', #130, #329, #358 ) ;
#172 = AXIS2_PLACEMENT_3D ( 'NONE', #344, #148, #64 ) ;
#173 =( NAMED_UNIT ( * ) PLANE_ANGLE_UNIT ( ) SI_UNIT ( $, .RADIAN. ) );
#174 = FILL_AREA_STYLE_COLOUR ( '', #320 ) ;
#175 = PRESENTATION_STYLE_ASSIGNMENT (( #264 ) ) ;
#176 = EDGE_LOOP ( 'NONE', ( #236, #38, #94, #13 ) ) ;
#177 = EDGE_CURVE ( 'NONE', #68, #36, #80, .T. ) ;
#178 = PRESENTATION_STYLE_ASSIGNMENT (( #299 ) ) ;
#179 = ORIENTED_EDGE ( 'NONE', *, *, #210, .F. ) ;
#180 = ORIENTED_EDGE ( 'NONE', *, *, #169, .T. ) ;
#181 = ORIENTED_EDGE ( 'NONE', *, *, #362, .T. ) ;
#182 = SURFACE_SIDE_STYLE ('',( #100 ) ) ;
#183 = PRESENTATION_STYLE_ASSIGNMENT (( #131 ) ) ;
#184 = FILL_AREA_STYLE_COLOUR ( '', #86 ) ;
#185 =( NAMED_UNIT ( * ) SI_UNIT ( $, .STERADIAN. ) SOLID_ANGLE_UNIT ( ) );
#186 = VECTOR ( 'NONE', #138, 1000.000000000000000 ) ;
#187 = CARTESIAN_POINT ( 'NONE',  ( 0.000000000000000000, 0.2000000000000000111, 0.000000000000000000 ) ) ;
#188 =( LENGTH_UNIT ( ) NAMED_UNIT ( * ) SI_UNIT ( .MILLI., .METRE. ) );
#189 = DIRECTION ( 'NONE',  ( 0.000000000000000000, 1.000000000000000000, 0.000000000000000000 ) ) ;
#190 =( GEOMETRIC_REPRESENTATION_CONTEXT ( 3 ) GLOBAL_UNCERTAINTY_ASSIGNED_CONTEXT ( ( #28 ) ) GLOBAL_UNIT_ASSIGNED_CONTEXT ( ( #188, #277, #152 ) ) REPRESENTATION_CONTEXT ( 'NONE', 'WORKASPACE' ) );
#191 = DIRECTION ( 'NONE',  ( 0.000000000000000000, 0.000000000000000000, 1.000000000000000000 ) ) ;
#192 = FILL_AREA_STYLE_COLOUR ( '', #241 ) ;
#193 = PRODUCT_DEFINITION_CONTEXT ( 'detailed design', #104, 'design' ) ;
#194 = FILL_AREA_STYLE ('',( #364 ) ) ;
#195 = SURFACE_STYLE_USAGE ( .BOTH. , #279 ) ;
#196 = CARTESIAN_POINT ( 'NONE',  ( 1.944126793646423041E-16, 0.2000000000000000111, -1.574999999999999956 ) ) ;
#197 = PRESENTATION_LAYER_ASSIGNMENT (  '', '', ( #146 ) ) ;
#198 =( NAMED_UNIT ( * ) SI_UNIT ( $, .STERADIAN. ) SOLID_ANGLE_UNIT ( ) );
#199 = DIRECTION ( 'NONE',  ( 0.000000000000000000, 1.000000000000000000, 0.000000000000000000 ) ) ;
#200 =( LENGTH_UNIT ( ) NAMED_UNIT ( * ) SI_UNIT ( .MILLI., .METRE. ) );
#201 = SURFACE_SIDE_STYLE ('',( #336 ) ) ;
#202 = UNCERTAINTY_MEASURE_WITH_UNIT (LENGTH_MEASURE( 1.000000000000000082E-05 ), #237, 'distance_accuracy_value', 'NONE');
#203 = FACE_OUTER_BOUND ( 'NONE', #345, .T. ) ;
#204 = AXIS2_PLACEMENT_3D ( 'NONE', #325, #305, #162 ) ;
#205 = FACE_OUTER_BOUND ( 'NONE', #90, .T. ) ;
#206 = PRODUCT ( 'S70-332002045R', 'S70-332002045R', '', ( #140 ) ) ;
#207 = DIRECTION ( 'NONE',  ( 0.000000000000000000, 0.000000000000000000, 1.000000000000000000 ) ) ;
#208 = STYLED_ITEM ( 'NONE', ( #163 ), #21 ) ;
#209 = PRESENTATION_LAYER_ASSIGNMENT (  '', '', ( #250 ) ) ;
#210 = EDGE_CURVE ( 'NONE', #212, #267, #214, .T. ) ;
#211 = FACE_OUTER_BOUND ( 'NONE', #7, .T. ) ;
#212 = VERTEX_POINT ( 'NONE', #252 ) ;
#213 = MECHANICAL_DESIGN_GEOMETRIC_PRESENTATION_REPRESENTATION (  '', ( #72 ), #30 ) ;
#214 = CIRCLE ( 'NONE', #95, 0.02500000000000006384 ) ;
#215 =( LENGTH_UNIT ( ) NAMED_UNIT ( * ) SI_UNIT ( .MILLI., .METRE. ) );
#216 = VERTEX_POINT ( 'NONE', #108 ) ;
#217 = DIRECTION ( 'NONE',  ( -0.000000000000000000, -1.000000000000000000, -0.000000000000000000 ) ) ;
#218 = CARTESIAN_POINT ( 'NONE',  ( 0.000000000000000000, 0.02500000000000001180, -1.600000000000000089 ) ) ;
#219 = CIRCLE ( 'NONE', #308, 1.600000000000000089 ) ;
#220 =( NAMED_UNIT ( * ) PLANE_ANGLE_UNIT ( ) SI_UNIT ( $, .RADIAN. ) );
#221 = DIRECTION ( 'NONE',  ( 0.000000000000000000, 0.000000000000000000, 1.000000000000000000 ) ) ;
#222 = SURFACE_SIDE_STYLE ('',( #39 ) ) ;
#223 = DIRECTION ( 'NONE',  ( 0.000000000000000000, 0.000000000000000000, 1.000000000000000000 ) ) ;
#224 =( GEOMETRIC_REPRESENTATION_CONTEXT ( 3 ) GLOBAL_UNCERTAINTY_ASSIGNED_CONTEXT ( ( #1 ) ) GLOBAL_UNIT_ASSIGNED_CONTEXT ( ( #245, #101, #74 ) ) REPRESENTATION_CONTEXT ( 'NONE', 'WORKASPACE' ) );
#225 = AXIS2_PLACEMENT_3D ( 'NONE', #32, #118, #8 ) ;
#226 = UNCERTAINTY_MEASURE_WITH_UNIT (LENGTH_MEASURE( 1.000000000000000082E-05 ), #200, 'distance_accuracy_value', 'NONE');
#227 = FILL_AREA_STYLE ('',( #337 ) ) ;
#228 = CARTESIAN_POINT ( 'NONE',  ( 0.000000000000000000, 0.1749999999999999889, 0.000000000000000000 ) ) ;
#229 =( NAMED_UNIT ( * ) PLANE_ANGLE_UNIT ( ) SI_UNIT ( $, .RADIAN. ) );
#230 = AXIS2_PLACEMENT_3D ( 'NONE', #282, #335, #314 ) ;
#231 = FILL_AREA_STYLE_COLOUR ( '', #50 ) ;
#232 = SURFACE_STYLE_FILL_AREA ( #67 ) ;
#233 = ORIENTED_EDGE ( 'NONE', *, *, #113, .T. ) ;
#234 = STYLED_ITEM ( 'NONE', ( #178 ), #287 ) ;
#235 = PRESENTATION_STYLE_ASSIGNMENT (( #93 ) ) ;
#236 = ORIENTED_EDGE ( 'NONE', *, *, #59, .F. ) ;
#237 =( LENGTH_UNIT ( ) NAMED_UNIT ( * ) SI_UNIT ( .MILLI., .METRE. ) );
#238 = VERTEX_POINT ( 'NONE', #196 ) ;
#239 =( GEOMETRIC_REPRESENTATION_CONTEXT ( 3 ) GLOBAL_UNCERTAINTY_ASSIGNED_CONTEXT ( ( #134 ) ) GLOBAL_UNIT_ASSIGNED_CONTEXT ( ( #166, #290, #106 ) ) REPRESENTATION_CONTEXT ( 'NONE', 'WORKASPACE' ) );
#240 = ORIENTED_EDGE ( 'NONE', *, *, #109, .F. ) ;
#241 = COLOUR_RGB ( '',0.7921568627450980005, 0.8196078431372548767, 0.9333333333333333481 ) ;
#242 = ORIENTED_EDGE ( 'NONE', *, *, #127, .T. ) ;
#243 =( NAMED_UNIT ( * ) SI_UNIT ( $, .STERADIAN. ) SOLID_ANGLE_UNIT ( ) );
#244 = SURFACE_STYLE_USAGE ( .BOTH. , #18 ) ;
#245 =( LENGTH_UNIT ( ) NAMED_UNIT ( * ) SI_UNIT ( .MILLI., .METRE. ) );
#246 = DIRECTION ( 'NONE',  ( 0.000000000000000000, 0.000000000000000000, -1.000000000000000000 ) ) ;
#247 = DIRECTION ( 'NONE',  ( -0.000000000000000000, -1.000000000000000000, -0.000000000000000000 ) ) ;
#248 = PRESENTATION_STYLE_ASSIGNMENT (( #244 ) ) ;
#249 = PRESENTATION_STYLE_ASSIGNMENT (( #107 ) ) ;
#250 = STYLED_ITEM ( 'NONE', ( #235 ), #278 ) ;
#251 =( GEOMETRIC_REPRESENTATION_CONTEXT ( 3 ) GLOBAL_UNCERTAINTY_ASSIGNED_CONTEXT ( ( #226 ) ) GLOBAL_UNIT_ASSIGNED_CONTEXT ( ( #200, #137, #198 ) ) REPRESENTATION_CONTEXT ( 'NONE', 'WORKASPACE' ) );
#252 = CARTESIAN_POINT ( 'NONE',  ( 0.000000000000000000, 0.000000000000000000, 1.574999999999999956 ) ) ;
#253 =( GEOMETRIC_REPRESENTATION_CONTEXT ( 3 ) GLOBAL_UNCERTAINTY_ASSIGNED_CONTEXT ( ( #48 ) ) GLOBAL_UNIT_ASSIGNED_CONTEXT ( ( #215, #114, #263 ) ) REPRESENTATION_CONTEXT ( 'NONE', 'WORKASPACE' ) );
#254 = UNCERTAINTY_MEASURE_WITH_UNIT (LENGTH_MEASURE( 1.000000000000000082E-05 ), #99, 'distance_accuracy_value', 'NONE');
#255 = DIRECTION ( 'NONE',  ( -1.000000000000000000, 0.000000000000000000, 0.000000000000000000 ) ) ;
#256 = EDGE_CURVE ( 'NONE', #340, #36, #79, .T. ) ;
#257 = UNCERTAINTY_MEASURE_WITH_UNIT (LENGTH_MEASURE( 1.000000000000000082E-05 ), #60, 'distance_accuracy_value', 'NONE');
#258 = CARTESIAN_POINT ( 'NONE',  ( 1.959434878635765230E-16, 0.02500000000000001180, 1.600000000000000089 ) ) ;
#259 = PRESENTATION_LAYER_ASSIGNMENT (  '', '', ( #292 ) ) ;
#260 = EDGE_CURVE ( 'NONE', #216, #68, #219, .T. ) ;
#261 = DIRECTION ( 'NONE',  ( 0.000000000000000000, 1.000000000000000000, 0.000000000000000000 ) ) ;
#262 = ADVANCED_FACE ( 'NONE', ( #203 ), #119, .T. ) ;
#263 =( NAMED_UNIT ( * ) SI_UNIT ( $, .STERADIAN. ) SOLID_ANGLE_UNIT ( ) );
#264 = SURFACE_STYLE_USAGE ( .BOTH. , #62 ) ;
#265 = AXIS2_PLACEMENT_3D ( 'NONE', #164, #199, #5 ) ;
#266 = SURFACE_SIDE_STYLE ('',( #232 ) ) ;
#267 = VERTEX_POINT ( 'NONE', #258 ) ;
#268 = ORIENTED_EDGE ( 'NONE', *, *, #113, .F. ) ;
#269 = TOROIDAL_SURFACE ( 'NONE', #55, 1.574999999999999956, 0.02500000000000000139 ) ;
#270 = ORIENTED_EDGE ( 'NONE', *, *, #92, .T. ) ;
#271 = MECHANICAL_DESIGN_GEOMETRIC_PRESENTATION_REPRESENTATION (  '', ( #234 ), #253 ) ;
#272 = FACE_OUTER_BOUND ( 'NONE', #125, .T. ) ;
#273 = CARTESIAN_POINT ( 'NONE',  ( 0.000000000000000000, 0.000000000000000000, 0.000000000000000000 ) ) ;
#274 = CIRCLE ( 'NONE', #165, 1.574999999999999956 ) ;
#275 = DIRECTION ( 'NONE',  ( -0.000000000000000000, -1.000000000000000000, -0.000000000000000000 ) ) ;
#276 = FILL_AREA_STYLE ('',( #174 ) ) ;
#277 =( NAMED_UNIT ( * ) PLANE_ANGLE_UNIT ( ) SI_UNIT ( $, .RADIAN. ) );
#278 = ADVANCED_FACE ( 'NONE', ( #211 ), #333, .T. ) ;
#279 = SURFACE_SIDE_STYLE ('',( #309 ) ) ;
#280 = LINE ( 'NONE', #71, #147 ) ;
#281 = APPLICATION_CONTEXT ( 'automotive_design' ) ;
#282 = CARTESIAN_POINT ( 'NONE',  ( 0.000000000000000000, 0.000000000000000000, 0.000000000000000000 ) ) ;
#283 = DIRECTION ( 'NONE',  ( 0.000000000000000000, 0.000000000000000000, 1.000000000000000000 ) ) ;
#284 = EDGE_CURVE ( 'NONE', #212, #340, #14, .T. ) ;
#285 = SURFACE_STYLE_FILL_AREA ( #227 ) ;
#286 = PRESENTATION_STYLE_ASSIGNMENT (( #31 ) ) ;
#287 = ADVANCED_FACE ( 'NONE', ( #205 ), #89, .T. ) ;
#288 = AXIS2_PLACEMENT_3D ( 'NONE', #23, #302, #307 ) ;
#289 = PRESENTATION_LAYER_ASSIGNMENT (  '', '', ( #115 ) ) ;
#290 =( NAMED_UNIT ( * ) PLANE_ANGLE_UNIT ( ) SI_UNIT ( $, .RADIAN. ) );
#291 = MECHANICAL_DESIGN_GEOMETRIC_PRESENTATION_REPRESENTATION (  '', ( #208 ), #251 ) ;
#292 = STYLED_ITEM ( 'NONE', ( #286 ), #167 ) ;
#293 = ORIENTED_EDGE ( 'NONE', *, *, #109, .T. ) ;
#294 = PRODUCT_DEFINITION_SHAPE ( 'NONE', 'NONE',  #343 ) ;
#295 = ORIENTED_EDGE ( 'NONE', *, *, #177, .F. ) ;
#296 = AXIS2_PLACEMENT_3D ( 'NONE', #187, #275, #246 ) ;
#297 =( NAMED_UNIT ( * ) SI_UNIT ( $, .STERADIAN. ) SOLID_ANGLE_UNIT ( ) );
#298 = EDGE_LOOP ( 'NONE', ( #180, #145, #233, #295 ) ) ;
#299 = SURFACE_STYLE_USAGE ( .BOTH. , #120 ) ;
#300 = CARTESIAN_POINT ( 'NONE',  ( 0.000000000000000000, 0.02500000000000001180, 0.000000000000000000 ) ) ;
#301 = CIRCLE ( 'NONE', #310, 1.600000000000000089 ) ;
#302 = DIRECTION ( 'NONE',  ( 1.000000000000000000, -0.000000000000000000, 1.224646799147353207E-16 ) ) ;
#303 = MECHANICAL_DESIGN_GEOMETRIC_PRESENTATION_REPRESENTATION (  '', ( #73 ), #323 ) ;
#304 = CYLINDRICAL_SURFACE ( 'NONE', #296, 1.600000000000000089 ) ;
#305 = DIRECTION ( 'NONE',  ( -1.000000000000000000, 0.000000000000000000, 0.000000000000000000 ) ) ;
#306 = PRESENTATION_STYLE_ASSIGNMENT (( #158 ) ) ;
#307 = DIRECTION ( 'NONE',  ( 1.224646799147353207E-16, 0.000000000000000000, -1.000000000000000000 ) ) ;
#308 = AXIS2_PLACEMENT_3D ( 'NONE', #228, #29, #141 ) ;
#309 = SURFACE_STYLE_FILL_AREA ( #47 ) ;
#310 = AXIS2_PLACEMENT_3D ( 'NONE', #332, #330, #352 ) ;
#311 = CARTESIAN_POINT ( 'NONE',  ( 0.000000000000000000, 0.1749999999999999889, 0.000000000000000000 ) ) ;
#312 = AXIS2_PLACEMENT_3D ( 'NONE', #273, #161, #132 ) ;
#313 = AXIS2_PLACEMENT_3D ( 'NONE', #91, #261, #342 ) ;
#314 = DIRECTION ( 'NONE',  ( 1.000000000000000000, 0.000000000000000000, 0.000000000000000000 ) ) ;
#315 = UNCERTAINTY_MEASURE_WITH_UNIT (LENGTH_MEASURE( 1.000000000000000082E-05 ), #351, 'distance_accuracy_value', 'NONE');
#316 = SURFACE_STYLE_FILL_AREA ( #83 ) ;
#317 = FACE_OUTER_BOUND ( 'NONE', #88, .T. ) ;
#318 = ORIENTED_EDGE ( 'NONE', *, *, #260, .F. ) ;
#319 = FILL_AREA_STYLE_COLOUR ( '', #149 ) ;
#320 = COLOUR_RGB ( '',0.6470588235294117974, 0.5176470588235293491, 0.000000000000000000 ) ;
#321 = ADVANCED_FACE ( 'NONE', ( #69 ), #353, .T. ) ;
#322 = EDGE_LOOP ( 'NONE', ( #240, #61, #268, #179 ) ) ;
#323 =( GEOMETRIC_REPRESENTATION_CONTEXT ( 3 ) GLOBAL_UNCERTAINTY_ASSIGNED_CONTEXT ( ( #315 ) ) GLOBAL_UNIT_ASSIGNED_CONTEXT ( ( #351, #220, #243 ) ) REPRESENTATION_CONTEXT ( 'NONE', 'WORKASPACE' ) );
#324 = ADVANCED_FACE ( 'NONE', ( #41 ), #304, .T. ) ;
#325 = CARTESIAN_POINT ( 'NONE',  ( 0.000000000000000000, 0.1749999999999999889, 1.574999999999999956 ) ) ;
#326 = PRESENTATION_LAYER_ASSIGNMENT (  '', '', ( #234 ) ) ;
#327 = PRESENTATION_LAYER_ASSIGNMENT (  '', '', ( #73 ) ) ;
#328 = DIRECTION ( 'NONE',  ( 0.000000000000000000, 0.000000000000000000, -1.000000000000000000 ) ) ;
#329 = DIRECTION ( 'NONE',  ( 0.000000000000000000, 1.000000000000000000, 0.000000000000000000 ) ) ;
#330 = DIRECTION ( 'NONE',  ( 0.000000000000000000, 1.000000000000000000, 0.000000000000000000 ) ) ;
#331 = COLOUR_RGB ( '',0.6470588235294117974, 0.5176470588235293491, 0.000000000000000000 ) ;
#332 = CARTESIAN_POINT ( 'NONE',  ( 0.000000000000000000, 0.02500000000000001180, 0.000000000000000000 ) ) ;
#333 = TOROIDAL_SURFACE ( 'NONE', #313, 1.574999999999999956, 0.02500000000000000139 ) ;
#334 =( NAMED_UNIT ( * ) SI_UNIT ( $, .STERADIAN. ) SOLID_ANGLE_UNIT ( ) );
#335 = DIRECTION ( 'NONE',  ( 0.000000000000000000, 0.000000000000000000, 1.000000000000000000 ) ) ;
#336 = SURFACE_STYLE_FILL_AREA ( #194 ) ;
#337 = FILL_AREA_STYLE_COLOUR ( '', #117 ) ;
#338 = FILL_AREA_STYLE ('',( #319 ) ) ;
#339 = CLOSED_SHELL ( 'NONE', ( #262, #133, #321, #324, #287, #20, #98, #278 ) ) ;
#340 = VERTEX_POINT ( 'NONE', #19 ) ;
#341 = MECHANICAL_DESIGN_GEOMETRIC_PRESENTATION_REPRESENTATION (  '', ( #292 ), #136 ) ;
#342 = DIRECTION ( 'NONE',  ( 0.000000000000000000, 0.000000000000000000, 1.000000000000000000 ) ) ;
#343 = PRODUCT_DEFINITION ( 'UNKNOWN', '', #87, #193 ) ;
#344 = CARTESIAN_POINT ( 'NONE',  ( 0.000000000000000000, 0.1749999999999999889, 0.000000000000000000 ) ) ;
#345 = EDGE_LOOP ( 'NONE', ( #85, #33, #121, #151 ) ) ;
#346 = CIRCLE ( 'NONE', #10, 1.600000000000000089 ) ;
#347 = SURFACE_STYLE_FILL_AREA ( #338 ) ;
#348 = ORIENTED_EDGE ( 'NONE', *, *, #127, .F. ) ;
#349 = MECHANICAL_DESIGN_GEOMETRIC_PRESENTATION_REPRESENTATION (  '', ( #46 ), #70 ) ;
#350 = PRODUCT_RELATED_PRODUCT_CATEGORY ( 'part', '', ( #206 ) ) ;
#351 =( LENGTH_UNIT ( ) NAMED_UNIT ( * ) SI_UNIT ( .MILLI., .METRE. ) );
#352 = DIRECTION ( 'NONE',  ( 0.000000000000000000, 0.000000000000000000, 1.000000000000000000 ) ) ;
#353 = CYLINDRICAL_SURFACE ( 'NONE', #56, 1.600000000000000089 ) ;
#354 = SURFACE_STYLE_FILL_AREA ( #276 ) ;
#355 =( GEOMETRIC_REPRESENTATION_CONTEXT ( 3 ) GLOBAL_UNCERTAINTY_ASSIGNED_CONTEXT ( ( #254 ) ) GLOBAL_UNIT_ASSIGNED_CONTEXT ( ( #99, #16, #185 ) ) REPRESENTATION_CONTEXT ( 'NONE', 'WORKASPACE' ) );
#356 = PRESENTATION_STYLE_ASSIGNMENT (( #128 ) ) ;
#357 = CARTESIAN_POINT ( 'NONE',  ( 0.000000000000000000, 0.02500000000000001180, 0.000000000000000000 ) ) ;
#358 = DIRECTION ( 'NONE',  ( 0.000000000000000000, 0.000000000000000000, 1.000000000000000000 ) ) ;
#359 = APPLICATION_PROTOCOL_DEFINITION ( 'draft international standard', 'automotive_design', 1998, #281 ) ;
#360 = STYLED_ITEM ( 'NONE', ( #248 ), #98 ) ;
#361 = AXIS2_PLACEMENT_3D ( 'NONE', #82, #112, #49 ) ;
#362 = EDGE_CURVE ( 'NONE', #65, #238, #81, .T. ) ;
#363 = UNCERTAINTY_MEASURE_WITH_UNIT (LENGTH_MEASURE( 1.000000000000000082E-05 ), #54, 'distance_accuracy_value', 'NONE');
#364 = FILL_AREA_STYLE_COLOUR ( '', #6 ) ;
ENDSEC;
END-ISO-10303-21;
