ISO-10303-21;
HEADER;
/* Generated by software containing ST-Developer
 * from STEP Tools, Inc. (www.steptools.com) 
 */

FILE_DESCRIPTION(
/* description */ (''),
/* implementation_level */ '2;1');

FILE_NAME(
/* name */ '/Users/schneider/Desktop/Untitled v1.step',
/* time_stamp */ '2021-07-25T20:48:29+02:00',
/* author */ (''),
/* organization */ (''),
/* preprocessor_version */ 'ST-DEVELOPER v18.1',
/* originating_system */ 'Autodesk Translation Framework v10.9.0.1377',

/* authorisation */ '');

FILE_SCHEMA (('AUTOMOTIVE_DESIGN { 1 0 10303 214 3 1 1 }'));
ENDSEC;

DATA;
#10=MECHANICAL_DESIGN_GEOMETRIC_PRESENTATION_REPRESENTATION('',(#23,#24,
#25,#26,#27,#28,#29),#299);
#11=SHAPE_REPRESENTATION_RELATIONSHIP('SRR','None',#306,#12);
#12=ADVANCED_BREP_SHAPE_REPRESENTATION('',(#30,#31,#32,#33,#34,#35),#298);
#13=CIRCLE('',#194,0.15);
#14=CIRCLE('',#196,0.15);
#15=CIRCLE('',#198,0.15);
#16=CIRCLE('',#200,0.15);
#17=CIRCLE('',#202,0.15);
#18=SPHERICAL_SURFACE('',#193,0.15);
#19=SPHERICAL_SURFACE('',#195,0.15);
#20=SPHERICAL_SURFACE('',#197,0.15);
#21=SPHERICAL_SURFACE('',#199,0.15);
#22=SPHERICAL_SURFACE('',#201,0.15);
#23=STYLED_ITEM('',(#315),#30);
#24=STYLED_ITEM('',(#315),#31);
#25=STYLED_ITEM('',(#315),#32);
#26=STYLED_ITEM('',(#316),#165);
#27=STYLED_ITEM('',(#315),#33);
#28=STYLED_ITEM('',(#315),#34);
#29=STYLED_ITEM('',(#315),#35);
#30=MANIFOLD_SOLID_BREP('Body1',#168);
#31=MANIFOLD_SOLID_BREP('Body2',#169);
#32=MANIFOLD_SOLID_BREP('Body3',#170);
#33=MANIFOLD_SOLID_BREP('Body4',#171);
#34=MANIFOLD_SOLID_BREP('Body5',#172);
#35=MANIFOLD_SOLID_BREP('Body6',#173);
#36=FACE_OUTER_BOUND('',#47,.T.);
#37=FACE_OUTER_BOUND('',#48,.T.);
#38=FACE_OUTER_BOUND('',#49,.T.);
#39=FACE_OUTER_BOUND('',#50,.T.);
#40=FACE_OUTER_BOUND('',#51,.T.);
#41=FACE_OUTER_BOUND('',#52,.T.);
#42=FACE_OUTER_BOUND('',#53,.T.);
#43=FACE_OUTER_BOUND('',#54,.T.);
#44=FACE_OUTER_BOUND('',#55,.T.);
#45=FACE_OUTER_BOUND('',#56,.T.);
#46=FACE_OUTER_BOUND('',#57,.T.);
#47=EDGE_LOOP('',(#117,#118,#119,#120));
#48=EDGE_LOOP('',(#121,#122,#123,#124));
#49=EDGE_LOOP('',(#125,#126,#127,#128));
#50=EDGE_LOOP('',(#129,#130,#131,#132));
#51=EDGE_LOOP('',(#133,#134,#135,#136));
#52=EDGE_LOOP('',(#137,#138,#139,#140));
#53=EDGE_LOOP('',(#141,#142));
#54=EDGE_LOOP('',(#143,#144));
#55=EDGE_LOOP('',(#145,#146));
#56=EDGE_LOOP('',(#147,#148));
#57=EDGE_LOOP('',(#149,#150));
#58=LINE('',#253,#70);
#59=LINE('',#255,#71);
#60=LINE('',#257,#72);
#61=LINE('',#258,#73);
#62=LINE('',#261,#74);
#63=LINE('',#263,#75);
#64=LINE('',#264,#76);
#65=LINE('',#267,#77);
#66=LINE('',#269,#78);
#67=LINE('',#270,#79);
#68=LINE('',#272,#80);
#69=LINE('',#273,#81);
#70=VECTOR('',#207,10.);
#71=VECTOR('',#208,10.);
#72=VECTOR('',#209,10.);
#73=VECTOR('',#210,10.);
#74=VECTOR('',#213,10.);
#75=VECTOR('',#214,10.);
#76=VECTOR('',#215,10.);
#77=VECTOR('',#218,10.);
#78=VECTOR('',#219,10.);
#79=VECTOR('',#220,10.);
#80=VECTOR('',#223,10.);
#81=VECTOR('',#224,10.);
#82=VERTEX_POINT('',#251);
#83=VERTEX_POINT('',#252);
#84=VERTEX_POINT('',#254);
#85=VERTEX_POINT('',#256);
#86=VERTEX_POINT('',#260);
#87=VERTEX_POINT('',#262);
#88=VERTEX_POINT('',#266);
#89=VERTEX_POINT('',#268);
#90=VERTEX_POINT('',#277);
#91=VERTEX_POINT('',#278);
#92=VERTEX_POINT('',#281);
#93=VERTEX_POINT('',#282);
#94=VERTEX_POINT('',#285);
#95=VERTEX_POINT('',#286);
#96=VERTEX_POINT('',#289);
#97=VERTEX_POINT('',#290);
#98=VERTEX_POINT('',#293);
#99=VERTEX_POINT('',#294);
#100=EDGE_CURVE('',#82,#83,#58,.T.);
#101=EDGE_CURVE('',#82,#84,#59,.T.);
#102=EDGE_CURVE('',#85,#84,#60,.T.);
#103=EDGE_CURVE('',#83,#85,#61,.T.);
#104=EDGE_CURVE('',#83,#86,#62,.T.);
#105=EDGE_CURVE('',#87,#85,#63,.T.);
#106=EDGE_CURVE('',#86,#87,#64,.T.);
#107=EDGE_CURVE('',#86,#88,#65,.T.);
#108=EDGE_CURVE('',#89,#87,#66,.T.);
#109=EDGE_CURVE('',#88,#89,#67,.T.);
#110=EDGE_CURVE('',#88,#82,#68,.T.);
#111=EDGE_CURVE('',#84,#89,#69,.T.);
#112=EDGE_CURVE('',#90,#91,#13,.T.);
#113=EDGE_CURVE('',#92,#93,#14,.T.);
#114=EDGE_CURVE('',#94,#95,#15,.T.);
#115=EDGE_CURVE('',#96,#97,#16,.T.);
#116=EDGE_CURVE('',#98,#99,#17,.T.);
#117=ORIENTED_EDGE('',*,*,#100,.F.);
#118=ORIENTED_EDGE('',*,*,#101,.T.);
#119=ORIENTED_EDGE('',*,*,#102,.F.);
#120=ORIENTED_EDGE('',*,*,#103,.F.);
#121=ORIENTED_EDGE('',*,*,#104,.F.);
#122=ORIENTED_EDGE('',*,*,#103,.T.);
#123=ORIENTED_EDGE('',*,*,#105,.F.);
#124=ORIENTED_EDGE('',*,*,#106,.F.);
#125=ORIENTED_EDGE('',*,*,#107,.F.);
#126=ORIENTED_EDGE('',*,*,#106,.T.);
#127=ORIENTED_EDGE('',*,*,#108,.F.);
#128=ORIENTED_EDGE('',*,*,#109,.F.);
#129=ORIENTED_EDGE('',*,*,#110,.F.);
#130=ORIENTED_EDGE('',*,*,#109,.T.);
#131=ORIENTED_EDGE('',*,*,#111,.F.);
#132=ORIENTED_EDGE('',*,*,#101,.F.);
#133=ORIENTED_EDGE('',*,*,#111,.T.);
#134=ORIENTED_EDGE('',*,*,#108,.T.);
#135=ORIENTED_EDGE('',*,*,#105,.T.);
#136=ORIENTED_EDGE('',*,*,#102,.T.);
#137=ORIENTED_EDGE('',*,*,#110,.T.);
#138=ORIENTED_EDGE('',*,*,#100,.T.);
#139=ORIENTED_EDGE('',*,*,#104,.T.);
#140=ORIENTED_EDGE('',*,*,#107,.T.);
#141=ORIENTED_EDGE('',*,*,#112,.T.);
#142=ORIENTED_EDGE('',*,*,#112,.F.);
#143=ORIENTED_EDGE('',*,*,#113,.T.);
#144=ORIENTED_EDGE('',*,*,#113,.F.);
#145=ORIENTED_EDGE('',*,*,#114,.T.);
#146=ORIENTED_EDGE('',*,*,#114,.F.);
#147=ORIENTED_EDGE('',*,*,#115,.T.);
#148=ORIENTED_EDGE('',*,*,#115,.F.);
#149=ORIENTED_EDGE('',*,*,#116,.T.);
#150=ORIENTED_EDGE('',*,*,#116,.F.);
#151=PLANE('',#187);
#152=PLANE('',#188);
#153=PLANE('',#189);
#154=PLANE('',#190);
#155=PLANE('',#191);
#156=PLANE('',#192);
#157=ADVANCED_FACE('',(#36),#151,.T.);
#158=ADVANCED_FACE('',(#37),#152,.T.);
#159=ADVANCED_FACE('',(#38),#153,.T.);
#160=ADVANCED_FACE('',(#39),#154,.T.);
#161=ADVANCED_FACE('',(#40),#155,.T.);
#162=ADVANCED_FACE('',(#41),#156,.F.);
#163=ADVANCED_FACE('',(#42),#18,.T.);
#164=ADVANCED_FACE('',(#43),#19,.T.);
#165=ADVANCED_FACE('',(#44),#20,.T.);
#166=ADVANCED_FACE('',(#45),#21,.T.);
#167=ADVANCED_FACE('',(#46),#22,.T.);
#168=CLOSED_SHELL('',(#157,#158,#159,#160,#161,#162));
#169=CLOSED_SHELL('',(#163));
#170=CLOSED_SHELL('',(#164));
#171=CLOSED_SHELL('',(#165));
#172=CLOSED_SHELL('',(#166));
#173=CLOSED_SHELL('',(#167));
#174=DERIVED_UNIT_ELEMENT(#176,1.);
#175=DERIVED_UNIT_ELEMENT(#301,-3.);
#176=(
MASS_UNIT()
NAMED_UNIT(*)
SI_UNIT(.KILO.,.GRAM.)
);
#177=DERIVED_UNIT((#174,#175));
#178=MEASURE_REPRESENTATION_ITEM('density measure',
POSITIVE_RATIO_MEASURE(7850.),#177);
#179=PROPERTY_DEFINITION_REPRESENTATION(#184,#181);
#180=PROPERTY_DEFINITION_REPRESENTATION(#185,#182);
#181=REPRESENTATION('material name',(#183),#298);
#182=REPRESENTATION('density',(#178),#298);
#183=DESCRIPTIVE_REPRESENTATION_ITEM('Steel','Steel');
#184=PROPERTY_DEFINITION('material property','material name',#308);
#185=PROPERTY_DEFINITION('material property','density of part',#308);
#186=AXIS2_PLACEMENT_3D('placement',#249,#203,#204);
#187=AXIS2_PLACEMENT_3D('',#250,#205,#206);
#188=AXIS2_PLACEMENT_3D('',#259,#211,#212);
#189=AXIS2_PLACEMENT_3D('',#265,#216,#217);
#190=AXIS2_PLACEMENT_3D('',#271,#221,#222);
#191=AXIS2_PLACEMENT_3D('',#274,#225,#226);
#192=AXIS2_PLACEMENT_3D('',#275,#227,#228);
#193=AXIS2_PLACEMENT_3D('',#276,#229,#230);
#194=AXIS2_PLACEMENT_3D('',#279,#231,#232);
#195=AXIS2_PLACEMENT_3D('',#280,#233,#234);
#196=AXIS2_PLACEMENT_3D('',#283,#235,#236);
#197=AXIS2_PLACEMENT_3D('',#284,#237,#238);
#198=AXIS2_PLACEMENT_3D('',#287,#239,#240);
#199=AXIS2_PLACEMENT_3D('',#288,#241,#242);
#200=AXIS2_PLACEMENT_3D('',#291,#243,#244);
#201=AXIS2_PLACEMENT_3D('',#292,#245,#246);
#202=AXIS2_PLACEMENT_3D('',#295,#247,#248);
#203=DIRECTION('axis',(0.,0.,1.));
#204=DIRECTION('refdir',(1.,0.,0.));
#205=DIRECTION('center_axis',(1.,0.,0.));
#206=DIRECTION('ref_axis',(0.,1.,0.));
#207=DIRECTION('',(0.,-1.,0.));
#208=DIRECTION('',(0.,0.,1.));
#209=DIRECTION('',(0.,1.,0.));
#210=DIRECTION('',(0.,0.,1.));
#211=DIRECTION('center_axis',(0.,-1.,0.));
#212=DIRECTION('ref_axis',(1.,0.,0.));
#213=DIRECTION('',(-1.,0.,0.));
#214=DIRECTION('',(1.,0.,0.));
#215=DIRECTION('',(0.,0.,1.));
#216=DIRECTION('center_axis',(-1.,0.,0.));
#217=DIRECTION('ref_axis',(0.,-1.,0.));
#218=DIRECTION('',(0.,1.,0.));
#219=DIRECTION('',(0.,-1.,0.));
#220=DIRECTION('',(0.,0.,1.));
#221=DIRECTION('center_axis',(-1.80231010491097E-16,1.,0.));
#222=DIRECTION('ref_axis',(-1.,-1.80231010491097E-16,0.));
#223=DIRECTION('',(1.,1.80231010491097E-16,0.));
#224=DIRECTION('',(-1.,-1.80231010491097E-16,0.));
#225=DIRECTION('center_axis',(0.,0.,1.));
#226=DIRECTION('ref_axis',(1.,0.,0.));
#227=DIRECTION('center_axis',(0.,0.,1.));
#228=DIRECTION('ref_axis',(1.,0.,0.));
#229=DIRECTION('center_axis',(0.,0.,1.));
#230=DIRECTION('ref_axis',(1.,0.,0.));
#231=DIRECTION('center_axis',(0.,-1.,0.));
#232=DIRECTION('ref_axis',(-1.,0.,0.));
#233=DIRECTION('center_axis',(0.,0.,1.));
#234=DIRECTION('ref_axis',(1.,0.,0.));
#235=DIRECTION('center_axis',(0.,-1.,0.));
#236=DIRECTION('ref_axis',(-1.,0.,0.));
#237=DIRECTION('center_axis',(0.,0.,1.));
#238=DIRECTION('ref_axis',(1.,0.,0.));
#239=DIRECTION('center_axis',(0.,-1.,0.));
#240=DIRECTION('ref_axis',(-1.,0.,0.));
#241=DIRECTION('center_axis',(0.,0.,1.));
#242=DIRECTION('ref_axis',(1.,0.,0.));
#243=DIRECTION('center_axis',(0.,-1.,0.));
#244=DIRECTION('ref_axis',(-1.,0.,0.));
#245=DIRECTION('center_axis',(6.12323399573681E-17,0.,1.));
#246=DIRECTION('ref_axis',(1.,0.,0.));
#247=DIRECTION('center_axis',(1.22464679914738E-16,-1.,0.));
#248=DIRECTION('ref_axis',(-1.,-1.22464679914738E-16,0.));
#249=CARTESIAN_POINT('',(0.,0.,0.));
#250=CARTESIAN_POINT('Origin',(0.385000000000003,-0.584999999999995,0.2));
#251=CARTESIAN_POINT('',(0.385000000000003,0.585000000000005,0.2));
#252=CARTESIAN_POINT('',(0.385000000000003,-0.584999999999995,0.2));
#253=CARTESIAN_POINT('',(0.385000000000003,0.585000000000005,0.2));
#254=CARTESIAN_POINT('',(0.385000000000003,0.585000000000005,0.6));
#255=CARTESIAN_POINT('',(0.385000000000003,0.585000000000005,0.2));
#256=CARTESIAN_POINT('',(0.385000000000003,-0.584999999999995,0.6));
#257=CARTESIAN_POINT('',(0.385000000000003,0.585000000000005,0.6));
#258=CARTESIAN_POINT('',(0.385000000000003,-0.584999999999995,0.2));
#259=CARTESIAN_POINT('Origin',(-0.384999999999997,-0.584999999999995,0.2));
#260=CARTESIAN_POINT('',(-0.384999999999997,-0.584999999999995,0.2));
#261=CARTESIAN_POINT('',(0.385000000000003,-0.584999999999995,0.2));
#262=CARTESIAN_POINT('',(-0.384999999999997,-0.584999999999995,0.6));
#263=CARTESIAN_POINT('',(0.385000000000003,-0.584999999999995,0.6));
#264=CARTESIAN_POINT('',(-0.384999999999997,-0.584999999999995,0.2));
#265=CARTESIAN_POINT('Origin',(-0.384999999999997,0.585000000000005,0.2));
#266=CARTESIAN_POINT('',(-0.384999999999997,0.585000000000005,0.2));
#267=CARTESIAN_POINT('',(-0.384999999999997,-0.584999999999995,0.2));
#268=CARTESIAN_POINT('',(-0.384999999999997,0.585000000000005,0.6));
#269=CARTESIAN_POINT('',(-0.384999999999997,-0.584999999999995,0.6));
#270=CARTESIAN_POINT('',(-0.384999999999997,0.585000000000005,0.2));
#271=CARTESIAN_POINT('Origin',(0.385000000000003,0.585000000000005,0.2));
#272=CARTESIAN_POINT('',(-0.384999999999997,0.585000000000005,0.2));
#273=CARTESIAN_POINT('',(-0.384999999999997,0.585000000000005,0.6));
#274=CARTESIAN_POINT('Origin',(2.98372437868011E-15,4.57966997657877E-15,
0.6));
#275=CARTESIAN_POINT('Origin',(2.98372437868011E-15,4.57966997657877E-15,
0.2));
#276=CARTESIAN_POINT('Origin',(-0.199999995529649,-0.399999991059299,0.15));
#277=CARTESIAN_POINT('',(-0.199999995529649,-0.399999991059299,0.3));
#278=CARTESIAN_POINT('',(-0.199999995529649,-0.399999991059299,3.46944695195361E-17));
#279=CARTESIAN_POINT('Origin',(-0.199999995529649,-0.399999991059299,0.15));
#280=CARTESIAN_POINT('Origin',(0.199999995529655,-0.399999991059299,0.15));
#281=CARTESIAN_POINT('',(0.199999995529655,-0.399999991059299,0.3));
#282=CARTESIAN_POINT('',(0.199999995529655,-0.399999991059299,3.46944695195361E-17));
#283=CARTESIAN_POINT('Origin',(0.199999995529655,-0.399999991059299,0.15));
#284=CARTESIAN_POINT('Origin',(-0.199999995529649,0.399999991059308,0.15));
#285=CARTESIAN_POINT('',(-0.199999995529649,0.399999991059308,0.3));
#286=CARTESIAN_POINT('',(-0.199999995529649,0.399999991059308,3.46944695195361E-17));
#287=CARTESIAN_POINT('Origin',(-0.199999995529649,0.399999991059308,0.15));
#288=CARTESIAN_POINT('Origin',(0.199999995529655,0.399999991059308,0.15));
#289=CARTESIAN_POINT('',(0.199999995529655,0.399999991059308,0.3));
#290=CARTESIAN_POINT('',(0.199999995529655,0.399999991059308,3.46944695195361E-17));
#291=CARTESIAN_POINT('Origin',(0.199999995529655,0.399999991059308,0.15));
#292=CARTESIAN_POINT('Origin',(2.98372437868011E-15,4.57966997657877E-15,
0.15));
#293=CARTESIAN_POINT('',(2.9745395276865E-15,4.57966997657877E-15,0.3));
#294=CARTESIAN_POINT('',(2.9745395276865E-15,4.57966997657877E-15,3.46944695195361E-17));
#295=CARTESIAN_POINT('Origin',(2.98372437868011E-15,4.57966997657877E-15,
0.15));
#296=UNCERTAINTY_MEASURE_WITH_UNIT(LENGTH_MEASURE(0.01),#300,
'DISTANCE_ACCURACY_VALUE',
'Maximum model space distance between geometric entities at asserted c
onnectivities');
#297=UNCERTAINTY_MEASURE_WITH_UNIT(LENGTH_MEASURE(0.01),#300,
'DISTANCE_ACCURACY_VALUE',
'Maximum model space distance between geometric entities at asserted c
onnectivities');
#298=(
GEOMETRIC_REPRESENTATION_CONTEXT(3)
GLOBAL_UNCERTAINTY_ASSIGNED_CONTEXT((#296))
GLOBAL_UNIT_ASSIGNED_CONTEXT((#300,#302,#303))
REPRESENTATION_CONTEXT('','3D')
);
#299=(
GEOMETRIC_REPRESENTATION_CONTEXT(3)
GLOBAL_UNCERTAINTY_ASSIGNED_CONTEXT((#297))
GLOBAL_UNIT_ASSIGNED_CONTEXT((#300,#302,#303))
REPRESENTATION_CONTEXT('','3D')
);
#300=(
LENGTH_UNIT()
NAMED_UNIT(*)
SI_UNIT(.MILLI.,.METRE.)
);
#301=(
LENGTH_UNIT()
NAMED_UNIT(*)
SI_UNIT($,.METRE.)
);
#302=(
NAMED_UNIT(*)
PLANE_ANGLE_UNIT()
SI_UNIT($,.RADIAN.)
);
#303=(
NAMED_UNIT(*)
SI_UNIT($,.STERADIAN.)
SOLID_ANGLE_UNIT()
);
#304=SHAPE_DEFINITION_REPRESENTATION(#305,#306);
#305=PRODUCT_DEFINITION_SHAPE('',$,#308);
#306=SHAPE_REPRESENTATION('',(#186),#298);
#307=PRODUCT_DEFINITION_CONTEXT('part definition',#312,'design');
#308=PRODUCT_DEFINITION('Untitled','Untitled v1',#309,#307);
#309=PRODUCT_DEFINITION_FORMATION('',$,#314);
#310=PRODUCT_RELATED_PRODUCT_CATEGORY('Untitled v1','Untitled v1',(#314));
#311=APPLICATION_PROTOCOL_DEFINITION('international standard',
'automotive_design',2009,#312);
#312=APPLICATION_CONTEXT(
'Core Data for Automotive Mechanical Design Process');
#313=PRODUCT_CONTEXT('part definition',#312,'mechanical');
#314=PRODUCT('Untitled','Untitled v1',$,(#313));
#315=PRESENTATION_STYLE_ASSIGNMENT((#317));
#316=PRESENTATION_STYLE_ASSIGNMENT((#318));
#317=SURFACE_STYLE_USAGE(.BOTH.,#319);
#318=SURFACE_STYLE_USAGE(.BOTH.,#320);
#319=SURFACE_SIDE_STYLE('',(#321));
#320=SURFACE_SIDE_STYLE('',(#322));
#321=SURFACE_STYLE_FILL_AREA(#323);
#322=SURFACE_STYLE_FILL_AREA(#324);
#323=FILL_AREA_STYLE('Steel - Satin',(#325));
#324=FILL_AREA_STYLE('Paint - Enamel Glossy (Red)',(#326));
#325=FILL_AREA_STYLE_COLOUR('Steel - Satin',#327);
#326=FILL_AREA_STYLE_COLOUR('Paint - Enamel Glossy (Red)',#328);
#327=COLOUR_RGB('Steel - Satin',0.627450980392157,0.627450980392157,0.627450980392157);
#328=COLOUR_RGB('Paint - Enamel Glossy (Red)',0.768627450980392,0.207843137254902,
0.152941176470588);
ENDSEC;
END-ISO-10303-21;
