ISO-10303-21;
HEADER;
/* Generated by software containing ST-Developer
 * from STEP Tools, Inc. (www.steptools.com) 
 */

FILE_DESCRIPTION(
/* description */ (''),
/* implementation_level */ '2;1');

FILE_NAME(
/* name */ '/Users/schneider/Desktop/Untitled v0.step',
/* time_stamp */ '2021-07-25T20:10:48+02:00',
/* author */ (''),
/* organization */ (''),
/* preprocessor_version */ 'ST-DEVELOPER v18.1',
/* originating_system */ 'Autodesk Translation Framework v10.9.0.1377',

/* authorisation */ '');

FILE_SCHEMA (('AUTOMOTIVE_DESIGN { 1 0 10303 214 3 1 1 }'));
ENDSEC;

DATA;
#10=MECHANICAL_DESIGN_GEOMETRIC_PRESENTATION_REPRESENTATION('',(#29,#30,
#31,#32,#33,#34,#35,#36,#37,#38,#39),#618);
#11=SHAPE_REPRESENTATION_RELATIONSHIP('SRR','None',#625,#12);
#12=ADVANCED_BREP_SHAPE_REPRESENTATION('',(#40,#41,#42,#43,#44,#45,#46,
#47,#48,#49),#617);
#13=CIRCLE('',#400,0.165);
#14=CIRCLE('',#402,0.165);
#15=CIRCLE('',#404,0.165);
#16=CIRCLE('',#406,0.165);
#17=CIRCLE('',#408,0.165);
#18=CIRCLE('',#410,0.165);
#19=CIRCLE('',#412,0.165);
#20=CIRCLE('',#414,0.165);
#21=SPHERICAL_SURFACE('',#399,0.165);
#22=SPHERICAL_SURFACE('',#401,0.165);
#23=SPHERICAL_SURFACE('',#403,0.165);
#24=SPHERICAL_SURFACE('',#405,0.165);
#25=SPHERICAL_SURFACE('',#407,0.165);
#26=SPHERICAL_SURFACE('',#409,0.165);
#27=SPHERICAL_SURFACE('',#411,0.165);
#28=SPHERICAL_SURFACE('',#413,0.165);
#29=STYLED_ITEM('',(#634),#40);
#30=STYLED_ITEM('',(#634),#346);
#31=STYLED_ITEM('',(#635),#41);
#32=STYLED_ITEM('',(#634),#42);
#33=STYLED_ITEM('',(#634),#43);
#34=STYLED_ITEM('',(#634),#44);
#35=STYLED_ITEM('',(#634),#45);
#36=STYLED_ITEM('',(#634),#46);
#37=STYLED_ITEM('',(#634),#47);
#38=STYLED_ITEM('',(#634),#48);
#39=STYLED_ITEM('',(#634),#49);
#40=MANIFOLD_SOLID_BREP('Body1',#361);
#41=MANIFOLD_SOLID_BREP('Body2',#362);
#42=MANIFOLD_SOLID_BREP('Body3',#363);
#43=MANIFOLD_SOLID_BREP('Body4',#364);
#44=MANIFOLD_SOLID_BREP('Body5',#365);
#45=MANIFOLD_SOLID_BREP('Body6',#366);
#46=MANIFOLD_SOLID_BREP('Body7',#367);
#47=MANIFOLD_SOLID_BREP('Body8',#368);
#48=MANIFOLD_SOLID_BREP('Body9',#369);
#49=MANIFOLD_SOLID_BREP('Body10',#370);
#50=FACE_OUTER_BOUND('',#73,.T.);
#51=FACE_OUTER_BOUND('',#74,.T.);
#52=FACE_OUTER_BOUND('',#75,.T.);
#53=FACE_OUTER_BOUND('',#76,.T.);
#54=FACE_OUTER_BOUND('',#77,.T.);
#55=FACE_OUTER_BOUND('',#78,.T.);
#56=FACE_OUTER_BOUND('',#79,.T.);
#57=FACE_OUTER_BOUND('',#80,.T.);
#58=FACE_OUTER_BOUND('',#81,.T.);
#59=FACE_OUTER_BOUND('',#82,.T.);
#60=FACE_OUTER_BOUND('',#83,.T.);
#61=FACE_OUTER_BOUND('',#84,.T.);
#62=FACE_OUTER_BOUND('',#85,.T.);
#63=FACE_OUTER_BOUND('',#86,.T.);
#64=FACE_OUTER_BOUND('',#87,.T.);
#65=FACE_OUTER_BOUND('',#88,.T.);
#66=FACE_OUTER_BOUND('',#89,.T.);
#67=FACE_OUTER_BOUND('',#90,.T.);
#68=FACE_OUTER_BOUND('',#91,.T.);
#69=FACE_OUTER_BOUND('',#92,.T.);
#70=FACE_OUTER_BOUND('',#93,.T.);
#71=FACE_OUTER_BOUND('',#94,.T.);
#72=FACE_OUTER_BOUND('',#95,.T.);
#73=EDGE_LOOP('',(#241,#242,#243,#244));
#74=EDGE_LOOP('',(#245,#246,#247,#248));
#75=EDGE_LOOP('',(#249,#250,#251,#252));
#76=EDGE_LOOP('',(#253,#254,#255,#256));
#77=EDGE_LOOP('',(#257,#258,#259,#260));
#78=EDGE_LOOP('',(#261,#262,#263,#264));
#79=EDGE_LOOP('',(#265,#266,#267,#268));
#80=EDGE_LOOP('',(#269,#270,#271,#272));
#81=EDGE_LOOP('',(#273,#274,#275,#276));
#82=EDGE_LOOP('',(#277,#278,#279,#280,#281,#282));
#83=EDGE_LOOP('',(#283,#284,#285,#286,#287,#288));
#84=EDGE_LOOP('',(#289,#290,#291,#292));
#85=EDGE_LOOP('',(#293,#294,#295,#296,#297,#298));
#86=EDGE_LOOP('',(#299,#300,#301,#302));
#87=EDGE_LOOP('',(#303,#304,#305,#306));
#88=EDGE_LOOP('',(#307,#308));
#89=EDGE_LOOP('',(#309,#310));
#90=EDGE_LOOP('',(#311,#312));
#91=EDGE_LOOP('',(#313,#314));
#92=EDGE_LOOP('',(#315,#316));
#93=EDGE_LOOP('',(#317,#318));
#94=EDGE_LOOP('',(#319,#320));
#95=EDGE_LOOP('',(#321,#322));
#96=LINE('',#516,#129);
#97=LINE('',#518,#130);
#98=LINE('',#520,#131);
#99=LINE('',#521,#132);
#100=LINE('',#524,#133);
#101=LINE('',#526,#134);
#102=LINE('',#527,#135);
#103=LINE('',#530,#136);
#104=LINE('',#532,#137);
#105=LINE('',#533,#138);
#106=LINE('',#535,#139);
#107=LINE('',#536,#140);
#108=LINE('',#542,#141);
#109=LINE('',#544,#142);
#110=LINE('',#546,#143);
#111=LINE('',#547,#144);
#112=LINE('',#550,#145);
#113=LINE('',#552,#146);
#114=LINE('',#553,#147);
#115=LINE('',#556,#148);
#116=LINE('',#557,#149);
#117=LINE('',#560,#150);
#118=LINE('',#562,#151);
#119=LINE('',#564,#152);
#120=LINE('',#565,#153);
#121=LINE('',#568,#154);
#122=LINE('',#570,#155);
#123=LINE('',#571,#156);
#124=LINE('',#574,#157);
#125=LINE('',#575,#158);
#126=LINE('',#578,#159);
#127=LINE('',#579,#160);
#128=LINE('',#581,#161);
#129=VECTOR('',#419,10.);
#130=VECTOR('',#420,10.);
#131=VECTOR('',#421,10.);
#132=VECTOR('',#422,10.);
#133=VECTOR('',#425,10.);
#134=VECTOR('',#426,10.);
#135=VECTOR('',#427,10.);
#136=VECTOR('',#430,10.);
#137=VECTOR('',#431,10.);
#138=VECTOR('',#432,10.);
#139=VECTOR('',#435,10.);
#140=VECTOR('',#436,10.);
#141=VECTOR('',#443,10.);
#142=VECTOR('',#444,10.);
#143=VECTOR('',#445,10.);
#144=VECTOR('',#446,10.);
#145=VECTOR('',#449,10.);
#146=VECTOR('',#450,10.);
#147=VECTOR('',#451,10.);
#148=VECTOR('',#454,10.);
#149=VECTOR('',#455,10.);
#150=VECTOR('',#458,10.);
#151=VECTOR('',#459,10.);
#152=VECTOR('',#460,10.);
#153=VECTOR('',#461,10.);
#154=VECTOR('',#464,10.);
#155=VECTOR('',#465,10.);
#156=VECTOR('',#466,10.);
#157=VECTOR('',#469,10.);
#158=VECTOR('',#470,10.);
#159=VECTOR('',#473,10.);
#160=VECTOR('',#474,10.);
#161=VECTOR('',#477,10.);
#162=VERTEX_POINT('',#514);
#163=VERTEX_POINT('',#515);
#164=VERTEX_POINT('',#517);
#165=VERTEX_POINT('',#519);
#166=VERTEX_POINT('',#523);
#167=VERTEX_POINT('',#525);
#168=VERTEX_POINT('',#529);
#169=VERTEX_POINT('',#531);
#170=VERTEX_POINT('',#540);
#171=VERTEX_POINT('',#541);
#172=VERTEX_POINT('',#543);
#173=VERTEX_POINT('',#545);
#174=VERTEX_POINT('',#549);
#175=VERTEX_POINT('',#551);
#176=VERTEX_POINT('',#555);
#177=VERTEX_POINT('',#559);
#178=VERTEX_POINT('',#561);
#179=VERTEX_POINT('',#563);
#180=VERTEX_POINT('',#567);
#181=VERTEX_POINT('',#569);
#182=VERTEX_POINT('',#573);
#183=VERTEX_POINT('',#577);
#184=VERTEX_POINT('',#584);
#185=VERTEX_POINT('',#585);
#186=VERTEX_POINT('',#588);
#187=VERTEX_POINT('',#589);
#188=VERTEX_POINT('',#592);
#189=VERTEX_POINT('',#593);
#190=VERTEX_POINT('',#596);
#191=VERTEX_POINT('',#597);
#192=VERTEX_POINT('',#600);
#193=VERTEX_POINT('',#601);
#194=VERTEX_POINT('',#604);
#195=VERTEX_POINT('',#605);
#196=VERTEX_POINT('',#608);
#197=VERTEX_POINT('',#609);
#198=VERTEX_POINT('',#612);
#199=VERTEX_POINT('',#613);
#200=EDGE_CURVE('',#162,#163,#96,.T.);
#201=EDGE_CURVE('',#163,#164,#97,.T.);
#202=EDGE_CURVE('',#165,#164,#98,.T.);
#203=EDGE_CURVE('',#162,#165,#99,.T.);
#204=EDGE_CURVE('',#166,#162,#100,.T.);
#205=EDGE_CURVE('',#167,#165,#101,.T.);
#206=EDGE_CURVE('',#166,#167,#102,.T.);
#207=EDGE_CURVE('',#168,#166,#103,.T.);
#208=EDGE_CURVE('',#169,#167,#104,.T.);
#209=EDGE_CURVE('',#168,#169,#105,.T.);
#210=EDGE_CURVE('',#163,#168,#106,.T.);
#211=EDGE_CURVE('',#164,#169,#107,.T.);
#212=EDGE_CURVE('',#170,#171,#108,.T.);
#213=EDGE_CURVE('',#172,#170,#109,.T.);
#214=EDGE_CURVE('',#172,#173,#110,.T.);
#215=EDGE_CURVE('',#171,#173,#111,.T.);
#216=EDGE_CURVE('',#171,#174,#112,.T.);
#217=EDGE_CURVE('',#173,#175,#113,.T.);
#218=EDGE_CURVE('',#174,#175,#114,.T.);
#219=EDGE_CURVE('',#176,#172,#115,.T.);
#220=EDGE_CURVE('',#175,#176,#116,.T.);
#221=EDGE_CURVE('',#174,#177,#117,.T.);
#222=EDGE_CURVE('',#177,#178,#118,.T.);
#223=EDGE_CURVE('',#178,#179,#119,.T.);
#224=EDGE_CURVE('',#179,#170,#120,.T.);
#225=EDGE_CURVE('',#180,#176,#121,.T.);
#226=EDGE_CURVE('',#180,#181,#122,.T.);
#227=EDGE_CURVE('',#181,#177,#123,.T.);
#228=EDGE_CURVE('',#181,#182,#124,.T.);
#229=EDGE_CURVE('',#182,#178,#125,.T.);
#230=EDGE_CURVE('',#183,#179,#126,.T.);
#231=EDGE_CURVE('',#183,#180,#127,.T.);
#232=EDGE_CURVE('',#182,#183,#128,.T.);
#233=EDGE_CURVE('',#184,#185,#13,.T.);
#234=EDGE_CURVE('',#186,#187,#14,.T.);
#235=EDGE_CURVE('',#188,#189,#15,.T.);
#236=EDGE_CURVE('',#190,#191,#16,.T.);
#237=EDGE_CURVE('',#192,#193,#17,.T.);
#238=EDGE_CURVE('',#194,#195,#18,.T.);
#239=EDGE_CURVE('',#196,#197,#19,.T.);
#240=EDGE_CURVE('',#198,#199,#20,.T.);
#241=ORIENTED_EDGE('',*,*,#200,.T.);
#242=ORIENTED_EDGE('',*,*,#201,.T.);
#243=ORIENTED_EDGE('',*,*,#202,.F.);
#244=ORIENTED_EDGE('',*,*,#203,.F.);
#245=ORIENTED_EDGE('',*,*,#204,.T.);
#246=ORIENTED_EDGE('',*,*,#203,.T.);
#247=ORIENTED_EDGE('',*,*,#205,.F.);
#248=ORIENTED_EDGE('',*,*,#206,.F.);
#249=ORIENTED_EDGE('',*,*,#207,.T.);
#250=ORIENTED_EDGE('',*,*,#206,.T.);
#251=ORIENTED_EDGE('',*,*,#208,.F.);
#252=ORIENTED_EDGE('',*,*,#209,.F.);
#253=ORIENTED_EDGE('',*,*,#210,.T.);
#254=ORIENTED_EDGE('',*,*,#209,.T.);
#255=ORIENTED_EDGE('',*,*,#211,.F.);
#256=ORIENTED_EDGE('',*,*,#201,.F.);
#257=ORIENTED_EDGE('',*,*,#211,.T.);
#258=ORIENTED_EDGE('',*,*,#208,.T.);
#259=ORIENTED_EDGE('',*,*,#205,.T.);
#260=ORIENTED_EDGE('',*,*,#202,.T.);
#261=ORIENTED_EDGE('',*,*,#210,.F.);
#262=ORIENTED_EDGE('',*,*,#200,.F.);
#263=ORIENTED_EDGE('',*,*,#204,.F.);
#264=ORIENTED_EDGE('',*,*,#207,.F.);
#265=ORIENTED_EDGE('',*,*,#212,.F.);
#266=ORIENTED_EDGE('',*,*,#213,.F.);
#267=ORIENTED_EDGE('',*,*,#214,.T.);
#268=ORIENTED_EDGE('',*,*,#215,.F.);
#269=ORIENTED_EDGE('',*,*,#216,.F.);
#270=ORIENTED_EDGE('',*,*,#215,.T.);
#271=ORIENTED_EDGE('',*,*,#217,.T.);
#272=ORIENTED_EDGE('',*,*,#218,.F.);
#273=ORIENTED_EDGE('',*,*,#217,.F.);
#274=ORIENTED_EDGE('',*,*,#214,.F.);
#275=ORIENTED_EDGE('',*,*,#219,.F.);
#276=ORIENTED_EDGE('',*,*,#220,.F.);
#277=ORIENTED_EDGE('',*,*,#212,.T.);
#278=ORIENTED_EDGE('',*,*,#216,.T.);
#279=ORIENTED_EDGE('',*,*,#221,.T.);
#280=ORIENTED_EDGE('',*,*,#222,.T.);
#281=ORIENTED_EDGE('',*,*,#223,.T.);
#282=ORIENTED_EDGE('',*,*,#224,.T.);
#283=ORIENTED_EDGE('',*,*,#218,.T.);
#284=ORIENTED_EDGE('',*,*,#220,.T.);
#285=ORIENTED_EDGE('',*,*,#225,.F.);
#286=ORIENTED_EDGE('',*,*,#226,.T.);
#287=ORIENTED_EDGE('',*,*,#227,.T.);
#288=ORIENTED_EDGE('',*,*,#221,.F.);
#289=ORIENTED_EDGE('',*,*,#228,.T.);
#290=ORIENTED_EDGE('',*,*,#229,.T.);
#291=ORIENTED_EDGE('',*,*,#222,.F.);
#292=ORIENTED_EDGE('',*,*,#227,.F.);
#293=ORIENTED_EDGE('',*,*,#213,.T.);
#294=ORIENTED_EDGE('',*,*,#224,.F.);
#295=ORIENTED_EDGE('',*,*,#230,.F.);
#296=ORIENTED_EDGE('',*,*,#231,.T.);
#297=ORIENTED_EDGE('',*,*,#225,.T.);
#298=ORIENTED_EDGE('',*,*,#219,.T.);
#299=ORIENTED_EDGE('',*,*,#232,.T.);
#300=ORIENTED_EDGE('',*,*,#230,.T.);
#301=ORIENTED_EDGE('',*,*,#223,.F.);
#302=ORIENTED_EDGE('',*,*,#229,.F.);
#303=ORIENTED_EDGE('',*,*,#232,.F.);
#304=ORIENTED_EDGE('',*,*,#228,.F.);
#305=ORIENTED_EDGE('',*,*,#226,.F.);
#306=ORIENTED_EDGE('',*,*,#231,.F.);
#307=ORIENTED_EDGE('',*,*,#233,.T.);
#308=ORIENTED_EDGE('',*,*,#233,.F.);
#309=ORIENTED_EDGE('',*,*,#234,.T.);
#310=ORIENTED_EDGE('',*,*,#234,.F.);
#311=ORIENTED_EDGE('',*,*,#235,.T.);
#312=ORIENTED_EDGE('',*,*,#235,.F.);
#313=ORIENTED_EDGE('',*,*,#236,.T.);
#314=ORIENTED_EDGE('',*,*,#236,.F.);
#315=ORIENTED_EDGE('',*,*,#237,.T.);
#316=ORIENTED_EDGE('',*,*,#237,.F.);
#317=ORIENTED_EDGE('',*,*,#238,.T.);
#318=ORIENTED_EDGE('',*,*,#238,.F.);
#319=ORIENTED_EDGE('',*,*,#239,.T.);
#320=ORIENTED_EDGE('',*,*,#239,.F.);
#321=ORIENTED_EDGE('',*,*,#240,.T.);
#322=ORIENTED_EDGE('',*,*,#240,.F.);
#323=PLANE('',#384);
#324=PLANE('',#385);
#325=PLANE('',#386);
#326=PLANE('',#387);
#327=PLANE('',#388);
#328=PLANE('',#389);
#329=PLANE('',#390);
#330=PLANE('',#391);
#331=PLANE('',#392);
#332=PLANE('',#393);
#333=PLANE('',#394);
#334=PLANE('',#395);
#335=PLANE('',#396);
#336=PLANE('',#397);
#337=PLANE('',#398);
#338=ADVANCED_FACE('',(#50),#323,.T.);
#339=ADVANCED_FACE('',(#51),#324,.T.);
#340=ADVANCED_FACE('',(#52),#325,.T.);
#341=ADVANCED_FACE('',(#53),#326,.T.);
#342=ADVANCED_FACE('',(#54),#327,.T.);
#343=ADVANCED_FACE('',(#55),#328,.F.);
#344=ADVANCED_FACE('',(#56),#329,.F.);
#345=ADVANCED_FACE('',(#57),#330,.F.);
#346=ADVANCED_FACE('',(#58),#331,.F.);
#347=ADVANCED_FACE('',(#59),#332,.T.);
#348=ADVANCED_FACE('',(#60),#333,.T.);
#349=ADVANCED_FACE('',(#61),#334,.T.);
#350=ADVANCED_FACE('',(#62),#335,.T.);
#351=ADVANCED_FACE('',(#63),#336,.T.);
#352=ADVANCED_FACE('',(#64),#337,.F.);
#353=ADVANCED_FACE('',(#65),#21,.T.);
#354=ADVANCED_FACE('',(#66),#22,.T.);
#355=ADVANCED_FACE('',(#67),#23,.T.);
#356=ADVANCED_FACE('',(#68),#24,.T.);
#357=ADVANCED_FACE('',(#69),#25,.T.);
#358=ADVANCED_FACE('',(#70),#26,.T.);
#359=ADVANCED_FACE('',(#71),#27,.T.);
#360=ADVANCED_FACE('',(#72),#28,.T.);
#361=CLOSED_SHELL('',(#338,#339,#340,#341,#342,#343));
#362=CLOSED_SHELL('',(#344,#345,#346,#347,#348,#349,#350,#351,#352));
#363=CLOSED_SHELL('',(#353));
#364=CLOSED_SHELL('',(#354));
#365=CLOSED_SHELL('',(#355));
#366=CLOSED_SHELL('',(#356));
#367=CLOSED_SHELL('',(#357));
#368=CLOSED_SHELL('',(#358));
#369=CLOSED_SHELL('',(#359));
#370=CLOSED_SHELL('',(#360));
#371=DERIVED_UNIT_ELEMENT(#373,1.);
#372=DERIVED_UNIT_ELEMENT(#620,-3.);
#373=(
MASS_UNIT()
NAMED_UNIT(*)
SI_UNIT(.KILO.,.GRAM.)
);
#374=DERIVED_UNIT((#371,#372));
#375=MEASURE_REPRESENTATION_ITEM('density measure',
POSITIVE_RATIO_MEASURE(7850.),#374);
#376=PROPERTY_DEFINITION_REPRESENTATION(#381,#378);
#377=PROPERTY_DEFINITION_REPRESENTATION(#382,#379);
#378=REPRESENTATION('material name',(#380),#617);
#379=REPRESENTATION('density',(#375),#617);
#380=DESCRIPTIVE_REPRESENTATION_ITEM('Steel','Steel');
#381=PROPERTY_DEFINITION('material property','material name',#627);
#382=PROPERTY_DEFINITION('material property','density of part',#627);
#383=AXIS2_PLACEMENT_3D('placement',#512,#415,#416);
#384=AXIS2_PLACEMENT_3D('',#513,#417,#418);
#385=AXIS2_PLACEMENT_3D('',#522,#423,#424);
#386=AXIS2_PLACEMENT_3D('',#528,#428,#429);
#387=AXIS2_PLACEMENT_3D('',#534,#433,#434);
#388=AXIS2_PLACEMENT_3D('',#537,#437,#438);
#389=AXIS2_PLACEMENT_3D('',#538,#439,#440);
#390=AXIS2_PLACEMENT_3D('',#539,#441,#442);
#391=AXIS2_PLACEMENT_3D('',#548,#447,#448);
#392=AXIS2_PLACEMENT_3D('',#554,#452,#453);
#393=AXIS2_PLACEMENT_3D('',#558,#456,#457);
#394=AXIS2_PLACEMENT_3D('',#566,#462,#463);
#395=AXIS2_PLACEMENT_3D('',#572,#467,#468);
#396=AXIS2_PLACEMENT_3D('',#576,#471,#472);
#397=AXIS2_PLACEMENT_3D('',#580,#475,#476);
#398=AXIS2_PLACEMENT_3D('',#582,#478,#479);
#399=AXIS2_PLACEMENT_3D('',#583,#480,#481);
#400=AXIS2_PLACEMENT_3D('',#586,#482,#483);
#401=AXIS2_PLACEMENT_3D('',#587,#484,#485);
#402=AXIS2_PLACEMENT_3D('',#590,#486,#487);
#403=AXIS2_PLACEMENT_3D('',#591,#488,#489);
#404=AXIS2_PLACEMENT_3D('',#594,#490,#491);
#405=AXIS2_PLACEMENT_3D('',#595,#492,#493);
#406=AXIS2_PLACEMENT_3D('',#598,#494,#495);
#407=AXIS2_PLACEMENT_3D('',#599,#496,#497);
#408=AXIS2_PLACEMENT_3D('',#602,#498,#499);
#409=AXIS2_PLACEMENT_3D('',#603,#500,#501);
#410=AXIS2_PLACEMENT_3D('',#606,#502,#503);
#411=AXIS2_PLACEMENT_3D('',#607,#504,#505);
#412=AXIS2_PLACEMENT_3D('',#610,#506,#507);
#413=AXIS2_PLACEMENT_3D('',#611,#508,#509);
#414=AXIS2_PLACEMENT_3D('',#614,#510,#511);
#415=DIRECTION('axis',(0.,0.,1.));
#416=DIRECTION('refdir',(1.,0.,0.));
#417=DIRECTION('center_axis',(0.,-1.,0.));
#418=DIRECTION('ref_axis',(1.,0.,0.));
#419=DIRECTION('',(1.,0.,0.));
#420=DIRECTION('',(0.,0.,1.));
#421=DIRECTION('',(1.,0.,0.));
#422=DIRECTION('',(0.,0.,1.));
#423=DIRECTION('center_axis',(-1.,0.,0.));
#424=DIRECTION('ref_axis',(0.,-1.,0.));
#425=DIRECTION('',(0.,-1.,0.));
#426=DIRECTION('',(0.,-1.,0.));
#427=DIRECTION('',(0.,0.,1.));
#428=DIRECTION('center_axis',(7.85386972711642E-17,1.,0.));
#429=DIRECTION('ref_axis',(-1.,7.85386972711642E-17,0.));
#430=DIRECTION('',(-1.,7.85386972711642E-17,0.));
#431=DIRECTION('',(-1.,7.85386972711642E-17,0.));
#432=DIRECTION('',(0.,0.,1.));
#433=DIRECTION('center_axis',(1.,0.,0.));
#434=DIRECTION('ref_axis',(0.,1.,0.));
#435=DIRECTION('',(0.,1.,0.));
#436=DIRECTION('',(0.,1.,0.));
#437=DIRECTION('center_axis',(0.,0.,1.));
#438=DIRECTION('ref_axis',(1.,0.,0.));
#439=DIRECTION('center_axis',(0.,0.,1.));
#440=DIRECTION('ref_axis',(1.,0.,0.));
#441=DIRECTION('center_axis',(1.,0.,0.));
#442=DIRECTION('ref_axis',(0.,-1.,0.));
#443=DIRECTION('',(0.,-1.,0.));
#444=DIRECTION('',(0.,0.,1.));
#445=DIRECTION('',(0.,-1.,0.));
#446=DIRECTION('',(0.,0.,-1.));
#447=DIRECTION('center_axis',(0.,-1.,0.));
#448=DIRECTION('ref_axis',(-1.,0.,0.));
#449=DIRECTION('',(-1.,0.,0.));
#450=DIRECTION('',(-1.,0.,0.));
#451=DIRECTION('',(0.,0.,-1.));
#452=DIRECTION('center_axis',(0.,0.,-1.));
#453=DIRECTION('ref_axis',(-1.,0.,0.));
#454=DIRECTION('',(1.,-7.85386972711642E-17,0.));
#455=DIRECTION('',(0.,1.,0.));
#456=DIRECTION('center_axis',(0.,0.,1.));
#457=DIRECTION('ref_axis',(1.,0.,0.));
#458=DIRECTION('',(0.,-1.,0.));
#459=DIRECTION('',(1.,0.,0.));
#460=DIRECTION('',(0.,1.,0.));
#461=DIRECTION('',(-1.,7.85386972711642E-17,0.));
#462=DIRECTION('center_axis',(-1.,0.,0.));
#463=DIRECTION('ref_axis',(0.,-1.,0.));
#464=DIRECTION('',(0.,0.,1.));
#465=DIRECTION('',(0.,-1.,0.));
#466=DIRECTION('',(0.,0.,1.));
#467=DIRECTION('center_axis',(0.,-1.,0.));
#468=DIRECTION('ref_axis',(1.,0.,0.));
#469=DIRECTION('',(1.,0.,0.));
#470=DIRECTION('',(0.,0.,1.));
#471=DIRECTION('center_axis',(7.85386972711642E-17,1.,0.));
#472=DIRECTION('ref_axis',(-1.,7.85386972711642E-17,0.));
#473=DIRECTION('',(0.,0.,1.));
#474=DIRECTION('',(-1.,7.85386972711642E-17,0.));
#475=DIRECTION('center_axis',(1.,0.,0.));
#476=DIRECTION('ref_axis',(0.,1.,0.));
#477=DIRECTION('',(0.,1.,0.));
#478=DIRECTION('center_axis',(0.,0.,1.));
#479=DIRECTION('ref_axis',(1.,0.,0.));
#480=DIRECTION('center_axis',(0.,0.,1.));
#481=DIRECTION('ref_axis',(1.,0.,0.));
#482=DIRECTION('center_axis',(0.,-1.,0.));
#483=DIRECTION('ref_axis',(-1.,0.,0.));
#484=DIRECTION('center_axis',(0.,0.,1.));
#485=DIRECTION('ref_axis',(1.,0.,0.));
#486=DIRECTION('center_axis',(0.,-1.,0.));
#487=DIRECTION('ref_axis',(-1.,0.,0.));
#488=DIRECTION('center_axis',(6.12323399573677E-17,0.,1.));
#489=DIRECTION('ref_axis',(1.,0.,0.));
#490=DIRECTION('center_axis',(2.10269512239613E-16,-1.,0.));
#491=DIRECTION('ref_axis',(-1.,-2.10269512239613E-16,0.));
#492=DIRECTION('center_axis',(0.,0.,1.));
#493=DIRECTION('ref_axis',(1.,0.,0.));
#494=DIRECTION('center_axis',(0.,-1.,0.));
#495=DIRECTION('ref_axis',(-1.,0.,0.));
#496=DIRECTION('center_axis',(0.,0.,1.));
#497=DIRECTION('ref_axis',(1.,0.,0.));
#498=DIRECTION('center_axis',(1.22464679914735E-16,-1.,0.));
#499=DIRECTION('ref_axis',(-1.,-1.22464679914735E-16,0.));
#500=DIRECTION('center_axis',(6.12323399573894E-17,0.,1.));
#501=DIRECTION('ref_axis',(1.,0.,0.));
#502=DIRECTION('center_axis',(2.10269512239613E-16,-1.,0.));
#503=DIRECTION('ref_axis',(-1.,-2.10269512239613E-16,0.));
#504=DIRECTION('center_axis',(0.,0.,1.));
#505=DIRECTION('ref_axis',(1.,0.,0.));
#506=DIRECTION('center_axis',(0.,-1.,0.));
#507=DIRECTION('ref_axis',(-1.,0.,0.));
#508=DIRECTION('center_axis',(0.,0.,1.));
#509=DIRECTION('ref_axis',(1.,0.,0.));
#510=DIRECTION('center_axis',(1.22464679914735E-16,-1.,0.));
#511=DIRECTION('ref_axis',(-1.,-1.22464679914735E-16,0.));
#512=CARTESIAN_POINT('',(0.,0.,0.));
#513=CARTESIAN_POINT('Origin',(-0.883500000000055,-0.701999999999998,0.));
#514=CARTESIAN_POINT('',(-0.883500000000055,-0.701999999999998,0.));
#515=CARTESIAN_POINT('',(0.883499999999913,-0.701999999999998,0.));
#516=CARTESIAN_POINT('',(-0.883500000000055,-0.701999999999998,0.));
#517=CARTESIAN_POINT('',(0.883499999999913,-0.701999999999998,0.25));
#518=CARTESIAN_POINT('',(0.883499999999913,-0.701999999999998,0.));
#519=CARTESIAN_POINT('',(-0.883500000000055,-0.701999999999998,0.25));
#520=CARTESIAN_POINT('',(-0.883500000000055,-0.701999999999998,0.25));
#521=CARTESIAN_POINT('',(-0.883500000000055,-0.701999999999998,0.));
#522=CARTESIAN_POINT('Origin',(-0.883500000000055,0.702000000000002,0.));
#523=CARTESIAN_POINT('',(-0.883500000000055,0.702000000000002,0.));
#524=CARTESIAN_POINT('',(-0.883500000000055,0.702000000000002,0.));
#525=CARTESIAN_POINT('',(-0.883500000000055,0.702000000000002,0.25));
#526=CARTESIAN_POINT('',(-0.883500000000055,0.702000000000002,0.25));
#527=CARTESIAN_POINT('',(-0.883500000000055,0.702000000000002,0.));
#528=CARTESIAN_POINT('Origin',(0.883499999999913,0.702000000000002,0.));
#529=CARTESIAN_POINT('',(0.883499999999913,0.702000000000002,0.));
#530=CARTESIAN_POINT('',(0.883499999999913,0.702000000000002,0.));
#531=CARTESIAN_POINT('',(0.883499999999913,0.702000000000002,0.25));
#532=CARTESIAN_POINT('',(0.883499999999913,0.702000000000002,0.25));
#533=CARTESIAN_POINT('',(0.883499999999913,0.702000000000002,0.));
#534=CARTESIAN_POINT('Origin',(0.883499999999913,-0.701999999999998,0.));
#535=CARTESIAN_POINT('',(0.883499999999913,-0.701999999999998,0.));
#536=CARTESIAN_POINT('',(0.883499999999913,-0.701999999999998,0.25));
#537=CARTESIAN_POINT('Origin',(-7.105427357601E-14,2.08166817117217E-15,
0.25));
#538=CARTESIAN_POINT('Origin',(-7.105427357601E-14,2.08166817117217E-15,
0.));
#539=CARTESIAN_POINT('Origin',(-0.683500000000055,0.702000000000002,0.275));
#540=CARTESIAN_POINT('',(-0.683500000000055,0.702000000000002,0.275));
#541=CARTESIAN_POINT('',(-0.683500000000055,0.502000000000002,0.275));
#542=CARTESIAN_POINT('',(-0.683500000000055,0.351000000000002,0.275));
#543=CARTESIAN_POINT('',(-0.683500000000055,0.702000000000002,0.265));
#544=CARTESIAN_POINT('',(-0.683500000000055,0.702000000000002,0.2625));
#545=CARTESIAN_POINT('',(-0.683500000000055,0.502000000000002,0.265));
#546=CARTESIAN_POINT('',(-0.683500000000055,0.702000000000002,0.265));
#547=CARTESIAN_POINT('',(-0.683500000000055,0.502000000000002,0.275));
#548=CARTESIAN_POINT('Origin',(-0.683500000000055,0.502000000000002,0.275));
#549=CARTESIAN_POINT('',(-0.883500000000055,0.502000000000002,0.275));
#550=CARTESIAN_POINT('',(-0.341750000000063,0.502000000000002,0.275));
#551=CARTESIAN_POINT('',(-0.883500000000055,0.502000000000002,0.265));
#552=CARTESIAN_POINT('',(-0.683500000000055,0.502000000000002,0.265));
#553=CARTESIAN_POINT('',(-0.883500000000055,0.502000000000002,0.2625));
#554=CARTESIAN_POINT('Origin',(-0.783500000000055,0.602000000000002,0.265));
#555=CARTESIAN_POINT('',(-0.883500000000055,0.702000000000002,0.265));
#556=CARTESIAN_POINT('',(0.049999999999929,0.702000000000002,0.265));
#557=CARTESIAN_POINT('',(-0.883500000000055,0.652000000000002,0.265));
#558=CARTESIAN_POINT('Origin',(-7.105427357601E-14,2.08166817117217E-15,
0.275));
#559=CARTESIAN_POINT('',(-0.883500000000055,-0.701999999999998,0.275));
#560=CARTESIAN_POINT('',(-0.883500000000055,0.702000000000002,0.275));
#561=CARTESIAN_POINT('',(0.883499999999913,-0.701999999999998,0.275));
#562=CARTESIAN_POINT('',(-0.883500000000055,-0.701999999999998,0.275));
#563=CARTESIAN_POINT('',(0.883499999999913,0.702000000000002,0.275));
#564=CARTESIAN_POINT('',(0.883499999999913,-0.701999999999998,0.275));
#565=CARTESIAN_POINT('',(0.883499999999913,0.702000000000002,0.275));
#566=CARTESIAN_POINT('Origin',(-0.883500000000055,0.702000000000002,0.25));
#567=CARTESIAN_POINT('',(-0.883500000000055,0.702000000000002,0.25));
#568=CARTESIAN_POINT('',(-0.883500000000055,0.702000000000002,0.25));
#569=CARTESIAN_POINT('',(-0.883500000000055,-0.701999999999998,0.25));
#570=CARTESIAN_POINT('',(-0.883500000000055,0.702000000000002,0.25));
#571=CARTESIAN_POINT('',(-0.883500000000055,-0.701999999999998,0.25));
#572=CARTESIAN_POINT('Origin',(-0.883500000000055,-0.701999999999998,0.25));
#573=CARTESIAN_POINT('',(0.883499999999913,-0.701999999999998,0.25));
#574=CARTESIAN_POINT('',(-0.883500000000055,-0.701999999999998,0.25));
#575=CARTESIAN_POINT('',(0.883499999999913,-0.701999999999998,0.25));
#576=CARTESIAN_POINT('Origin',(0.883499999999913,0.702000000000002,0.25));
#577=CARTESIAN_POINT('',(0.883499999999913,0.702000000000002,0.25));
#578=CARTESIAN_POINT('',(0.883499999999913,0.702000000000002,0.25));
#579=CARTESIAN_POINT('',(0.883499999999913,0.702000000000002,0.25));
#580=CARTESIAN_POINT('Origin',(0.883499999999913,-0.701999999999998,0.25));
#581=CARTESIAN_POINT('',(0.883499999999913,-0.701999999999998,0.25));
#582=CARTESIAN_POINT('Origin',(-7.105427357601E-14,2.08166817117217E-15,
0.25));
#583=CARTESIAN_POINT('Origin',(-0.34999999217689,0.399999991059303,0.));
#584=CARTESIAN_POINT('',(-0.34999999217689,0.399999991059303,0.165));
#585=CARTESIAN_POINT('',(-0.34999999217689,0.399999991059303,-0.165));
#586=CARTESIAN_POINT('Origin',(-0.34999999217689,0.399999991059303,0.));
#587=CARTESIAN_POINT('Origin',(0.349999992176961,0.399999991059301,0.));
#588=CARTESIAN_POINT('',(0.349999992176961,0.399999991059301,0.165));
#589=CARTESIAN_POINT('',(0.349999992176961,0.399999991059301,-0.165));
#590=CARTESIAN_POINT('Origin',(0.349999992176961,0.399999991059301,0.));
#591=CARTESIAN_POINT('Origin',(0.,0.199999995529652,0.));
#592=CARTESIAN_POINT('',(-1.01033360929657E-17,0.199999995529652,0.165));
#593=CARTESIAN_POINT('',(-1.01033360929657E-17,0.199999995529652,-0.165));
#594=CARTESIAN_POINT('Origin',(0.,0.199999995529652,0.));
#595=CARTESIAN_POINT('Origin',(-0.34999999217689,-0.399999991059303,0.));
#596=CARTESIAN_POINT('',(-0.34999999217689,-0.399999991059303,0.165));
#597=CARTESIAN_POINT('',(-0.34999999217689,-0.399999991059303,-0.165));
#598=CARTESIAN_POINT('Origin',(-0.34999999217689,-0.399999991059303,0.));
#599=CARTESIAN_POINT('Origin',(-0.34999999217689,0.,0.));
#600=CARTESIAN_POINT('',(-0.34999999217689,-1.23730182069603E-33,0.165));
#601=CARTESIAN_POINT('',(-0.34999999217689,-1.23730182069603E-33,-0.165));
#602=CARTESIAN_POINT('Origin',(-0.34999999217689,0.,0.));
#603=CARTESIAN_POINT('Origin',(7.105427357601E-14,-0.199999995529654,0.));
#604=CARTESIAN_POINT('',(7.1044170239917E-14,-0.199999995529654,0.165));
#605=CARTESIAN_POINT('',(7.1044170239917E-14,-0.199999995529654,-0.165));
#606=CARTESIAN_POINT('Origin',(7.105427357601E-14,-0.199999995529654,0.));
#607=CARTESIAN_POINT('Origin',(0.34999999217689,-0.399999991059303,0.));
#608=CARTESIAN_POINT('',(0.34999999217689,-0.399999991059303,0.165));
#609=CARTESIAN_POINT('',(0.34999999217689,-0.399999991059303,-0.165));
#610=CARTESIAN_POINT('Origin',(0.34999999217689,-0.399999991059303,0.));
#611=CARTESIAN_POINT('Origin',(0.34999999217689,0.,0.));
#612=CARTESIAN_POINT('',(0.34999999217689,-1.23730182069603E-33,0.165));
#613=CARTESIAN_POINT('',(0.34999999217689,-1.23730182069603E-33,-0.165));
#614=CARTESIAN_POINT('Origin',(0.34999999217689,0.,0.));
#615=UNCERTAINTY_MEASURE_WITH_UNIT(LENGTH_MEASURE(0.01),#619,
'DISTANCE_ACCURACY_VALUE',
'Maximum model space distance between geometric entities at asserted c
onnectivities');
#616=UNCERTAINTY_MEASURE_WITH_UNIT(LENGTH_MEASURE(0.01),#619,
'DISTANCE_ACCURACY_VALUE',
'Maximum model space distance between geometric entities at asserted c
onnectivities');
#617=(
GEOMETRIC_REPRESENTATION_CONTEXT(3)
GLOBAL_UNCERTAINTY_ASSIGNED_CONTEXT((#615))
GLOBAL_UNIT_ASSIGNED_CONTEXT((#619,#621,#622))
REPRESENTATION_CONTEXT('','3D')
);
#618=(
GEOMETRIC_REPRESENTATION_CONTEXT(3)
GLOBAL_UNCERTAINTY_ASSIGNED_CONTEXT((#616))
GLOBAL_UNIT_ASSIGNED_CONTEXT((#619,#621,#622))
REPRESENTATION_CONTEXT('','3D')
);
#619=(
LENGTH_UNIT()
NAMED_UNIT(*)
SI_UNIT(.MILLI.,.METRE.)
);
#620=(
LENGTH_UNIT()
NAMED_UNIT(*)
SI_UNIT($,.METRE.)
);
#621=(
NAMED_UNIT(*)
PLANE_ANGLE_UNIT()
SI_UNIT($,.RADIAN.)
);
#622=(
NAMED_UNIT(*)
SI_UNIT($,.STERADIAN.)
SOLID_ANGLE_UNIT()
);
#623=SHAPE_DEFINITION_REPRESENTATION(#624,#625);
#624=PRODUCT_DEFINITION_SHAPE('',$,#627);
#625=SHAPE_REPRESENTATION('',(#383),#617);
#626=PRODUCT_DEFINITION_CONTEXT('part definition',#631,'design');
#627=PRODUCT_DEFINITION('Untitled','Untitled v1',#628,#626);
#628=PRODUCT_DEFINITION_FORMATION('',$,#633);
#629=PRODUCT_RELATED_PRODUCT_CATEGORY('Untitled v1','Untitled v1',(#633));
#630=APPLICATION_PROTOCOL_DEFINITION('international standard',
'automotive_design',2009,#631);
#631=APPLICATION_CONTEXT(
'Core Data for Automotive Mechanical Design Process');
#632=PRODUCT_CONTEXT('part definition',#631,'mechanical');
#633=PRODUCT('Untitled','Untitled v1',$,(#632));
#634=PRESENTATION_STYLE_ASSIGNMENT((#636));
#635=PRESENTATION_STYLE_ASSIGNMENT((#637));
#636=SURFACE_STYLE_USAGE(.BOTH.,#638);
#637=SURFACE_STYLE_USAGE(.BOTH.,#639);
#638=SURFACE_SIDE_STYLE('',(#640));
#639=SURFACE_SIDE_STYLE('',(#641));
#640=SURFACE_STYLE_FILL_AREA(#642);
#641=SURFACE_STYLE_FILL_AREA(#643);
#642=FILL_AREA_STYLE('Steel - Satin',(#644));
#643=FILL_AREA_STYLE('Paint - Metallic (Black)',(#645));
#644=FILL_AREA_STYLE_COLOUR('Steel - Satin',#646);
#645=FILL_AREA_STYLE_COLOUR('Paint - Metallic (Black)',#647);
#646=COLOUR_RGB('Steel - Satin',0.627450980392157,0.627450980392157,0.627450980392157);
#647=COLOUR_RGB('Paint - Metallic (Black)',0.0980392156862745,0.0980392156862745,
0.0980392156862745);
ENDSEC;
END-ISO-10303-21;
