ISO-10303-21;
HEADER;
/* Generated by software containing ST-Developer
 * from STEP Tools, Inc. (www.steptools.com) 
 */
/* OPTION: using custom renumber hook */

FILE_DESCRIPTION(
/* description */ ('STEP AP242',
'CAx-IF Rec.Pracs.---Representation and Presentation of Product Manufa
cturing Information (PMI)---4.0---2014-10-13',
'CAx-IF Rec.Pracs.---3D Tessellated Geometry---0.4---2014-09-14','2;1'),

/* implementation_level */ '2;1');

FILE_NAME(
/* name */ '66bfa3bce98fcf40ec76d2cc',
/* time_stamp */ '2024-08-16T19:08:45Z',
/* author */ (''),
/* organization */ (''),
/* preprocessor_version */ 'ST-DEVELOPER v20',
/* originating_system */ '  ',
/* authorisation */ '  ');

FILE_SCHEMA (('AP242_MANAGED_MODEL_BASED_3D_ENGINEERING_MIM_LF { 1 0 10303 442 1 1 4 }'));
ENDSEC;

DATA;
#10=SHAPE_REPRESENTATION_RELATIONSHIP('','',#1277,#11);
#11=ADVANCED_BREP_SHAPE_REPRESENTATION('',(#1275),#2129);
#12=TOROIDAL_SURFACE('',#1377,0.0581429591836736,0.0005);
#13=TOROIDAL_SURFACE('',#1383,0.0581429591836736,0.0005);
#14=SPHERICAL_SURFACE('',#1359,0.0005);
#15=SPHERICAL_SURFACE('',#1363,0.0005);
#16=SPHERICAL_SURFACE('',#1372,0.0005);
#17=SPHERICAL_SURFACE('',#1379,0.0005);
#18=SPHERICAL_SURFACE('',#1381,0.0005);
#19=SPHERICAL_SURFACE('',#1387,0.0005);
#20=B_SPLINE_CURVE_WITH_KNOTS('',3,(#2073,#2074,#2075,#2076),
 .UNSPECIFIED.,.F.,.F.,(4,4),(0.,0.00250021183608954),.UNSPECIFIED.);
#21=B_SPLINE_CURVE_WITH_KNOTS('',3,(#2079,#2080,#2081,#2082,#2083,#2084,
#2085),.UNSPECIFIED.,.F.,.F.,(4,1,1,1,4),(1.97214179265266E-7,0.000390199797714282,
0.000780202381249299,0.00117020496478432,0.00156020754831933),
 .UNSPECIFIED.);
#22=B_SPLINE_CURVE_WITH_KNOTS('',3,(#2087,#2088,#2089,#2090),
 .UNSPECIFIED.,.F.,.F.,(4,4),(0.,0.00250021183608954),.UNSPECIFIED.);
#23=B_SPLINE_CURVE_WITH_KNOTS('',3,(#2092,#2093,#2094,#2095,#2096,#2097,
#2098),.UNSPECIFIED.,.F.,.F.,(4,1,1,1,4),(1.97214179265053E-7,0.000390199797714282,
0.000780202381249299,0.00117020496478432,0.00156020754831933),
 .UNSPECIFIED.);
#24=CYLINDRICAL_SURFACE('',#1321,0.0001);
#25=CYLINDRICAL_SURFACE('',#1328,0.0001);
#26=CYLINDRICAL_SURFACE('',#1335,0.0001);
#27=CYLINDRICAL_SURFACE('',#1342,0.0001);
#28=CYLINDRICAL_SURFACE('',#1343,0.0001);
#29=CYLINDRICAL_SURFACE('',#1344,0.0001);
#30=CYLINDRICAL_SURFACE('',#1345,0.0001);
#31=CYLINDRICAL_SURFACE('',#1346,0.0001);
#32=CYLINDRICAL_SURFACE('',#1351,0.005);
#33=CYLINDRICAL_SURFACE('',#1356,0.0576429591836736);
#34=CYLINDRICAL_SURFACE('',#1361,0.0005);
#35=CYLINDRICAL_SURFACE('',#1364,0.0005);
#36=CYLINDRICAL_SURFACE('',#1366,0.0005);
#37=CYLINDRICAL_SURFACE('',#1368,0.0005);
#38=CYLINDRICAL_SURFACE('',#1370,0.0005);
#39=CYLINDRICAL_SURFACE('',#1375,0.0005);
#40=CYLINDRICAL_SURFACE('',#1385,0.0005);
#41=CIRCLE('',#1302,0.0005);
#42=CIRCLE('',#1303,0.0005);
#43=CIRCLE('',#1304,0.0005);
#44=CIRCLE('',#1305,0.0005);
#45=CIRCLE('',#1307,0.0581429591836736);
#46=CIRCLE('',#1310,0.0581429591836736);
#47=CIRCLE('',#1352,0.005);
#48=CIRCLE('',#1353,0.005);
#49=CIRCLE('',#1357,0.0576429591836736);
#50=CIRCLE('',#1358,0.0576429591836736);
#51=CIRCLE('',#1360,0.0005);
#52=CIRCLE('',#1362,0.0005);
#53=CIRCLE('',#1365,0.0005);
#54=CIRCLE('',#1367,0.0005);
#55=CIRCLE('',#1369,0.0005);
#56=CIRCLE('',#1371,0.0005);
#57=CIRCLE('',#1373,0.0005);
#58=CIRCLE('',#1374,0.0005);
#59=CIRCLE('',#1376,0.0005);
#60=CIRCLE('',#1378,0.0005);
#61=CIRCLE('',#1380,0.0005);
#62=CIRCLE('',#1382,0.0005);
#63=CIRCLE('',#1384,0.0005);
#64=CIRCLE('',#1386,0.0005);
#65=ELLIPSE('',#1282,0.000115470053837925,0.0001);
#66=ELLIPSE('',#1283,0.000115470053837925,0.0001);
#67=ELLIPSE('',#1284,0.000115470053837925,0.0001);
#68=ELLIPSE('',#1285,0.000115470053837925,0.0001);
#69=ELLIPSE('',#1286,0.000115470053837925,0.0001);
#70=ELLIPSE('',#1287,0.000115470053837925,0.0001);
#71=ELLIPSE('',#1288,0.000115470053837925,0.0001);
#72=ELLIPSE('',#1289,0.000115470053837925,0.0001);
#73=ELLIPSE('',#1294,0.000115470053837925,0.0001);
#74=ELLIPSE('',#1295,0.000115470053837925,0.0001);
#75=ELLIPSE('',#1296,0.000115470053837925,0.0001);
#76=ELLIPSE('',#1297,0.000115470053837925,0.0001);
#77=ELLIPSE('',#1298,0.000115470053837925,0.0001);
#78=ELLIPSE('',#1299,0.000115470053837925,0.0001);
#79=ELLIPSE('',#1300,0.000115470053837925,0.0001);
#80=ELLIPSE('',#1301,0.000115470053837925,0.0001);
#81=ORIENTED_EDGE('',*,*,#441,.T.);
#82=ORIENTED_EDGE('',*,*,#442,.T.);
#83=ORIENTED_EDGE('',*,*,#443,.F.);
#84=ORIENTED_EDGE('',*,*,#444,.T.);
#85=ORIENTED_EDGE('',*,*,#445,.F.);
#86=ORIENTED_EDGE('',*,*,#446,.F.);
#87=ORIENTED_EDGE('',*,*,#447,.F.);
#88=ORIENTED_EDGE('',*,*,#448,.T.);
#89=ORIENTED_EDGE('',*,*,#449,.T.);
#90=ORIENTED_EDGE('',*,*,#450,.F.);
#91=ORIENTED_EDGE('',*,*,#451,.T.);
#92=ORIENTED_EDGE('',*,*,#452,.F.);
#93=ORIENTED_EDGE('',*,*,#453,.F.);
#94=ORIENTED_EDGE('',*,*,#443,.T.);
#95=ORIENTED_EDGE('',*,*,#454,.F.);
#96=ORIENTED_EDGE('',*,*,#455,.F.);
#97=ORIENTED_EDGE('',*,*,#456,.T.);
#98=ORIENTED_EDGE('',*,*,#457,.T.);
#99=ORIENTED_EDGE('',*,*,#458,.F.);
#100=ORIENTED_EDGE('',*,*,#459,.T.);
#101=ORIENTED_EDGE('',*,*,#460,.F.);
#102=ORIENTED_EDGE('',*,*,#461,.T.);
#103=ORIENTED_EDGE('',*,*,#462,.T.);
#104=ORIENTED_EDGE('',*,*,#463,.T.);
#105=ORIENTED_EDGE('',*,*,#444,.F.);
#106=ORIENTED_EDGE('',*,*,#453,.T.);
#107=ORIENTED_EDGE('',*,*,#464,.T.);
#108=ORIENTED_EDGE('',*,*,#465,.F.);
#109=ORIENTED_EDGE('',*,*,#466,.F.);
#110=ORIENTED_EDGE('',*,*,#467,.F.);
#111=ORIENTED_EDGE('',*,*,#468,.T.);
#112=ORIENTED_EDGE('',*,*,#469,.T.);
#113=ORIENTED_EDGE('',*,*,#470,.T.);
#114=ORIENTED_EDGE('',*,*,#471,.T.);
#115=ORIENTED_EDGE('',*,*,#472,.F.);
#116=ORIENTED_EDGE('',*,*,#473,.T.);
#117=ORIENTED_EDGE('',*,*,#474,.T.);
#118=ORIENTED_EDGE('',*,*,#475,.T.);
#119=ORIENTED_EDGE('',*,*,#476,.T.);
#120=ORIENTED_EDGE('',*,*,#477,.F.);
#121=ORIENTED_EDGE('',*,*,#478,.F.);
#122=ORIENTED_EDGE('',*,*,#479,.F.);
#123=ORIENTED_EDGE('',*,*,#480,.F.);
#124=ORIENTED_EDGE('',*,*,#481,.F.);
#125=ORIENTED_EDGE('',*,*,#482,.T.);
#126=ORIENTED_EDGE('',*,*,#483,.T.);
#127=ORIENTED_EDGE('',*,*,#484,.F.);
#128=ORIENTED_EDGE('',*,*,#485,.T.);
#129=ORIENTED_EDGE('',*,*,#458,.T.);
#130=ORIENTED_EDGE('',*,*,#486,.T.);
#131=ORIENTED_EDGE('',*,*,#487,.F.);
#132=ORIENTED_EDGE('',*,*,#488,.F.);
#133=ORIENTED_EDGE('',*,*,#489,.T.);
#134=ORIENTED_EDGE('',*,*,#490,.T.);
#135=ORIENTED_EDGE('',*,*,#464,.F.);
#136=ORIENTED_EDGE('',*,*,#452,.T.);
#137=ORIENTED_EDGE('',*,*,#491,.T.);
#138=ORIENTED_EDGE('',*,*,#492,.T.);
#139=ORIENTED_EDGE('',*,*,#493,.T.);
#140=ORIENTED_EDGE('',*,*,#494,.T.);
#141=ORIENTED_EDGE('',*,*,#470,.F.);
#142=ORIENTED_EDGE('',*,*,#495,.T.);
#143=ORIENTED_EDGE('',*,*,#496,.T.);
#144=ORIENTED_EDGE('',*,*,#497,.F.);
#145=ORIENTED_EDGE('',*,*,#498,.F.);
#146=ORIENTED_EDGE('',*,*,#496,.F.);
#147=ORIENTED_EDGE('',*,*,#499,.T.);
#148=ORIENTED_EDGE('',*,*,#500,.F.);
#149=ORIENTED_EDGE('',*,*,#501,.F.);
#150=ORIENTED_EDGE('',*,*,#502,.T.);
#151=ORIENTED_EDGE('',*,*,#449,.F.);
#152=ORIENTED_EDGE('',*,*,#503,.F.);
#153=ORIENTED_EDGE('',*,*,#504,.T.);
#154=ORIENTED_EDGE('',*,*,#505,.T.);
#155=ORIENTED_EDGE('',*,*,#506,.T.);
#156=ORIENTED_EDGE('',*,*,#484,.T.);
#157=ORIENTED_EDGE('',*,*,#507,.T.);
#158=ORIENTED_EDGE('',*,*,#508,.F.);
#159=ORIENTED_EDGE('',*,*,#509,.F.);
#160=ORIENTED_EDGE('',*,*,#510,.T.);
#161=ORIENTED_EDGE('',*,*,#511,.T.);
#162=ORIENTED_EDGE('',*,*,#512,.F.);
#163=ORIENTED_EDGE('',*,*,#513,.T.);
#164=ORIENTED_EDGE('',*,*,#514,.T.);
#165=ORIENTED_EDGE('',*,*,#515,.T.);
#166=ORIENTED_EDGE('',*,*,#493,.F.);
#167=ORIENTED_EDGE('',*,*,#516,.T.);
#168=ORIENTED_EDGE('',*,*,#517,.F.);
#169=ORIENTED_EDGE('',*,*,#518,.F.);
#170=ORIENTED_EDGE('',*,*,#519,.T.);
#171=ORIENTED_EDGE('',*,*,#520,.F.);
#172=ORIENTED_EDGE('',*,*,#521,.T.);
#173=ORIENTED_EDGE('',*,*,#522,.T.);
#174=ORIENTED_EDGE('',*,*,#523,.T.);
#175=ORIENTED_EDGE('',*,*,#524,.T.);
#176=ORIENTED_EDGE('',*,*,#525,.T.);
#177=ORIENTED_EDGE('',*,*,#526,.T.);
#178=ORIENTED_EDGE('',*,*,#527,.T.);
#179=ORIENTED_EDGE('',*,*,#528,.T.);
#180=ORIENTED_EDGE('',*,*,#520,.T.);
#181=ORIENTED_EDGE('',*,*,#529,.T.);
#182=ORIENTED_EDGE('',*,*,#530,.T.);
#183=ORIENTED_EDGE('',*,*,#531,.T.);
#184=ORIENTED_EDGE('',*,*,#522,.F.);
#185=ORIENTED_EDGE('',*,*,#532,.T.);
#186=ORIENTED_EDGE('',*,*,#533,.T.);
#187=ORIENTED_EDGE('',*,*,#534,.T.);
#188=ORIENTED_EDGE('',*,*,#524,.F.);
#189=ORIENTED_EDGE('',*,*,#535,.T.);
#190=ORIENTED_EDGE('',*,*,#536,.T.);
#191=ORIENTED_EDGE('',*,*,#537,.T.);
#192=ORIENTED_EDGE('',*,*,#518,.T.);
#193=ORIENTED_EDGE('',*,*,#538,.F.);
#194=ORIENTED_EDGE('',*,*,#539,.F.);
#195=ORIENTED_EDGE('',*,*,#540,.T.);
#196=ORIENTED_EDGE('',*,*,#541,.T.);
#197=ORIENTED_EDGE('',*,*,#478,.T.);
#198=ORIENTED_EDGE('',*,*,#542,.T.);
#199=ORIENTED_EDGE('',*,*,#543,.T.);
#200=ORIENTED_EDGE('',*,*,#544,.T.);
#201=ORIENTED_EDGE('',*,*,#545,.F.);
#202=ORIENTED_EDGE('',*,*,#476,.F.);
#203=ORIENTED_EDGE('',*,*,#546,.F.);
#204=ORIENTED_EDGE('',*,*,#547,.F.);
#205=ORIENTED_EDGE('',*,*,#548,.F.);
#206=ORIENTED_EDGE('',*,*,#549,.T.);
#207=ORIENTED_EDGE('',*,*,#542,.F.);
#208=ORIENTED_EDGE('',*,*,#477,.T.);
#209=ORIENTED_EDGE('',*,*,#545,.T.);
#210=ORIENTED_EDGE('',*,*,#550,.F.);
#211=ORIENTED_EDGE('',*,*,#551,.T.);
#212=ORIENTED_EDGE('',*,*,#511,.F.);
#213=ORIENTED_EDGE('',*,*,#547,.T.);
#214=ORIENTED_EDGE('',*,*,#552,.F.);
#215=ORIENTED_EDGE('',*,*,#553,.F.);
#216=ORIENTED_EDGE('',*,*,#554,.T.);
#217=ORIENTED_EDGE('',*,*,#546,.T.);
#218=ORIENTED_EDGE('',*,*,#475,.F.);
#219=ORIENTED_EDGE('',*,*,#555,.F.);
#220=ORIENTED_EDGE('',*,*,#552,.T.);
#221=ORIENTED_EDGE('',*,*,#472,.T.);
#222=ORIENTED_EDGE('',*,*,#556,.T.);
#223=ORIENTED_EDGE('',*,*,#514,.F.);
#224=ORIENTED_EDGE('',*,*,#557,.T.);
#225=ORIENTED_EDGE('',*,*,#544,.F.);
#226=ORIENTED_EDGE('',*,*,#558,.F.);
#227=ORIENTED_EDGE('',*,*,#559,.T.);
#228=ORIENTED_EDGE('',*,*,#550,.T.);
#229=ORIENTED_EDGE('',*,*,#543,.F.);
#230=ORIENTED_EDGE('',*,*,#554,.F.);
#231=ORIENTED_EDGE('',*,*,#560,.T.);
#232=ORIENTED_EDGE('',*,*,#558,.T.);
#233=ORIENTED_EDGE('',*,*,#474,.F.);
#234=ORIENTED_EDGE('',*,*,#561,.T.);
#235=ORIENTED_EDGE('',*,*,#512,.T.);
#236=ORIENTED_EDGE('',*,*,#551,.F.);
#237=ORIENTED_EDGE('',*,*,#559,.F.);
#238=ORIENTED_EDGE('',*,*,#560,.F.);
#239=ORIENTED_EDGE('',*,*,#553,.T.);
#240=ORIENTED_EDGE('',*,*,#555,.T.);
#241=ORIENTED_EDGE('',*,*,#473,.F.);
#242=ORIENTED_EDGE('',*,*,#557,.F.);
#243=ORIENTED_EDGE('',*,*,#513,.F.);
#244=ORIENTED_EDGE('',*,*,#561,.F.);
#245=ORIENTED_EDGE('',*,*,#489,.F.);
#246=ORIENTED_EDGE('',*,*,#562,.F.);
#247=ORIENTED_EDGE('',*,*,#563,.T.);
#248=ORIENTED_EDGE('',*,*,#564,.T.);
#249=ORIENTED_EDGE('',*,*,#490,.F.);
#250=ORIENTED_EDGE('',*,*,#564,.F.);
#251=ORIENTED_EDGE('',*,*,#565,.T.);
#252=ORIENTED_EDGE('',*,*,#465,.T.);
#253=ORIENTED_EDGE('',*,*,#500,.T.);
#254=ORIENTED_EDGE('',*,*,#566,.T.);
#255=ORIENTED_EDGE('',*,*,#468,.F.);
#256=ORIENTED_EDGE('',*,*,#567,.F.);
#257=ORIENTED_EDGE('',*,*,#487,.T.);
#258=ORIENTED_EDGE('',*,*,#451,.F.);
#259=ORIENTED_EDGE('',*,*,#568,.F.);
#260=ORIENTED_EDGE('',*,*,#569,.T.);
#261=ORIENTED_EDGE('',*,*,#488,.T.);
#262=ORIENTED_EDGE('',*,*,#569,.F.);
#263=ORIENTED_EDGE('',*,*,#570,.F.);
#264=ORIENTED_EDGE('',*,*,#562,.T.);
#265=ORIENTED_EDGE('',*,*,#466,.T.);
#266=ORIENTED_EDGE('',*,*,#565,.F.);
#267=ORIENTED_EDGE('',*,*,#563,.F.);
#268=ORIENTED_EDGE('',*,*,#570,.T.);
#269=ORIENTED_EDGE('',*,*,#568,.T.);
#270=ORIENTED_EDGE('',*,*,#450,.T.);
#271=ORIENTED_EDGE('',*,*,#502,.F.);
#272=ORIENTED_EDGE('',*,*,#571,.F.);
#273=ORIENTED_EDGE('',*,*,#467,.T.);
#274=ORIENTED_EDGE('',*,*,#571,.T.);
#275=ORIENTED_EDGE('',*,*,#501,.T.);
#276=ORIENTED_EDGE('',*,*,#567,.T.);
#277=ORIENTED_EDGE('',*,*,#540,.F.);
#278=ORIENTED_EDGE('',*,*,#572,.F.);
#279=ORIENTED_EDGE('',*,*,#573,.T.);
#280=ORIENTED_EDGE('',*,*,#574,.T.);
#281=ORIENTED_EDGE('',*,*,#541,.F.);
#282=ORIENTED_EDGE('',*,*,#574,.F.);
#283=ORIENTED_EDGE('',*,*,#575,.T.);
#284=ORIENTED_EDGE('',*,*,#479,.T.);
#285=ORIENTED_EDGE('',*,*,#508,.T.);
#286=ORIENTED_EDGE('',*,*,#576,.T.);
#287=ORIENTED_EDGE('',*,*,#482,.F.);
#288=ORIENTED_EDGE('',*,*,#577,.F.);
#289=ORIENTED_EDGE('',*,*,#538,.T.);
#290=ORIENTED_EDGE('',*,*,#549,.F.);
#291=ORIENTED_EDGE('',*,*,#578,.F.);
#292=ORIENTED_EDGE('',*,*,#579,.T.);
#293=ORIENTED_EDGE('',*,*,#539,.T.);
#294=ORIENTED_EDGE('',*,*,#579,.F.);
#295=ORIENTED_EDGE('',*,*,#580,.F.);
#296=ORIENTED_EDGE('',*,*,#572,.T.);
#297=ORIENTED_EDGE('',*,*,#480,.T.);
#298=ORIENTED_EDGE('',*,*,#575,.F.);
#299=ORIENTED_EDGE('',*,*,#573,.F.);
#300=ORIENTED_EDGE('',*,*,#580,.T.);
#301=ORIENTED_EDGE('',*,*,#578,.T.);
#302=ORIENTED_EDGE('',*,*,#548,.T.);
#303=ORIENTED_EDGE('',*,*,#510,.F.);
#304=ORIENTED_EDGE('',*,*,#581,.F.);
#305=ORIENTED_EDGE('',*,*,#481,.T.);
#306=ORIENTED_EDGE('',*,*,#581,.T.);
#307=ORIENTED_EDGE('',*,*,#509,.T.);
#308=ORIENTED_EDGE('',*,*,#577,.T.);
#309=ORIENTED_EDGE('',*,*,#446,.T.);
#310=ORIENTED_EDGE('',*,*,#582,.F.);
#311=ORIENTED_EDGE('',*,*,#583,.F.);
#312=ORIENTED_EDGE('',*,*,#584,.T.);
#313=ORIENTED_EDGE('',*,*,#445,.T.);
#314=ORIENTED_EDGE('',*,*,#463,.F.);
#315=ORIENTED_EDGE('',*,*,#585,.F.);
#316=ORIENTED_EDGE('',*,*,#582,.T.);
#317=ORIENTED_EDGE('',*,*,#460,.T.);
#318=ORIENTED_EDGE('',*,*,#586,.T.);
#319=ORIENTED_EDGE('',*,*,#505,.F.);
#320=ORIENTED_EDGE('',*,*,#587,.T.);
#321=ORIENTED_EDGE('',*,*,#442,.F.);
#322=ORIENTED_EDGE('',*,*,#588,.F.);
#323=ORIENTED_EDGE('',*,*,#589,.T.);
#324=ORIENTED_EDGE('',*,*,#447,.T.);
#325=ORIENTED_EDGE('',*,*,#441,.F.);
#326=ORIENTED_EDGE('',*,*,#584,.F.);
#327=ORIENTED_EDGE('',*,*,#590,.T.);
#328=ORIENTED_EDGE('',*,*,#588,.T.);
#329=ORIENTED_EDGE('',*,*,#462,.F.);
#330=ORIENTED_EDGE('',*,*,#591,.T.);
#331=ORIENTED_EDGE('',*,*,#503,.T.);
#332=ORIENTED_EDGE('',*,*,#448,.F.);
#333=ORIENTED_EDGE('',*,*,#589,.F.);
#334=ORIENTED_EDGE('',*,*,#590,.F.);
#335=ORIENTED_EDGE('',*,*,#583,.T.);
#336=ORIENTED_EDGE('',*,*,#585,.T.);
#337=ORIENTED_EDGE('',*,*,#461,.F.);
#338=ORIENTED_EDGE('',*,*,#587,.F.);
#339=ORIENTED_EDGE('',*,*,#504,.F.);
#340=ORIENTED_EDGE('',*,*,#591,.F.);
#341=ORIENTED_EDGE('',*,*,#459,.F.);
#342=ORIENTED_EDGE('',*,*,#485,.F.);
#343=ORIENTED_EDGE('',*,*,#506,.F.);
#344=ORIENTED_EDGE('',*,*,#586,.F.);
#345=ORIENTED_EDGE('',*,*,#483,.F.);
#346=ORIENTED_EDGE('',*,*,#576,.F.);
#347=ORIENTED_EDGE('',*,*,#507,.F.);
#348=ORIENTED_EDGE('',*,*,#486,.F.);
#349=ORIENTED_EDGE('',*,*,#469,.F.);
#350=ORIENTED_EDGE('',*,*,#566,.F.);
#351=ORIENTED_EDGE('',*,*,#499,.F.);
#352=ORIENTED_EDGE('',*,*,#495,.F.);
#353=ORIENTED_EDGE('',*,*,#471,.F.);
#354=ORIENTED_EDGE('',*,*,#494,.F.);
#355=ORIENTED_EDGE('',*,*,#515,.F.);
#356=ORIENTED_EDGE('',*,*,#556,.F.);
#357=ORIENTED_EDGE('',*,*,#498,.T.);
#358=ORIENTED_EDGE('',*,*,#592,.F.);
#359=ORIENTED_EDGE('',*,*,#593,.F.);
#360=ORIENTED_EDGE('',*,*,#497,.T.);
#361=ORIENTED_EDGE('',*,*,#517,.T.);
#362=ORIENTED_EDGE('',*,*,#594,.F.);
#363=ORIENTED_EDGE('',*,*,#595,.F.);
#364=ORIENTED_EDGE('',*,*,#592,.T.);
#365=ORIENTED_EDGE('',*,*,#516,.F.);
#366=ORIENTED_EDGE('',*,*,#492,.F.);
#367=ORIENTED_EDGE('',*,*,#596,.T.);
#368=ORIENTED_EDGE('',*,*,#594,.T.);
#369=ORIENTED_EDGE('',*,*,#491,.F.);
#370=ORIENTED_EDGE('',*,*,#593,.T.);
#371=ORIENTED_EDGE('',*,*,#595,.T.);
#372=ORIENTED_EDGE('',*,*,#596,.F.);
#373=ORIENTED_EDGE('',*,*,#597,.F.);
#374=ORIENTED_EDGE('',*,*,#456,.F.);
#375=ORIENTED_EDGE('',*,*,#598,.T.);
#376=ORIENTED_EDGE('',*,*,#454,.T.);
#377=ORIENTED_EDGE('',*,*,#598,.F.);
#378=ORIENTED_EDGE('',*,*,#455,.T.);
#379=ORIENTED_EDGE('',*,*,#597,.T.);
#380=ORIENTED_EDGE('',*,*,#457,.F.);
#381=ORIENTED_EDGE('',*,*,#599,.T.);
#382=ORIENTED_EDGE('',*,*,#600,.T.);
#383=ORIENTED_EDGE('',*,*,#601,.T.);
#384=ORIENTED_EDGE('',*,*,#602,.T.);
#385=ORIENTED_EDGE('',*,*,#603,.T.);
#386=ORIENTED_EDGE('',*,*,#604,.T.);
#387=ORIENTED_EDGE('',*,*,#605,.T.);
#388=ORIENTED_EDGE('',*,*,#606,.T.);
#389=ORIENTED_EDGE('',*,*,#606,.F.);
#390=ORIENTED_EDGE('',*,*,#607,.T.);
#391=ORIENTED_EDGE('',*,*,#603,.F.);
#392=ORIENTED_EDGE('',*,*,#607,.F.);
#393=ORIENTED_EDGE('',*,*,#605,.F.);
#394=ORIENTED_EDGE('',*,*,#608,.T.);
#395=ORIENTED_EDGE('',*,*,#604,.F.);
#396=ORIENTED_EDGE('',*,*,#608,.F.);
#397=ORIENTED_EDGE('',*,*,#537,.F.);
#398=ORIENTED_EDGE('',*,*,#609,.T.);
#399=ORIENTED_EDGE('',*,*,#526,.F.);
#400=ORIENTED_EDGE('',*,*,#519,.F.);
#401=ORIENTED_EDGE('',*,*,#528,.F.);
#402=ORIENTED_EDGE('',*,*,#610,.T.);
#403=ORIENTED_EDGE('',*,*,#529,.F.);
#404=ORIENTED_EDGE('',*,*,#521,.F.);
#405=ORIENTED_EDGE('',*,*,#534,.F.);
#406=ORIENTED_EDGE('',*,*,#611,.T.);
#407=ORIENTED_EDGE('',*,*,#535,.F.);
#408=ORIENTED_EDGE('',*,*,#525,.F.);
#409=ORIENTED_EDGE('',*,*,#531,.F.);
#410=ORIENTED_EDGE('',*,*,#612,.T.);
#411=ORIENTED_EDGE('',*,*,#532,.F.);
#412=ORIENTED_EDGE('',*,*,#523,.F.);
#413=ORIENTED_EDGE('',*,*,#613,.F.);
#414=ORIENTED_EDGE('',*,*,#609,.F.);
#415=ORIENTED_EDGE('',*,*,#614,.F.);
#416=ORIENTED_EDGE('',*,*,#614,.T.);
#417=ORIENTED_EDGE('',*,*,#536,.F.);
#418=ORIENTED_EDGE('',*,*,#615,.F.);
#419=ORIENTED_EDGE('',*,*,#599,.F.);
#420=ORIENTED_EDGE('',*,*,#613,.T.);
#421=ORIENTED_EDGE('',*,*,#602,.F.);
#422=ORIENTED_EDGE('',*,*,#616,.F.);
#423=ORIENTED_EDGE('',*,*,#527,.F.);
#424=ORIENTED_EDGE('',*,*,#615,.T.);
#425=ORIENTED_EDGE('',*,*,#611,.F.);
#426=ORIENTED_EDGE('',*,*,#617,.F.);
#427=ORIENTED_EDGE('',*,*,#610,.F.);
#428=ORIENTED_EDGE('',*,*,#616,.T.);
#429=ORIENTED_EDGE('',*,*,#618,.F.);
#430=ORIENTED_EDGE('',*,*,#617,.T.);
#431=ORIENTED_EDGE('',*,*,#533,.F.);
#432=ORIENTED_EDGE('',*,*,#619,.F.);
#433=ORIENTED_EDGE('',*,*,#600,.F.);
#434=ORIENTED_EDGE('',*,*,#618,.T.);
#435=ORIENTED_EDGE('',*,*,#601,.F.);
#436=ORIENTED_EDGE('',*,*,#620,.F.);
#437=ORIENTED_EDGE('',*,*,#530,.F.);
#438=ORIENTED_EDGE('',*,*,#619,.T.);
#439=ORIENTED_EDGE('',*,*,#612,.F.);
#440=ORIENTED_EDGE('',*,*,#620,.T.);
#441=EDGE_CURVE('',#621,#622,#737,.T.);
#442=EDGE_CURVE('',#622,#623,#738,.T.);
#443=EDGE_CURVE('',#624,#623,#739,.T.);
#444=EDGE_CURVE('',#624,#625,#740,.T.);
#445=EDGE_CURVE('',#626,#625,#741,.F.);
#446=EDGE_CURVE('',#621,#626,#742,.F.);
#447=EDGE_CURVE('',#627,#623,#743,.T.);
#448=EDGE_CURVE('',#627,#628,#744,.T.);
#449=EDGE_CURVE('',#628,#629,#745,.T.);
#450=EDGE_CURVE('',#630,#629,#746,.T.);
#451=EDGE_CURVE('',#630,#631,#747,.T.);
#452=EDGE_CURVE('',#632,#631,#748,.T.);
#453=EDGE_CURVE('',#624,#632,#749,.T.);
#454=EDGE_CURVE('',#633,#634,#750,.T.);
#455=EDGE_CURVE('',#635,#633,#751,.T.);
#456=EDGE_CURVE('',#635,#636,#752,.T.);
#457=EDGE_CURVE('',#636,#634,#753,.T.);
#458=EDGE_CURVE('',#637,#638,#754,.T.);
#459=EDGE_CURVE('',#637,#639,#65,.T.);
#460=EDGE_CURVE('',#640,#639,#755,.T.);
#461=EDGE_CURVE('',#640,#641,#66,.T.);
#462=EDGE_CURVE('',#641,#642,#756,.T.);
#463=EDGE_CURVE('',#642,#625,#757,.F.);
#464=EDGE_CURVE('',#632,#643,#758,.T.);
#465=EDGE_CURVE('',#644,#643,#759,.F.);
#466=EDGE_CURVE('',#645,#644,#760,.T.);
#467=EDGE_CURVE('',#646,#645,#67,.T.);
#468=EDGE_CURVE('',#646,#647,#761,.T.);
#469=EDGE_CURVE('',#647,#648,#68,.T.);
#470=EDGE_CURVE('',#648,#649,#762,.T.);
#471=EDGE_CURVE('',#649,#650,#69,.T.);
#472=EDGE_CURVE('',#651,#650,#763,.T.);
#473=EDGE_CURVE('',#651,#652,#70,.T.);
#474=EDGE_CURVE('',#652,#653,#764,.T.);
#475=EDGE_CURVE('',#653,#654,#765,.F.);
#476=EDGE_CURVE('',#654,#655,#766,.T.);
#477=EDGE_CURVE('',#656,#655,#767,.T.);
#478=EDGE_CURVE('',#657,#656,#768,.T.);
#479=EDGE_CURVE('',#658,#657,#769,.F.);
#480=EDGE_CURVE('',#659,#658,#770,.T.);
#481=EDGE_CURVE('',#660,#659,#71,.T.);
#482=EDGE_CURVE('',#660,#661,#771,.T.);
#483=EDGE_CURVE('',#661,#638,#72,.T.);
#484=EDGE_CURVE('',#662,#663,#772,.T.);
#485=EDGE_CURVE('',#662,#637,#773,.F.);
#486=EDGE_CURVE('',#638,#663,#774,.T.);
#487=EDGE_CURVE('',#664,#631,#775,.T.);
#488=EDGE_CURVE('',#665,#664,#776,.T.);
#489=EDGE_CURVE('',#665,#666,#777,.F.);
#490=EDGE_CURVE('',#666,#643,#778,.F.);
#491=EDGE_CURVE('',#667,#668,#779,.T.);
#492=EDGE_CURVE('',#668,#669,#780,.T.);
#493=EDGE_CURVE('',#669,#670,#781,.T.);
#494=EDGE_CURVE('',#670,#649,#782,.F.);
#495=EDGE_CURVE('',#648,#671,#783,.T.);
#496=EDGE_CURVE('',#671,#672,#784,.T.);
#497=EDGE_CURVE('',#667,#672,#785,.T.);
#498=EDGE_CURVE('',#672,#673,#786,.T.);
#499=EDGE_CURVE('',#671,#674,#73,.F.);
#500=EDGE_CURVE('',#675,#674,#787,.T.);
#501=EDGE_CURVE('',#676,#675,#74,.F.);
#502=EDGE_CURVE('',#676,#629,#788,.T.);
#503=EDGE_CURVE('',#677,#628,#789,.T.);
#504=EDGE_CURVE('',#677,#678,#75,.F.);
#505=EDGE_CURVE('',#678,#679,#790,.T.);
#506=EDGE_CURVE('',#679,#662,#76,.F.);
#507=EDGE_CURVE('',#663,#680,#77,.F.);
#508=EDGE_CURVE('',#681,#680,#791,.T.);
#509=EDGE_CURVE('',#682,#681,#78,.F.);
#510=EDGE_CURVE('',#682,#683,#792,.T.);
#511=EDGE_CURVE('',#683,#684,#793,.T.);
#512=EDGE_CURVE('',#685,#684,#794,.T.);
#513=EDGE_CURVE('',#685,#686,#79,.F.);
#514=EDGE_CURVE('',#686,#687,#795,.T.);
#515=EDGE_CURVE('',#687,#670,#80,.F.);
#516=EDGE_CURVE('',#669,#688,#796,.T.);
#517=EDGE_CURVE('',#673,#688,#797,.T.);
#518=EDGE_CURVE('',#689,#690,#798,.T.);
#519=EDGE_CURVE('',#689,#691,#41,.T.);
#520=EDGE_CURVE('',#692,#691,#799,.T.);
#521=EDGE_CURVE('',#692,#693,#42,.T.);
#522=EDGE_CURVE('',#693,#694,#800,.T.);
#523=EDGE_CURVE('',#694,#695,#43,.T.);
#524=EDGE_CURVE('',#695,#696,#801,.T.);
#525=EDGE_CURVE('',#696,#690,#44,.T.);
#526=EDGE_CURVE('',#691,#697,#802,.T.);
#527=EDGE_CURVE('',#697,#698,#45,.F.);
#528=EDGE_CURVE('',#698,#692,#803,.F.);
#529=EDGE_CURVE('',#693,#699,#804,.T.);
#530=EDGE_CURVE('',#699,#700,#805,.T.);
#531=EDGE_CURVE('',#700,#694,#806,.F.);
#532=EDGE_CURVE('',#695,#701,#807,.T.);
#533=EDGE_CURVE('',#701,#702,#46,.T.);
#534=EDGE_CURVE('',#702,#696,#808,.F.);
#535=EDGE_CURVE('',#690,#703,#809,.T.);
#536=EDGE_CURVE('',#703,#704,#810,.T.);
#537=EDGE_CURVE('',#704,#689,#811,.F.);
#538=EDGE_CURVE('',#705,#706,#812,.T.);
#539=EDGE_CURVE('',#707,#705,#813,.T.);
#540=EDGE_CURVE('',#707,#708,#814,.F.);
#541=EDGE_CURVE('',#708,#657,#815,.F.);
#542=EDGE_CURVE('',#656,#706,#816,.T.);
#543=EDGE_CURVE('',#709,#710,#817,.T.);
#544=EDGE_CURVE('',#710,#711,#818,.T.);
#545=EDGE_CURVE('',#655,#711,#819,.T.);
#546=EDGE_CURVE('',#712,#654,#820,.F.);
#547=EDGE_CURVE('',#709,#712,#821,.F.);
#548=EDGE_CURVE('',#713,#683,#822,.T.);
#549=EDGE_CURVE('',#713,#706,#823,.T.);
#550=EDGE_CURVE('',#714,#711,#824,.T.);
#551=EDGE_CURVE('',#714,#684,#825,.T.);
#552=EDGE_CURVE('',#715,#712,#826,.T.);
#553=EDGE_CURVE('',#716,#715,#827,.F.);
#554=EDGE_CURVE('',#716,#709,#828,.F.);
#555=EDGE_CURVE('',#715,#653,#829,.F.);
#556=EDGE_CURVE('',#650,#687,#830,.T.);
#557=EDGE_CURVE('',#686,#651,#831,.F.);
#558=EDGE_CURVE('',#717,#710,#832,.T.);
#559=EDGE_CURVE('',#717,#714,#833,.T.);
#560=EDGE_CURVE('',#716,#717,#834,.T.);
#561=EDGE_CURVE('',#652,#685,#835,.T.);
#562=EDGE_CURVE('',#718,#665,#836,.F.);
#563=EDGE_CURVE('',#718,#719,#837,.F.);
#564=EDGE_CURVE('',#719,#666,#838,.T.);
#565=EDGE_CURVE('',#719,#644,#839,.F.);
#566=EDGE_CURVE('',#674,#647,#840,.F.);
#567=EDGE_CURVE('',#675,#646,#841,.F.);
#568=EDGE_CURVE('',#720,#630,#842,.T.);
#569=EDGE_CURVE('',#720,#664,#843,.T.);
#570=EDGE_CURVE('',#718,#720,#844,.T.);
#571=EDGE_CURVE('',#645,#676,#845,.T.);
#572=EDGE_CURVE('',#721,#707,#846,.F.);
#573=EDGE_CURVE('',#721,#722,#847,.F.);
#574=EDGE_CURVE('',#722,#708,#848,.T.);
#575=EDGE_CURVE('',#722,#658,#849,.F.);
#576=EDGE_CURVE('',#680,#661,#850,.F.);
#577=EDGE_CURVE('',#681,#660,#851,.F.);
#578=EDGE_CURVE('',#723,#713,#852,.T.);
#579=EDGE_CURVE('',#723,#705,#853,.T.);
#580=EDGE_CURVE('',#721,#723,#854,.T.);
#581=EDGE_CURVE('',#659,#682,#855,.T.);
#582=EDGE_CURVE('',#724,#626,#856,.T.);
#583=EDGE_CURVE('',#725,#724,#857,.F.);
#584=EDGE_CURVE('',#725,#621,#858,.F.);
#585=EDGE_CURVE('',#724,#642,#859,.F.);
#586=EDGE_CURVE('',#639,#679,#860,.T.);
#587=EDGE_CURVE('',#678,#640,#861,.F.);
#588=EDGE_CURVE('',#726,#622,#862,.T.);
#589=EDGE_CURVE('',#726,#627,#863,.T.);
#590=EDGE_CURVE('',#725,#726,#864,.T.);
#591=EDGE_CURVE('',#641,#677,#865,.T.);
#592=EDGE_CURVE('',#727,#673,#866,.T.);
#593=EDGE_CURVE('',#667,#727,#867,.T.);
#594=EDGE_CURVE('',#728,#688,#868,.T.);
#595=EDGE_CURVE('',#727,#728,#869,.T.);
#596=EDGE_CURVE('',#668,#728,#870,.T.);
#597=EDGE_CURVE('',#636,#634,#47,.T.);
#598=EDGE_CURVE('',#635,#633,#48,.T.);
#599=EDGE_CURVE('',#729,#730,#871,.F.);
#600=EDGE_CURVE('',#730,#731,#49,.F.);
#601=EDGE_CURVE('',#731,#732,#872,.T.);
#602=EDGE_CURVE('',#732,#729,#50,.T.);
#603=EDGE_CURVE('',#733,#734,#20,.T.);
#604=EDGE_CURVE('',#734,#735,#21,.T.);
#605=EDGE_CURVE('',#735,#736,#22,.T.);
#606=EDGE_CURVE('',#736,#733,#23,.T.);
#607=EDGE_CURVE('',#736,#733,#51,.T.);
#608=EDGE_CURVE('',#735,#734,#52,.F.);
#609=EDGE_CURVE('',#704,#697,#53,.F.);
#610=EDGE_CURVE('',#698,#699,#54,.T.);
#611=EDGE_CURVE('',#702,#703,#55,.T.);
#612=EDGE_CURVE('',#700,#701,#56,.F.);
#613=EDGE_CURVE('',#697,#729,#57,.T.);
#614=EDGE_CURVE('',#729,#704,#58,.T.);
#615=EDGE_CURVE('',#730,#703,#59,.T.);
#616=EDGE_CURVE('',#698,#732,#60,.T.);
#617=EDGE_CURVE('',#730,#702,#61,.T.);
#618=EDGE_CURVE('',#699,#732,#62,.T.);
#619=EDGE_CURVE('',#731,#701,#63,.T.);
#620=EDGE_CURVE('',#700,#731,#64,.T.);
#621=VERTEX_POINT('',#1747);
#622=VERTEX_POINT('',#1748);
#623=VERTEX_POINT('',#1750);
#624=VERTEX_POINT('',#1752);
#625=VERTEX_POINT('',#1754);
#626=VERTEX_POINT('',#1756);
#627=VERTEX_POINT('',#1760);
#628=VERTEX_POINT('',#1762);
#629=VERTEX_POINT('',#1764);
#630=VERTEX_POINT('',#1766);
#631=VERTEX_POINT('',#1768);
#632=VERTEX_POINT('',#1770);
#633=VERTEX_POINT('',#1774);
#634=VERTEX_POINT('',#1775);
#635=VERTEX_POINT('',#1777);
#636=VERTEX_POINT('',#1779);
#637=VERTEX_POINT('',#1782);
#638=VERTEX_POINT('',#1783);
#639=VERTEX_POINT('',#1785);
#640=VERTEX_POINT('',#1787);
#641=VERTEX_POINT('',#1789);
#642=VERTEX_POINT('',#1791);
#643=VERTEX_POINT('',#1794);
#644=VERTEX_POINT('',#1796);
#645=VERTEX_POINT('',#1798);
#646=VERTEX_POINT('',#1800);
#647=VERTEX_POINT('',#1802);
#648=VERTEX_POINT('',#1804);
#649=VERTEX_POINT('',#1806);
#650=VERTEX_POINT('',#1808);
#651=VERTEX_POINT('',#1810);
#652=VERTEX_POINT('',#1812);
#653=VERTEX_POINT('',#1814);
#654=VERTEX_POINT('',#1816);
#655=VERTEX_POINT('',#1818);
#656=VERTEX_POINT('',#1820);
#657=VERTEX_POINT('',#1822);
#658=VERTEX_POINT('',#1824);
#659=VERTEX_POINT('',#1826);
#660=VERTEX_POINT('',#1828);
#661=VERTEX_POINT('',#1830);
#662=VERTEX_POINT('',#1834);
#663=VERTEX_POINT('',#1835);
#664=VERTEX_POINT('',#1840);
#665=VERTEX_POINT('',#1842);
#666=VERTEX_POINT('',#1844);
#667=VERTEX_POINT('',#1848);
#668=VERTEX_POINT('',#1849);
#669=VERTEX_POINT('',#1851);
#670=VERTEX_POINT('',#1853);
#671=VERTEX_POINT('',#1856);
#672=VERTEX_POINT('',#1858);
#673=VERTEX_POINT('',#1862);
#674=VERTEX_POINT('',#1864);
#675=VERTEX_POINT('',#1866);
#676=VERTEX_POINT('',#1868);
#677=VERTEX_POINT('',#1871);
#678=VERTEX_POINT('',#1873);
#679=VERTEX_POINT('',#1875);
#680=VERTEX_POINT('',#1878);
#681=VERTEX_POINT('',#1880);
#682=VERTEX_POINT('',#1882);
#683=VERTEX_POINT('',#1884);
#684=VERTEX_POINT('',#1886);
#685=VERTEX_POINT('',#1888);
#686=VERTEX_POINT('',#1890);
#687=VERTEX_POINT('',#1892);
#688=VERTEX_POINT('',#1895);
#689=VERTEX_POINT('',#1898);
#690=VERTEX_POINT('',#1899);
#691=VERTEX_POINT('',#1901);
#692=VERTEX_POINT('',#1903);
#693=VERTEX_POINT('',#1905);
#694=VERTEX_POINT('',#1907);
#695=VERTEX_POINT('',#1909);
#696=VERTEX_POINT('',#1911);
#697=VERTEX_POINT('',#1915);
#698=VERTEX_POINT('',#1917);
#699=VERTEX_POINT('',#1921);
#700=VERTEX_POINT('',#1923);
#701=VERTEX_POINT('',#1927);
#702=VERTEX_POINT('',#1929);
#703=VERTEX_POINT('',#1933);
#704=VERTEX_POINT('',#1935);
#705=VERTEX_POINT('',#1939);
#706=VERTEX_POINT('',#1940);
#707=VERTEX_POINT('',#1942);
#708=VERTEX_POINT('',#1944);
#709=VERTEX_POINT('',#1949);
#710=VERTEX_POINT('',#1950);
#711=VERTEX_POINT('',#1952);
#712=VERTEX_POINT('',#1955);
#713=VERTEX_POINT('',#1959);
#714=VERTEX_POINT('',#1962);
#715=VERTEX_POINT('',#1966);
#716=VERTEX_POINT('',#1968);
#717=VERTEX_POINT('',#1977);
#718=VERTEX_POINT('',#1986);
#719=VERTEX_POINT('',#1988);
#720=VERTEX_POINT('',#1997);
#721=VERTEX_POINT('',#2006);
#722=VERTEX_POINT('',#2008);
#723=VERTEX_POINT('',#2017);
#724=VERTEX_POINT('',#2026);
#725=VERTEX_POINT('',#2028);
#726=VERTEX_POINT('',#2037);
#727=VERTEX_POINT('',#2050);
#728=VERTEX_POINT('',#2054);
#729=VERTEX_POINT('',#2066);
#730=VERTEX_POINT('',#2067);
#731=VERTEX_POINT('',#2069);
#732=VERTEX_POINT('',#2071);
#733=VERTEX_POINT('',#2077);
#734=VERTEX_POINT('',#2078);
#735=VERTEX_POINT('',#2086);
#736=VERTEX_POINT('',#2091);
#737=LINE('',#1746,#873);
#738=LINE('',#1749,#874);
#739=LINE('',#1751,#875);
#740=LINE('',#1753,#876);
#741=LINE('',#1755,#877);
#742=LINE('',#1757,#878);
#743=LINE('',#1759,#879);
#744=LINE('',#1761,#880);
#745=LINE('',#1763,#881);
#746=LINE('',#1765,#882);
#747=LINE('',#1767,#883);
#748=LINE('',#1769,#884);
#749=LINE('',#1771,#885);
#750=LINE('',#1773,#886);
#751=LINE('',#1776,#887);
#752=LINE('',#1778,#888);
#753=LINE('',#1780,#889);
#754=LINE('',#1781,#890);
#755=LINE('',#1786,#891);
#756=LINE('',#1790,#892);
#757=LINE('',#1792,#893);
#758=LINE('',#1793,#894);
#759=LINE('',#1795,#895);
#760=LINE('',#1797,#896);
#761=LINE('',#1801,#897);
#762=LINE('',#1805,#898);
#763=LINE('',#1809,#899);
#764=LINE('',#1813,#900);
#765=LINE('',#1815,#901);
#766=LINE('',#1817,#902);
#767=LINE('',#1819,#903);
#768=LINE('',#1821,#904);
#769=LINE('',#1823,#905);
#770=LINE('',#1825,#906);
#771=LINE('',#1829,#907);
#772=LINE('',#1833,#908);
#773=LINE('',#1836,#909);
#774=LINE('',#1837,#910);
#775=LINE('',#1839,#911);
#776=LINE('',#1841,#912);
#777=LINE('',#1843,#913);
#778=LINE('',#1845,#914);
#779=LINE('',#1847,#915);
#780=LINE('',#1850,#916);
#781=LINE('',#1852,#917);
#782=LINE('',#1854,#918);
#783=LINE('',#1855,#919);
#784=LINE('',#1857,#920);
#785=LINE('',#1859,#921);
#786=LINE('',#1861,#922);
#787=LINE('',#1865,#923);
#788=LINE('',#1869,#924);
#789=LINE('',#1870,#925);
#790=LINE('',#1874,#926);
#791=LINE('',#1879,#927);
#792=LINE('',#1883,#928);
#793=LINE('',#1885,#929);
#794=LINE('',#1887,#930);
#795=LINE('',#1891,#931);
#796=LINE('',#1894,#932);
#797=LINE('',#1896,#933);
#798=LINE('',#1897,#934);
#799=LINE('',#1902,#935);
#800=LINE('',#1906,#936);
#801=LINE('',#1910,#937);
#802=LINE('',#1914,#938);
#803=LINE('',#1918,#939);
#804=LINE('',#1920,#940);
#805=LINE('',#1922,#941);
#806=LINE('',#1924,#942);
#807=LINE('',#1926,#943);
#808=LINE('',#1930,#944);
#809=LINE('',#1932,#945);
#810=LINE('',#1934,#946);
#811=LINE('',#1936,#947);
#812=LINE('',#1938,#948);
#813=LINE('',#1941,#949);
#814=LINE('',#1943,#950);
#815=LINE('',#1945,#951);
#816=LINE('',#1946,#952);
#817=LINE('',#1948,#953);
#818=LINE('',#1951,#954);
#819=LINE('',#1953,#955);
#820=LINE('',#1954,#956);
#821=LINE('',#1956,#957);
#822=LINE('',#1958,#958);
#823=LINE('',#1960,#959);
#824=LINE('',#1961,#960);
#825=LINE('',#1963,#961);
#826=LINE('',#1965,#962);
#827=LINE('',#1967,#963);
#828=LINE('',#1969,#964);
#829=LINE('',#1971,#965);
#830=LINE('',#1973,#966);
#831=LINE('',#1974,#967);
#832=LINE('',#1976,#968);
#833=LINE('',#1978,#969);
#834=LINE('',#1980,#970);
#835=LINE('',#1982,#971);
#836=LINE('',#1985,#972);
#837=LINE('',#1987,#973);
#838=LINE('',#1989,#974);
#839=LINE('',#1991,#975);
#840=LINE('',#1993,#976);
#841=LINE('',#1994,#977);
#842=LINE('',#1996,#978);
#843=LINE('',#1998,#979);
#844=LINE('',#2000,#980);
#845=LINE('',#2002,#981);
#846=LINE('',#2005,#982);
#847=LINE('',#2007,#983);
#848=LINE('',#2009,#984);
#849=LINE('',#2011,#985);
#850=LINE('',#2013,#986);
#851=LINE('',#2014,#987);
#852=LINE('',#2016,#988);
#853=LINE('',#2018,#989);
#854=LINE('',#2020,#990);
#855=LINE('',#2022,#991);
#856=LINE('',#2025,#992);
#857=LINE('',#2027,#993);
#858=LINE('',#2029,#994);
#859=LINE('',#2031,#995);
#860=LINE('',#2033,#996);
#861=LINE('',#2034,#997);
#862=LINE('',#2036,#998);
#863=LINE('',#2038,#999);
#864=LINE('',#2040,#1000);
#865=LINE('',#2042,#1001);
#866=LINE('',#2049,#1002);
#867=LINE('',#2051,#1003);
#868=LINE('',#2053,#1004);
#869=LINE('',#2055,#1005);
#870=LINE('',#2057,#1006);
#871=LINE('',#2065,#1007);
#872=LINE('',#2070,#1008);
#873=VECTOR('',#1392,1.);
#874=VECTOR('',#1393,1.);
#875=VECTOR('',#1394,1.);
#876=VECTOR('',#1395,1.);
#877=VECTOR('',#1396,1.);
#878=VECTOR('',#1397,1.);
#879=VECTOR('',#1400,1.);
#880=VECTOR('',#1401,1.);
#881=VECTOR('',#1402,1.);
#882=VECTOR('',#1403,1.);
#883=VECTOR('',#1404,1.);
#884=VECTOR('',#1405,1.);
#885=VECTOR('',#1406,1.);
#886=VECTOR('',#1409,1.);
#887=VECTOR('',#1410,1.);
#888=VECTOR('',#1411,1.);
#889=VECTOR('',#1412,1.);
#890=VECTOR('',#1413,1.);
#891=VECTOR('',#1416,1.);
#892=VECTOR('',#1419,1.);
#893=VECTOR('',#1420,1.);
#894=VECTOR('',#1421,1.);
#895=VECTOR('',#1422,1.);
#896=VECTOR('',#1423,1.);
#897=VECTOR('',#1426,1.);
#898=VECTOR('',#1429,1.);
#899=VECTOR('',#1432,1.);
#900=VECTOR('',#1435,1.);
#901=VECTOR('',#1436,1.);
#902=VECTOR('',#1437,1.);
#903=VECTOR('',#1438,1.);
#904=VECTOR('',#1439,1.);
#905=VECTOR('',#1440,1.);
#906=VECTOR('',#1441,1.);
#907=VECTOR('',#1444,1.);
#908=VECTOR('',#1449,1.);
#909=VECTOR('',#1450,1.);
#910=VECTOR('',#1451,1.);
#911=VECTOR('',#1454,1.);
#912=VECTOR('',#1455,1.);
#913=VECTOR('',#1456,1.);
#914=VECTOR('',#1457,1.);
#915=VECTOR('',#1460,1.);
#916=VECTOR('',#1461,1.);
#917=VECTOR('',#1462,1.);
#918=VECTOR('',#1463,1.);
#919=VECTOR('',#1464,1.);
#920=VECTOR('',#1465,1.);
#921=VECTOR('',#1466,1.);
#922=VECTOR('',#1469,1.);
#923=VECTOR('',#1472,1.);
#924=VECTOR('',#1475,1.);
#925=VECTOR('',#1476,1.);
#926=VECTOR('',#1479,1.);
#927=VECTOR('',#1484,1.);
#928=VECTOR('',#1487,1.);
#929=VECTOR('',#1488,1.);
#930=VECTOR('',#1489,1.);
#931=VECTOR('',#1492,1.);
#932=VECTOR('',#1495,1.);
#933=VECTOR('',#1496,1.);
#934=VECTOR('',#1497,1.);
#935=VECTOR('',#1500,1.);
#936=VECTOR('',#1503,1.);
#937=VECTOR('',#1506,1.);
#938=VECTOR('',#1511,1.);
#939=VECTOR('',#1514,1.);
#940=VECTOR('',#1517,1.);
#941=VECTOR('',#1518,1.);
#942=VECTOR('',#1519,1.);
#943=VECTOR('',#1522,1.);
#944=VECTOR('',#1525,1.);
#945=VECTOR('',#1528,1.);
#946=VECTOR('',#1529,1.);
#947=VECTOR('',#1530,1.);
#948=VECTOR('',#1533,1.);
#949=VECTOR('',#1534,1.);
#950=VECTOR('',#1535,1.);
#951=VECTOR('',#1536,1.);
#952=VECTOR('',#1537,1.);
#953=VECTOR('',#1540,1.);
#954=VECTOR('',#1541,1.);
#955=VECTOR('',#1542,1.);
#956=VECTOR('',#1543,1.);
#957=VECTOR('',#1544,1.);
#958=VECTOR('',#1547,1.);
#959=VECTOR('',#1548,1.);
#960=VECTOR('',#1549,1.);
#961=VECTOR('',#1550,1.);
#962=VECTOR('',#1553,1.);
#963=VECTOR('',#1554,1.);
#964=VECTOR('',#1555,1.);
#965=VECTOR('',#1558,1.);
#966=VECTOR('',#1561,1.);
#967=VECTOR('',#1562,1.);
#968=VECTOR('',#1565,1.);
#969=VECTOR('',#1566,1.);
#970=VECTOR('',#1569,1.);
#971=VECTOR('',#1572,1.);
#972=VECTOR('',#1577,1.);
#973=VECTOR('',#1578,1.);
#974=VECTOR('',#1579,1.);
#975=VECTOR('',#1582,1.);
#976=VECTOR('',#1585,1.);
#977=VECTOR('',#1586,1.);
#978=VECTOR('',#1589,1.);
#979=VECTOR('',#1590,1.);
#980=VECTOR('',#1593,1.);
#981=VECTOR('',#1596,1.);
#982=VECTOR('',#1601,1.);
#983=VECTOR('',#1602,1.);
#984=VECTOR('',#1603,1.);
#985=VECTOR('',#1606,1.);
#986=VECTOR('',#1609,1.);
#987=VECTOR('',#1610,1.);
#988=VECTOR('',#1613,1.);
#989=VECTOR('',#1614,1.);
#990=VECTOR('',#1617,1.);
#991=VECTOR('',#1620,1.);
#992=VECTOR('',#1625,1.);
#993=VECTOR('',#1626,1.);
#994=VECTOR('',#1627,1.);
#995=VECTOR('',#1630,1.);
#996=VECTOR('',#1633,1.);
#997=VECTOR('',#1634,1.);
#998=VECTOR('',#1637,1.);
#999=VECTOR('',#1638,1.);
#1000=VECTOR('',#1641,1.);
#1001=VECTOR('',#1644,1.);
#1002=VECTOR('',#1657,1.);
#1003=VECTOR('',#1658,1.);
#1004=VECTOR('',#1661,1.);
#1005=VECTOR('',#1662,1.);
#1006=VECTOR('',#1665,1.);
#1007=VECTOR('',#1680,1.);
#1008=VECTOR('',#1683,1.);
#1009=EDGE_LOOP('',(#81,#82,#83,#84,#85,#86));
#1010=EDGE_LOOP('',(#87,#88,#89,#90,#91,#92,#93,#94));
#1011=EDGE_LOOP('',(#95,#96,#97,#98));
#1012=EDGE_LOOP('',(#99,#100,#101,#102,#103,#104,#105,#106,#107,#108,#109,
#110,#111,#112,#113,#114,#115,#116,#117,#118,#119,#120,#121,#122,#123,#124,
#125,#126));
#1013=EDGE_LOOP('',(#127,#128,#129,#130));
#1014=EDGE_LOOP('',(#131,#132,#133,#134,#135,#136));
#1015=EDGE_LOOP('',(#137,#138,#139,#140,#141,#142,#143,#144));
#1016=EDGE_LOOP('',(#145,#146,#147,#148,#149,#150,#151,#152,#153,#154,#155,
#156,#157,#158,#159,#160,#161,#162,#163,#164,#165,#166,#167,#168));
#1017=EDGE_LOOP('',(#169,#170,#171,#172,#173,#174,#175,#176));
#1018=EDGE_LOOP('',(#177,#178,#179,#180));
#1019=EDGE_LOOP('',(#181,#182,#183,#184));
#1020=EDGE_LOOP('',(#185,#186,#187,#188));
#1021=EDGE_LOOP('',(#189,#190,#191,#192));
#1022=EDGE_LOOP('',(#193,#194,#195,#196,#197,#198));
#1023=EDGE_LOOP('',(#199,#200,#201,#202,#203,#204));
#1024=EDGE_LOOP('',(#205,#206,#207,#208,#209,#210,#211,#212));
#1025=EDGE_LOOP('',(#213,#214,#215,#216));
#1026=EDGE_LOOP('',(#217,#218,#219,#220));
#1027=EDGE_LOOP('',(#221,#222,#223,#224));
#1028=EDGE_LOOP('',(#225,#226,#227,#228));
#1029=EDGE_LOOP('',(#229,#230,#231,#232));
#1030=EDGE_LOOP('',(#233,#234,#235,#236,#237,#238,#239,#240));
#1031=EDGE_LOOP('',(#241,#242,#243,#244));
#1032=EDGE_LOOP('',(#245,#246,#247,#248));
#1033=EDGE_LOOP('',(#249,#250,#251,#252));
#1034=EDGE_LOOP('',(#253,#254,#255,#256));
#1035=EDGE_LOOP('',(#257,#258,#259,#260));
#1036=EDGE_LOOP('',(#261,#262,#263,#264));
#1037=EDGE_LOOP('',(#265,#266,#267,#268,#269,#270,#271,#272));
#1038=EDGE_LOOP('',(#273,#274,#275,#276));
#1039=EDGE_LOOP('',(#277,#278,#279,#280));
#1040=EDGE_LOOP('',(#281,#282,#283,#284));
#1041=EDGE_LOOP('',(#285,#286,#287,#288));
#1042=EDGE_LOOP('',(#289,#290,#291,#292));
#1043=EDGE_LOOP('',(#293,#294,#295,#296));
#1044=EDGE_LOOP('',(#297,#298,#299,#300,#301,#302,#303,#304));
#1045=EDGE_LOOP('',(#305,#306,#307,#308));
#1046=EDGE_LOOP('',(#309,#310,#311,#312));
#1047=EDGE_LOOP('',(#313,#314,#315,#316));
#1048=EDGE_LOOP('',(#317,#318,#319,#320));
#1049=EDGE_LOOP('',(#321,#322,#323,#324));
#1050=EDGE_LOOP('',(#325,#326,#327,#328));
#1051=EDGE_LOOP('',(#329,#330,#331,#332,#333,#334,#335,#336));
#1052=EDGE_LOOP('',(#337,#338,#339,#340));
#1053=EDGE_LOOP('',(#341,#342,#343,#344));
#1054=EDGE_LOOP('',(#345,#346,#347,#348));
#1055=EDGE_LOOP('',(#349,#350,#351,#352));
#1056=EDGE_LOOP('',(#353,#354,#355,#356));
#1057=EDGE_LOOP('',(#357,#358,#359,#360));
#1058=EDGE_LOOP('',(#361,#362,#363,#364));
#1059=EDGE_LOOP('',(#365,#366,#367,#368));
#1060=EDGE_LOOP('',(#369,#370,#371,#372));
#1061=EDGE_LOOP('',(#373,#374,#375,#376));
#1062=EDGE_LOOP('',(#377,#378));
#1063=EDGE_LOOP('',(#379,#380));
#1064=EDGE_LOOP('',(#381,#382,#383,#384));
#1065=EDGE_LOOP('',(#385,#386,#387,#388));
#1066=EDGE_LOOP('',(#389,#390));
#1067=EDGE_LOOP('',(#391,#392,#393,#394));
#1068=EDGE_LOOP('',(#395,#396));
#1069=EDGE_LOOP('',(#397,#398,#399,#400));
#1070=EDGE_LOOP('',(#401,#402,#403,#404));
#1071=EDGE_LOOP('',(#405,#406,#407,#408));
#1072=EDGE_LOOP('',(#409,#410,#411,#412));
#1073=EDGE_LOOP('',(#413,#414,#415));
#1074=EDGE_LOOP('',(#416,#417,#418,#419));
#1075=EDGE_LOOP('',(#420,#421,#422,#423));
#1076=EDGE_LOOP('',(#424,#425,#426));
#1077=EDGE_LOOP('',(#427,#428,#429));
#1078=EDGE_LOOP('',(#430,#431,#432,#433));
#1079=EDGE_LOOP('',(#434,#435,#436,#437));
#1080=EDGE_LOOP('',(#438,#439,#440));
#1081=FACE_BOUND('',#1009,.T.);
#1082=FACE_BOUND('',#1010,.T.);
#1083=FACE_BOUND('',#1011,.T.);
#1084=FACE_BOUND('',#1012,.T.);
#1085=FACE_BOUND('',#1013,.T.);
#1086=FACE_BOUND('',#1014,.T.);
#1087=FACE_BOUND('',#1015,.T.);
#1088=FACE_BOUND('',#1016,.T.);
#1089=FACE_BOUND('',#1017,.T.);
#1090=FACE_BOUND('',#1018,.T.);
#1091=FACE_BOUND('',#1019,.T.);
#1092=FACE_BOUND('',#1020,.T.);
#1093=FACE_BOUND('',#1021,.T.);
#1094=FACE_BOUND('',#1022,.T.);
#1095=FACE_BOUND('',#1023,.T.);
#1096=FACE_BOUND('',#1024,.T.);
#1097=FACE_BOUND('',#1025,.T.);
#1098=FACE_BOUND('',#1026,.T.);
#1099=FACE_BOUND('',#1027,.T.);
#1100=FACE_BOUND('',#1028,.T.);
#1101=FACE_BOUND('',#1029,.T.);
#1102=FACE_BOUND('',#1030,.T.);
#1103=FACE_BOUND('',#1031,.T.);
#1104=FACE_BOUND('',#1032,.T.);
#1105=FACE_BOUND('',#1033,.T.);
#1106=FACE_BOUND('',#1034,.T.);
#1107=FACE_BOUND('',#1035,.T.);
#1108=FACE_BOUND('',#1036,.T.);
#1109=FACE_BOUND('',#1037,.T.);
#1110=FACE_BOUND('',#1038,.T.);
#1111=FACE_BOUND('',#1039,.T.);
#1112=FACE_BOUND('',#1040,.T.);
#1113=FACE_BOUND('',#1041,.T.);
#1114=FACE_BOUND('',#1042,.T.);
#1115=FACE_BOUND('',#1043,.T.);
#1116=FACE_BOUND('',#1044,.T.);
#1117=FACE_BOUND('',#1045,.T.);
#1118=FACE_BOUND('',#1046,.T.);
#1119=FACE_BOUND('',#1047,.T.);
#1120=FACE_BOUND('',#1048,.T.);
#1121=FACE_BOUND('',#1049,.T.);
#1122=FACE_BOUND('',#1050,.T.);
#1123=FACE_BOUND('',#1051,.T.);
#1124=FACE_BOUND('',#1052,.T.);
#1125=FACE_BOUND('',#1053,.T.);
#1126=FACE_BOUND('',#1054,.T.);
#1127=FACE_BOUND('',#1055,.T.);
#1128=FACE_BOUND('',#1056,.T.);
#1129=FACE_BOUND('',#1057,.T.);
#1130=FACE_BOUND('',#1058,.T.);
#1131=FACE_BOUND('',#1059,.T.);
#1132=FACE_BOUND('',#1060,.T.);
#1133=FACE_BOUND('',#1061,.T.);
#1134=FACE_BOUND('',#1062,.T.);
#1135=FACE_BOUND('',#1063,.T.);
#1136=FACE_BOUND('',#1064,.T.);
#1137=FACE_BOUND('',#1065,.T.);
#1138=FACE_BOUND('',#1066,.T.);
#1139=FACE_BOUND('',#1067,.T.);
#1140=FACE_BOUND('',#1068,.T.);
#1141=FACE_BOUND('',#1069,.T.);
#1142=FACE_BOUND('',#1070,.T.);
#1143=FACE_BOUND('',#1071,.T.);
#1144=FACE_BOUND('',#1072,.T.);
#1145=FACE_BOUND('',#1073,.T.);
#1146=FACE_BOUND('',#1074,.T.);
#1147=FACE_BOUND('',#1075,.T.);
#1148=FACE_BOUND('',#1076,.T.);
#1149=FACE_BOUND('',#1077,.T.);
#1150=FACE_BOUND('',#1078,.T.);
#1151=FACE_BOUND('',#1079,.T.);
#1152=FACE_BOUND('',#1080,.T.);
#1153=PLANE('',#1279);
#1154=PLANE('',#1280);
#1155=PLANE('',#1281);
#1156=PLANE('',#1290);
#1157=PLANE('',#1291);
#1158=PLANE('',#1292);
#1159=PLANE('',#1293);
#1160=PLANE('',#1306);
#1161=PLANE('',#1308);
#1162=PLANE('',#1309);
#1163=PLANE('',#1311);
#1164=PLANE('',#1312);
#1165=PLANE('',#1313);
#1166=PLANE('',#1314);
#1167=PLANE('',#1315);
#1168=PLANE('',#1316);
#1169=PLANE('',#1317);
#1170=PLANE('',#1318);
#1171=PLANE('',#1319);
#1172=PLANE('',#1320);
#1173=PLANE('',#1322);
#1174=PLANE('',#1323);
#1175=PLANE('',#1324);
#1176=PLANE('',#1325);
#1177=PLANE('',#1326);
#1178=PLANE('',#1327);
#1179=PLANE('',#1329);
#1180=PLANE('',#1330);
#1181=PLANE('',#1331);
#1182=PLANE('',#1332);
#1183=PLANE('',#1333);
#1184=PLANE('',#1334);
#1185=PLANE('',#1336);
#1186=PLANE('',#1337);
#1187=PLANE('',#1338);
#1188=PLANE('',#1339);
#1189=PLANE('',#1340);
#1190=PLANE('',#1341);
#1191=PLANE('',#1347);
#1192=PLANE('',#1348);
#1193=PLANE('',#1349);
#1194=PLANE('',#1350);
#1195=PLANE('',#1354);
#1196=PLANE('',#1355);
#1197=ADVANCED_FACE('',(#1081),#1153,.T.);
#1198=ADVANCED_FACE('',(#1082),#1154,.F.);
#1199=ADVANCED_FACE('',(#1083,#1084),#1155,.T.);
#1200=ADVANCED_FACE('',(#1085),#1156,.T.);
#1201=ADVANCED_FACE('',(#1086),#1157,.F.);
#1202=ADVANCED_FACE('',(#1087),#1158,.F.);
#1203=ADVANCED_FACE('',(#1088,#1089),#1159,.T.);
#1204=ADVANCED_FACE('',(#1090),#1160,.T.);
#1205=ADVANCED_FACE('',(#1091),#1161,.F.);
#1206=ADVANCED_FACE('',(#1092),#1162,.F.);
#1207=ADVANCED_FACE('',(#1093),#1163,.T.);
#1208=ADVANCED_FACE('',(#1094),#1164,.T.);
#1209=ADVANCED_FACE('',(#1095),#1165,.F.);
#1210=ADVANCED_FACE('',(#1096),#1166,.T.);
#1211=ADVANCED_FACE('',(#1097),#1167,.T.);
#1212=ADVANCED_FACE('',(#1098),#1168,.T.);
#1213=ADVANCED_FACE('',(#1099),#1169,.F.);
#1214=ADVANCED_FACE('',(#1100),#1170,.T.);
#1215=ADVANCED_FACE('',(#1101),#1171,.T.);
#1216=ADVANCED_FACE('',(#1102),#1172,.T.);
#1217=ADVANCED_FACE('',(#1103),#24,.T.);
#1218=ADVANCED_FACE('',(#1104),#1173,.T.);
#1219=ADVANCED_FACE('',(#1105),#1174,.T.);
#1220=ADVANCED_FACE('',(#1106),#1175,.F.);
#1221=ADVANCED_FACE('',(#1107),#1176,.T.);
#1222=ADVANCED_FACE('',(#1108),#1177,.T.);
#1223=ADVANCED_FACE('',(#1109),#1178,.T.);
#1224=ADVANCED_FACE('',(#1110),#25,.T.);
#1225=ADVANCED_FACE('',(#1111),#1179,.T.);
#1226=ADVANCED_FACE('',(#1112),#1180,.T.);
#1227=ADVANCED_FACE('',(#1113),#1181,.F.);
#1228=ADVANCED_FACE('',(#1114),#1182,.T.);
#1229=ADVANCED_FACE('',(#1115),#1183,.T.);
#1230=ADVANCED_FACE('',(#1116),#1184,.T.);
#1231=ADVANCED_FACE('',(#1117),#26,.T.);
#1232=ADVANCED_FACE('',(#1118),#1185,.T.);
#1233=ADVANCED_FACE('',(#1119),#1186,.T.);
#1234=ADVANCED_FACE('',(#1120),#1187,.F.);
#1235=ADVANCED_FACE('',(#1121),#1188,.T.);
#1236=ADVANCED_FACE('',(#1122),#1189,.T.);
#1237=ADVANCED_FACE('',(#1123),#1190,.T.);
#1238=ADVANCED_FACE('',(#1124),#27,.T.);
#1239=ADVANCED_FACE('',(#1125),#28,.F.);
#1240=ADVANCED_FACE('',(#1126),#29,.F.);
#1241=ADVANCED_FACE('',(#1127),#30,.F.);
#1242=ADVANCED_FACE('',(#1128),#31,.F.);
#1243=ADVANCED_FACE('',(#1129),#1191,.F.);
#1244=ADVANCED_FACE('',(#1130),#1192,.F.);
#1245=ADVANCED_FACE('',(#1131),#1193,.T.);
#1246=ADVANCED_FACE('',(#1132),#1194,.T.);
#1247=ADVANCED_FACE('',(#1133),#32,.T.);
#1248=ADVANCED_FACE('',(#1134),#1195,.T.);
#1249=ADVANCED_FACE('',(#1135),#1196,.F.);
#1250=ADVANCED_FACE('',(#1136,#1137),#33,.F.);
#1251=ADVANCED_FACE('',(#1138),#14,.T.);
#1252=ADVANCED_FACE('',(#1139),#34,.T.);
#1253=ADVANCED_FACE('',(#1140),#15,.T.);
#1254=ADVANCED_FACE('',(#1141),#35,.T.);
#1255=ADVANCED_FACE('',(#1142),#36,.T.);
#1256=ADVANCED_FACE('',(#1143),#37,.T.);
#1257=ADVANCED_FACE('',(#1144),#38,.T.);
#1258=ADVANCED_FACE('',(#1145),#16,.T.);
#1259=ADVANCED_FACE('',(#1146),#39,.T.);
#1260=ADVANCED_FACE('',(#1147),#12,.T.);
#1261=ADVANCED_FACE('',(#1148),#17,.T.);
#1262=ADVANCED_FACE('',(#1149),#18,.T.);
#1263=ADVANCED_FACE('',(#1150),#13,.T.);
#1264=ADVANCED_FACE('',(#1151),#40,.T.);
#1265=ADVANCED_FACE('',(#1152),#19,.T.);
#1266=CLOSED_SHELL('',(#1197,#1198,#1199,#1200,#1201,#1202,#1203,#1204,
#1205,#1206,#1207,#1208,#1209,#1210,#1211,#1212,#1213,#1214,#1215,#1216,
#1217,#1218,#1219,#1220,#1221,#1222,#1223,#1224,#1225,#1226,#1227,#1228,
#1229,#1230,#1231,#1232,#1233,#1234,#1235,#1236,#1237,#1238,#1239,#1240,
#1241,#1242,#1243,#1244,#1245,#1246,#1247,#1248,#1249,#1250,#1251,#1252,
#1253,#1254,#1255,#1256,#1257,#1258,#1259,#1260,#1261,#1262,#1263,#1264,
#1265));
#1267=STYLED_ITEM('',(#1268),#1275);
#1268=PRESENTATION_STYLE_ASSIGNMENT((#1269));
#1269=SURFACE_STYLE_USAGE(.BOTH.,#1270);
#1270=SURFACE_SIDE_STYLE('',(#1271));
#1271=SURFACE_STYLE_FILL_AREA(#1272);
#1272=FILL_AREA_STYLE('',(#1273));
#1273=FILL_AREA_STYLE_COLOUR('',#1274);
#1274=COLOUR_RGB('',0.615686274509804,0.811764705882353,0.929411764705882);
#1275=MANIFOLD_SOLID_BREP('Keycap',#1266);
#1276=SHAPE_DEFINITION_REPRESENTATION(#2134,#1277);
#1277=SHAPE_REPRESENTATION('Keycap',(#1278),#2129);
#1278=AXIS2_PLACEMENT_3D('',#1744,#1388,#1389);
#1279=AXIS2_PLACEMENT_3D('',#1745,#1390,#1391);
#1280=AXIS2_PLACEMENT_3D('',#1758,#1398,#1399);
#1281=AXIS2_PLACEMENT_3D('',#1772,#1407,#1408);
#1282=AXIS2_PLACEMENT_3D('',#1784,#1414,#1415);
#1283=AXIS2_PLACEMENT_3D('',#1788,#1417,#1418);
#1284=AXIS2_PLACEMENT_3D('',#1799,#1424,#1425);
#1285=AXIS2_PLACEMENT_3D('',#1803,#1427,#1428);
#1286=AXIS2_PLACEMENT_3D('',#1807,#1430,#1431);
#1287=AXIS2_PLACEMENT_3D('',#1811,#1433,#1434);
#1288=AXIS2_PLACEMENT_3D('',#1827,#1442,#1443);
#1289=AXIS2_PLACEMENT_3D('',#1831,#1445,#1446);
#1290=AXIS2_PLACEMENT_3D('',#1832,#1447,#1448);
#1291=AXIS2_PLACEMENT_3D('',#1838,#1452,#1453);
#1292=AXIS2_PLACEMENT_3D('',#1846,#1458,#1459);
#1293=AXIS2_PLACEMENT_3D('',#1860,#1467,#1468);
#1294=AXIS2_PLACEMENT_3D('',#1863,#1470,#1471);
#1295=AXIS2_PLACEMENT_3D('',#1867,#1473,#1474);
#1296=AXIS2_PLACEMENT_3D('',#1872,#1477,#1478);
#1297=AXIS2_PLACEMENT_3D('',#1876,#1480,#1481);
#1298=AXIS2_PLACEMENT_3D('',#1877,#1482,#1483);
#1299=AXIS2_PLACEMENT_3D('',#1881,#1485,#1486);
#1300=AXIS2_PLACEMENT_3D('',#1889,#1490,#1491);
#1301=AXIS2_PLACEMENT_3D('',#1893,#1493,#1494);
#1302=AXIS2_PLACEMENT_3D('',#1900,#1498,#1499);
#1303=AXIS2_PLACEMENT_3D('',#1904,#1501,#1502);
#1304=AXIS2_PLACEMENT_3D('',#1908,#1504,#1505);
#1305=AXIS2_PLACEMENT_3D('',#1912,#1507,#1508);
#1306=AXIS2_PLACEMENT_3D('',#1913,#1509,#1510);
#1307=AXIS2_PLACEMENT_3D('',#1916,#1512,#1513);
#1308=AXIS2_PLACEMENT_3D('',#1919,#1515,#1516);
#1309=AXIS2_PLACEMENT_3D('',#1925,#1520,#1521);
#1310=AXIS2_PLACEMENT_3D('',#1928,#1523,#1524);
#1311=AXIS2_PLACEMENT_3D('',#1931,#1526,#1527);
#1312=AXIS2_PLACEMENT_3D('',#1937,#1531,#1532);
#1313=AXIS2_PLACEMENT_3D('',#1947,#1538,#1539);
#1314=AXIS2_PLACEMENT_3D('',#1957,#1545,#1546);
#1315=AXIS2_PLACEMENT_3D('',#1964,#1551,#1552);
#1316=AXIS2_PLACEMENT_3D('',#1970,#1556,#1557);
#1317=AXIS2_PLACEMENT_3D('',#1972,#1559,#1560);
#1318=AXIS2_PLACEMENT_3D('',#1975,#1563,#1564);
#1319=AXIS2_PLACEMENT_3D('',#1979,#1567,#1568);
#1320=AXIS2_PLACEMENT_3D('',#1981,#1570,#1571);
#1321=AXIS2_PLACEMENT_3D('',#1983,#1573,#1574);
#1322=AXIS2_PLACEMENT_3D('',#1984,#1575,#1576);
#1323=AXIS2_PLACEMENT_3D('',#1990,#1580,#1581);
#1324=AXIS2_PLACEMENT_3D('',#1992,#1583,#1584);
#1325=AXIS2_PLACEMENT_3D('',#1995,#1587,#1588);
#1326=AXIS2_PLACEMENT_3D('',#1999,#1591,#1592);
#1327=AXIS2_PLACEMENT_3D('',#2001,#1594,#1595);
#1328=AXIS2_PLACEMENT_3D('',#2003,#1597,#1598);
#1329=AXIS2_PLACEMENT_3D('',#2004,#1599,#1600);
#1330=AXIS2_PLACEMENT_3D('',#2010,#1604,#1605);
#1331=AXIS2_PLACEMENT_3D('',#2012,#1607,#1608);
#1332=AXIS2_PLACEMENT_3D('',#2015,#1611,#1612);
#1333=AXIS2_PLACEMENT_3D('',#2019,#1615,#1616);
#1334=AXIS2_PLACEMENT_3D('',#2021,#1618,#1619);
#1335=AXIS2_PLACEMENT_3D('',#2023,#1621,#1622);
#1336=AXIS2_PLACEMENT_3D('',#2024,#1623,#1624);
#1337=AXIS2_PLACEMENT_3D('',#2030,#1628,#1629);
#1338=AXIS2_PLACEMENT_3D('',#2032,#1631,#1632);
#1339=AXIS2_PLACEMENT_3D('',#2035,#1635,#1636);
#1340=AXIS2_PLACEMENT_3D('',#2039,#1639,#1640);
#1341=AXIS2_PLACEMENT_3D('',#2041,#1642,#1643);
#1342=AXIS2_PLACEMENT_3D('',#2043,#1645,#1646);
#1343=AXIS2_PLACEMENT_3D('',#2044,#1647,#1648);
#1344=AXIS2_PLACEMENT_3D('',#2045,#1649,#1650);
#1345=AXIS2_PLACEMENT_3D('',#2046,#1651,#1652);
#1346=AXIS2_PLACEMENT_3D('',#2047,#1653,#1654);
#1347=AXIS2_PLACEMENT_3D('',#2048,#1655,#1656);
#1348=AXIS2_PLACEMENT_3D('',#2052,#1659,#1660);
#1349=AXIS2_PLACEMENT_3D('',#2056,#1663,#1664);
#1350=AXIS2_PLACEMENT_3D('',#2058,#1666,#1667);
#1351=AXIS2_PLACEMENT_3D('',#2059,#1668,#1669);
#1352=AXIS2_PLACEMENT_3D('',#2060,#1670,#1671);
#1353=AXIS2_PLACEMENT_3D('',#2061,#1672,#1673);
#1354=AXIS2_PLACEMENT_3D('',#2062,#1674,#1675);
#1355=AXIS2_PLACEMENT_3D('',#2063,#1676,#1677);
#1356=AXIS2_PLACEMENT_3D('',#2064,#1678,#1679);
#1357=AXIS2_PLACEMENT_3D('',#2068,#1681,#1682);
#1358=AXIS2_PLACEMENT_3D('',#2072,#1684,#1685);
#1359=AXIS2_PLACEMENT_3D('',#2099,#1686,#1687);
#1360=AXIS2_PLACEMENT_3D('',#2100,#1688,#1689);
#1361=AXIS2_PLACEMENT_3D('',#2101,#1690,#1691);
#1362=AXIS2_PLACEMENT_3D('',#2102,#1692,#1693);
#1363=AXIS2_PLACEMENT_3D('',#2103,#1694,#1695);
#1364=AXIS2_PLACEMENT_3D('',#2104,#1696,#1697);
#1365=AXIS2_PLACEMENT_3D('',#2105,#1698,#1699);
#1366=AXIS2_PLACEMENT_3D('',#2106,#1700,#1701);
#1367=AXIS2_PLACEMENT_3D('',#2107,#1702,#1703);
#1368=AXIS2_PLACEMENT_3D('',#2108,#1704,#1705);
#1369=AXIS2_PLACEMENT_3D('',#2109,#1706,#1707);
#1370=AXIS2_PLACEMENT_3D('',#2110,#1708,#1709);
#1371=AXIS2_PLACEMENT_3D('',#2111,#1710,#1711);
#1372=AXIS2_PLACEMENT_3D('',#2112,#1712,#1713);
#1373=AXIS2_PLACEMENT_3D('',#2113,#1714,#1715);
#1374=AXIS2_PLACEMENT_3D('',#2114,#1716,#1717);
#1375=AXIS2_PLACEMENT_3D('',#2115,#1718,#1719);
#1376=AXIS2_PLACEMENT_3D('',#2116,#1720,#1721);
#1377=AXIS2_PLACEMENT_3D('',#2117,#1722,#1723);
#1378=AXIS2_PLACEMENT_3D('',#2118,#1724,#1725);
#1379=AXIS2_PLACEMENT_3D('',#2119,#1726,#1727);
#1380=AXIS2_PLACEMENT_3D('',#2120,#1728,#1729);
#1381=AXIS2_PLACEMENT_3D('',#2121,#1730,#1731);
#1382=AXIS2_PLACEMENT_3D('',#2122,#1732,#1733);
#1383=AXIS2_PLACEMENT_3D('',#2123,#1734,#1735);
#1384=AXIS2_PLACEMENT_3D('',#2124,#1736,#1737);
#1385=AXIS2_PLACEMENT_3D('',#2125,#1738,#1739);
#1386=AXIS2_PLACEMENT_3D('',#2126,#1740,#1741);
#1387=AXIS2_PLACEMENT_3D('',#2127,#1742,#1743);
#1388=DIRECTION('',(0.,0.,1.));
#1389=DIRECTION('',(1.,0.,0.));
#1390=DIRECTION('',(1.252507924893E-16,-1.,0.));
#1391=DIRECTION('',(1.,1.252507924893E-16,0.));
#1392=DIRECTION('',(-0.99026806874157,-1.2403186038673E-16,0.139173100960065));
#1393=DIRECTION('',(-1.,-1.252507924893E-16,0.));
#1394=DIRECTION('',(0.,0.,1.));
#1395=DIRECTION('',(1.,1.252507924893E-16,0.));
#1396=DIRECTION('',(0.,0.,1.));
#1397=DIRECTION('',(-0.601815023152049,-7.53778085817606E-17,0.798635510047293));
#1398=DIRECTION('',(-1.,0.,0.));
#1399=DIRECTION('',(0.,0.,1.));
#1400=DIRECTION('',(-1.24564655542837E-16,0.994521895368273,-0.104528463267653));
#1401=DIRECTION('',(0.,0.,1.));
#1402=DIRECTION('',(0.,-1.,0.));
#1403=DIRECTION('',(0.,0.,1.));
#1404=DIRECTION('',(-1.24564655542837E-16,-0.994521895368273,-0.104528463267653));
#1405=DIRECTION('',(0.,0.,1.));
#1406=DIRECTION('',(0.,-1.,0.));
#1407=DIRECTION('',(0.,0.,1.));
#1408=DIRECTION('',(1.,0.,0.));
#1409=DIRECTION('',(0.,1.,0.));
#1410=DIRECTION('',(1.,0.,0.));
#1411=DIRECTION('',(0.,1.,0.));
#1412=DIRECTION('',(1.,0.,0.));
#1413=DIRECTION('',(1.,1.252507924893E-16,0.));
#1414=DIRECTION('',(0.,0.,1.));
#1415=DIRECTION('',(-1.,-1.252507924893E-16,0.));
#1416=DIRECTION('',(-1.252507924893E-16,1.,0.));
#1417=DIRECTION('',(0.,0.,-1.));
#1418=DIRECTION('',(1.,1.252507924893E-16,0.));
#1419=DIRECTION('',(-1.,-1.252507924893E-16,0.));
#1420=DIRECTION('',(0.104528463267654,-0.994521895368273,0.));
#1421=DIRECTION('',(1.,1.252507924893E-16,0.));
#1422=DIRECTION('',(0.104528463267654,0.994521895368273,0.));
#1423=DIRECTION('',(-1.,1.252507924893E-16,0.));
#1424=DIRECTION('',(0.,0.,1.));
#1425=DIRECTION('',(1.,-1.252507924893E-16,0.));
#1426=DIRECTION('',(-1.252507924893E-16,-1.,0.));
#1427=DIRECTION('',(0.,0.,1.));
#1428=DIRECTION('',(1.,1.252507924893E-16,0.));
#1429=DIRECTION('',(1.,1.252507924893E-16,0.));
#1430=DIRECTION('',(0.,0.,1.));
#1431=DIRECTION('',(-1.,-1.252507924893E-16,0.));
#1432=DIRECTION('',(1.252507924893E-16,-1.,0.));
#1433=DIRECTION('',(0.,0.,-1.));
#1434=DIRECTION('',(-1.,-1.252507924893E-16,0.));
#1435=DIRECTION('',(1.,1.252507924893E-16,0.));
#1436=DIRECTION('',(-0.104528463267654,0.994521895368273,0.));
#1437=DIRECTION('',(1.,1.252507924893E-16,0.));
#1438=DIRECTION('',(0.,-1.,0.));
#1439=DIRECTION('',(1.,1.252507924893E-16,0.));
#1440=DIRECTION('',(-0.104528463267654,-0.994521895368273,0.));
#1441=DIRECTION('',(1.,-1.252507924893E-16,0.));
#1442=DIRECTION('',(0.,0.,1.));
#1443=DIRECTION('',(-1.,1.252507924893E-16,0.));
#1444=DIRECTION('',(1.252507924893E-16,1.,0.));
#1445=DIRECTION('',(0.,0.,1.));
#1446=DIRECTION('',(1.,1.252507924893E-16,0.));
#1447=DIRECTION('',(1.252507924893E-16,-1.,0.));
#1448=DIRECTION('',(1.,1.252507924893E-16,0.));
#1449=DIRECTION('',(1.,1.252507924893E-16,0.));
#1450=DIRECTION('',(-0.5,-6.262539624465E-17,0.866025403784439));
#1451=DIRECTION('',(0.5,6.262539624465E-17,0.866025403784439));
#1452=DIRECTION('',(1.252507924893E-16,-1.,0.));
#1453=DIRECTION('',(1.,1.252507924893E-16,0.));
#1454=DIRECTION('',(-1.,1.252507924893E-16,0.));
#1455=DIRECTION('',(-0.99026806874157,1.2403186038673E-16,0.139173100960065));
#1456=DIRECTION('',(-0.601815023152049,7.53778085817606E-17,0.798635510047293));
#1457=DIRECTION('',(0.,0.,1.));
#1458=DIRECTION('',(1.252507924893E-16,-1.,0.));
#1459=DIRECTION('',(1.,1.252507924893E-16,0.));
#1460=DIRECTION('',(1.,1.252507924893E-16,0.));
#1461=DIRECTION('',(0.,0.,1.));
#1462=DIRECTION('',(1.,1.252507924893E-16,0.));
#1463=DIRECTION('',(0.5,6.262539624465E-17,0.866025403784439));
#1464=DIRECTION('',(-0.5,-6.262539624465E-17,0.866025403784439));
#1465=DIRECTION('',(1.,1.252507924893E-16,0.));
#1466=DIRECTION('',(0.,0.,1.));
#1467=DIRECTION('',(0.,0.,1.));
#1468=DIRECTION('',(1.,0.,0.));
#1469=DIRECTION('',(0.,-1.,0.));
#1470=DIRECTION('',(0.,0.,1.));
#1471=DIRECTION('',(1.,1.252507924893E-16,0.));
#1472=DIRECTION('',(-1.252507924893E-16,-1.,0.));
#1473=DIRECTION('',(0.,0.,1.));
#1474=DIRECTION('',(1.,-1.252507924893E-16,0.));
#1475=DIRECTION('',(-1.,1.252507924893E-16,0.));
#1476=DIRECTION('',(-1.,-1.252507924893E-16,0.));
#1477=DIRECTION('',(0.,0.,-1.));
#1478=DIRECTION('',(1.,1.252507924893E-16,0.));
#1479=DIRECTION('',(-1.252507924893E-16,1.,0.));
#1480=DIRECTION('',(0.,0.,1.));
#1481=DIRECTION('',(-1.,-1.252507924893E-16,0.));
#1482=DIRECTION('',(0.,0.,1.));
#1483=DIRECTION('',(1.,1.252507924893E-16,0.));
#1484=DIRECTION('',(1.252507924893E-16,1.,0.));
#1485=DIRECTION('',(0.,0.,1.));
#1486=DIRECTION('',(-1.,1.252507924893E-16,0.));
#1487=DIRECTION('',(1.,-1.252507924893E-16,0.));
#1488=DIRECTION('',(0.,-1.,0.));
#1489=DIRECTION('',(1.,1.252507924893E-16,0.));
#1490=DIRECTION('',(0.,0.,-1.));
#1491=DIRECTION('',(-1.,-1.252507924893E-16,0.));
#1492=DIRECTION('',(1.252507924893E-16,-1.,0.));
#1493=DIRECTION('',(0.,0.,1.));
#1494=DIRECTION('',(-1.,-1.252507924893E-16,0.));
#1495=DIRECTION('',(0.,-1.,0.));
#1496=DIRECTION('',(1.,0.,0.));
#1497=DIRECTION('',(0.,-1.,0.));
#1498=DIRECTION('',(0.,0.,1.));
#1499=DIRECTION('',(1.,0.,0.));
#1500=DIRECTION('',(1.,0.,0.));
#1501=DIRECTION('',(0.,0.,1.));
#1502=DIRECTION('',(1.,0.,0.));
#1503=DIRECTION('',(0.,-1.,0.));
#1504=DIRECTION('',(0.,0.,1.));
#1505=DIRECTION('',(1.,0.,0.));
#1506=DIRECTION('',(1.,0.,0.));
#1507=DIRECTION('',(0.,0.,1.));
#1508=DIRECTION('',(1.,0.,0.));
#1509=DIRECTION('',(0.,1.,0.));
#1510=DIRECTION('',(0.,0.,1.));
#1511=DIRECTION('',(0.,0.,-1.));
#1512=DIRECTION('',(0.,1.,0.));
#1513=DIRECTION('',(0.,0.,1.));
#1514=DIRECTION('',(0.,0.,-1.));
#1515=DIRECTION('',(1.,0.,0.));
#1516=DIRECTION('',(0.,0.,-1.));
#1517=DIRECTION('',(0.,0.,-1.));
#1518=DIRECTION('',(0.,-1.,0.));
#1519=DIRECTION('',(0.,0.,-1.));
#1520=DIRECTION('',(0.,1.,0.));
#1521=DIRECTION('',(0.,0.,1.));
#1522=DIRECTION('',(0.,0.,-1.));
#1523=DIRECTION('',(0.,1.,0.));
#1524=DIRECTION('',(0.,0.,1.));
#1525=DIRECTION('',(0.,0.,-1.));
#1526=DIRECTION('',(1.,0.,0.));
#1527=DIRECTION('',(0.,0.,-1.));
#1528=DIRECTION('',(0.,0.,-1.));
#1529=DIRECTION('',(0.,1.,0.));
#1530=DIRECTION('',(0.,0.,-1.));
#1531=DIRECTION('',(1.252507924893E-16,-1.,0.));
#1532=DIRECTION('',(1.,1.252507924893E-16,0.));
#1533=DIRECTION('',(1.,-1.252507924893E-16,0.));
#1534=DIRECTION('',(0.99026806874157,-1.2403186038673E-16,0.139173100960065));
#1535=DIRECTION('',(0.601815023152049,-7.53778085817606E-17,0.798635510047293));
#1536=DIRECTION('',(0.,0.,1.));
#1537=DIRECTION('',(0.,0.,1.));
#1538=DIRECTION('',(1.252507924893E-16,-1.,0.));
#1539=DIRECTION('',(1.,1.252507924893E-16,0.));
#1540=DIRECTION('',(0.99026806874157,1.2403186038673E-16,0.139173100960065));
#1541=DIRECTION('',(1.,1.252507924893E-16,0.));
#1542=DIRECTION('',(0.,0.,1.));
#1543=DIRECTION('',(0.,0.,1.));
#1544=DIRECTION('',(0.601815023152049,7.53778085817606E-17,0.798635510047293));
#1545=DIRECTION('',(-1.,0.,0.));
#1546=DIRECTION('',(0.,0.,1.));
#1547=DIRECTION('',(0.,0.,1.));
#1548=DIRECTION('',(1.24564655542837E-16,0.994521895368273,-0.104528463267653));
#1549=DIRECTION('',(1.24564655542837E-16,-0.994521895368273,-0.104528463267653));
#1550=DIRECTION('',(0.,0.,1.));
#1551=DIRECTION('',(0.794260501160641,0.104528463267654,-0.598518217486277));
#1552=DIRECTION('',(-0.601815023152049,0.,-0.798635510047293));
#1553=DIRECTION('',(0.104464590576414,-0.993914187305151,-0.0349533630605686));
#1554=DIRECTION('',(0.601815023152049,7.53778085817606E-17,0.798635510047293));
#1555=DIRECTION('',(-0.0573695446117667,0.993591018949577,0.0973941600599289));
#1556=DIRECTION('',(0.994521895368273,0.104528463267654,0.));
#1557=DIRECTION('',(-0.104528463267654,0.994521895368273,0.));
#1558=DIRECTION('',(0.,0.,1.));
#1559=DIRECTION('',(0.866025403784439,1.08470368139867E-16,-0.5));
#1560=DIRECTION('',(-0.5,0.,-0.866025403784439));
#1561=DIRECTION('',(0.5,6.26253962446501E-17,0.866025403784439));
#1562=DIRECTION('',(0.5,6.26253962446501E-17,0.866025403784439));
#1563=DIRECTION('',(-1.30922728619623E-17,0.104528463267653,-0.994521895368273));
#1564=DIRECTION('',(0.,0.994521895368273,0.104528463267653));
#1565=DIRECTION('',(0.0073091469452605,-0.994495329529039,-0.104525671085436));
#1566=DIRECTION('',(1.,1.252507924893E-16,0.));
#1567=DIRECTION('',(0.138410696151084,0.104528463267653,-0.984843276647546));
#1568=DIRECTION('',(-0.99026806874157,0.,-0.139173100960065));
#1569=DIRECTION('',(0.99026806874157,1.2403186038673E-16,0.139173100960065));
#1570=DIRECTION('',(-1.252507924893E-16,1.,0.));
#1571=DIRECTION('',(-1.,-1.252507924893E-16,0.));
#1572=DIRECTION('',(0.5,6.262539624465E-17,0.866025403784439));
#1573=DIRECTION('',(-0.5,-6.262539624465E-17,-0.866025403784439));
#1574=DIRECTION('',(-0.866025403784439,0.,0.5));
#1575=DIRECTION('',(-0.794260501160641,0.104528463267654,-0.598518217486277));
#1576=DIRECTION('',(0.601815023152049,0.,-0.798635510047293));
#1577=DIRECTION('',(0.0573695446117667,0.993591018949577,0.0973941600599289));
#1578=DIRECTION('',(-0.601815023152049,7.53778085817606E-17,0.798635510047293));
#1579=DIRECTION('',(-0.104464590576414,-0.993914187305151,-0.0349533630605686));
#1580=DIRECTION('',(-0.994521895368273,0.104528463267654,0.));
#1581=DIRECTION('',(0.104528463267654,0.994521895368273,0.));
#1582=DIRECTION('',(0.,0.,1.));
#1583=DIRECTION('',(-0.866025403784439,1.08470368139867E-16,-0.5));
#1584=DIRECTION('',(0.5,0.,-0.866025403784439));
#1585=DIRECTION('',(-0.5,-6.26253962446501E-17,0.866025403784439));
#1586=DIRECTION('',(-0.5,6.26253962446501E-17,0.866025403784439));
#1587=DIRECTION('',(1.30922728619623E-17,0.104528463267653,-0.994521895368273));
#1588=DIRECTION('',(0.,0.994521895368273,0.104528463267653));
#1589=DIRECTION('',(-1.,1.252507924893E-16,0.));
#1590=DIRECTION('',(-0.0073091469452605,-0.994495329529039,-0.104525671085436));
#1591=DIRECTION('',(-0.138410696151084,0.104528463267653,-0.984843276647546));
#1592=DIRECTION('',(0.99026806874157,0.,-0.139173100960065));
#1593=DIRECTION('',(-0.99026806874157,1.2403186038673E-16,0.139173100960065));
#1594=DIRECTION('',(1.252507924893E-16,1.,0.));
#1595=DIRECTION('',(1.,-1.252507924893E-16,0.));
#1596=DIRECTION('',(-0.5,6.262539624465E-17,0.866025403784439));
#1597=DIRECTION('',(0.5,-6.262539624465E-17,-0.866025403784439));
#1598=DIRECTION('',(0.866025403784439,0.,0.5));
#1599=DIRECTION('',(0.794260501160641,-0.104528463267654,-0.598518217486277));
#1600=DIRECTION('',(-0.601815023152049,0.,-0.798635510047293));
#1601=DIRECTION('',(-0.0573695446117667,-0.993591018949577,0.0973941600599289));
#1602=DIRECTION('',(0.601815023152049,-7.53778085817606E-17,0.798635510047293));
#1603=DIRECTION('',(0.104464590576414,0.993914187305151,-0.0349533630605686));
#1604=DIRECTION('',(0.994521895368273,-0.104528463267654,0.));
#1605=DIRECTION('',(-0.104528463267654,-0.994521895368273,0.));
#1606=DIRECTION('',(0.,0.,1.));
#1607=DIRECTION('',(0.866025403784439,-1.08470368139867E-16,-0.5));
#1608=DIRECTION('',(-0.5,0.,-0.866025403784439));
#1609=DIRECTION('',(0.5,6.26253962446501E-17,0.866025403784439));
#1610=DIRECTION('',(0.5,-6.26253962446501E-17,0.866025403784439));
#1611=DIRECTION('',(-1.30922728619623E-17,-0.104528463267653,-0.994521895368273));
#1612=DIRECTION('',(0.,-0.994521895368273,0.104528463267653));
#1613=DIRECTION('',(1.,-1.252507924893E-16,0.));
#1614=DIRECTION('',(0.0073091469452605,0.994495329529039,-0.104525671085436));
#1615=DIRECTION('',(0.138410696151084,-0.104528463267653,-0.984843276647546));
#1616=DIRECTION('',(-0.99026806874157,0.,-0.139173100960065));
#1617=DIRECTION('',(0.99026806874157,-1.2403186038673E-16,0.139173100960065));
#1618=DIRECTION('',(-1.252507924893E-16,-1.,0.));
#1619=DIRECTION('',(-1.,1.252507924893E-16,0.));
#1620=DIRECTION('',(0.5,-6.262539624465E-17,0.866025403784439));
#1621=DIRECTION('',(-0.5,6.262539624465E-17,-0.866025403784439));
#1622=DIRECTION('',(-0.866025403784439,0.,0.5));
#1623=DIRECTION('',(-0.794260501160641,-0.104528463267654,-0.598518217486277));
#1624=DIRECTION('',(0.601815023152049,0.,-0.798635510047293));
#1625=DIRECTION('',(-0.104464590576414,0.993914187305151,-0.0349533630605686));
#1626=DIRECTION('',(-0.601815023152049,-7.53778085817606E-17,0.798635510047293));
#1627=DIRECTION('',(0.0573695446117667,-0.993591018949577,0.0973941600599289));
#1628=DIRECTION('',(-0.994521895368273,-0.104528463267654,0.));
#1629=DIRECTION('',(0.104528463267654,-0.994521895368273,0.));
#1630=DIRECTION('',(0.,0.,1.));
#1631=DIRECTION('',(-0.866025403784439,-1.08470368139867E-16,-0.5));
#1632=DIRECTION('',(0.5,0.,-0.866025403784439));
#1633=DIRECTION('',(-0.5,-6.26253962446501E-17,0.866025403784439));
#1634=DIRECTION('',(-0.5,-6.26253962446501E-17,0.866025403784439));
#1635=DIRECTION('',(1.30922728619623E-17,-0.104528463267653,-0.994521895368273));
#1636=DIRECTION('',(0.,-0.994521895368273,0.104528463267653));
#1637=DIRECTION('',(-0.0073091469452605,0.994495329529039,-0.104525671085436));
#1638=DIRECTION('',(-1.,-1.252507924893E-16,0.));
#1639=DIRECTION('',(-0.138410696151084,-0.104528463267653,-0.984843276647546));
#1640=DIRECTION('',(0.99026806874157,0.,-0.139173100960065));
#1641=DIRECTION('',(-0.99026806874157,-1.2403186038673E-16,0.139173100960065));
#1642=DIRECTION('',(1.252507924893E-16,-1.,0.));
#1643=DIRECTION('',(1.,1.252507924893E-16,0.));
#1644=DIRECTION('',(-0.5,-6.262539624465E-17,0.866025403784439));
#1645=DIRECTION('',(0.5,6.262539624465E-17,-0.866025403784439));
#1646=DIRECTION('',(0.866025403784439,0.,0.5));
#1647=DIRECTION('',(-0.5,-6.262539624465E-17,0.866025403784439));
#1648=DIRECTION('',(0.866025403784439,0.,0.5));
#1649=DIRECTION('',(0.5,6.262539624465E-17,0.866025403784439));
#1650=DIRECTION('',(0.866025403784439,0.,-0.5));
#1651=DIRECTION('',(0.5,6.262539624465E-17,-0.866025403784439));
#1652=DIRECTION('',(-0.866025403784439,0.,-0.5));
#1653=DIRECTION('',(-0.5,-6.262539624465E-17,-0.866025403784439));
#1654=DIRECTION('',(-0.866025403784439,0.,0.5));
#1655=DIRECTION('',(-1.,0.,0.));
#1656=DIRECTION('',(0.,0.,1.));
#1657=DIRECTION('',(0.,0.,1.));
#1658=DIRECTION('',(0.,-1.,0.));
#1659=DIRECTION('',(0.,-1.,0.));
#1660=DIRECTION('',(0.,0.,-1.));
#1661=DIRECTION('',(0.,0.,1.));
#1662=DIRECTION('',(1.,0.,0.));
#1663=DIRECTION('',(-1.,0.,0.));
#1664=DIRECTION('',(0.,0.,1.));
#1665=DIRECTION('',(0.,-1.,0.));
#1666=DIRECTION('',(0.,0.,1.));
#1667=DIRECTION('',(1.,0.,0.));
#1668=DIRECTION('',(0.,1.,0.));
#1669=DIRECTION('',(0.,0.,1.));
#1670=DIRECTION('',(0.,1.,0.));
#1671=DIRECTION('',(0.,0.,-1.));
#1672=DIRECTION('',(0.,1.,0.));
#1673=DIRECTION('',(0.,0.,-1.));
#1674=DIRECTION('',(0.,-1.,0.));
#1675=DIRECTION('',(1.,0.,0.));
#1676=DIRECTION('',(0.,-1.,0.));
#1677=DIRECTION('',(1.,0.,0.));
#1678=DIRECTION('',(0.,1.,0.));
#1679=DIRECTION('',(0.,0.,1.));
#1680=DIRECTION('',(0.,1.,0.));
#1681=DIRECTION('',(0.,1.,0.));
#1682=DIRECTION('',(0.,0.,1.));
#1683=DIRECTION('',(0.,1.,0.));
#1684=DIRECTION('',(0.,1.,0.));
#1685=DIRECTION('',(0.,0.,1.));
#1686=DIRECTION('',(0.,1.,0.));
#1687=DIRECTION('',(0.,0.,1.));
#1688=DIRECTION('',(1.,4.33680868994202E-16,0.));
#1689=DIRECTION('',(-4.33680868994202E-16,1.,0.));
#1690=DIRECTION('',(-1.,0.,0.));
#1691=DIRECTION('',(0.,0.,1.));
#1692=DIRECTION('',(-1.,0.,0.));
#1693=DIRECTION('',(0.,0.,1.));
#1694=DIRECTION('',(-1.,0.,0.));
#1695=DIRECTION('',(0.,0.,1.));
#1696=DIRECTION('',(0.,0.,-1.));
#1697=DIRECTION('',(-1.,0.,0.));
#1698=DIRECTION('',(0.,0.,-1.));
#1699=DIRECTION('',(-1.,0.,0.));
#1700=DIRECTION('',(0.,0.,1.));
#1701=DIRECTION('',(1.,0.,0.));
#1702=DIRECTION('',(0.,0.,1.));
#1703=DIRECTION('',(1.,0.,0.));
#1704=DIRECTION('',(0.,0.,1.));
#1705=DIRECTION('',(1.,0.,0.));
#1706=DIRECTION('',(0.,0.,1.));
#1707=DIRECTION('',(1.,0.,0.));
#1708=DIRECTION('',(0.,0.,-1.));
#1709=DIRECTION('',(-1.,0.,0.));
#1710=DIRECTION('',(0.,0.,-1.));
#1711=DIRECTION('',(-1.,0.,0.));
#1712=DIRECTION('',(-0.120392909103354,0.,-0.99272632051217));
#1713=DIRECTION('',(-0.99272632051217,0.,0.120392909103354));
#1714=DIRECTION('',(-0.99272632051217,0.,0.120392909103354));
#1715=DIRECTION('',(0.120392909103354,0.,0.99272632051217));
#1716=DIRECTION('',(0.,-1.,0.));
#1717=DIRECTION('',(0.,0.,-1.));
#1718=DIRECTION('',(0.,1.,0.));
#1719=DIRECTION('',(0.,0.,1.));
#1720=DIRECTION('',(0.,-1.,0.));
#1721=DIRECTION('',(0.,0.,-1.));
#1722=DIRECTION('',(0.,1.,0.));
#1723=DIRECTION('',(0.,0.,1.));
#1724=DIRECTION('',(-0.99272632051217,0.,-0.120392909103354));
#1725=DIRECTION('',(-0.120392909103354,0.,0.99272632051217));
#1726=DIRECTION('',(-0.120392909103354,0.,-0.99272632051217));
#1727=DIRECTION('',(-0.99272632051217,0.,0.120392909103354));
#1728=DIRECTION('',(-0.99272632051217,-1.56636304322047E-16,0.120392909103354));
#1729=DIRECTION('',(0.120392909103354,0.,0.99272632051217));
#1730=DIRECTION('',(0.120392909103353,0.,-0.99272632051217));
#1731=DIRECTION('',(-0.99272632051217,0.,-0.120392909103353));
#1732=DIRECTION('',(0.,-1.,0.));
#1733=DIRECTION('',(0.,0.,-1.));
#1734=DIRECTION('',(0.,1.,0.));
#1735=DIRECTION('',(0.,0.,1.));
#1736=DIRECTION('',(-0.99272632051217,1.43583278961877E-16,-0.120392909103354));
#1737=DIRECTION('',(-0.120392909103354,0.,0.99272632051217));
#1738=DIRECTION('',(0.,1.,0.));
#1739=DIRECTION('',(0.,0.,1.));
#1740=DIRECTION('',(0.,-1.,0.));
#1741=DIRECTION('',(0.,0.,-1.));
#1742=DIRECTION('',(0.120392909103353,0.,-0.99272632051217));
#1743=DIRECTION('',(-0.99272632051217,0.,-0.120392909103353));
#1744=CARTESIAN_POINT('',(0.,0.,0.));
#1745=CARTESIAN_POINT('',(0.,0.006925,0.0004));
#1746=CARTESIAN_POINT('',(4.5003171118948E-5,0.006925,0.000720214201191038));
#1747=CARTESIAN_POINT('',(-0.00529,0.006925,0.00147));
#1748=CARTESIAN_POINT('',(-0.00585922957779074,0.006925,0.00155));
#1749=CARTESIAN_POINT('',(1.36069636627581E-50,0.006925,0.00155));
#1750=CARTESIAN_POINT('',(-0.006925,0.006925,0.00155));
#1751=CARTESIAN_POINT('',(-0.006925,0.006925,0.0004));
#1752=CARTESIAN_POINT('',(-0.006925,0.006925,0.0004));
#1753=CARTESIAN_POINT('',(0.,0.006925,0.0004));
#1754=CARTESIAN_POINT('',(-0.005,0.006925,0.0004));
#1755=CARTESIAN_POINT('',(-0.005,0.006925,0.0004));
#1756=CARTESIAN_POINT('',(-0.005,0.006925,0.00108515700173008));
#1757=CARTESIAN_POINT('',(-0.00285978579880896,0.006925,-0.00175500317111895));
#1758=CARTESIAN_POINT('',(-0.006925,-8.67361737988404E-19,0.0004));
#1759=CARTESIAN_POINT('',(-0.006925,0.006925,0.00155));
#1760=CARTESIAN_POINT('',(-0.006925,0.0063,0.00161569014704105));
#1761=CARTESIAN_POINT('',(-0.006925,0.0063,0.0004));
#1762=CARTESIAN_POINT('',(-0.006925,0.0063,0.0018));
#1763=CARTESIAN_POINT('',(-0.006925,-8.67361737988404E-19,0.0018));
#1764=CARTESIAN_POINT('',(-0.006925,-0.0063,0.0018));
#1765=CARTESIAN_POINT('',(-0.006925,-0.0063,0.0004));
#1766=CARTESIAN_POINT('',(-0.006925,-0.0063,0.00161569014704105));
#1767=CARTESIAN_POINT('',(-0.006925,-0.006925,0.00155));
#1768=CARTESIAN_POINT('',(-0.006925,-0.006925,0.00155));
#1769=CARTESIAN_POINT('',(-0.006925,-0.006925,0.0004));
#1770=CARTESIAN_POINT('',(-0.006925,-0.006925,0.0004));
#1771=CARTESIAN_POINT('',(-0.006925,-8.67361737988404E-19,0.0004));
#1772=CARTESIAN_POINT('',(3.46944695195361E-18,0.,0.0004));
#1773=CARTESIAN_POINT('',(0.0019119623427254,-0.0011,0.0004));
#1774=CARTESIAN_POINT('',(0.0019119623427254,-0.0011,0.0004));
#1775=CARTESIAN_POINT('',(0.0019119623427254,0.,0.0004));
#1776=CARTESIAN_POINT('',(2.16840434497101E-19,-0.0011,0.0004));
#1777=CARTESIAN_POINT('',(-0.0019119623427254,-0.0011,0.0004));
#1778=CARTESIAN_POINT('',(-0.0019119623427254,-0.0011,0.0004));
#1779=CARTESIAN_POINT('',(-0.0019119623427254,0.,0.0004));
#1780=CARTESIAN_POINT('',(2.16840434497101E-19,0.,0.0004));
#1781=CARTESIAN_POINT('',(0.,0.006925,0.0004));
#1782=CARTESIAN_POINT('',(-0.00408452994616207,0.006925,0.0004));
#1783=CARTESIAN_POINT('',(0.00408452994616207,0.006925,0.0004));
#1784=CARTESIAN_POINT('',(-0.00408452994616207,0.006825,0.0004));
#1785=CARTESIAN_POINT('',(-0.0042,0.006825,0.0004));
#1786=CARTESIAN_POINT('',(-0.0042,0.0063,0.0004));
#1787=CARTESIAN_POINT('',(-0.0042,0.0064,0.0004));
#1788=CARTESIAN_POINT('',(-0.00431547005383792,0.0064,0.0004));
#1789=CARTESIAN_POINT('',(-0.00431547005383792,0.0063,0.0004));
#1790=CARTESIAN_POINT('',(7.82817453058126E-20,0.0063,0.0004));
#1791=CARTESIAN_POINT('',(-0.00493430985295895,0.0063,0.0004));
#1792=CARTESIAN_POINT('',(-0.005,0.006925,0.0004));
#1793=CARTESIAN_POINT('',(0.,-0.006925,0.0004));
#1794=CARTESIAN_POINT('',(-0.005,-0.006925,0.0004));
#1795=CARTESIAN_POINT('',(-0.005,-0.006925,0.0004));
#1796=CARTESIAN_POINT('',(-0.00493430985295895,-0.0063,0.0004));
#1797=CARTESIAN_POINT('',(7.82817453058126E-20,-0.0063,0.0004));
#1798=CARTESIAN_POINT('',(-0.00431547005383792,-0.0063,0.0004));
#1799=CARTESIAN_POINT('',(-0.00431547005383792,-0.0064,0.0004));
#1800=CARTESIAN_POINT('',(-0.0042,-0.0064,0.0004));
#1801=CARTESIAN_POINT('',(-0.0042,-0.0063,0.0004));
#1802=CARTESIAN_POINT('',(-0.0042,-0.006825,0.0004));
#1803=CARTESIAN_POINT('',(-0.00408452994616207,-0.006825,0.0004));
#1804=CARTESIAN_POINT('',(-0.00408452994616207,-0.006925,0.0004));
#1805=CARTESIAN_POINT('',(0.,-0.006925,0.0004));
#1806=CARTESIAN_POINT('',(0.00408452994616207,-0.006925,0.0004));
#1807=CARTESIAN_POINT('',(0.00408452994616207,-0.006825,0.0004));
#1808=CARTESIAN_POINT('',(0.0042,-0.006825,0.0004));
#1809=CARTESIAN_POINT('',(0.0042,-0.0063,0.0004));
#1810=CARTESIAN_POINT('',(0.0042,-0.0064,0.0004));
#1811=CARTESIAN_POINT('',(0.00431547005383792,-0.0064,0.0004));
#1812=CARTESIAN_POINT('',(0.00431547005383792,-0.0063,0.0004));
#1813=CARTESIAN_POINT('',(-7.82817453058126E-20,-0.0063,0.0004));
#1814=CARTESIAN_POINT('',(0.00493430985295895,-0.0063,0.0004));
#1815=CARTESIAN_POINT('',(0.005,-0.006925,0.0004));
#1816=CARTESIAN_POINT('',(0.005,-0.006925,0.0004));
#1817=CARTESIAN_POINT('',(0.,-0.006925,0.0004));
#1818=CARTESIAN_POINT('',(0.006925,-0.006925,0.0004));
#1819=CARTESIAN_POINT('',(0.006925,8.67361737988404E-19,0.0004));
#1820=CARTESIAN_POINT('',(0.006925,0.006925,0.0004));
#1821=CARTESIAN_POINT('',(0.,0.006925,0.0004));
#1822=CARTESIAN_POINT('',(0.005,0.006925,0.0004));
#1823=CARTESIAN_POINT('',(0.005,0.006925,0.0004));
#1824=CARTESIAN_POINT('',(0.00493430985295895,0.0063,0.0004));
#1825=CARTESIAN_POINT('',(-7.82817453058126E-20,0.0063,0.0004));
#1826=CARTESIAN_POINT('',(0.00431547005383792,0.0063,0.0004));
#1827=CARTESIAN_POINT('',(0.00431547005383792,0.0064,0.0004));
#1828=CARTESIAN_POINT('',(0.0042,0.0064,0.0004));
#1829=CARTESIAN_POINT('',(0.0042,0.0063,0.0004));
#1830=CARTESIAN_POINT('',(0.0042,0.006825,0.0004));
#1831=CARTESIAN_POINT('',(0.00408452994616207,0.006825,0.0004));
#1832=CARTESIAN_POINT('',(0.,0.006925,0.0004));
#1833=CARTESIAN_POINT('',(0.,0.006925,0.0018));
#1834=CARTESIAN_POINT('',(-0.00489282032302755,0.006925,0.0018));
#1835=CARTESIAN_POINT('',(0.00489282032302755,0.006925,0.0018));
#1836=CARTESIAN_POINT('',(-0.00306339745962156,0.006925,-0.00136865334794732));
#1837=CARTESIAN_POINT('',(0.00306339745962156,0.006925,-0.00136865334794732));
#1838=CARTESIAN_POINT('',(0.,-0.006925,0.0004));
#1839=CARTESIAN_POINT('',(1.36069636627581E-50,-0.006925,0.00155));
#1840=CARTESIAN_POINT('',(-0.00585922957779074,-0.006925,0.00155));
#1841=CARTESIAN_POINT('',(4.5003171118948E-5,-0.006925,0.000720214201191038));
#1842=CARTESIAN_POINT('',(-0.00529,-0.006925,0.00147));
#1843=CARTESIAN_POINT('',(-0.00285978579880896,-0.006925,-0.00175500317111895));
#1844=CARTESIAN_POINT('',(-0.005,-0.006925,0.00108515700173008));
#1845=CARTESIAN_POINT('',(-0.005,-0.006925,0.0004));
#1846=CARTESIAN_POINT('',(0.,-0.006925,0.0004));
#1847=CARTESIAN_POINT('',(0.,-0.006925,0.00155));
#1848=CARTESIAN_POINT('',(-0.0003,-0.006925,0.00155));
#1849=CARTESIAN_POINT('',(0.0003,-0.006925,0.00155));
#1850=CARTESIAN_POINT('',(0.0003,-0.006925,0.00155));
#1851=CARTESIAN_POINT('',(0.0003,-0.006925,0.0018));
#1852=CARTESIAN_POINT('',(0.,-0.006925,0.0018));
#1853=CARTESIAN_POINT('',(0.00489282032302755,-0.006925,0.0018));
#1854=CARTESIAN_POINT('',(0.00411339745962156,-0.006925,0.00045));
#1855=CARTESIAN_POINT('',(-0.00492168783648703,-0.006925,0.00185));
#1856=CARTESIAN_POINT('',(-0.00489282032302755,-0.006925,0.0018));
#1857=CARTESIAN_POINT('',(0.,-0.006925,0.0018));
#1858=CARTESIAN_POINT('',(-0.0003,-0.006925,0.0018));
#1859=CARTESIAN_POINT('',(-0.0003,-0.006925,0.00155));
#1860=CARTESIAN_POINT('',(3.46944695195361E-18,0.,0.0018));
#1861=CARTESIAN_POINT('',(-0.0003,-0.00705,0.0018));
#1862=CARTESIAN_POINT('',(-0.0003,-0.007175,0.0018));
#1863=CARTESIAN_POINT('',(-0.00489282032302755,-0.006825,0.0018));
#1864=CARTESIAN_POINT('',(-0.00500829037686548,-0.006825,0.0018));
#1865=CARTESIAN_POINT('',(-0.00500829037686548,-0.0063,0.0018));
#1866=CARTESIAN_POINT('',(-0.00500829037686548,-0.0064,0.0018));
#1867=CARTESIAN_POINT('',(-0.0051237604307034,-0.0064,0.0018));
#1868=CARTESIAN_POINT('',(-0.0051237604307034,-0.0063,0.0018));
#1869=CARTESIAN_POINT('',(7.82817453058126E-20,-0.0063,0.0018));
#1870=CARTESIAN_POINT('',(7.82817453058126E-20,0.0063,0.0018));
#1871=CARTESIAN_POINT('',(-0.0051237604307034,0.0063,0.0018));
#1872=CARTESIAN_POINT('',(-0.0051237604307034,0.0064,0.0018));
#1873=CARTESIAN_POINT('',(-0.00500829037686548,0.0064,0.0018));
#1874=CARTESIAN_POINT('',(-0.00500829037686548,0.0063,0.0018));
#1875=CARTESIAN_POINT('',(-0.00500829037686548,0.006825,0.0018));
#1876=CARTESIAN_POINT('',(-0.00489282032302755,0.006825,0.0018));
#1877=CARTESIAN_POINT('',(0.00489282032302755,0.006825,0.0018));
#1878=CARTESIAN_POINT('',(0.00500829037686548,0.006825,0.0018));
#1879=CARTESIAN_POINT('',(0.00500829037686548,0.0063,0.0018));
#1880=CARTESIAN_POINT('',(0.00500829037686548,0.0064,0.0018));
#1881=CARTESIAN_POINT('',(0.0051237604307034,0.0064,0.0018));
#1882=CARTESIAN_POINT('',(0.0051237604307034,0.0063,0.0018));
#1883=CARTESIAN_POINT('',(-7.82817453058126E-20,0.0063,0.0018));
#1884=CARTESIAN_POINT('',(0.006925,0.0063,0.0018));
#1885=CARTESIAN_POINT('',(0.006925,8.67361737988404E-19,0.0018));
#1886=CARTESIAN_POINT('',(0.006925,-0.0063,0.0018));
#1887=CARTESIAN_POINT('',(-7.82817453058126E-20,-0.0063,0.0018));
#1888=CARTESIAN_POINT('',(0.0051237604307034,-0.0063,0.0018));
#1889=CARTESIAN_POINT('',(0.0051237604307034,-0.0064,0.0018));
#1890=CARTESIAN_POINT('',(0.00500829037686548,-0.0064,0.0018));
#1891=CARTESIAN_POINT('',(0.00500829037686548,-0.0063,0.0018));
#1892=CARTESIAN_POINT('',(0.00500829037686548,-0.006825,0.0018));
#1893=CARTESIAN_POINT('',(0.00489282032302755,-0.006825,0.0018));
#1894=CARTESIAN_POINT('',(0.0003,-0.00705,0.0018));
#1895=CARTESIAN_POINT('',(0.0003,-0.007175,0.0018));
#1896=CARTESIAN_POINT('',(-5.42101086242752E-20,-0.007175,0.0018));
#1897=CARTESIAN_POINT('',(0.0075,1.7347234759768E-18,0.0018));
#1898=CARTESIAN_POINT('',(0.0075,0.007,0.0018));
#1899=CARTESIAN_POINT('',(0.0075,-0.007,0.0018));
#1900=CARTESIAN_POINT('',(0.007,0.007,0.0018));
#1901=CARTESIAN_POINT('',(0.007,0.0075,0.0018));
#1902=CARTESIAN_POINT('',(8.67361737988404E-19,0.0075,0.0018));
#1903=CARTESIAN_POINT('',(-0.007,0.0075,0.0018));
#1904=CARTESIAN_POINT('',(-0.007,0.007,0.0018));
#1905=CARTESIAN_POINT('',(-0.0075,0.007,0.0018));
#1906=CARTESIAN_POINT('',(-0.0075,-8.67361737988404E-19,0.0018));
#1907=CARTESIAN_POINT('',(-0.0075,-0.007,0.0018));
#1908=CARTESIAN_POINT('',(-0.007,-0.007,0.0018));
#1909=CARTESIAN_POINT('',(-0.007,-0.0075,0.0018));
#1910=CARTESIAN_POINT('',(8.67361737988404E-19,-0.0075,0.0018));
#1911=CARTESIAN_POINT('',(0.007,-0.0075,0.0018));
#1912=CARTESIAN_POINT('',(0.007,-0.007,0.0018));
#1913=CARTESIAN_POINT('',(8.67361737988404E-19,0.0075,0.0018));
#1914=CARTESIAN_POINT('',(0.007,0.0075,0.0018));
#1915=CARTESIAN_POINT('',(0.007,0.0075,6.7086750423967E-5));
#1916=CARTESIAN_POINT('',(-7.16905051107216E-18,0.0075,-0.0576529591836736));
#1917=CARTESIAN_POINT('',(-0.007,0.0075,6.7086750423967E-5));
#1918=CARTESIAN_POINT('',(-0.007,0.0075,0.0018));
#1919=CARTESIAN_POINT('',(-0.0075,-8.67361737988404E-19,0.0018));
#1920=CARTESIAN_POINT('',(-0.0075,0.007,-0.000500000000000008));
#1921=CARTESIAN_POINT('',(-0.0075,0.007,6.7086750423967E-5));
#1922=CARTESIAN_POINT('',(-0.0075,-0.007,6.7086750423967E-5));
#1923=CARTESIAN_POINT('',(-0.0075,-0.007,6.7086750423967E-5));
#1924=CARTESIAN_POINT('',(-0.0075,-0.007,0.0018));
#1925=CARTESIAN_POINT('',(8.67361737988404E-19,-0.0075,0.0018));
#1926=CARTESIAN_POINT('',(-0.007,-0.0075,0.0018));
#1927=CARTESIAN_POINT('',(-0.007,-0.0075,6.7086750423967E-5));
#1928=CARTESIAN_POINT('',(-7.16905051107216E-18,-0.0075,-0.0576529591836736));
#1929=CARTESIAN_POINT('',(0.007,-0.0075,6.7086750423967E-5));
#1930=CARTESIAN_POINT('',(0.007,-0.0075,0.0018));
#1931=CARTESIAN_POINT('',(0.0075,1.7347234759768E-18,0.0018));
#1932=CARTESIAN_POINT('',(0.0075,-0.007,-0.000500000000000008));
#1933=CARTESIAN_POINT('',(0.0075,-0.007,6.7086750423967E-5));
#1934=CARTESIAN_POINT('',(0.0075,1.7347234759768E-18,6.7086750423967E-5));
#1935=CARTESIAN_POINT('',(0.0075,0.007,6.7086750423967E-5));
#1936=CARTESIAN_POINT('',(0.0075,0.007,0.0018));
#1937=CARTESIAN_POINT('',(0.,0.006925,0.0004));
#1938=CARTESIAN_POINT('',(-1.36069636627581E-50,0.006925,0.00155));
#1939=CARTESIAN_POINT('',(0.00585922957779074,0.006925,0.00155));
#1940=CARTESIAN_POINT('',(0.006925,0.006925,0.00155));
#1941=CARTESIAN_POINT('',(-4.5003171118948E-5,0.006925,0.000720214201191038));
#1942=CARTESIAN_POINT('',(0.00529,0.006925,0.00147));
#1943=CARTESIAN_POINT('',(0.00285978579880896,0.006925,-0.00175500317111895));
#1944=CARTESIAN_POINT('',(0.005,0.006925,0.00108515700173008));
#1945=CARTESIAN_POINT('',(0.005,0.006925,0.0004));
#1946=CARTESIAN_POINT('',(0.006925,0.006925,0.0004));
#1947=CARTESIAN_POINT('',(0.,-0.006925,0.0004));
#1948=CARTESIAN_POINT('',(-4.5003171118948E-5,-0.006925,0.000720214201191038));
#1949=CARTESIAN_POINT('',(0.00529,-0.006925,0.00147));
#1950=CARTESIAN_POINT('',(0.00585922957779074,-0.006925,0.00155));
#1951=CARTESIAN_POINT('',(-1.36069636627581E-50,-0.006925,0.00155));
#1952=CARTESIAN_POINT('',(0.006925,-0.006925,0.00155));
#1953=CARTESIAN_POINT('',(0.006925,-0.006925,0.0004));
#1954=CARTESIAN_POINT('',(0.005,-0.006925,0.0004));
#1955=CARTESIAN_POINT('',(0.005,-0.006925,0.00108515700173008));
#1956=CARTESIAN_POINT('',(0.00285978579880896,-0.006925,-0.00175500317111895));
#1957=CARTESIAN_POINT('',(0.006925,8.67361737988404E-19,0.0004));
#1958=CARTESIAN_POINT('',(0.006925,0.0063,0.0004));
#1959=CARTESIAN_POINT('',(0.006925,0.0063,0.00161569014704105));
#1960=CARTESIAN_POINT('',(0.006925,0.006925,0.00155));
#1961=CARTESIAN_POINT('',(0.006925,-0.006925,0.00155));
#1962=CARTESIAN_POINT('',(0.006925,-0.0063,0.00161569014704105));
#1963=CARTESIAN_POINT('',(0.006925,-0.0063,0.0004));
#1964=CARTESIAN_POINT('',(0.00285978579880896,-0.006925,-0.00175500317111895));
#1965=CARTESIAN_POINT('',(0.00498701469092568,-0.00680145303691619,0.00108950182536864));
#1966=CARTESIAN_POINT('',(0.00493430985295895,-0.0063,0.00110713661746742));
#1967=CARTESIAN_POINT('',(0.00280732331472175,-0.0063,-0.00171546985375658));
#1968=CARTESIAN_POINT('',(0.00525391275212989,-0.0063,0.00153126398978708));
#1969=CARTESIAN_POINT('',(0.00530002109364752,-0.0070985566965994,0.00145298755889929));
#1970=CARTESIAN_POINT('',(0.005,-0.006925,0.0004));
#1971=CARTESIAN_POINT('',(0.00493430985295895,-0.0063,0.0004));
#1972=CARTESIAN_POINT('',(0.00460414518843274,-0.0063,0.0011));
#1973=CARTESIAN_POINT('',(0.00500829037686548,-0.006825,0.0018));
#1974=CARTESIAN_POINT('',(0.0042,-0.0064,0.0004));
#1975=CARTESIAN_POINT('',(0.,-0.006925,0.00155));
#1976=CARTESIAN_POINT('',(0.00585891655648315,-0.0068824097728822,0.00155447641325101));
#1977=CARTESIAN_POINT('',(0.00585463607523206,-0.0063,0.00161569014704105));
#1978=CARTESIAN_POINT('',(-7.82817453058126E-20,-0.0063,0.00161569014704105));
#1979=CARTESIAN_POINT('',(-4.5003171118948E-5,-0.006925,0.000720214201191038));
#1980=CARTESIAN_POINT('',(-5.41454725851733E-5,-0.0063,0.000785265056236726));
#1981=CARTESIAN_POINT('',(-9.45643483294216E-19,-0.0063,0.0011));
#1982=CARTESIAN_POINT('',(0.00509489291724392,-0.0063,0.00175));
#1983=CARTESIAN_POINT('',(0.003539711431703,-0.0064,-0.00094365334794732));
#1984=CARTESIAN_POINT('',(-0.00285978579880896,-0.006925,-0.00175500317111895));
#1985=CARTESIAN_POINT('',(-0.00530002109364752,-0.0070985566965994,0.00145298755889929));
#1986=CARTESIAN_POINT('',(-0.00525391275212989,-0.0063,0.00153126398978708));
#1987=CARTESIAN_POINT('',(-0.00280732331472175,-0.0063,-0.00171546985375658));
#1988=CARTESIAN_POINT('',(-0.00493430985295895,-0.0063,0.00110713661746742));
#1989=CARTESIAN_POINT('',(-0.00498701469092568,-0.00680145303691619,0.00108950182536864));
#1990=CARTESIAN_POINT('',(-0.005,-0.006925,0.0004));
#1991=CARTESIAN_POINT('',(-0.00493430985295895,-0.0063,0.0004));
#1992=CARTESIAN_POINT('',(-0.00460414518843274,-0.0063,0.0011));
#1993=CARTESIAN_POINT('',(-0.0042,-0.006825,0.0004));
#1994=CARTESIAN_POINT('',(-0.0042,-0.0064,0.0004));
#1995=CARTESIAN_POINT('',(0.,-0.006925,0.00155));
#1996=CARTESIAN_POINT('',(7.82817453058126E-20,-0.0063,0.00161569014704105));
#1997=CARTESIAN_POINT('',(-0.00585463607523206,-0.0063,0.00161569014704105));
#1998=CARTESIAN_POINT('',(-0.00585891655648315,-0.0068824097728822,0.00155447641325101));
#1999=CARTESIAN_POINT('',(4.5003171118948E-5,-0.006925,0.000720214201191038));
#2000=CARTESIAN_POINT('',(5.41454725851733E-5,-0.0063,0.000785265056236726));
#2001=CARTESIAN_POINT('',(9.45643483294216E-19,-0.0063,0.0011));
#2002=CARTESIAN_POINT('',(-0.00509489291724392,-0.0063,0.00175));
#2003=CARTESIAN_POINT('',(-0.003539711431703,-0.0064,-0.00094365334794732));
#2004=CARTESIAN_POINT('',(0.00285978579880896,0.006925,-0.00175500317111895));
#2005=CARTESIAN_POINT('',(0.00530002109364752,0.0070985566965994,0.00145298755889929));
#2006=CARTESIAN_POINT('',(0.00525391275212989,0.0063,0.00153126398978708));
#2007=CARTESIAN_POINT('',(0.00280732331472175,0.0063,-0.00171546985375658));
#2008=CARTESIAN_POINT('',(0.00493430985295895,0.0063,0.00110713661746742));
#2009=CARTESIAN_POINT('',(0.00498701469092568,0.00680145303691619,0.00108950182536864));
#2010=CARTESIAN_POINT('',(0.005,0.006925,0.0004));
#2011=CARTESIAN_POINT('',(0.00493430985295895,0.0063,0.0004));
#2012=CARTESIAN_POINT('',(0.00460414518843274,0.0063,0.0011));
#2013=CARTESIAN_POINT('',(0.00460414518843274,0.006825,0.0011));
#2014=CARTESIAN_POINT('',(0.0042,0.0064,0.0004));
#2015=CARTESIAN_POINT('',(0.,0.006925,0.00155));
#2016=CARTESIAN_POINT('',(-7.82817453058126E-20,0.0063,0.00161569014704105));
#2017=CARTESIAN_POINT('',(0.00585463607523206,0.0063,0.00161569014704105));
#2018=CARTESIAN_POINT('',(0.00585891655648315,0.0068824097728822,0.00155447641325101));
#2019=CARTESIAN_POINT('',(-4.5003171118948E-5,0.006925,0.000720214201191038));
#2020=CARTESIAN_POINT('',(-5.41454725851733E-5,0.0063,0.000785265056236726));
#2021=CARTESIAN_POINT('',(-9.45643483294216E-19,0.0063,0.0011));
#2022=CARTESIAN_POINT('',(0.00509489291724392,0.0063,0.00175));
#2023=CARTESIAN_POINT('',(0.003539711431703,0.0064,-0.00094365334794732));
#2024=CARTESIAN_POINT('',(-0.00285978579880896,0.006925,-0.00175500317111895));
#2025=CARTESIAN_POINT('',(-0.00498701469092568,0.00680145303691619,0.00108950182536864));
#2026=CARTESIAN_POINT('',(-0.00493430985295895,0.0063,0.00110713661746742));
#2027=CARTESIAN_POINT('',(-0.00280732331472175,0.0063,-0.00171546985375658));
#2028=CARTESIAN_POINT('',(-0.00525391275212989,0.0063,0.00153126398978708));
#2029=CARTESIAN_POINT('',(-0.00530002109364752,0.0070985566965994,0.00145298755889929));
#2030=CARTESIAN_POINT('',(-0.005,0.006925,0.0004));
#2031=CARTESIAN_POINT('',(-0.00493430985295895,0.0063,0.0004));
#2032=CARTESIAN_POINT('',(-0.00460414518843274,0.0063,0.0011));
#2033=CARTESIAN_POINT('',(-0.00460414518843274,0.006825,0.0011));
#2034=CARTESIAN_POINT('',(-0.0042,0.0064,0.0004));
#2035=CARTESIAN_POINT('',(0.,0.006925,0.00155));
#2036=CARTESIAN_POINT('',(-0.00585891655648315,0.0068824097728822,0.00155447641325101));
#2037=CARTESIAN_POINT('',(-0.00585463607523206,0.0063,0.00161569014704105));
#2038=CARTESIAN_POINT('',(7.82817453058126E-20,0.0063,0.00161569014704105));
#2039=CARTESIAN_POINT('',(4.5003171118948E-5,0.006925,0.000720214201191038));
#2040=CARTESIAN_POINT('',(5.41454725851733E-5,0.0063,0.000785265056236726));
#2041=CARTESIAN_POINT('',(9.45643483294216E-19,0.0063,0.0011));
#2042=CARTESIAN_POINT('',(-0.00509489291724392,0.0063,0.00175));
#2043=CARTESIAN_POINT('',(-0.003539711431703,0.0064,-0.00094365334794732));
#2044=CARTESIAN_POINT('',(-0.00451754264805429,0.006825,0.00115));
#2045=CARTESIAN_POINT('',(0.00306339745962156,0.006825,-0.00136865334794732));
#2046=CARTESIAN_POINT('',(-0.00306339745962156,-0.006825,-0.00136865334794732));
#2047=CARTESIAN_POINT('',(0.00451754264805429,-0.006825,0.00115));
#2048=CARTESIAN_POINT('',(-0.0003,-0.00705,0.00155));
#2049=CARTESIAN_POINT('',(-0.0003,-0.007175,0.00155));
#2050=CARTESIAN_POINT('',(-0.0003,-0.007175,0.00155));
#2051=CARTESIAN_POINT('',(-0.0003,-0.00705,0.00155));
#2052=CARTESIAN_POINT('',(-5.42101086242752E-20,-0.007175,0.00155));
#2053=CARTESIAN_POINT('',(0.0003,-0.007175,0.00155));
#2054=CARTESIAN_POINT('',(0.0003,-0.007175,0.00155));
#2055=CARTESIAN_POINT('',(-5.42101086242752E-20,-0.007175,0.00155));
#2056=CARTESIAN_POINT('',(0.0003,-0.00705,0.00155));
#2057=CARTESIAN_POINT('',(0.0003,-0.00705,0.00155));
#2058=CARTESIAN_POINT('',(3.46944695195361E-18,0.,0.00155));
#2059=CARTESIAN_POINT('',(8.67361737988404E-19,-0.0011,-0.00422));
#2060=CARTESIAN_POINT('',(8.67361737988404E-19,0.,-0.00422));
#2061=CARTESIAN_POINT('',(8.67361737988404E-19,-0.0011,-0.00422));
#2062=CARTESIAN_POINT('',(0.,-0.0011,-0.000403227516114711));
#2063=CARTESIAN_POINT('',(0.,0.,-0.000403227516114711));
#2064=CARTESIAN_POINT('',(-7.16905051107216E-18,-0.007502,-0.0576529591836736));
#2065=CARTESIAN_POINT('',(0.00693980354544832,-0.007502,-0.000429276409832119));
#2066=CARTESIAN_POINT('',(0.00693980354544832,0.007,-0.000429276409832118));
#2067=CARTESIAN_POINT('',(0.00693980354544832,-0.007,-0.000429276409832117));
#2068=CARTESIAN_POINT('',(-7.16905051107216E-18,-0.007,-0.0576529591836736));
#2069=CARTESIAN_POINT('',(-0.00693980354544832,-0.007,-0.000429276409832117));
#2070=CARTESIAN_POINT('',(-0.00693980354544832,-0.007502,-0.000429276409832119));
#2071=CARTESIAN_POINT('',(-0.00693980354544832,0.007,-0.000429276409832117));
#2072=CARTESIAN_POINT('',(-7.16905051107216E-18,0.007,-0.0576529591836736));
#2073=CARTESIAN_POINT('',(0.00125,-0.00535055513930304,-2.3554853499759E-5));
#2074=CARTESIAN_POINT('',(0.000416760978099733,-0.00534970276893836,-5.48163567838372E-6));
#2075=CARTESIAN_POINT('',(-0.000416760908449568,-0.00534970276886711,-5.48163416764522E-6));
#2076=CARTESIAN_POINT('',(-0.00125,-0.00535055513930304,-2.35548534997544E-5));
#2077=CARTESIAN_POINT('',(0.00125,-0.00535055513930304,-2.35548534997535E-5));
#2078=CARTESIAN_POINT('',(-0.00125,-0.00535055513930304,-2.3554853499759E-5));
#2079=CARTESIAN_POINT('',(-0.00125,-0.00535055513930304,-2.35548534997466E-5));
#2080=CARTESIAN_POINT('',(-0.00138183271589202,-0.00535068999892575,-2.64143467875982E-5));
#2081=CARTESIAN_POINT('',(-0.00164013892567497,-0.00545905382417525,-3.30974516414639E-5));
#2082=CARTESIAN_POINT('',(-0.00180281884803761,-0.00584954366686545,-3.82431979427418E-5));
#2083=CARTESIAN_POINT('',(-0.00164056768379994,-0.00624077444491223,-3.31093945388376E-5));
#2084=CARTESIAN_POINT('',(-0.001381838953164,-0.00634930999469377,-2.64144820759974E-5));
#2085=CARTESIAN_POINT('',(-0.00125,-0.00634944486069696,-2.35548534997445E-5));
#2086=CARTESIAN_POINT('',(-0.00125,-0.00634944486069696,-2.3554853499759E-5));
#2087=CARTESIAN_POINT('',(-0.00125,-0.00634944486069696,-2.3554853499759E-5));
#2088=CARTESIAN_POINT('',(-0.000416760978099733,-0.00635029723106164,-5.48163567838393E-6));
#2089=CARTESIAN_POINT('',(0.00041676090844811,-0.00635029723113289,-5.48163416762085E-6));
#2090=CARTESIAN_POINT('',(0.00125,-0.00634944486069696,-2.35548534997619E-5));
#2091=CARTESIAN_POINT('',(0.00125,-0.00634944486069696,-2.3554853499759E-5));
#2092=CARTESIAN_POINT('',(0.00125,-0.00634944486069696,-2.35548534997501E-5));
#2093=CARTESIAN_POINT('',(0.00138183271589202,-0.00634931000107425,-2.64143467876018E-5));
#2094=CARTESIAN_POINT('',(0.00164013892567497,-0.00624094617582474,-3.30974516414667E-5));
#2095=CARTESIAN_POINT('',(0.00180281884803761,-0.00585045633313455,-3.82431979427481E-5));
#2096=CARTESIAN_POINT('',(0.00164056768379994,-0.00545922555508777,-3.31093945388311E-5));
#2097=CARTESIAN_POINT('',(0.001381838953164,-0.00535069000530623,-2.6414482075994E-5));
#2098=CARTESIAN_POINT('',(0.00125,-0.00535055513930304,-2.35548534997411E-5));
#2099=CARTESIAN_POINT('',(0.00125,-0.00585,0.));
#2100=CARTESIAN_POINT('',(0.00125,-0.00585,0.));
#2101=CARTESIAN_POINT('',(-8.67361737988404E-19,-0.00585,0.));
#2102=CARTESIAN_POINT('',(-0.00125,-0.00585,0.));
#2103=CARTESIAN_POINT('',(-0.00125,-0.00585,0.));
#2104=CARTESIAN_POINT('',(0.007,0.007,0.0018));
#2105=CARTESIAN_POINT('',(0.007,0.007,6.7086750423967E-5));
#2106=CARTESIAN_POINT('',(-0.007,0.007,0.0018));
#2107=CARTESIAN_POINT('',(-0.007,0.007,6.7086750423967E-5));
#2108=CARTESIAN_POINT('',(0.007,-0.007,0.0018));
#2109=CARTESIAN_POINT('',(0.007,-0.007,6.7086750423967E-5));
#2110=CARTESIAN_POINT('',(-0.007,-0.007,0.0018));
#2111=CARTESIAN_POINT('',(-0.007,-0.007,6.7086750423967E-5));
#2112=CARTESIAN_POINT('',(0.007,0.007,6.7086750423967E-5));
#2113=CARTESIAN_POINT('',(0.007,0.007,6.7086750423967E-5));
#2114=CARTESIAN_POINT('',(0.007,0.007,6.70867504239684E-5));
#2115=CARTESIAN_POINT('',(0.007,-0.007502,6.7086750423967E-5));
#2116=CARTESIAN_POINT('',(0.007,-0.007,6.70867504239685E-5));
#2117=CARTESIAN_POINT('',(-7.16905051107216E-18,0.007,-0.0576529591836736));
#2118=CARTESIAN_POINT('',(-0.007,0.007,6.70867504239652E-5));
#2119=CARTESIAN_POINT('',(0.007,-0.007,6.7086750423967E-5));
#2120=CARTESIAN_POINT('',(0.007,-0.007,6.70867504239676E-5));
#2121=CARTESIAN_POINT('',(-0.007,0.007,6.7086750423967E-5));
#2122=CARTESIAN_POINT('',(-0.007,0.007,6.7086750423967E-5));
#2123=CARTESIAN_POINT('',(-7.16905051107216E-18,-0.007,-0.0576529591836736));
#2124=CARTESIAN_POINT('',(-0.007,-0.007,6.70867504239675E-5));
#2125=CARTESIAN_POINT('',(-0.007,-0.007502,6.7086750423967E-5));
#2126=CARTESIAN_POINT('',(-0.007,-0.007,6.7086750423967E-5));
#2127=CARTESIAN_POINT('',(-0.007,-0.007,6.7086750423967E-5));
#2128=MECHANICAL_DESIGN_GEOMETRIC_PRESENTATION_REPRESENTATION('',(#1267),
#2129);
#2129=(
GEOMETRIC_REPRESENTATION_CONTEXT(3)
GLOBAL_UNCERTAINTY_ASSIGNED_CONTEXT((#2130))
GLOBAL_UNIT_ASSIGNED_CONTEXT((#2133,#2132,#2131))
REPRESENTATION_CONTEXT('Keycap','TOP_LEVEL_ASSEMBLY_PART')
);
#2130=UNCERTAINTY_MEASURE_WITH_UNIT(LENGTH_MEASURE(5.E-6),#2133,
'DISTANCE_ACCURACY_VALUE','Maximum Tolerance applied to model');
#2131=(
NAMED_UNIT(*)
SI_UNIT($,.STERADIAN.)
SOLID_ANGLE_UNIT()
);
#2132=(
NAMED_UNIT(*)
PLANE_ANGLE_UNIT()
SI_UNIT($,.RADIAN.)
);
#2133=(
LENGTH_UNIT()
NAMED_UNIT(*)
SI_UNIT($,.METRE.)
);
#2134=PRODUCT_DEFINITION_SHAPE('','',#2135);
#2135=PRODUCT_DEFINITION('','',#2137,#2136);
#2136=PRODUCT_DEFINITION_CONTEXT('',#2143,'design');
#2137=PRODUCT_DEFINITION_FORMATION_WITH_SPECIFIED_SOURCE('','',#2139,
 .NOT_KNOWN.);
#2138=PRODUCT_RELATED_PRODUCT_CATEGORY('','',(#2139));
#2139=PRODUCT('Keycap','Keycap','Keycap',(#2141));
#2140=PRODUCT_CATEGORY('','');
#2141=PRODUCT_CONTEXT('',#2143,'mechanical');
#2142=APPLICATION_PROTOCOL_DEFINITION('international standard',
'ap242_managed_model_based_3d_engineering',2011,#2143);
#2143=APPLICATION_CONTEXT('managed model based 3d engineering');
ENDSEC;
END-ISO-10303-21;
