ISO-10303-21;
HEADER;
FILE_DESCRIPTION(('STEP AP214'),'1');
FILE_NAME('YBG0028_TEX','2025-10-29T12:07:26',(''),(''),'','','');
FILE_SCHEMA(('AUTOMOTIVE_DESIGN'));
ENDSEC;
DATA;
#1=SHAPE_DEFINITION_REPRESENTATION(#2,#3);
#2=PRODUCT_DEFINITION_SHAPE('',$,#4);
#3=SHAPE_REPRESENTATION('',(#188,#197,#206,#215,#224,#233,#242,#251,#260,#269,#278,#287,#296,#305,#314,#323,#332,#341,#350,#359,#368,#377,#386,#395,#404,#413,#422,#431,#441,#497,#19),#11);
#4=PRODUCT_DEFINITION('design','example product_definition',#6,#5);
#5=PRODUCT_DEFINITION_CONTEXT('3D Mechanical Parts',#10,'design');
#6=PRODUCT_DEFINITION_FORMATION('1.0','first version',#8);
#7=APPLICATION_PROTOCOL_DEFINITION('international standard','automotive_design',2003,#10);
#8=PRODUCT('product','part','',(#9));
#9=PRODUCT_CONTEXT('3D Mechanical Parts',#10,'mechanical');
#10=APPLICATION_CONTEXT('Core Data for Automotive Mechanical Design Process');
#11=(GEOMETRIC_REPRESENTATION_CONTEXT(3) GLOBAL_UNCERTAINTY_ASSIGNED_CONTEXT((#12)) GLOBAL_UNIT_ASSIGNED_CONTEXT((#13,#14,#18)) REPRESENTATION_CONTEXT('ID1','3D'));
#12=UNCERTAINTY_MEASURE_WITH_UNIT(LENGTH_MEASURE(1.E-005),#13,'DISTANCE_ACCURACY_VALUE','Maximum model space distance between geometric entities at asserted connectivities');
#13=(LENGTH_UNIT() NAMED_UNIT(*) SI_UNIT(.MILLI.,.METRE.));
#14=(CONVERSION_BASED_UNIT('degree',#16) NAMED_UNIT(#15) PLANE_ANGLE_UNIT());
#15=DIMENSIONAL_EXPONENTS(0.,0.,0.,0.,0.,0.,0.);
#16=MEASURE_WITH_UNIT(PLANE_ANGLE_MEASURE(0.01745329252),#17);
#17=(NAMED_UNIT(*) PLANE_ANGLE_UNIT() SI_UNIT($,.RADIAN.));
#18=(NAMED_UNIT(*) SI_UNIT($,.STERADIAN.) SOLID_ANGLE_UNIT());
#19=AXIS2_PLACEMENT_3D('',#20,#21,#22);
#20=CARTESIAN_POINT('',(0.0,0.0,0.0));
#21=DIRECTION('',(0.0,0.0,1.0));
#22=DIRECTION('',(1.0,0.0,0.0));
#25=MECHANICAL_DESIGN_GEOMETRIC_PRESENTATION_REPRESENTATION($,(#190,#199,#208,#217,#226,#235,#244,#253,#262,#271,#280,#289,#298,#307,#316,#325,#334,#343,#352,#361,#370,#379,#388,#397,#406,#415,#424,#433,#493,#494,#495,#499,#548,#597,#646,#695,#744),#11);
#26=PRODUCT_CATEGORY_RELATIONSHIP('','',#27,#28);
#27=PRODUCT_CATEGORY('part','');
#28=PRODUCT_RELATED_PRODUCT_CATEGORY('','',(#8));
#34=PRESENTATION_STYLE_ASSIGNMENT((#35,#40));
#35=SURFACE_STYLE_USAGE(.BOTH.,#36);
#36=SURFACE_SIDE_STYLE('',(#37));
#37=SURFACE_STYLE_FILL_AREA(#38);
#38=FILL_AREA_STYLE('',(#39));
#39=FILL_AREA_STYLE_COLOUR('',#41);
#40=CURVE_STYLE('',#42,POSITIVE_LENGTH_MEASURE(0.1),#41);
#41=COLOUR_RGB('Aluminum',0.725,0.725,0.725);
#42=DRAUGHTING_PRE_DEFINED_CURVE_FONT('continuous');
#43=PRESENTATION_STYLE_ASSIGNMENT((#44,#49));
#44=SURFACE_STYLE_USAGE(.BOTH.,#45);
#45=SURFACE_SIDE_STYLE('',(#46));
#46=SURFACE_STYLE_FILL_AREA(#47);
#47=FILL_AREA_STYLE('',(#48));
#48=FILL_AREA_STYLE_COLOUR('',#50);
#49=CURVE_STYLE('',#51,POSITIVE_LENGTH_MEASURE(0.1),#50);
#50=COLOUR_RGB('Black',0.196,0.196,0.196);
#51=DRAUGHTING_PRE_DEFINED_CURVE_FONT('continuous');
#52=PRESENTATION_STYLE_ASSIGNMENT((#53,#58));
#53=SURFACE_STYLE_USAGE(.BOTH.,#54);
#54=SURFACE_SIDE_STYLE('',(#55));
#55=SURFACE_STYLE_FILL_AREA(#56);
#56=FILL_AREA_STYLE('',(#57));
#57=FILL_AREA_STYLE_COLOUR('',#59);
#58=CURVE_STYLE('',#60,POSITIVE_LENGTH_MEASURE(0.1),#59);
#59=COLOUR_RGB('Pin1',0.588,0.588,0.588);
#60=DRAUGHTING_PRE_DEFINED_CURVE_FONT('continuous');
#61=PRESENTATION_STYLE_ASSIGNMENT((#62,#67));
#62=SURFACE_STYLE_USAGE(.BOTH.,#63);
#63=SURFACE_SIDE_STYLE('',(#64));
#64=SURFACE_STYLE_FILL_AREA(#65);
#65=FILL_AREA_STYLE('',(#66));
#66=FILL_AREA_STYLE_COLOUR('',#68);
#67=CURVE_STYLE('',#69,POSITIVE_LENGTH_MEASURE(0.1),#68);
#68=COLOUR_RGB('HeatTab',0.588,0.588,0.588);
#69=DRAUGHTING_PRE_DEFINED_CURVE_FONT('continuous');
#70=PRESENTATION_STYLE_ASSIGNMENT((#71,#76));
#71=SURFACE_STYLE_USAGE(.BOTH.,#72);
#72=SURFACE_SIDE_STYLE('',(#73));
#73=SURFACE_STYLE_FILL_AREA(#74);
#74=FILL_AREA_STYLE('',(#75));
#75=FILL_AREA_STYLE_COLOUR('',#77);
#76=CURVE_STYLE('',#78,POSITIVE_LENGTH_MEASURE(0.1),#77);
#77=COLOUR_RGB('Gold',0.843,0.686,0.0);
#78=DRAUGHTING_PRE_DEFINED_CURVE_FONT('continuous');
#79=PRESENTATION_STYLE_ASSIGNMENT((#80,#85));
#80=SURFACE_STYLE_USAGE(.BOTH.,#81);
#81=SURFACE_SIDE_STYLE('',(#82));
#82=SURFACE_STYLE_FILL_AREA(#83);
#83=FILL_AREA_STYLE('',(#84));
#84=FILL_AREA_STYLE_COLOUR('',#86);
#85=CURVE_STYLE('',#87,POSITIVE_LENGTH_MEASURE(0.1),#86);
#86=COLOUR_RGB('Brown',0.459,0.345,0.176);
#87=DRAUGHTING_PRE_DEFINED_CURVE_FONT('continuous');
#88=PRESENTATION_STYLE_ASSIGNMENT((#89,#94));
#89=SURFACE_STYLE_USAGE(.BOTH.,#90);
#90=SURFACE_SIDE_STYLE('',(#91));
#91=SURFACE_STYLE_FILL_AREA(#92);
#92=FILL_AREA_STYLE('',(#93));
#93=FILL_AREA_STYLE_COLOUR('',#95);
#94=CURVE_STYLE('',#96,POSITIVE_LENGTH_MEASURE(0.1),#95);
#95=COLOUR_RGB('Tan',0.784,0.686,0.51);
#96=DRAUGHTING_PRE_DEFINED_CURVE_FONT('continuous');
#97=PRESENTATION_STYLE_ASSIGNMENT((#98,#103));
#98=SURFACE_STYLE_USAGE(.BOTH.,#99);
#99=SURFACE_SIDE_STYLE('',(#100));
#100=SURFACE_STYLE_FILL_AREA(#101);
#101=FILL_AREA_STYLE('',(#102));
#102=FILL_AREA_STYLE_COLOUR('',#104);
#103=CURVE_STYLE('',#105,POSITIVE_LENGTH_MEASURE(0.1),#104);
#104=COLOUR_RGB('Gray',0.431,0.431,0.431);
#105=DRAUGHTING_PRE_DEFINED_CURVE_FONT('continuous');
#106=PRESENTATION_STYLE_ASSIGNMENT((#107,#112));
#107=SURFACE_STYLE_USAGE(.BOTH.,#108);
#108=SURFACE_SIDE_STYLE('',(#109));
#109=SURFACE_STYLE_FILL_AREA(#110);
#110=FILL_AREA_STYLE('',(#111));
#111=FILL_AREA_STYLE_COLOUR('',#113);
#112=CURVE_STYLE('',#114,POSITIVE_LENGTH_MEASURE(0.1),#113);
#113=COLOUR_RGB('Red',0.6,0.0,0.0);
#114=DRAUGHTING_PRE_DEFINED_CURVE_FONT('continuous');
#115=PRESENTATION_STYLE_ASSIGNMENT((#116,#121));
#116=SURFACE_STYLE_USAGE(.BOTH.,#117);
#117=SURFACE_SIDE_STYLE('',(#118));
#118=SURFACE_STYLE_FILL_AREA(#119);
#119=FILL_AREA_STYLE('',(#120));
#120=FILL_AREA_STYLE_COLOUR('',#122);
#121=CURVE_STYLE('',#123,POSITIVE_LENGTH_MEASURE(0.1),#122);
#122=COLOUR_RGB('Blue',0.157,0.157,0.588);
#123=DRAUGHTING_PRE_DEFINED_CURVE_FONT('continuous');
#124=PRESENTATION_STYLE_ASSIGNMENT((#125,#130));
#125=SURFACE_STYLE_USAGE(.BOTH.,#126);
#126=SURFACE_SIDE_STYLE('',(#127));
#127=SURFACE_STYLE_FILL_AREA(#128);
#128=FILL_AREA_STYLE('',(#129));
#129=FILL_AREA_STYLE_COLOUR('',#131);
#130=CURVE_STYLE('',#132,POSITIVE_LENGTH_MEASURE(0.1),#131);
#131=COLOUR_RGB('Maroon',0.294,0.0,0.0);
#132=DRAUGHTING_PRE_DEFINED_CURVE_FONT('continuous');
#133=PRESENTATION_STYLE_ASSIGNMENT((#134,#139));
#134=SURFACE_STYLE_USAGE(.BOTH.,#135);
#135=SURFACE_SIDE_STYLE('',(#136));
#136=SURFACE_STYLE_FILL_AREA(#137);
#137=FILL_AREA_STYLE('',(#138));
#138=FILL_AREA_STYLE_COLOUR('',#140);
#139=CURVE_STYLE('',#141,POSITIVE_LENGTH_MEASURE(0.1),#140);
#140=COLOUR_RGB('Green',0.0,0.294,0.0);
#141=DRAUGHTING_PRE_DEFINED_CURVE_FONT('continuous');
#142=PRESENTATION_STYLE_ASSIGNMENT((#143,#148));
#143=SURFACE_STYLE_USAGE(.BOTH.,#144);
#144=SURFACE_SIDE_STYLE('',(#145));
#145=SURFACE_STYLE_FILL_AREA(#146);
#146=FILL_AREA_STYLE('',(#147));
#147=FILL_AREA_STYLE_COLOUR('',#149);
#148=CURVE_STYLE('',#150,POSITIVE_LENGTH_MEASURE(0.1),#149);
#149=COLOUR_RGB('Pin1Wrap',0.98,0.706,0.176);
#150=DRAUGHTING_PRE_DEFINED_CURVE_FONT('continuous');
#151=PRESENTATION_STYLE_ASSIGNMENT((#152,#157));
#152=SURFACE_STYLE_USAGE(.BOTH.,#153);
#153=SURFACE_SIDE_STYLE('',(#154));
#154=SURFACE_STYLE_FILL_AREA(#155);
#155=FILL_AREA_STYLE('',(#156));
#156=FILL_AREA_STYLE_COLOUR('',#158);
#157=CURVE_STYLE('',#159,POSITIVE_LENGTH_MEASURE(0.1),#158);
#158=COLOUR_RGB('Pin1Rad',0.588,0.588,0.588);
#159=DRAUGHTING_PRE_DEFINED_CURVE_FONT('continuous');
#160=PRESENTATION_STYLE_ASSIGNMENT((#161,#166));
#161=SURFACE_STYLE_USAGE(.BOTH.,#162);
#162=SURFACE_SIDE_STYLE('',(#163));
#163=SURFACE_STYLE_FILL_AREA(#164);
#164=FILL_AREA_STYLE('',(#165));
#165=FILL_AREA_STYLE_COLOUR('',#167);
#166=CURVE_STYLE('',#168,POSITIVE_LENGTH_MEASURE(0.1),#167);
#167=COLOUR_RGB('Pin1Axial',0.98,0.706,0.176);
#168=DRAUGHTING_PRE_DEFINED_CURVE_FONT('continuous');
#169=PRESENTATION_STYLE_ASSIGNMENT((#170,#175));
#170=SURFACE_STYLE_USAGE(.BOTH.,#171);
#171=SURFACE_SIDE_STYLE('',(#172));
#172=SURFACE_STYLE_FILL_AREA(#173);
#173=FILL_AREA_STYLE('',(#174));
#174=FILL_AREA_STYLE_COLOUR('',#176);
#175=CURVE_STYLE('',#177,POSITIVE_LENGTH_MEASURE(0.1),#176);
#176=COLOUR_RGB('Pin1Tant',0.459,0.345,0.176);
#177=DRAUGHTING_PRE_DEFINED_CURVE_FONT('continuous');
#178=PRESENTATION_STYLE_ASSIGNMENT((#179,#184));
#179=SURFACE_STYLE_USAGE(.BOTH.,#180);
#180=SURFACE_SIDE_STYLE('',(#181));
#181=SURFACE_STYLE_FILL_AREA(#182);
#182=FILL_AREA_STYLE('',(#183));
#183=FILL_AREA_STYLE_COLOUR('',#185);
#184=CURVE_STYLE('',#186,POSITIVE_LENGTH_MEASURE(0.1),#185);
#185=COLOUR_RGB('Shroud',0.235,0.235,0.235);
#186=DRAUGHTING_PRE_DEFINED_CURVE_FONT('continuous');
#188=MANIFOLD_SOLID_BREP($,#189);
#189=CLOSED_SHELL('',(#191));
#190=STYLED_ITEM('color',(#34),#191);
#191=ADVANCED_FACE('',(),#192,.T.);
#192=SPHERICAL_SURFACE('',#193,0.127);
#193=AXIS2_PLACEMENT_3D('',#194,#195,#196);
#194=CARTESIAN_POINT('',(-0.6,1.2,0.127));
#195=DIRECTION('',(0.,0.,-1.));
#196=DIRECTION('',(-1.,0.,0.));
#197=MANIFOLD_SOLID_BREP($,#198);
#198=CLOSED_SHELL('',(#200));
#199=STYLED_ITEM('color',(#34),#200);
#200=ADVANCED_FACE('',(),#201,.T.);
#201=SPHERICAL_SURFACE('',#202,0.127);
#202=AXIS2_PLACEMENT_3D('',#203,#204,#205);
#203=CARTESIAN_POINT('',(-0.2,1.2,0.127));
#204=DIRECTION('',(0.,0.,-1.));
#205=DIRECTION('',(-1.,0.,0.));
#206=MANIFOLD_SOLID_BREP($,#207);
#207=CLOSED_SHELL('',(#209));
#208=STYLED_ITEM('color',(#34),#209);
#209=ADVANCED_FACE('',(),#210,.T.);
#210=SPHERICAL_SURFACE('',#211,0.127);
#211=AXIS2_PLACEMENT_3D('',#212,#213,#214);
#212=CARTESIAN_POINT('',(0.2,1.2,0.127));
#213=DIRECTION('',(0.,0.,-1.));
#214=DIRECTION('',(-1.,0.,0.));
#215=MANIFOLD_SOLID_BREP($,#216);
#216=CLOSED_SHELL('',(#218));
#217=STYLED_ITEM('color',(#34),#218);
#218=ADVANCED_FACE('',(),#219,.T.);
#219=SPHERICAL_SURFACE('',#220,0.127);
#220=AXIS2_PLACEMENT_3D('',#221,#222,#223);
#221=CARTESIAN_POINT('',(0.6,1.2,0.127));
#222=DIRECTION('',(0.,0.,-1.));
#223=DIRECTION('',(-1.,0.,0.));
#224=MANIFOLD_SOLID_BREP($,#225);
#225=CLOSED_SHELL('',(#227));
#226=STYLED_ITEM('color',(#34),#227);
#227=ADVANCED_FACE('',(),#228,.T.);
#228=SPHERICAL_SURFACE('',#229,0.127);
#229=AXIS2_PLACEMENT_3D('',#230,#231,#232);
#230=CARTESIAN_POINT('',(-0.6,0.8,0.127));
#231=DIRECTION('',(0.,0.,-1.));
#232=DIRECTION('',(-1.,0.,0.));
#233=MANIFOLD_SOLID_BREP($,#234);
#234=CLOSED_SHELL('',(#236));
#235=STYLED_ITEM('color',(#34),#236);
#236=ADVANCED_FACE('',(),#237,.T.);
#237=SPHERICAL_SURFACE('',#238,0.127);
#238=AXIS2_PLACEMENT_3D('',#239,#240,#241);
#239=CARTESIAN_POINT('',(-0.2,0.8,0.127));
#240=DIRECTION('',(0.,0.,-1.));
#241=DIRECTION('',(-1.,0.,0.));
#242=MANIFOLD_SOLID_BREP($,#243);
#243=CLOSED_SHELL('',(#245));
#244=STYLED_ITEM('color',(#34),#245);
#245=ADVANCED_FACE('',(),#246,.T.);
#246=SPHERICAL_SURFACE('',#247,0.127);
#247=AXIS2_PLACEMENT_3D('',#248,#249,#250);
#248=CARTESIAN_POINT('',(0.2,0.8,0.127));
#249=DIRECTION('',(0.,0.,-1.));
#250=DIRECTION('',(-1.,0.,0.));
#251=MANIFOLD_SOLID_BREP($,#252);
#252=CLOSED_SHELL('',(#254));
#253=STYLED_ITEM('color',(#34),#254);
#254=ADVANCED_FACE('',(),#255,.T.);
#255=SPHERICAL_SURFACE('',#256,0.127);
#256=AXIS2_PLACEMENT_3D('',#257,#258,#259);
#257=CARTESIAN_POINT('',(0.6,0.8,0.127));
#258=DIRECTION('',(0.,0.,-1.));
#259=DIRECTION('',(-1.,0.,0.));
#260=MANIFOLD_SOLID_BREP($,#261);
#261=CLOSED_SHELL('',(#263));
#262=STYLED_ITEM('color',(#34),#263);
#263=ADVANCED_FACE('',(),#264,.T.);
#264=SPHERICAL_SURFACE('',#265,0.127);
#265=AXIS2_PLACEMENT_3D('',#266,#267,#268);
#266=CARTESIAN_POINT('',(-0.6,0.4,0.127));
#267=DIRECTION('',(0.,0.,-1.));
#268=DIRECTION('',(-1.,0.,0.));
#269=MANIFOLD_SOLID_BREP($,#270);
#270=CLOSED_SHELL('',(#272));
#271=STYLED_ITEM('color',(#34),#272);
#272=ADVANCED_FACE('',(),#273,.T.);
#273=SPHERICAL_SURFACE('',#274,0.127);
#274=AXIS2_PLACEMENT_3D('',#275,#276,#277);
#275=CARTESIAN_POINT('',(-0.2,0.4,0.127));
#276=DIRECTION('',(0.,0.,-1.));
#277=DIRECTION('',(-1.,0.,0.));
#278=MANIFOLD_SOLID_BREP($,#279);
#279=CLOSED_SHELL('',(#281));
#280=STYLED_ITEM('color',(#34),#281);
#281=ADVANCED_FACE('',(),#282,.T.);
#282=SPHERICAL_SURFACE('',#283,0.127);
#283=AXIS2_PLACEMENT_3D('',#284,#285,#286);
#284=CARTESIAN_POINT('',(0.2,0.4,0.127));
#285=DIRECTION('',(0.,0.,-1.));
#286=DIRECTION('',(-1.,0.,0.));
#287=MANIFOLD_SOLID_BREP($,#288);
#288=CLOSED_SHELL('',(#290));
#289=STYLED_ITEM('color',(#34),#290);
#290=ADVANCED_FACE('',(),#291,.T.);
#291=SPHERICAL_SURFACE('',#292,0.127);
#292=AXIS2_PLACEMENT_3D('',#293,#294,#295);
#293=CARTESIAN_POINT('',(0.6,0.4,0.127));
#294=DIRECTION('',(0.,0.,-1.));
#295=DIRECTION('',(-1.,0.,0.));
#296=MANIFOLD_SOLID_BREP($,#297);
#297=CLOSED_SHELL('',(#299));
#298=STYLED_ITEM('color',(#34),#299);
#299=ADVANCED_FACE('',(),#300,.T.);
#300=SPHERICAL_SURFACE('',#301,0.127);
#301=AXIS2_PLACEMENT_3D('',#302,#303,#304);
#302=CARTESIAN_POINT('',(-0.6,0.0,0.127));
#303=DIRECTION('',(0.,0.,-1.));
#304=DIRECTION('',(-1.,0.,0.));
#305=MANIFOLD_SOLID_BREP($,#306);
#306=CLOSED_SHELL('',(#308));
#307=STYLED_ITEM('color',(#34),#308);
#308=ADVANCED_FACE('',(),#309,.T.);
#309=SPHERICAL_SURFACE('',#310,0.127);
#310=AXIS2_PLACEMENT_3D('',#311,#312,#313);
#311=CARTESIAN_POINT('',(-0.2,0.0,0.127));
#312=DIRECTION('',(0.,0.,-1.));
#313=DIRECTION('',(-1.,0.,0.));
#314=MANIFOLD_SOLID_BREP($,#315);
#315=CLOSED_SHELL('',(#317));
#316=STYLED_ITEM('color',(#34),#317);
#317=ADVANCED_FACE('',(),#318,.T.);
#318=SPHERICAL_SURFACE('',#319,0.127);
#319=AXIS2_PLACEMENT_3D('',#320,#321,#322);
#320=CARTESIAN_POINT('',(0.2,0.0,0.127));
#321=DIRECTION('',(0.,0.,-1.));
#322=DIRECTION('',(-1.,0.,0.));
#323=MANIFOLD_SOLID_BREP($,#324);
#324=CLOSED_SHELL('',(#326));
#325=STYLED_ITEM('color',(#34),#326);
#326=ADVANCED_FACE('',(),#327,.T.);
#327=SPHERICAL_SURFACE('',#328,0.127);
#328=AXIS2_PLACEMENT_3D('',#329,#330,#331);
#329=CARTESIAN_POINT('',(0.6,0.0,0.127));
#330=DIRECTION('',(0.,0.,-1.));
#331=DIRECTION('',(-1.,0.,0.));
#332=MANIFOLD_SOLID_BREP($,#333);
#333=CLOSED_SHELL('',(#335));
#334=STYLED_ITEM('color',(#34),#335);
#335=ADVANCED_FACE('',(),#336,.T.);
#336=SPHERICAL_SURFACE('',#337,0.127);
#337=AXIS2_PLACEMENT_3D('',#338,#339,#340);
#338=CARTESIAN_POINT('',(-0.6,-0.4,0.127));
#339=DIRECTION('',(0.,0.,-1.));
#340=DIRECTION('',(-1.,0.,0.));
#341=MANIFOLD_SOLID_BREP($,#342);
#342=CLOSED_SHELL('',(#344));
#343=STYLED_ITEM('color',(#34),#344);
#344=ADVANCED_FACE('',(),#345,.T.);
#345=SPHERICAL_SURFACE('',#346,0.127);
#346=AXIS2_PLACEMENT_3D('',#347,#348,#349);
#347=CARTESIAN_POINT('',(-0.2,-0.4,0.127));
#348=DIRECTION('',(0.,0.,-1.));
#349=DIRECTION('',(-1.,0.,0.));
#350=MANIFOLD_SOLID_BREP($,#351);
#351=CLOSED_SHELL('',(#353));
#352=STYLED_ITEM('color',(#34),#353);
#353=ADVANCED_FACE('',(),#354,.T.);
#354=SPHERICAL_SURFACE('',#355,0.127);
#355=AXIS2_PLACEMENT_3D('',#356,#357,#358);
#356=CARTESIAN_POINT('',(0.2,-0.4,0.127));
#357=DIRECTION('',(0.,0.,-1.));
#358=DIRECTION('',(-1.,0.,0.));
#359=MANIFOLD_SOLID_BREP($,#360);
#360=CLOSED_SHELL('',(#362));
#361=STYLED_ITEM('color',(#34),#362);
#362=ADVANCED_FACE('',(),#363,.T.);
#363=SPHERICAL_SURFACE('',#364,0.127);
#364=AXIS2_PLACEMENT_3D('',#365,#366,#367);
#365=CARTESIAN_POINT('',(0.6,-0.4,0.127));
#366=DIRECTION('',(0.,0.,-1.));
#367=DIRECTION('',(-1.,0.,0.));
#368=MANIFOLD_SOLID_BREP($,#369);
#369=CLOSED_SHELL('',(#371));
#370=STYLED_ITEM('color',(#34),#371);
#371=ADVANCED_FACE('',(),#372,.T.);
#372=SPHERICAL_SURFACE('',#373,0.127);
#373=AXIS2_PLACEMENT_3D('',#374,#375,#376);
#374=CARTESIAN_POINT('',(-0.6,-0.8,0.127));
#375=DIRECTION('',(0.,0.,-1.));
#376=DIRECTION('',(-1.,0.,0.));
#377=MANIFOLD_SOLID_BREP($,#378);
#378=CLOSED_SHELL('',(#380));
#379=STYLED_ITEM('color',(#34),#380);
#380=ADVANCED_FACE('',(),#381,.T.);
#381=SPHERICAL_SURFACE('',#382,0.127);
#382=AXIS2_PLACEMENT_3D('',#383,#384,#385);
#383=CARTESIAN_POINT('',(-0.2,-0.8,0.127));
#384=DIRECTION('',(0.,0.,-1.));
#385=DIRECTION('',(-1.,0.,0.));
#386=MANIFOLD_SOLID_BREP($,#387);
#387=CLOSED_SHELL('',(#389));
#388=STYLED_ITEM('color',(#34),#389);
#389=ADVANCED_FACE('',(),#390,.T.);
#390=SPHERICAL_SURFACE('',#391,0.127);
#391=AXIS2_PLACEMENT_3D('',#392,#393,#394);
#392=CARTESIAN_POINT('',(0.2,-0.8,0.127));
#393=DIRECTION('',(0.,0.,-1.));
#394=DIRECTION('',(-1.,0.,0.));
#395=MANIFOLD_SOLID_BREP($,#396);
#396=CLOSED_SHELL('',(#398));
#397=STYLED_ITEM('color',(#34),#398);
#398=ADVANCED_FACE('',(),#399,.T.);
#399=SPHERICAL_SURFACE('',#400,0.127);
#400=AXIS2_PLACEMENT_3D('',#401,#402,#403);
#401=CARTESIAN_POINT('',(0.6,-0.8,0.127));
#402=DIRECTION('',(0.,0.,-1.));
#403=DIRECTION('',(-1.,0.,0.));
#404=MANIFOLD_SOLID_BREP($,#405);
#405=CLOSED_SHELL('',(#407));
#406=STYLED_ITEM('color',(#34),#407);
#407=ADVANCED_FACE('',(),#408,.T.);
#408=SPHERICAL_SURFACE('',#409,0.127);
#409=AXIS2_PLACEMENT_3D('',#410,#411,#412);
#410=CARTESIAN_POINT('',(-0.6,-1.2,0.127));
#411=DIRECTION('',(0.,0.,-1.));
#412=DIRECTION('',(-1.,0.,0.));
#413=MANIFOLD_SOLID_BREP($,#414);
#414=CLOSED_SHELL('',(#416));
#415=STYLED_ITEM('color',(#34),#416);
#416=ADVANCED_FACE('',(),#417,.T.);
#417=SPHERICAL_SURFACE('',#418,0.127);
#418=AXIS2_PLACEMENT_3D('',#419,#420,#421);
#419=CARTESIAN_POINT('',(-0.2,-1.2,0.127));
#420=DIRECTION('',(0.,0.,-1.));
#421=DIRECTION('',(-1.,0.,0.));
#422=MANIFOLD_SOLID_BREP($,#423);
#423=CLOSED_SHELL('',(#425));
#424=STYLED_ITEM('color',(#34),#425);
#425=ADVANCED_FACE('',(),#426,.T.);
#426=SPHERICAL_SURFACE('',#427,0.127);
#427=AXIS2_PLACEMENT_3D('',#428,#429,#430);
#428=CARTESIAN_POINT('',(0.2,-1.2,0.127));
#429=DIRECTION('',(0.,0.,-1.));
#430=DIRECTION('',(-1.,0.,0.));
#431=MANIFOLD_SOLID_BREP($,#432);
#432=CLOSED_SHELL('',(#434));
#433=STYLED_ITEM('color',(#34),#434);
#434=ADVANCED_FACE('',(),#435,.T.);
#435=SPHERICAL_SURFACE('',#436,0.127);
#436=AXIS2_PLACEMENT_3D('',#437,#438,#439);
#437=CARTESIAN_POINT('',(0.6,-1.2,0.127));
#438=DIRECTION('',(0.,0.,-1.));
#439=DIRECTION('',(-1.,0.,0.));
#441=MANIFOLD_SOLID_BREP($,#442);
#442=CLOSED_SHELL('',(#443,#444,#445));
#443=ADVANCED_FACE($,(#449,#448),#466,.T.);
#444=ADVANCED_FACE($,(#450),#446,.F.);
#445=ADVANCED_FACE($,(#451),#447,.T.);
#446=PLANE($,#471);
#447=PLANE($,#472);
#448=FACE_BOUND($,#453,.T.);
#449=FACE_OUTER_BOUND($,#452,.T.);
#450=FACE_OUTER_BOUND($,#454,.T.);
#451=FACE_OUTER_BOUND($,#455,.T.);
#452=EDGE_LOOP($,(#462));
#453=EDGE_LOOP($,(#463));
#454=EDGE_LOOP($,(#464));
#455=EDGE_LOOP($,(#465));
#456=CIRCLE($,#469,0.040005);
#457=CIRCLE($,#470,0.040005);
#458=VERTEX_POINT('',#487);
#459=VERTEX_POINT('',#489);
#460=EDGE_CURVE($,#458,#458,#456,.T.);
#461=EDGE_CURVE($,#459,#459,#457,.T.);
#462=ORIENTED_EDGE($,*,*,#460,.F.);
#463=ORIENTED_EDGE($,*,*,#461,.F.);
#464=ORIENTED_EDGE($,*,*,#461,.T.);
#465=ORIENTED_EDGE($,*,*,#460,.T.);
#466=CYLINDRICAL_SURFACE($,#468,0.040005);
#467=AXIS2_PLACEMENT_3D('placement',#485,#473,#474);
#468=AXIS2_PLACEMENT_3D($,#486,#475,#476);
#469=AXIS2_PLACEMENT_3D($,#488,#477,#478);
#470=AXIS2_PLACEMENT_3D($,#490,#479,#480);
#471=AXIS2_PLACEMENT_3D($,#491,#481,#482);
#472=AXIS2_PLACEMENT_3D($,#492,#483,#484);
#473=DIRECTION('axis',(0.,1.,0.));
#474=DIRECTION('refdir',(1.,0.,0.));
#475=DIRECTION('',(0.,0.,1.));
#476=DIRECTION('',(1.,0.,0.));
#477=DIRECTION('',(0.,0.,1.));
#478=DIRECTION('',(1.,0.,0.));
#479=DIRECTION('',(0.,0.,-1.));
#480=DIRECTION('',(1.,0.,0.));
#481=DIRECTION('',(0.,0.,1.));
#482=DIRECTION('',(0.,1.,0.));
#483=DIRECTION('',(0.,0.,1.));
#484=DIRECTION('',(0.,1.,0.));
#485=CARTESIAN_POINT('',(0.,0.,0.));
#486=CARTESIAN_POINT('',(-0.64,1.237,0.508));
#487=CARTESIAN_POINT('',(-0.68,1.237,0.511));
#488=CARTESIAN_POINT('',(-0.64,1.237,0.511));
#489=CARTESIAN_POINT('',(-0.68,1.237,0.508));
#490=CARTESIAN_POINT('',(-0.64,1.237,0.508));
#491=CARTESIAN_POINT('',(-0.64,1.237,0.508));
#492=CARTESIAN_POINT('',(-0.64,1.237,0.511));
#493=STYLED_ITEM('color',(#52),#443);
#494=STYLED_ITEM('color',(#52),#444);
#495=STYLED_ITEM('color',(#52),#445);
#497=MANIFOLD_SOLID_BREP($,#498);
#498=CLOSED_SHELL('',(#500,#549,#598,#647,#696,#745));
#499=STYLED_ITEM('',(#43),#500);
#500=ADVANCED_FACE('',(#506),#501,.T.);
#501=PLANE('',#502);
#502=AXIS2_PLACEMENT_3D('',#503,#504,#505);
#503=CARTESIAN_POINT('',(-0.8,-1.397,0.253));
#504=DIRECTION('',(0.0,-1.0,0.0));
#505=DIRECTION('',(0.,0.,1.));
#506=FACE_OUTER_BOUND('',#507,.T.);
#507=EDGE_LOOP('',(#508,#518,#528,#538));
#511=CARTESIAN_POINT('',(0.8,-1.397,0.253));
#510=VERTEX_POINT('',#511);
#513=CARTESIAN_POINT('',(-0.8,-1.397,0.253));
#512=VERTEX_POINT('',#513);
#509=EDGE_CURVE('',#510,#512,#514,.T.);
#514=LINE('',#511,#516);
#516=VECTOR('',#517,1.6002);
#517=DIRECTION('',(-1.0,0.0,0.0));
#508=ORIENTED_EDGE('',*,*,#509,.F.);
#521=CARTESIAN_POINT('',(0.8,-1.397,0.508));
#520=VERTEX_POINT('',#521);
#519=EDGE_CURVE('',#520,#510,#524,.T.);
#524=LINE('',#521,#526);
#526=VECTOR('',#527,0.2550000000066);
#527=DIRECTION('',(0.0,0.0,-1.0));
#518=ORIENTED_EDGE('',*,*,#519,.F.);
#531=CARTESIAN_POINT('',(-0.8,-1.397,0.508));
#530=VERTEX_POINT('',#531);
#529=EDGE_CURVE('',#530,#520,#534,.T.);
#534=LINE('',#531,#536);
#536=VECTOR('',#537,1.6002);
#537=DIRECTION('',(1.0,0.0,0.0));
#528=ORIENTED_EDGE('',*,*,#529,.F.);
#539=EDGE_CURVE('',#512,#530,#544,.T.);
#544=LINE('',#513,#546);
#546=VECTOR('',#547,0.2550000000066);
#547=DIRECTION('',(0.0,0.0,1.0));
#538=ORIENTED_EDGE('',*,*,#539,.F.);
#548=STYLED_ITEM('',(#43),#549);
#549=ADVANCED_FACE('',(#555),#550,.T.);
#550=PLANE('',#551);
#551=AXIS2_PLACEMENT_3D('',#552,#553,#554);
#552=CARTESIAN_POINT('',(0.8,-1.397,0.253));
#553=DIRECTION('',(1.0,0.0,0.0));
#554=DIRECTION('',(0.,0.,1.));
#555=FACE_OUTER_BOUND('',#556,.T.);
#556=EDGE_LOOP('',(#557,#567,#577,#587));
#560=CARTESIAN_POINT('',(0.8,1.397,0.253));
#559=VERTEX_POINT('',#560);
#558=EDGE_CURVE('',#559,#510,#563,.T.);
#563=LINE('',#560,#565);
#565=VECTOR('',#566,2.794);
#566=DIRECTION('',(0.0,-1.0,0.0));
#557=ORIENTED_EDGE('',*,*,#558,.F.);
#570=CARTESIAN_POINT('',(0.8,1.397,0.508));
#569=VERTEX_POINT('',#570);
#568=EDGE_CURVE('',#569,#559,#573,.T.);
#573=LINE('',#570,#575);
#575=VECTOR('',#576,0.2550000000066);
#576=DIRECTION('',(0.0,0.0,-1.0));
#567=ORIENTED_EDGE('',*,*,#568,.F.);
#578=EDGE_CURVE('',#520,#569,#583,.T.);
#583=LINE('',#521,#585);
#585=VECTOR('',#586,2.794);
#586=DIRECTION('',(0.0,1.0,0.0));
#577=ORIENTED_EDGE('',*,*,#578,.F.);
#587=ORIENTED_EDGE('',*,*,#519,.T.);
#597=STYLED_ITEM('',(#43),#598);
#598=ADVANCED_FACE('',(#604),#599,.T.);
#599=PLANE('',#600);
#600=AXIS2_PLACEMENT_3D('',#601,#602,#603);
#601=CARTESIAN_POINT('',(0.8,1.397,0.253));
#602=DIRECTION('',(0.0,1.0,0.0));
#603=DIRECTION('',(0.,0.,1.));
#604=FACE_OUTER_BOUND('',#605,.T.);
#605=EDGE_LOOP('',(#606,#616,#626,#636));
#609=CARTESIAN_POINT('',(-0.8,1.397,0.253));
#608=VERTEX_POINT('',#609);
#607=EDGE_CURVE('',#608,#559,#612,.T.);
#612=LINE('',#609,#614);
#614=VECTOR('',#615,1.6002);
#615=DIRECTION('',(1.0,0.0,0.0));
#606=ORIENTED_EDGE('',*,*,#607,.F.);
#619=CARTESIAN_POINT('',(-0.8,1.397,0.508));
#618=VERTEX_POINT('',#619);
#617=EDGE_CURVE('',#618,#608,#622,.T.);
#622=LINE('',#619,#624);
#624=VECTOR('',#625,0.2550000000066);
#625=DIRECTION('',(0.0,0.0,-1.0));
#616=ORIENTED_EDGE('',*,*,#617,.F.);
#627=EDGE_CURVE('',#569,#618,#632,.T.);
#632=LINE('',#570,#634);
#634=VECTOR('',#635,1.6002);
#635=DIRECTION('',(-1.0,0.0,0.0));
#626=ORIENTED_EDGE('',*,*,#627,.F.);
#636=ORIENTED_EDGE('',*,*,#568,.T.);
#646=STYLED_ITEM('',(#43),#647);
#647=ADVANCED_FACE('',(#653),#648,.T.);
#648=PLANE('',#649);
#649=AXIS2_PLACEMENT_3D('',#650,#651,#652);
#650=CARTESIAN_POINT('',(-0.8,1.397,0.253));
#651=DIRECTION('',(-1.0,0.0,0.0));
#652=DIRECTION('',(0.,0.,1.));
#653=FACE_OUTER_BOUND('',#654,.T.);
#654=EDGE_LOOP('',(#655,#665,#675,#685));
#656=EDGE_CURVE('',#512,#608,#661,.T.);
#661=LINE('',#513,#663);
#663=VECTOR('',#664,2.794);
#664=DIRECTION('',(0.0,1.0,0.0));
#655=ORIENTED_EDGE('',*,*,#656,.F.);
#665=ORIENTED_EDGE('',*,*,#539,.T.);
#676=EDGE_CURVE('',#618,#530,#681,.T.);
#681=LINE('',#619,#683);
#683=VECTOR('',#684,2.794);
#684=DIRECTION('',(0.0,-1.0,0.0));
#675=ORIENTED_EDGE('',*,*,#676,.F.);
#685=ORIENTED_EDGE('',*,*,#617,.T.);
#695=STYLED_ITEM('',(#43),#696);
#696=ADVANCED_FACE('',(#702),#697,.T.);
#697=PLANE('',#698);
#698=AXIS2_PLACEMENT_3D('',#699,#700,#701);
#699=CARTESIAN_POINT('',(-0.8,1.397,0.253));
#700=DIRECTION('',(0.0,0.0,-1.0));
#701=DIRECTION('',(0.,1.,0.));
#702=FACE_OUTER_BOUND('',#703,.T.);
#703=EDGE_LOOP('',(#704,#714,#724,#734));
#704=ORIENTED_EDGE('',*,*,#607,.T.);
#714=ORIENTED_EDGE('',*,*,#558,.T.);
#724=ORIENTED_EDGE('',*,*,#509,.T.);
#734=ORIENTED_EDGE('',*,*,#656,.T.);
#744=STYLED_ITEM('',(#43),#745);
#745=ADVANCED_FACE('',(#751),#746,.T.);
#746=PLANE('',#747);
#747=AXIS2_PLACEMENT_3D('',#748,#749,#750);
#748=CARTESIAN_POINT('',(-0.8,-1.397,0.508));
#749=DIRECTION('',(0.0,0.0,1.0));
#750=DIRECTION('',(0.,1.,0.));
#751=FACE_OUTER_BOUND('',#752,.T.);
#752=EDGE_LOOP('',(#753,#763,#773,#783));
#753=ORIENTED_EDGE('',*,*,#529,.T.);
#763=ORIENTED_EDGE('',*,*,#578,.T.);
#773=ORIENTED_EDGE('',*,*,#627,.T.);
#783=ORIENTED_EDGE('',*,*,#676,.T.);
ENDSEC;
END-ISO-10303-21;
