ISO-10303-21;
HEADER;
FILE_DESCRIPTION (( 'STEP AP214' ),
    '1' );
FILE_NAME ('SRP6060FA-100M.STEP',
    '2022-12-14T17:44:33',
    ( '' ),
    ( '' ),
    'SwSTEP 2.0',
    'SolidWorks 2022',
    '' );
FILE_SCHEMA (( 'AUTOMOTIVE_DESIGN' ));
ENDSEC;

DATA;
#1 = UNCERTAINTY_MEASURE_WITH_UNIT (LENGTH_MEASURE( 1.000000000000000082E-05 ), #44, 'distance_accuracy_value', 'NONE');
#2 = VECTOR ( 'NONE', #794, 1000.000000000000114 ) ;
#3 = LINE ( 'NONE', #913, #167 ) ;
#4 = DIRECTION ( 'NONE',  ( -0.000000000000000000, -0.000000000000000000, -1.000000000000000000 ) ) ;
#5 = SURFACE_STYLE_USAGE ( .BOTH. , #728 ) ;
#6 =( LENGTH_UNIT ( ) NAMED_UNIT ( * ) SI_UNIT ( .MILLI., .METRE. ) );
#7 = COLOUR_RGB ( '',0.6470588235294117974, 0.6196078431372549211, 0.5882352941176470784 ) ;
#8 = AXIS2_PLACEMENT_3D ( 'NONE', #495, #89, #224 ) ;
#9 =( GEOMETRIC_REPRESENTATION_CONTEXT ( 3 ) GLOBAL_UNCERTAINTY_ASSIGNED_CONTEXT ( ( #856 ) ) GLOBAL_UNIT_ASSIGNED_CONTEXT ( ( #159, #182, #900 ) ) REPRESENTATION_CONTEXT ( 'NONE', 'WORKASPACE' ) );
#10 = PLANE ( 'NONE',  #428 ) ;
#11 = CARTESIAN_POINT ( 'NONE',  ( -2.799999999999996270, -3.199999999999999289, 5.500000000000000000 ) ) ;
#12 = EDGE_CURVE ( 'NONE', #84, #266, #445, .T. ) ;
#13 = LINE ( 'NONE', #590, #185 ) ;
#14 = CARTESIAN_POINT ( 'NONE',  ( 2.649999999999999467, 1.300000000000000044, 5.500000000000000000 ) ) ;
#15 = PLANE ( 'NONE',  #645 ) ;
#16 =( LENGTH_UNIT ( ) NAMED_UNIT ( * ) SI_UNIT ( .MILLI., .METRE. ) );
#17 = DIRECTION ( 'NONE',  ( -1.606225440719267846E-16, 1.000000000000000000, -0.000000000000000000 ) ) ;
#18 =( NAMED_UNIT ( * ) PLANE_ANGLE_UNIT ( ) SI_UNIT ( $, .RADIAN. ) );
#19 = COLOUR_RGB ( '',0.8431372549019607865, 0.8156862745098039102, 0.7529411764705882248 ) ;
#20 =( GEOMETRIC_REPRESENTATION_CONTEXT ( 3 ) GLOBAL_UNCERTAINTY_ASSIGNED_CONTEXT ( ( #140 ) ) GLOBAL_UNIT_ASSIGNED_CONTEXT ( ( #6, #641, #649 ) ) REPRESENTATION_CONTEXT ( 'NONE', 'WORKASPACE' ) );
#21 = SURFACE_SIDE_STYLE ('',( #377 ) ) ;
#22 = CYLINDRICAL_SURFACE ( 'NONE', #310, 0.5000000000000000000 ) ;
#23 = FILL_AREA_STYLE ('',( #681 ) ) ;
#24 = EDGE_CURVE ( 'NONE', #223, #266, #727, .T. ) ;
#25 = ORIENTED_EDGE ( 'NONE', *, *, #633, .F. ) ;
#26 = DIRECTION ( 'NONE',  ( 0.08682659386424779191, 0.08682659386424777803, -0.9924325091389669673 ) ) ;
#27 = ORIENTED_EDGE ( 'NONE', *, *, #855, .T. ) ;
#28 = ADVANCED_FACE ( 'NONE', ( #580 ), #865, .F. ) ;
#29 = CARTESIAN_POINT ( 'NONE',  ( -2.799999999999997158, 3.200000000000001066, 5.500000000000000000 ) ) ;
#30 = FACE_OUTER_BOUND ( 'NONE', #408, .T. ) ;
#31 = ORIENTED_EDGE ( 'NONE', *, *, #569, .F. ) ;
#32 = SURFACE_STYLE_USAGE ( .BOTH. , #54 ) ;
#33 = MECHANICAL_DESIGN_GEOMETRIC_PRESENTATION_REPRESENTATION (  '', ( #846 ), #215 ) ;
#34 =( GEOMETRIC_REPRESENTATION_CONTEXT ( 3 ) GLOBAL_UNCERTAINTY_ASSIGNED_CONTEXT ( ( #63 ) ) GLOBAL_UNIT_ASSIGNED_CONTEXT ( ( #363, #302, #169 ) ) REPRESENTATION_CONTEXT ( 'NONE', 'WORKASPACE' ) );
#35 = DIRECTION ( 'NONE',  ( 0.000000000000000000, 0.000000000000000000, 1.000000000000000000 ) ) ;
#36 = AXIS2_PLACEMENT_3D ( 'NONE', #709, #410, #188 ) ;
#37 = EDGE_LOOP ( 'NONE', ( #353, #150, #497, #675 ) ) ;
#38 = ORIENTED_EDGE ( 'NONE', *, *, #318, .F. ) ;
#39 = ADVANCED_FACE ( 'NONE', ( #755 ), #527, .T. ) ;
#40 = CARTESIAN_POINT ( 'NONE',  ( -2.799999999999997158, 3.200000000000001066, 5.500000000000000000 ) ) ;
#41 = SURFACE_SIDE_STYLE ('',( #697 ) ) ;
#42 = ORIENTED_EDGE ( 'NONE', *, *, #604, .T. ) ;
#43 = SURFACE_SIDE_STYLE ('',( #700 ) ) ;
#44 =( LENGTH_UNIT ( ) NAMED_UNIT ( * ) SI_UNIT ( .MILLI., .METRE. ) );
#45 = ADVANCED_FACE ( 'NONE', ( #350 ), #441, .T. ) ;
#46 =( LENGTH_UNIT ( ) NAMED_UNIT ( * ) SI_UNIT ( .MILLI., .METRE. ) );
#47 = VECTOR ( 'NONE', #423, 1000.000000000000000 ) ;
#48 = VECTOR ( 'NONE', #168, 1000.000000000000114 ) ;
#49 = CARTESIAN_POINT ( 'NONE',  ( -2.799999999999996270, -3.199999999999999289, 5.500000000000000000 ) ) ;
#50 =( LENGTH_UNIT ( ) NAMED_UNIT ( * ) SI_UNIT ( .MILLI., .METRE. ) );
#51 = EDGE_CURVE ( 'NONE', #475, #148, #387, .T. ) ;
#52 = FILL_AREA_STYLE_COLOUR ( '', #19 ) ;
#53 = LINE ( 'NONE', #361, #47 ) ;
#54 = SURFACE_SIDE_STYLE ('',( #706 ) ) ;
#55 = PLANE ( 'NONE',  #534 ) ;
#56 = FACE_OUTER_BOUND ( 'NONE', #634, .T. ) ;
#57 = FILL_AREA_STYLE_COLOUR ( '', #454 ) ;
#58 =( NAMED_UNIT ( * ) PLANE_ANGLE_UNIT ( ) SI_UNIT ( $, .RADIAN. ) );
#59 = SURFACE_STYLE_FILL_AREA ( #130 ) ;
#60 = AXIS2_PLACEMENT_3D ( 'NONE', #442, #666, #673 ) ;
#61 = VECTOR ( 'NONE', #93, 1000.000000000000000 ) ;
#62 = SURFACE_SIDE_STYLE ('',( #282 ) ) ;
#63 = UNCERTAINTY_MEASURE_WITH_UNIT (LENGTH_MEASURE( 1.000000000000000082E-05 ), #363, 'distance_accuracy_value', 'NONE');
#64 =( NAMED_UNIT ( * ) SI_UNIT ( $, .STERADIAN. ) SOLID_ANGLE_UNIT ( ) );
#65 = DIRECTION ( 'NONE',  ( 3.097720492815727659E-16, 1.000000000000000000, -0.000000000000000000 ) ) ;
#66 = CARTESIAN_POINT ( 'NONE',  ( 2.623753400942222314, 2.673753400942222580, 5.799999999999999822 ) ) ;
#67 = VERTEX_POINT ( 'NONE', #467 ) ;
#68 =( NAMED_UNIT ( * ) SI_UNIT ( $, .STERADIAN. ) SOLID_ANGLE_UNIT ( ) );
#69 =( NAMED_UNIT ( * ) SI_UNIT ( $, .STERADIAN. ) SOLID_ANGLE_UNIT ( ) );
#70 = LINE ( 'NONE', #579, #525 ) ;
#71 = CARTESIAN_POINT ( 'NONE',  ( -3.299999999999999378, -2.699999999999995737, 5.500000000000000000 ) ) ;
#72 = LINE ( 'NONE', #866, #251 ) ;
#73 = ORIENTED_EDGE ( 'NONE', *, *, #670, .T. ) ;
#74 = PRESENTATION_LAYER_ASSIGNMENT (  '', '', ( #245 ) ) ;
#75 = FILL_AREA_STYLE_COLOUR ( '', #665 ) ;
#76 = CARTESIAN_POINT ( 'NONE',  ( -2.649999999999999911, -2.699999999999998845, 5.500000000000000000 ) ) ;
#77 = ORIENTED_EDGE ( 'NONE', *, *, #295, .T. ) ;
#78 = PRESENTATION_LAYER_ASSIGNMENT (  '', '', ( #402 ) ) ;
#79 = EDGE_CURVE ( 'NONE', #118, #347, #680, .T. ) ;
#80 = COLOUR_RGB ( '',0.8431372549019607865, 0.8156862745098039102, 0.7529411764705882248 ) ;
#81 = STYLED_ITEM ( 'NONE', ( #329 ), #746 ) ;
#82 = CARTESIAN_POINT ( 'NONE',  ( -2.799999999999996270, -3.199999999999999289, 5.500000000000000000 ) ) ;
#83 = FILL_AREA_STYLE ('',( #796 ) ) ;
#84 = VERTEX_POINT ( 'NONE', #543 ) ;
#85 = FACE_OUTER_BOUND ( 'NONE', #436, .T. ) ;
#86 = EDGE_CURVE ( 'NONE', #493, #925, #383, .T. ) ;
#87 =( LENGTH_UNIT ( ) NAMED_UNIT ( * ) SI_UNIT ( .MILLI., .METRE. ) );
#88 = PRESENTATION_STYLE_ASSIGNMENT (( #742 ) ) ;
#89 = DIRECTION ( 'NONE',  ( -0.000000000000000000, -0.000000000000000000, -1.000000000000000000 ) ) ;
#90 = CARTESIAN_POINT ( 'NONE',  ( -2.799999999999999378, -2.699999999999999289, 5.500000000000000000 ) ) ;
#91 = STYLED_ITEM ( 'NONE', ( #922 ), #882 ) ;
#92 = EDGE_CURVE ( 'NONE', #67, #785, #106, .T. ) ;
#93 = DIRECTION ( 'NONE',  ( -1.000000000000000000, -1.227398685832646310E-16, 0.000000000000000000 ) ) ;
#94 = PRESENTATION_STYLE_ASSIGNMENT (( #230 ) ) ;
#95 = VECTOR ( 'NONE', #65, 1000.000000000000000 ) ;
#96 = SURFACE_STYLE_USAGE ( .BOTH. , #128 ) ;
#97 =( GEOMETRIC_REPRESENTATION_CONTEXT ( 3 ) GLOBAL_UNCERTAINTY_ASSIGNED_CONTEXT ( ( #112 ) ) GLOBAL_UNIT_ASSIGNED_CONTEXT ( ( #840, #58, #783 ) ) REPRESENTATION_CONTEXT ( 'NONE', 'WORKASPACE' ) );
#98 = EDGE_LOOP ( 'NONE', ( #25, #209, #551, #730 ) ) ;
#99 = STYLED_ITEM ( 'NONE', ( #592 ), #729 ) ;
#100 = FILL_AREA_STYLE ('',( #158 ) ) ;
#101 = FILL_AREA_STYLE_COLOUR ( '', #180 ) ;
#102 = CARTESIAN_POINT ( 'NONE',  ( 2.799999999999998934, 2.700000000000001066, 5.500000000000000000 ) ) ;
#103 = ORIENTED_EDGE ( 'NONE', *, *, #809, .T. ) ;
#104 = DIRECTION ( 'NONE',  ( 2.409338161078901646E-16, -1.000000000000000000, 0.000000000000000000 ) ) ;
#105 = ORIENTED_EDGE ( 'NONE', *, *, #147, .T. ) ;
#106 = LINE ( 'NONE', #405, #577 ) ;
#107 =( NAMED_UNIT ( * ) PLANE_ANGLE_UNIT ( ) SI_UNIT ( $, .RADIAN. ) );
#108 = EDGE_CURVE ( 'NONE', #148, #526, #823, .T. ) ;
#109 = AXIS2_PLACEMENT_3D ( 'NONE', #758, #815, #170 ) ;
#110 = AXIS2_PLACEMENT_3D ( 'NONE', #704, #412, #351 ) ;
#111 = VECTOR ( 'NONE', #519, 1000.000000000000114 ) ;
#112 = UNCERTAINTY_MEASURE_WITH_UNIT (LENGTH_MEASURE( 1.000000000000000082E-05 ), #840, 'distance_accuracy_value', 'NONE');
#113 = EDGE_LOOP ( 'NONE', ( #27, #207, #657, #808 ) ) ;
#114 = FILL_AREA_STYLE_COLOUR ( '', #122 ) ;
#115 = SURFACE_SIDE_STYLE ('',( #336 ) ) ;
#116 = PLANE ( 'NONE',  #752 ) ;
#117 = VECTOR ( 'NONE', #195, 1000.000000000000000 ) ;
#118 = VERTEX_POINT ( 'NONE', #40 ) ;
#119 = CARTESIAN_POINT ( 'NONE',  ( 3.299999999999999822, -2.699999999999999289, 5.500000000000000000 ) ) ;
#120 =( GEOMETRIC_REPRESENTATION_CONTEXT ( 3 ) GLOBAL_UNCERTAINTY_ASSIGNED_CONTEXT ( ( #468 ) ) GLOBAL_UNIT_ASSIGNED_CONTEXT ( ( #918, #191, #335 ) ) REPRESENTATION_CONTEXT ( 'NONE', 'WORKASPACE' ) );
#121 = CARTESIAN_POINT ( 'NONE',  ( -2.799999999999997158, 3.200000000000001066, 0.000000000000000000 ) ) ;
#122 = COLOUR_RGB ( '',0.8431372549019607865, 0.8156862745098039102, 0.7529411764705882248 ) ;
#123 = EDGE_CURVE ( 'NONE', #690, #84, #317, .T. ) ;
#124 = ORIENTED_EDGE ( 'NONE', *, *, #24, .T. ) ;
#125 = DIRECTION ( 'NONE',  ( 1.606225440719267846E-16, -1.000000000000000000, 0.000000000000000000 ) ) ;
#126 = SURFACE_STYLE_USAGE ( .BOTH. , #283 ) ;
#127 = ORIENTED_EDGE ( 'NONE', *, *, #12, .F. ) ;
#128 = SURFACE_SIDE_STYLE ('',( #799 ) ) ;
#129 = PLANE ( 'NONE',  #110 ) ;
#130 = FILL_AREA_STYLE ('',( #425 ) ) ;
#131 = VERTEX_POINT ( 'NONE', #608 ) ;
#132 =( GEOMETRIC_REPRESENTATION_CONTEXT ( 3 ) GLOBAL_UNCERTAINTY_ASSIGNED_CONTEXT ( ( #793 ) ) GLOBAL_UNIT_ASSIGNED_CONTEXT ( ( #16, #232, #848 ) ) REPRESENTATION_CONTEXT ( 'NONE', 'WORKASPACE' ) );
#133 = EDGE_CURVE ( 'NONE', #594, #176, #736, .T. ) ;
#134 =( LENGTH_UNIT ( ) NAMED_UNIT ( * ) SI_UNIT ( .MILLI., .METRE. ) );
#135 = VECTOR ( 'NONE', #321, 1000.000000000000000 ) ;
#136 = CARTESIAN_POINT ( 'NONE',  ( -2.623753400942223202, 1.326246599057776754, 5.799999999999999822 ) ) ;
#137 = VECTOR ( 'NONE', #853, 1000.000000000000000 ) ;
#138 = ORIENTED_EDGE ( 'NONE', *, *, #772, .T. ) ;
#139 = AXIS2_PLACEMENT_3D ( 'NONE', #763, #35, #257 ) ;
#140 = UNCERTAINTY_MEASURE_WITH_UNIT (LENGTH_MEASURE( 1.000000000000000082E-05 ), #6, 'distance_accuracy_value', 'NONE');
#141 = EDGE_CURVE ( 'NONE', #690, #223, #459, .T. ) ;
#142 = CARTESIAN_POINT ( 'NONE',  ( 0.000000000000000000, 0.000000000000000000, 0.000000000000000000 ) ) ;
#143 = DIRECTION ( 'NONE',  ( 2.409338161078901646E-16, -1.000000000000000000, 0.000000000000000000 ) ) ;
#144 = CARTESIAN_POINT ( 'NONE',  ( -2.800000000000000711, 2.700000000000001066, 5.500000000000000000 ) ) ;
#145 = CARTESIAN_POINT ( 'NONE',  ( -2.799999999999996270, -3.199999999999999289, 5.500000000000000000 ) ) ;
#146 = SURFACE_STYLE_USAGE ( .BOTH. , #798 ) ;
#147 = EDGE_CURVE ( 'NONE', #161, #118, #393, .T. ) ;
#148 = VERTEX_POINT ( 'NONE', #399 ) ;
#149 = SURFACE_SIDE_STYLE ('',( #490 ) ) ;
#150 = ORIENTED_EDGE ( 'NONE', *, *, #92, .F. ) ;
#151 = SURFACE_SIDE_STYLE ('',( #802 ) ) ;
#152 = ORIENTED_EDGE ( 'NONE', *, *, #162, .F. ) ;
#153 = CLOSED_SHELL ( 'NONE', ( #899, #618, #746, #655, #28, #45, #238, #471, #179, #702, #735, #342, #419, #873, #729, #882, #627, #183, #552, #39 ) ) ;
#154 = CIRCLE ( 'NONE', #828, 0.5000000000000000000 ) ;
#155 = ORIENTED_EDGE ( 'NONE', *, *, #276, .F. ) ;
#156 = PRESENTATION_LAYER_ASSIGNMENT (  '', '', ( #559 ) ) ;
#157 = DIRECTION ( 'NONE',  ( -0.000000000000000000, -0.000000000000000000, -1.000000000000000000 ) ) ;
#158 = FILL_AREA_STYLE_COLOUR ( '', #804 ) ;
#159 =( LENGTH_UNIT ( ) NAMED_UNIT ( * ) SI_UNIT ( .MILLI., .METRE. ) );
#160 =( NAMED_UNIT ( * ) SI_UNIT ( $, .STERADIAN. ) SOLID_ANGLE_UNIT ( ) );
#161 = VERTEX_POINT ( 'NONE', #895 ) ;
#162 = EDGE_CURVE ( 'NONE', #464, #568, #327, .T. ) ;
#163 = DIRECTION ( 'NONE',  ( 8.151520421808390999E-17, -0.9961946980917455452, 0.08715574274765836016 ) ) ;
#164 = DIRECTION ( 'NONE',  ( -0.000000000000000000, 0.000000000000000000, 1.000000000000000000 ) ) ;
#165 = ORIENTED_EDGE ( 'NONE', *, *, #314, .F. ) ;
#166 = PRODUCT_DEFINITION ( 'UNKNOWN', '', #397, #372 ) ;
#167 = VECTOR ( 'NONE', #565, 1000.000000000000114 ) ;
#168 = DIRECTION ( 'NONE',  ( -0.08682659386424779191, -0.08682659386424780579, -0.9924325091389669673 ) ) ;
#169 =( NAMED_UNIT ( * ) SI_UNIT ( $, .STERADIAN. ) SOLID_ANGLE_UNIT ( ) );
#170 = DIRECTION ( 'NONE',  ( -1.000000000000000000, 0.000000000000000000, 0.000000000000000000 ) ) ;
#171 = VECTOR ( 'NONE', #896, 1000.000000000000000 ) ;
#172 = VECTOR ( 'NONE', #429, 1000.000000000000000 ) ;
#173 = DIRECTION ( 'NONE',  ( -1.000000000000000000, 0.000000000000000000, 0.000000000000000000 ) ) ;
#174 = DIRECTION ( 'NONE',  ( -0.000000000000000000, 0.000000000000000000, -1.000000000000000000 ) ) ;
#175 = CARTESIAN_POINT ( 'NONE',  ( -2.623753400942223202, 2.673753400942223468, 5.799999999999999822 ) ) ;
#176 = VERTEX_POINT ( 'NONE', #338 ) ;
#177 = VERTEX_POINT ( 'NONE', #639 ) ;
#178 = VERTEX_POINT ( 'NONE', #834 ) ;
#179 = ADVANCED_FACE ( 'NONE', ( #635 ), #192, .F. ) ;
#180 = COLOUR_RGB ( '',0.8431372549019607865, 0.8156862745098039102, 0.7529411764705882248 ) ;
#181 = VECTOR ( 'NONE', #612, 1000.000000000000000 ) ;
#182 =( NAMED_UNIT ( * ) PLANE_ANGLE_UNIT ( ) SI_UNIT ( $, .RADIAN. ) );
#183 = ADVANCED_FACE ( 'NONE', ( #912 ), #129, .T. ) ;
#184 = STYLED_ITEM ( 'NONE', ( #638 ), #45 ) ;
#185 = VECTOR ( 'NONE', #376, 1000.000000000000000 ) ;
#186 = STYLED_ITEM ( 'NONE', ( #849 ), #655 ) ;
#187 = PLANE ( 'NONE',  #352 ) ;
#188 = DIRECTION ( 'NONE',  ( 0.08715574274765836016, 0.000000000000000000, 0.9961946980917455452 ) ) ;
#189 = UNCERTAINTY_MEASURE_WITH_UNIT (LENGTH_MEASURE( 1.000000000000000082E-05 ), #87, 'distance_accuracy_value', 'NONE');
#190 = ORIENTED_EDGE ( 'NONE', *, *, #452, .T. ) ;
#191 =( NAMED_UNIT ( * ) PLANE_ANGLE_UNIT ( ) SI_UNIT ( $, .RADIAN. ) );
#192 = PLANE ( 'NONE',  #558 ) ;
#193 = FILL_AREA_STYLE ('',( #479 ) ) ;
#194 = VECTOR ( 'NONE', #870, 1000.000000000000000 ) ;
#195 = DIRECTION ( 'NONE',  ( -1.000000000000000000, 1.636531581110195409E-16, -0.000000000000000000 ) ) ;
#196 = LINE ( 'NONE', #909, #226 ) ;
#197 = PRESENTATION_LAYER_ASSIGNMENT (  '', '', ( #81 ) ) ;
#198 = FILL_AREA_STYLE ('',( #476 ) ) ;
#199 =( NAMED_UNIT ( * ) PLANE_ANGLE_UNIT ( ) SI_UNIT ( $, .RADIAN. ) );
#200 = CARTESIAN_POINT ( 'NONE',  ( 2.799999999999998934, 2.700000000000001066, 5.500000000000000000 ) ) ;
#201 = SURFACE_STYLE_USAGE ( .BOTH. , #115 ) ;
#202 = PRESENTATION_STYLE_ASSIGNMENT (( #32 ) ) ;
#203 = FACE_OUTER_BOUND ( 'NONE', #816, .T. ) ;
#204 = VERTEX_POINT ( 'NONE', #646 ) ;
#205 = EDGE_CURVE ( 'NONE', #526, #925, #278, .T. ) ;
#206 = LINE ( 'NONE', #652, #194 ) ;
#207 = ORIENTED_EDGE ( 'NONE', *, *, #830, .F. ) ;
#208 = CARTESIAN_POINT ( 'NONE',  ( 2.610044055769044746, -1.339955944230954765, 5.956698532366033305 ) ) ;
#209 = ORIENTED_EDGE ( 'NONE', *, *, #855, .F. ) ;
#210 = EDGE_CURVE ( 'NONE', #177, #216, #154, .T. ) ;
#211 = ORIENTED_EDGE ( 'NONE', *, *, #51, .T. ) ;
#212 =( NAMED_UNIT ( * ) PLANE_ANGLE_UNIT ( ) SI_UNIT ( $, .RADIAN. ) );
#213 = PRODUCT_CONTEXT ( 'NONE', #778, 'mechanical' ) ;
#214 = PRESENTATION_STYLE_ASSIGNMENT (( #5 ) ) ;
#215 =( GEOMETRIC_REPRESENTATION_CONTEXT ( 3 ) GLOBAL_UNCERTAINTY_ASSIGNED_CONTEXT ( ( #698 ) ) GLOBAL_UNIT_ASSIGNED_CONTEXT ( ( #919, #654, #797 ) ) REPRESENTATION_CONTEXT ( 'NONE', 'WORKASPACE' ) );
#216 = VERTEX_POINT ( 'NONE', #119 ) ;
#217 = MECHANICAL_DESIGN_GEOMETRIC_PRESENTATION_REPRESENTATION (  '', ( #99 ), #516 ) ;
#218 = UNCERTAINTY_MEASURE_WITH_UNIT (LENGTH_MEASURE( 1.000000000000000082E-05 ), #658, 'distance_accuracy_value', 'NONE');
#219 =( NAMED_UNIT ( * ) PLANE_ANGLE_UNIT ( ) SI_UNIT ( $, .RADIAN. ) );
#220 = FILL_AREA_STYLE_COLOUR ( '', #886 ) ;
#221 = SURFACE_STYLE_FILL_AREA ( #926 ) ;
#222 = FILL_AREA_STYLE ('',( #717 ) ) ;
#223 = VERTEX_POINT ( 'NONE', #417 ) ;
#224 = DIRECTION ( 'NONE',  ( -1.000000000000000000, 0.000000000000000000, 0.000000000000000000 ) ) ;
#225 = SURFACE_STYLE_FILL_AREA ( #672 ) ;
#226 = VECTOR ( 'NONE', #407, 1000.000000000000114 ) ;
#227 = CARTESIAN_POINT ( 'NONE',  ( -3.299999999999999378, -2.699999999999995737, 0.000000000000000000 ) ) ;
#228 =( NAMED_UNIT ( * ) SI_UNIT ( $, .STERADIAN. ) SOLID_ANGLE_UNIT ( ) );
#229 = FILL_AREA_STYLE_COLOUR ( '', #818 ) ;
#230 = SURFACE_STYLE_USAGE ( .BOTH. , #394 ) ;
#231 = AXIS2_PLACEMENT_3D ( 'NONE', #902, #542, #337 ) ;
#232 =( NAMED_UNIT ( * ) PLANE_ANGLE_UNIT ( ) SI_UNIT ( $, .RADIAN. ) );
#233 = STYLED_ITEM ( 'NONE', ( #800 ), #238 ) ;
#234 = PRESENTATION_LAYER_ASSIGNMENT (  '', '', ( #186 ) ) ;
#235 = FACE_OUTER_BOUND ( 'NONE', #421, .T. ) ;
#236 = DIRECTION ( 'NONE',  ( 1.000000000000000000, 2.409338161078901646E-16, -0.000000000000000000 ) ) ;
#237 = ADVANCED_BREP_SHAPE_REPRESENTATION ( 'SRP6060FA-100M', ( #721, #837 ), #524 ) ;
#238 = ADVANCED_FACE ( 'NONE', ( #564 ), #187, .F. ) ;
#239 = FILL_AREA_STYLE_COLOUR ( '', #549 ) ;
#240 = PRESENTATION_STYLE_ASSIGNMENT (( #517 ) ) ;
#241 = SURFACE_STYLE_USAGE ( .BOTH. , #603 ) ;
#242 = ORIENTED_EDGE ( 'NONE', *, *, #813, .F. ) ;
#243 =( NAMED_UNIT ( * ) SI_UNIT ( $, .STERADIAN. ) SOLID_ANGLE_UNIT ( ) );
#244 = ORIENTED_EDGE ( 'NONE', *, *, #210, .F. ) ;
#245 = STYLED_ITEM ( 'NONE', ( #842 ), #237 ) ;
#246 = STYLED_ITEM ( 'NONE', ( #711 ), #873 ) ;
#247 = CARTESIAN_POINT ( 'NONE',  ( 2.799999999999998934, 2.700000000000001066, 0.000000000000000000 ) ) ;
#248 = ORIENTED_EDGE ( 'NONE', *, *, #205, .T. ) ;
#249 = STYLED_ITEM ( 'NONE', ( #301 ), #552 ) ;
#250 = EDGE_LOOP ( 'NONE', ( #723, #38, #712, #190 ) ) ;
#251 = VECTOR ( 'NONE', #357, 1000.000000000000000 ) ;
#252 = MECHANICAL_DESIGN_GEOMETRIC_PRESENTATION_REPRESENTATION (  '', ( #416 ), #9 ) ;
#253 = EDGE_CURVE ( 'NONE', #178, #204, #570, .T. ) ;
#254 = SURFACE_STYLE_FILL_AREA ( #100 ) ;
#255 = LINE ( 'NONE', #537, #440 ) ;
#256 =( LENGTH_UNIT ( ) NAMED_UNIT ( * ) SI_UNIT ( .MILLI., .METRE. ) );
#257 = DIRECTION ( 'NONE',  ( -1.000000000000000000, 0.000000000000000000, 0.000000000000000000 ) ) ;
#258 = DIRECTION ( 'NONE',  ( 3.097720492815727659E-16, 1.000000000000000000, -0.000000000000000000 ) ) ;
#259 = UNCERTAINTY_MEASURE_WITH_UNIT (LENGTH_MEASURE( 1.000000000000000082E-05 ), #883, 'distance_accuracy_value', 'NONE');
#260 =( GEOMETRIC_REPRESENTATION_CONTEXT ( 3 ) GLOBAL_UNCERTAINTY_ASSIGNED_CONTEXT ( ( #576 ) ) GLOBAL_UNIT_ASSIGNED_CONTEXT ( ( #914, #199, #668 ) ) REPRESENTATION_CONTEXT ( 'NONE', 'WORKASPACE' ) );
#261 = VECTOR ( 'NONE', #4, 1000.000000000000000 ) ;
#262 = MECHANICAL_DESIGN_GEOMETRIC_PRESENTATION_REPRESENTATION (  '', ( #905 ), #455 ) ;
#263 = COLOUR_RGB ( '',0.7921568627450980005, 0.8196078431372548767, 0.9333333333333333481 ) ;
#264 = SURFACE_STYLE_USAGE ( .BOTH. , #847 ) ;
#265 = SURFACE_STYLE_USAGE ( .BOTH. , #41 ) ;
#266 = VERTEX_POINT ( 'NONE', #227 ) ;
#267 = PRODUCT_RELATED_PRODUCT_CATEGORY ( 'part', '', ( #812 ) ) ;
#268 = SURFACE_STYLE_USAGE ( .BOTH. , #555 ) ;
#269 = LINE ( 'NONE', #275, #117 ) ;
#270 = DIRECTION ( 'NONE',  ( -1.606225440719267846E-16, 1.000000000000000000, -0.000000000000000000 ) ) ;
#271 = FILL_AREA_STYLE_COLOUR ( '', #324 ) ;
#272 = MECHANICAL_DESIGN_GEOMETRIC_PRESENTATION_REPRESENTATION (  '', ( #245 ), #287 ) ;
#273 = PRESENTATION_LAYER_ASSIGNMENT (  '', '', ( #349 ) ) ;
#274 = VECTOR ( 'NONE', #659, 1000.000000000000000 ) ;
#275 = CARTESIAN_POINT ( 'NONE',  ( -2.650000000000000355, 2.700000000000000622, 5.500000000000000000 ) ) ;
#276 = EDGE_CURVE ( 'NONE', #894, #475, #13, .T. ) ;
#277 = ORIENTED_EDGE ( 'NONE', *, *, #86, .F. ) ;
#278 = LINE ( 'NONE', #630, #613 ) ;
#279 = CARTESIAN_POINT ( 'NONE',  ( 2.649999999999999467, 2.699999999999999734, 5.500000000000000000 ) ) ;
#280 = DIRECTION ( 'NONE',  ( 0.000000000000000000, -0.08715574274765836016, -0.9961946980917455452 ) ) ;
#281 = ORIENTED_EDGE ( 'NONE', *, *, #822, .F. ) ;
#282 = SURFACE_STYLE_FILL_AREA ( #718 ) ;
#283 = SURFACE_SIDE_STYLE ('',( #571 ) ) ;
#284 = ORIENTED_EDGE ( 'NONE', *, *, #600, .T. ) ;
#285 = DIRECTION ( 'NONE',  ( 0.000000000000000000, 0.000000000000000000, 1.000000000000000000 ) ) ;
#286 = FACE_OUTER_BOUND ( 'NONE', #814, .T. ) ;
#287 =( GEOMETRIC_REPRESENTATION_CONTEXT ( 3 ) GLOBAL_UNCERTAINTY_ASSIGNED_CONTEXT ( ( #662 ) ) GLOBAL_UNIT_ASSIGNED_CONTEXT ( ( #50, #623, #411 ) ) REPRESENTATION_CONTEXT ( 'NONE', 'WORKASPACE' ) );
#288 = PRESENTATION_LAYER_ASSIGNMENT (  '', '', ( #91 ) ) ;
#289 = DIRECTION ( 'NONE',  ( 1.000000000000000000, 0.000000000000000000, 0.000000000000000000 ) ) ;
#290 = DIRECTION ( 'NONE',  ( 1.000000000000000000, 0.000000000000000000, 0.000000000000000000 ) ) ;
#291 = PRESENTATION_LAYER_ASSIGNMENT (  '', '', ( #691 ) ) ;
#292 = DIRECTION ( 'NONE',  ( 1.000000000000000000, 0.000000000000000000, 0.000000000000000000 ) ) ;
#293 = CYLINDRICAL_SURFACE ( 'NONE', #890, 0.5000000000000000000 ) ;
#294 = CIRCLE ( 'NONE', #470, 0.5000000000000000000 ) ;
#295 = EDGE_CURVE ( 'NONE', #568, #315, #294, .T. ) ;
#296 = FILL_AREA_STYLE ('',( #512 ) ) ;
#297 = SURFACE_STYLE_FILL_AREA ( #572 ) ;
#298 = DIRECTION ( 'NONE',  ( -1.000000000000000000, 0.000000000000000000, 0.000000000000000000 ) ) ;
#299 = EDGE_LOOP ( 'NONE', ( #771, #341, #403, #624 ) ) ;
#300 = CARTESIAN_POINT ( 'NONE',  ( -2.650000000000000355, 2.700000000000000622, 5.500000000000000000 ) ) ;
#301 = PRESENTATION_STYLE_ASSIGNMENT (( #740 ) ) ;
#302 =( NAMED_UNIT ( * ) PLANE_ANGLE_UNIT ( ) SI_UNIT ( $, .RADIAN. ) );
#303 = ORIENTED_EDGE ( 'NONE', *, *, #318, .T. ) ;
#304 = DIRECTION ( 'NONE',  ( 0.000000000000000000, -0.000000000000000000, 1.000000000000000000 ) ) ;
#305 = SURFACE_STYLE_USAGE ( .BOTH. , #21 ) ;
#306 = EDGE_CURVE ( 'NONE', #216, #605, #499, .T. ) ;
#307 = ORIENTED_EDGE ( 'NONE', *, *, #108, .T. ) ;
#308 = VECTOR ( 'NONE', #26, 1000.000000000000114 ) ;
#309 = CIRCLE ( 'NONE', #60, 0.5000000000000000000 ) ;
#310 = AXIS2_PLACEMENT_3D ( 'NONE', #102, #157, #448 ) ;
#311 = CARTESIAN_POINT ( 'NONE',  ( -3.300000000000000711, 2.699999999999997513, 5.500000000000000000 ) ) ;
#312 = SURFACE_STYLE_FILL_AREA ( #23 ) ;
#313 = ORIENTED_EDGE ( 'NONE', *, *, #843, .T. ) ;
#314 = EDGE_CURVE ( 'NONE', #347, #84, #309, .T. ) ;
#315 = VERTEX_POINT ( 'NONE', #851 ) ;
#316 = CARTESIAN_POINT ( 'NONE',  ( -2.649999999999999911, -1.300000000000000266, 5.500000000000000000 ) ) ;
#317 = LINE ( 'NONE', #536, #707 ) ;
#318 = EDGE_CURVE ( 'NONE', #177, #568, #206, .T. ) ;
#319 = VERTEX_POINT ( 'NONE', #738 ) ;
#320 =( GEOMETRIC_REPRESENTATION_CONTEXT ( 3 ) GLOBAL_UNCERTAINTY_ASSIGNED_CONTEXT ( ( #218 ) ) GLOBAL_UNIT_ASSIGNED_CONTEXT ( ( #658, #360, #575 ) ) REPRESENTATION_CONTEXT ( 'NONE', 'WORKASPACE' ) );
#321 = DIRECTION ( 'NONE',  ( -1.000000000000000000, -0.000000000000000000, -0.000000000000000000 ) ) ;
#322 = SURFACE_STYLE_USAGE ( .BOTH. , #601 ) ;
#323 = ORIENTED_EDGE ( 'NONE', *, *, #522, .F. ) ;
#324 = COLOUR_RGB ( '',0.6470588235294117974, 0.6196078431372549211, 0.5882352941176470784 ) ;
#325 = EDGE_LOOP ( 'NONE', ( #716, #474, #838, #460 ) ) ;
#326 = COLOUR_RGB ( '',0.8431372549019607865, 0.8156862745098039102, 0.7529411764705882248 ) ;
#327 = LINE ( 'NONE', #619, #469 ) ;
#328 = LINE ( 'NONE', #620, #901 ) ;
#329 = PRESENTATION_STYLE_ASSIGNMENT (( #406 ) ) ;
#330 = UNCERTAINTY_MEASURE_WITH_UNIT (LENGTH_MEASURE( 1.000000000000000082E-05 ), #598, 'distance_accuracy_value', 'NONE');
#331 = VECTOR ( 'NONE', #270, 1000.000000000000000 ) ;
#332 = PRESENTATION_LAYER_ASSIGNMENT (  '', '', ( #887 ) ) ;
#333 = COLOUR_RGB ( '',0.6470588235294117974, 0.6196078431372549211, 0.5882352941176470784 ) ;
#334 = COLOUR_RGB ( '',0.6470588235294117974, 0.6196078431372549211, 0.5882352941176470784 ) ;
#335 =( NAMED_UNIT ( * ) SI_UNIT ( $, .STERADIAN. ) SOLID_ANGLE_UNIT ( ) );
#336 = SURFACE_STYLE_FILL_AREA ( #710 ) ;
#337 = DIRECTION ( 'NONE',  ( 1.000000000000000000, 0.000000000000000000, -0.000000000000000000 ) ) ;
#338 = CARTESIAN_POINT ( 'NONE',  ( 2.799999999999995826, 3.200000000000001066, 0.000000000000000000 ) ) ;
#339 = DIRECTION ( 'NONE',  ( -0.000000000000000000, -0.000000000000000000, -1.000000000000000000 ) ) ;
#340 = DIRECTION ( 'NONE',  ( -1.000000000000000000, 0.000000000000000000, 0.000000000000000000 ) ) ;
#341 = ORIENTED_EDGE ( 'NONE', *, *, #24, .F. ) ;
#342 = ADVANCED_FACE ( 'NONE', ( #923 ), #10, .T. ) ;
#343 = DIRECTION ( 'NONE',  ( -1.000000000000000000, -1.606225440719267846E-16, 0.000000000000000000 ) ) ;
#344 = DIRECTION ( 'NONE',  ( 1.000000000000000000, 8.182657905550977046E-17, -0.000000000000000000 ) ) ;
#345 = CARTESIAN_POINT ( 'NONE',  ( 2.649999999999999467, 2.700000000000001066, 5.500000000000000000 ) ) ;
#346 = DIRECTION ( 'NONE',  ( -8.151520421808392232E-17, -0.9961946980917455452, 0.08715574274765836016 ) ) ;
#347 = VERTEX_POINT ( 'NONE', #810 ) ;
#348 = CARTESIAN_POINT ( 'NONE',  ( -2.649999999999999911, -1.300000000000000266, 5.500000000000000000 ) ) ;
#349 = STYLED_ITEM ( 'NONE', ( #597 ), #28 ) ;
#350 = FACE_OUTER_BOUND ( 'NONE', #589, .T. ) ;
#351 = DIRECTION ( 'NONE',  ( 0.08715574274765836016, 0.000000000000000000, -0.9961946980917455452 ) ) ;
#352 = AXIS2_PLACEMENT_3D ( 'NONE', #82, #671, #304 ) ;
#353 = ORIENTED_EDGE ( 'NONE', *, *, #359, .F. ) ;
#354 = CARTESIAN_POINT ( 'NONE',  ( -3.300000000000000711, 2.699999999999997513, 5.500000000000000000 ) ) ;
#355 = ORIENTED_EDGE ( 'NONE', *, *, #522, .T. ) ;
#356 = CARTESIAN_POINT ( 'NONE',  ( 3.299999999999998934, 2.699999999999997513, 5.500000000000000000 ) ) ;
#357 = DIRECTION ( 'NONE',  ( -0.000000000000000000, -0.000000000000000000, -1.000000000000000000 ) ) ;
#358 = CARTESIAN_POINT ( 'NONE',  ( 2.639445599637106010, 1.310554400362893945, 5.620637348172158987 ) ) ;
#359 = EDGE_CURVE ( 'NONE', #785, #178, #450, .T. ) ;
#360 =( NAMED_UNIT ( * ) PLANE_ANGLE_UNIT ( ) SI_UNIT ( $, .RADIAN. ) );
#361 = CARTESIAN_POINT ( 'NONE',  ( 3.299999999999998934, 2.699999999999997513, 5.500000000000000000 ) ) ;
#362 = CARTESIAN_POINT ( 'NONE',  ( 2.623753400942222314, -2.673753400942222136, 5.799999999999999822 ) ) ;
#363 =( LENGTH_UNIT ( ) NAMED_UNIT ( * ) SI_UNIT ( .MILLI., .METRE. ) );
#364 =( GEOMETRIC_REPRESENTATION_CONTEXT ( 3 ) GLOBAL_UNCERTAINTY_ASSIGNED_CONTEXT ( ( #1 ) ) GLOBAL_UNIT_ASSIGNED_CONTEXT ( ( #44, #107, #554 ) ) REPRESENTATION_CONTEXT ( 'NONE', 'WORKASPACE' ) );
#365 = AXIS2_PLACEMENT_3D ( 'NONE', #247, #820, #173 ) ;
#366 = ORIENTED_EDGE ( 'NONE', *, *, #427, .F. ) ;
#367 = PRESENTATION_LAYER_ASSIGNMENT (  '', '', ( #846 ) ) ;
#368 = DIRECTION ( 'NONE',  ( 0.9961946980917455452, 0.000000000000000000, 0.08715574274765836016 ) ) ;
#369 = CARTESIAN_POINT ( 'NONE',  ( -2.650000000000000355, 2.700000000000000622, 5.500000000000000000 ) ) ;
#370 =( GEOMETRIC_REPRESENTATION_CONTEXT ( 3 ) GLOBAL_UNCERTAINTY_ASSIGNED_CONTEXT ( ( #898 ) ) GLOBAL_UNIT_ASSIGNED_CONTEXT ( ( #256, #833, #68 ) ) REPRESENTATION_CONTEXT ( 'NONE', 'WORKASPACE' ) );
#371 = DIRECTION ( 'NONE',  ( 1.630304084361678200E-16, 0.9961946980917455452, 0.08715574274765836016 ) ) ;
#372 = PRODUCT_DEFINITION_CONTEXT ( 'detailed design', #852, 'design' ) ;
#373 = SURFACE_SIDE_STYLE ('',( #863 ) ) ;
#374 = FACE_OUTER_BOUND ( 'NONE', #767, .T. ) ;
#375 = ORIENTED_EDGE ( 'NONE', *, *, #276, .T. ) ;
#376 = DIRECTION ( 'NONE',  ( -0.000000000000000000, -1.000000000000000000, -0.000000000000000000 ) ) ;
#377 = SURFACE_STYLE_FILL_AREA ( #83 ) ;
#378 = LINE ( 'NONE', #11, #172 ) ;
#379 = AXIS2_PLACEMENT_3D ( 'NONE', #826, #774, #705 ) ;
#380 = DIRECTION ( 'NONE',  ( 0.000000000000000000, -1.000000000000000000, 0.000000000000000000 ) ) ;
#381 = EDGE_CURVE ( 'NONE', #223, #761, #737, .T. ) ;
#382 = CARTESIAN_POINT ( 'NONE',  ( 3.299999999999998934, 2.699999999999997513, 5.500000000000000000 ) ) ;
#383 = LINE ( 'NONE', #825, #308 ) ;
#384 = PLANE ( 'NONE',  #36 ) ;
#385 = ORIENTED_EDGE ( 'NONE', *, *, #768, .T. ) ;
#386 = FACE_BOUND ( 'NONE', #37, .T. ) ;
#387 = LINE ( 'NONE', #606, #48 ) ;
#388 = MECHANICAL_DESIGN_GEOMETRIC_PRESENTATION_REPRESENTATION (  '', ( #249 ), #720 ) ;
#389 = ORIENTED_EDGE ( 'NONE', *, *, #795, .T. ) ;
#390 = SURFACE_SIDE_STYLE ('',( #254 ) ) ;
#391 =( NAMED_UNIT ( * ) SI_UNIT ( $, .STERADIAN. ) SOLID_ANGLE_UNIT ( ) );
#392 =( LENGTH_UNIT ( ) NAMED_UNIT ( * ) SI_UNIT ( .MILLI., .METRE. ) );
#393 = LINE ( 'NONE', #29, #135 ) ;
#394 = SURFACE_SIDE_STYLE ('',( #225 ) ) ;
#395 = EDGE_LOOP ( 'NONE', ( #520, #685, #819, #103 ) ) ;
#396 = FACE_BOUND ( 'NONE', #98, .T. ) ;
#397 = PRODUCT_DEFINITION_FORMATION_WITH_SPECIFIED_SOURCE ( 'ANY', '', #812, .NOT_KNOWN. ) ;
#398 = CARTESIAN_POINT ( 'NONE',  ( 3.299999999999998934, 2.699999999999997513, 0.000000000000000000 ) ) ;
#399 = CARTESIAN_POINT ( 'NONE',  ( -2.650000000000000799, 1.299999999999999600, 5.500000000000000000 ) ) ;
#400 = CARTESIAN_POINT ( 'NONE',  ( 2.623753400942222758, -1.326246599057776754, 5.799999999999999822 ) ) ;
#401 = UNCERTAINTY_MEASURE_WITH_UNIT (LENGTH_MEASURE( 1.000000000000000082E-05 ), #585, 'distance_accuracy_value', 'NONE');
#402 = STYLED_ITEM ( 'NONE', ( #806 ), #342 ) ;
#403 = ORIENTED_EDGE ( 'NONE', *, *, #141, .F. ) ;
#404 = STYLED_ITEM ( 'NONE', ( #240 ), #618 ) ;
#405 = CARTESIAN_POINT ( 'NONE',  ( -2.649999999999999911, -1.300000000000000266, 5.500000000000000000 ) ) ;
#406 = SURFACE_STYLE_USAGE ( .BOTH. , #631 ) ;
#407 = DIRECTION ( 'NONE',  ( 0.08682659386424776415, -0.08682659386424780579, -0.9924325091389669673 ) ) ;
#408 = EDGE_LOOP ( 'NONE', ( #375, #313, #744, #586 ) ) ;
#409 = FILL_AREA_STYLE ('',( #114 ) ) ;
#410 = DIRECTION ( 'NONE',  ( -0.9961946980917455452, 0.000000000000000000, 0.08715574274765836016 ) ) ;
#411 =( NAMED_UNIT ( * ) SI_UNIT ( $, .STERADIAN. ) SOLID_ANGLE_UNIT ( ) );
#412 = DIRECTION ( 'NONE',  ( 0.9961946980917455452, -3.085932731113177535E-16, 0.08715574274765836016 ) ) ;
#413 = CARTESIAN_POINT ( 'NONE',  ( 3.299999999999998934, 2.699999999999997513, 0.000000000000000000 ) ) ;
#414 = ORIENTED_EDGE ( 'NONE', *, *, #79, .T. ) ;
#415 = MECHANICAL_DESIGN_GEOMETRIC_PRESENTATION_REPRESENTATION (  '', ( #184 ), #719 ) ;
#416 = STYLED_ITEM ( 'NONE', ( #202 ), #627 ) ;
#417 = CARTESIAN_POINT ( 'NONE',  ( -3.299999999999999378, -2.699999999999995737, 5.500000000000000000 ) ) ;
#418 = EDGE_LOOP ( 'NONE', ( #385, #541, #508, #754 ) ) ;
#419 = ADVANCED_FACE ( 'NONE', ( #235 ), #550, .T. ) ;
#420 = CARTESIAN_POINT ( 'NONE',  ( 3.299999999999998934, 2.699999999999997513, 5.500000000000000000 ) ) ;
#421 = EDGE_LOOP ( 'NONE', ( #248, #277, #687, #73 ) ) ;
#422 = FILL_AREA_STYLE ('',( #52 ) ) ;
#423 = DIRECTION ( 'NONE',  ( -0.000000000000000000, -0.000000000000000000, -1.000000000000000000 ) ) ;
#424 = ORIENTED_EDGE ( 'NONE', *, *, #359, .T. ) ;
#425 = FILL_AREA_STYLE_COLOUR ( '', #80 ) ;
#426 = DIRECTION ( 'NONE',  ( 0.000000000000000000, -0.08715574274765836016, 0.9961946980917455452 ) ) ;
#427 = EDGE_CURVE ( 'NONE', #319, #521, #587, .T. ) ;
#428 = AXIS2_PLACEMENT_3D ( 'NONE', #518, #163, #595 ) ;
#429 = DIRECTION ( 'NONE',  ( 1.000000000000000000, 0.000000000000000000, 0.000000000000000000 ) ) ;
#430 = FILL_AREA_STYLE ('',( #239 ) ) ;
#431 = LINE ( 'NONE', #208, #483 ) ;
#432 = EDGE_LOOP ( 'NONE', ( #138, #449, #389, #42 ) ) ;
#433 = CARTESIAN_POINT ( 'NONE',  ( 2.799999999999995826, 3.200000000000001066, 5.500000000000000000 ) ) ;
#434 = EDGE_CURVE ( 'NONE', #493, #894, #435, .T. ) ;
#435 = LINE ( 'NONE', #566, #274 ) ;
#436 = EDGE_LOOP ( 'NONE', ( #284, #105, #355, #695, #599, #489, #908, #713 ) ) ;
#437 = UNCERTAINTY_MEASURE_WITH_UNIT (LENGTH_MEASURE( 1.000000000000000082E-05 ), #513, 'distance_accuracy_value', 'NONE');
#438 = PLANE ( 'NONE',  #862 ) ;
#439 = ORIENTED_EDGE ( 'NONE', *, *, #911, .T. ) ;
#440 = VECTOR ( 'NONE', #821, 1000.000000000000000 ) ;
#441 = CYLINDRICAL_SURFACE ( 'NONE', #109, 0.5000000000000000000 ) ;
#442 = CARTESIAN_POINT ( 'NONE',  ( -2.800000000000000711, 2.700000000000001066, 0.000000000000000000 ) ) ;
#443 = MECHANICAL_DESIGN_GEOMETRIC_PRESENTATION_REPRESENTATION (  '', ( #528 ), #97 ) ;
#444 = SHAPE_DEFINITION_REPRESENTATION ( #509, #237 ) ;
#445 = LINE ( 'NONE', #501, #765 ) ;
#446 = DIRECTION ( 'NONE',  ( -1.000000000000000000, 0.000000000000000000, 0.000000000000000000 ) ) ;
#447 = ORIENTED_EDGE ( 'NONE', *, *, #92, .T. ) ;
#448 = DIRECTION ( 'NONE',  ( -1.000000000000000000, 0.000000000000000000, 0.000000000000000000 ) ) ;
#449 = ORIENTED_EDGE ( 'NONE', *, *, #427, .T. ) ;
#450 = LINE ( 'NONE', #747, #692 ) ;
#451 = DIRECTION ( 'NONE',  ( 1.000000000000000000, 0.000000000000000000, 0.000000000000000000 ) ) ;
#452 = EDGE_CURVE ( 'NONE', #761, #464, #789, .T. ) ;
#453 = DIRECTION ( 'NONE',  ( -0.000000000000000000, -0.000000000000000000, -1.000000000000000000 ) ) ;
#454 = COLOUR_RGB ( '',0.8431372549019607865, 0.8156862745098039102, 0.7529411764705882248 ) ;
#455 =( GEOMETRIC_REPRESENTATION_CONTEXT ( 3 ) GLOBAL_UNCERTAINTY_ASSIGNED_CONTEXT ( ( #769 ) ) GLOBAL_UNIT_ASSIGNED_CONTEXT ( ( #669, #743, #722 ) ) REPRESENTATION_CONTEXT ( 'NONE', 'WORKASPACE' ) );
#456 = PRESENTATION_LAYER_ASSIGNMENT (  '', '', ( #514 ) ) ;
#457 = ORIENTED_EDGE ( 'NONE', *, *, #843, .F. ) ;
#458 =( NAMED_UNIT ( * ) PLANE_ANGLE_UNIT ( ) SI_UNIT ( $, .RADIAN. ) );
#459 = LINE ( 'NONE', #759, #874 ) ;
#460 = ORIENTED_EDGE ( 'NONE', *, *, #907, .T. ) ;
#461 = SURFACE_STYLE_FILL_AREA ( #531 ) ;
#462 = ORIENTED_EDGE ( 'NONE', *, *, #911, .F. ) ;
#463 = ORIENTED_EDGE ( 'NONE', *, *, #253, .T. ) ;
#464 = VERTEX_POINT ( 'NONE', #801 ) ;
#465 = MECHANICAL_DESIGN_GEOMETRIC_PRESENTATION_REPRESENTATION (  '', ( #91 ), #320 ) ;
#466 = LINE ( 'NONE', #880, #61 ) ;
#467 = CARTESIAN_POINT ( 'NONE',  ( 2.649999999999999911, -1.299999999999999156, 5.500000000000000000 ) ) ;
#468 = UNCERTAINTY_MEASURE_WITH_UNIT (LENGTH_MEASURE( 1.000000000000000082E-05 ), #918, 'distance_accuracy_value', 'NONE');
#469 = VECTOR ( 'NONE', #539, 1000.000000000000000 ) ;
#470 = AXIS2_PLACEMENT_3D ( 'NONE', #725, #858, #289 ) ;
#471 = ADVANCED_FACE ( 'NONE', ( #374 ), #511, .T. ) ;
#472 = CIRCLE ( 'NONE', #139, 0.5000000000000000000 ) ;
#473 = DIRECTION ( 'NONE',  ( -0.000000000000000000, 1.000000000000000000, -0.000000000000000000 ) ) ;
#474 = ORIENTED_EDGE ( 'NONE', *, *, #663, .F. ) ;
#475 = VERTEX_POINT ( 'NONE', #136 ) ;
#476 = FILL_AREA_STYLE_COLOUR ( '', #7 ) ;
#477 = SURFACE_STYLE_FILL_AREA ( #193 ) ;
#478 = DIRECTION ( 'NONE',  ( 0.000000000000000000, 0.000000000000000000, 1.000000000000000000 ) ) ;
#479 = FILL_AREA_STYLE_COLOUR ( '', #485 ) ;
#480 = MECHANICAL_DESIGN_GEOMETRIC_PRESENTATION_REPRESENTATION (  '', ( #246 ), #260 ) ;
#481 = ORIENTED_EDGE ( 'NONE', *, *, #123, .F. ) ;
#482 =( GEOMETRIC_REPRESENTATION_CONTEXT ( 3 ) GLOBAL_UNCERTAINTY_ASSIGNED_CONTEXT ( ( #259 ) ) GLOBAL_UNIT_ASSIGNED_CONTEXT ( ( #883, #458, #484 ) ) REPRESENTATION_CONTEXT ( 'NONE', 'WORKASPACE' ) );
#483 = VECTOR ( 'NONE', #583, 1000.000000000000114 ) ;
#484 =( NAMED_UNIT ( * ) SI_UNIT ( $, .STERADIAN. ) SOLID_ANGLE_UNIT ( ) );
#485 = COLOUR_RGB ( '',0.8431372549019607865, 0.8156862745098039102, 0.7529411764705882248 ) ;
#486 = CARTESIAN_POINT ( 'NONE',  ( -2.650000000000000355, 2.700000000000000622, 5.500000000000000000 ) ) ;
#487 = FILL_AREA_STYLE ('',( #545 ) ) ;
#488 = EDGE_CURVE ( 'NONE', #761, #177, #378, .T. ) ;
#489 = ORIENTED_EDGE ( 'NONE', *, *, #488, .T. ) ;
#490 = SURFACE_STYLE_FILL_AREA ( #884 ) ;
#491 = SURFACE_STYLE_FILL_AREA ( #198 ) ;
#492 = SURFACE_STYLE_FILL_AREA ( #222 ) ;
#493 = VERTEX_POINT ( 'NONE', #66 ) ;
#494 = CARTESIAN_POINT ( 'NONE',  ( 2.623753400942222758, -1.299999999999999600, 5.799999999999999822 ) ) ;
#495 = CARTESIAN_POINT ( 'NONE',  ( 2.799999999999999822, -2.699999999999999289, 5.500000000000000000 ) ) ;
#496 = COLOUR_RGB ( '',0.6470588235294117974, 0.6196078431372549211, 0.5882352941176470784 ) ;
#497 = ORIENTED_EDGE ( 'NONE', *, *, #782, .F. ) ;
#498 = UNCERTAINTY_MEASURE_WITH_UNIT (LENGTH_MEASURE( 1.000000000000000082E-05 ), #392, 'distance_accuracy_value', 'NONE');
#499 = LINE ( 'NONE', #356, #578 ) ;
#500 = MECHANICAL_DESIGN_GEOMETRIC_PRESENTATION_REPRESENTATION (  '', ( #402 ), #628 ) ;
#501 = CARTESIAN_POINT ( 'NONE',  ( -3.300000000000000711, 2.699999999999997513, 0.000000000000000000 ) ) ;
#502 =( GEOMETRIC_REPRESENTATION_CONTEXT ( 3 ) GLOBAL_UNCERTAINTY_ASSIGNED_CONTEXT ( ( #498 ) ) GLOBAL_UNIT_ASSIGNED_CONTEXT ( ( #392, #760, #689 ) ) REPRESENTATION_CONTEXT ( 'NONE', 'WORKASPACE' ) );
#503 = PRESENTATION_STYLE_ASSIGNMENT (( #859 ) ) ;
#504 = EDGE_LOOP ( 'NONE', ( #463, #751, #366, #803 ) ) ;
#505 = SURFACE_STYLE_USAGE ( .BOTH. , #43 ) ;
#506 = CARTESIAN_POINT ( 'NONE',  ( -2.799999999999999378, -2.699999999999999289, 0.000000000000000000 ) ) ;
#507 = FACE_OUTER_BOUND ( 'NONE', #584, .T. ) ;
#508 = ORIENTED_EDGE ( 'NONE', *, *, #147, .F. ) ;
#509 = PRODUCT_DEFINITION_SHAPE ( 'NONE', 'NONE',  #166 ) ;
#510 = DIRECTION ( 'NONE',  ( 1.000000000000000000, 0.000000000000000000, 0.000000000000000000 ) ) ;
#511 = CYLINDRICAL_SURFACE ( 'NONE', #8, 0.5000000000000000000 ) ;
#512 = FILL_AREA_STYLE_COLOUR ( '', #333 ) ;
#513 =( LENGTH_UNIT ( ) NAMED_UNIT ( * ) SI_UNIT ( .MILLI., .METRE. ) );
#514 = STYLED_ITEM ( 'NONE', ( #503 ), #702 ) ;
#515 = ORIENTED_EDGE ( 'NONE', *, *, #633, .T. ) ;
#516 =( GEOMETRIC_REPRESENTATION_CONTEXT ( 3 ) GLOBAL_UNCERTAINTY_ASSIGNED_CONTEXT ( ( #437 ) ) GLOBAL_UNIT_ASSIGNED_CONTEXT ( ( #513, #18, #160 ) ) REPRESENTATION_CONTEXT ( 'NONE', 'WORKASPACE' ) );
#517 = SURFACE_STYLE_USAGE ( .BOTH. , #149 ) ;
#518 = CARTESIAN_POINT ( 'NONE',  ( -2.650000000000000355, 1.299999999999999600, 5.500000000000000000 ) ) ;
#519 = DIRECTION ( 'NONE',  ( -0.08682659386424779191, -0.08682659386424777803, -0.9924325091389669673 ) ) ;
#520 = ORIENTED_EDGE ( 'NONE', *, *, #133, .T. ) ;
#521 = VERTEX_POINT ( 'NONE', #362 ) ;
#522 = EDGE_CURVE ( 'NONE', #118, #690, #532, .T. ) ;
#523 = PRESENTATION_STYLE_ASSIGNMENT (( #241 ) ) ;
#524 =( GEOMETRIC_REPRESENTATION_CONTEXT ( 3 ) GLOBAL_UNCERTAINTY_ASSIGNED_CONTEXT ( ( #867 ) ) GLOBAL_UNIT_ASSIGNED_CONTEXT ( ( #46, #632, #781 ) ) REPRESENTATION_CONTEXT ( 'NONE', 'WORKASPACE' ) );
#525 = VECTOR ( 'NONE', #344, 1000.000000000000000 ) ;
#526 = VERTEX_POINT ( 'NONE', #14 ) ;
#527 = PLANE ( 'NONE',  #231 ) ;
#528 = STYLED_ITEM ( 'NONE', ( #773 ), #183 ) ;
#529 = FILL_AREA_STYLE_COLOUR ( '', #263 ) ;
#530 =( GEOMETRIC_REPRESENTATION_CONTEXT ( 3 ) GLOBAL_UNCERTAINTY_ASSIGNED_CONTEXT ( ( #621 ) ) GLOBAL_UNIT_ASSIGNED_CONTEXT ( ( #609, #889, #228 ) ) REPRESENTATION_CONTEXT ( 'NONE', 'WORKASPACE' ) );
#531 = FILL_AREA_STYLE ('',( #101 ) ) ;
#532 = CIRCLE ( 'NONE', #667, 0.5000000000000000000 ) ;
#533 = EDGE_LOOP ( 'NONE', ( #439, #910, #563, #642 ) ) ;
#534 = AXIS2_PLACEMENT_3D ( 'NONE', #76, #346, #280 ) ;
#535 = CARTESIAN_POINT ( 'NONE',  ( -2.649999999999999911, -2.699999999999998845, 5.500000000000000000 ) ) ;
#536 = CARTESIAN_POINT ( 'NONE',  ( -3.300000000000000711, 2.699999999999997513, 5.500000000000000000 ) ) ;
#537 = CARTESIAN_POINT ( 'NONE',  ( -2.623753400942222758, -1.300000000000000266, 5.799999999999999822 ) ) ;
#538 = EDGE_LOOP ( 'NONE', ( #307, #622, #457, #211 ) ) ;
#539 = DIRECTION ( 'NONE',  ( 1.000000000000000000, 0.000000000000000000, 0.000000000000000000 ) ) ;
#540 = CARTESIAN_POINT ( 'NONE',  ( -2.649999999999999911, -1.300000000000000266, 5.500000000000000000 ) ) ;
#541 = ORIENTED_EDGE ( 'NONE', *, *, #79, .F. ) ;
#542 = DIRECTION ( 'NONE',  ( 0.000000000000000000, 0.000000000000000000, 1.000000000000000000 ) ) ;
#543 = CARTESIAN_POINT ( 'NONE',  ( -3.300000000000000711, 2.699999999999997513, 0.000000000000000000 ) ) ;
#544 = PLANE ( 'NONE',  #379 ) ;
#545 = FILL_AREA_STYLE_COLOUR ( '', #660 ) ;
#546 = MECHANICAL_DESIGN_GEOMETRIC_PRESENTATION_REPRESENTATION (  '', ( #691 ), #120 ) ;
#547 = EDGE_CURVE ( 'NONE', #216, #315, #72, .T. ) ;
#548 = AXIS2_PLACEMENT_3D ( 'NONE', #279, #368, #871 ) ;
#549 = COLOUR_RGB ( '',0.6470588235294117974, 0.6196078431372549211, 0.5882352941176470784 ) ;
#550 = PLANE ( 'NONE',  #548 ) ;
#551 = ORIENTED_EDGE ( 'NONE', *, *, #205, .F. ) ;
#552 = ADVANCED_FACE ( 'NONE', ( #507 ), #438, .T. ) ;
#553 = CARTESIAN_POINT ( 'NONE',  ( 2.799999999999999822, -2.699999999999999289, 5.500000000000000000 ) ) ;
#554 =( NAMED_UNIT ( * ) SI_UNIT ( $, .STERADIAN. ) SOLID_ANGLE_UNIT ( ) );
#555 = SURFACE_SIDE_STYLE ('',( #491 ) ) ;
#556 = FACE_OUTER_BOUND ( 'NONE', #113, .T. ) ;
#557 = CIRCLE ( 'NONE', #703, 0.5000000000000000000 ) ;
#558 = AXIS2_PLACEMENT_3D ( 'NONE', #420, #343, #125 ) ;
#559 = STYLED_ITEM ( 'NONE', ( #94 ), #721 ) ;
#560 = STYLED_ITEM ( 'NONE', ( #523 ), #735 ) ;
#561 = DIRECTION ( 'NONE',  ( -0.000000000000000000, 0.000000000000000000, -1.000000000000000000 ) ) ;
#562 = ORIENTED_EDGE ( 'NONE', *, *, #663, .T. ) ;
#563 = ORIENTED_EDGE ( 'NONE', *, *, #306, .F. ) ;
#564 = FACE_OUTER_BOUND ( 'NONE', #250, .T. ) ;
#565 = DIRECTION ( 'NONE',  ( -0.08682659386424779191, 0.08682659386424777803, -0.9924325091389669673 ) ) ;
#566 = CARTESIAN_POINT ( 'NONE',  ( -2.650000000000000355, 2.673753400942223468, 5.799999999999999822 ) ) ;
#567 = CARTESIAN_POINT ( 'NONE',  ( -2.800000000000000711, 2.700000000000001066, 5.500000000000000000 ) ) ;
#568 = VERTEX_POINT ( 'NONE', #610 ) ;
#569 = EDGE_CURVE ( 'NONE', #319, #178, #891, .T. ) ;
#570 = LINE ( 'NONE', #732, #876 ) ;
#571 = SURFACE_STYLE_FILL_AREA ( #841 ) ;
#572 = FILL_AREA_STYLE ('',( #75 ) ) ;
#573 = SURFACE_SIDE_STYLE ('',( #59 ) ) ;
#574 = VECTOR ( 'NONE', #339, 1000.000000000000000 ) ;
#575 =( NAMED_UNIT ( * ) SI_UNIT ( $, .STERADIAN. ) SOLID_ANGLE_UNIT ( ) );
#576 = UNCERTAINTY_MEASURE_WITH_UNIT (LENGTH_MEASURE( 1.000000000000000082E-05 ), #914, 'distance_accuracy_value', 'NONE');
#577 = VECTOR ( 'NONE', #892, 1000.000000000000000 ) ;
#578 = VECTOR ( 'NONE', #17, 1000.000000000000000 ) ;
#579 = CARTESIAN_POINT ( 'NONE',  ( -2.650000000000000355, 1.326246599057776754, 5.799999999999999822 ) ) ;
#580 = FACE_OUTER_BOUND ( 'NONE', #299, .T. ) ;
#581 = PRESENTATION_LAYER_ASSIGNMENT (  '', '', ( #404 ) ) ;
#582 = CARTESIAN_POINT ( 'NONE',  ( -2.649999999999999911, -2.673753400942221692, 5.799999999999999822 ) ) ;
#583 = DIRECTION ( 'NONE',  ( 0.08682659386424781967, 0.08682659386424780579, -0.9924325091389669673 ) ) ;
#584 = EDGE_LOOP ( 'NONE', ( #447, #242, #917, #562 ) ) ;
#585 =( LENGTH_UNIT ( ) NAMED_UNIT ( * ) SI_UNIT ( .MILLI., .METRE. ) );
#586 = ORIENTED_EDGE ( 'NONE', *, *, #434, .T. ) ;
#587 = LINE ( 'NONE', #582, #678 ) ;
#588 = FILL_AREA_STYLE ('',( #674 ) ) ;
#589 = EDGE_LOOP ( 'NONE', ( #683, #637, #762, #124 ) ) ;
#590 = CARTESIAN_POINT ( 'NONE',  ( -2.623753400942223202, 2.700000000000000622, 5.799999999999999822 ) ) ;
#591 = DIRECTION ( 'NONE',  ( 1.000000000000000000, -8.182657905550978279E-17, -0.000000000000000000 ) ) ;
#592 = PRESENTATION_STYLE_ASSIGNMENT (( #741 ) ) ;
#593 = ORIENTED_EDGE ( 'NONE', *, *, #813, .T. ) ;
#594 = VERTEX_POINT ( 'NONE', #398 ) ;
#595 = DIRECTION ( 'NONE',  ( 0.000000000000000000, -0.08715574274765836016, -0.9961946980917455452 ) ) ;
#596 = AXIS2_PLACEMENT_3D ( 'NONE', #311, #236, #807 ) ;
#597 = PRESENTATION_STYLE_ASSIGNMENT (( #305 ) ) ;
#598 =( LENGTH_UNIT ( ) NAMED_UNIT ( * ) SI_UNIT ( .MILLI., .METRE. ) );
#599 = ORIENTED_EDGE ( 'NONE', *, *, #381, .T. ) ;
#600 = EDGE_CURVE ( 'NONE', #605, #161, #472, .T. ) ;
#601 = SURFACE_SIDE_STYLE ('',( #461 ) ) ;
#602 =( NAMED_UNIT ( * ) PLANE_ANGLE_UNIT ( ) SI_UNIT ( $, .RADIAN. ) );
#603 = SURFACE_SIDE_STYLE ('',( #312 ) ) ;
#604 = EDGE_CURVE ( 'NONE', #764, #131, #466, .T. ) ;
#605 = VERTEX_POINT ( 'NONE', #382 ) ;
#606 = CARTESIAN_POINT ( 'NONE',  ( -2.650000000000000355, 1.299999999999999600, 5.500000000000000000 ) ) ;
#607 = CARTESIAN_POINT ( 'NONE',  ( -2.650000000000000355, 2.700000000000000622, 5.500000000000000000 ) ) ;
#608 = CARTESIAN_POINT ( 'NONE',  ( -2.623753400942222758, -1.326246599057777420, 5.799999999999999822 ) ) ;
#609 =( LENGTH_UNIT ( ) NAMED_UNIT ( * ) SI_UNIT ( .MILLI., .METRE. ) );
#610 = CARTESIAN_POINT ( 'NONE',  ( 2.799999999999996714, -3.199999999999999289, 0.000000000000000000 ) ) ;
#611 = COLOUR_RGB ( '',0.8431372549019607865, 0.8156862745098039102, 0.7529411764705882248 ) ;
#612 = DIRECTION ( 'NONE',  ( -1.000000000000000000, -0.000000000000000000, -0.000000000000000000 ) ) ;
#613 = VECTOR ( 'NONE', #473, 1000.000000000000000 ) ;
#614 = PRESENTATION_STYLE_ASSIGNMENT (( #322 ) ) ;
#615 = MECHANICAL_DESIGN_GEOMETRIC_PRESENTATION_REPRESENTATION (  '', ( #514 ), #34 ) ;
#616 = VERTEX_POINT ( 'NONE', #607 ) ;
#617 = PRESENTATION_LAYER_ASSIGNMENT (  '', '', ( #560 ) ) ;
#618 = ADVANCED_FACE ( 'NONE', ( #679 ), #22, .T. ) ;
#619 = CARTESIAN_POINT ( 'NONE',  ( -2.799999999999996270, -3.199999999999999289, 0.000000000000000000 ) ) ;
#620 = CARTESIAN_POINT ( 'NONE',  ( 2.649999999999999911, -1.299999999999999600, 5.500000000000000000 ) ) ;
#621 = UNCERTAINTY_MEASURE_WITH_UNIT (LENGTH_MEASURE( 1.000000000000000082E-05 ), #609, 'distance_accuracy_value', 'NONE');
#622 = ORIENTED_EDGE ( 'NONE', *, *, #670, .F. ) ;
#623 =( NAMED_UNIT ( * ) PLANE_ANGLE_UNIT ( ) SI_UNIT ( $, .RADIAN. ) );
#624 = ORIENTED_EDGE ( 'NONE', *, *, #123, .T. ) ;
#625 = SURFACE_STYLE_FILL_AREA ( #422 ) ;
#626 = MECHANICAL_DESIGN_GEOMETRIC_PRESENTATION_REPRESENTATION (  '', ( #349 ), #530 ) ;
#627 = ADVANCED_FACE ( 'NONE', ( #875 ), #55, .T. ) ;
#628 =( GEOMETRIC_REPRESENTATION_CONTEXT ( 3 ) GLOBAL_UNCERTAINTY_ASSIGNED_CONTEXT ( ( #401 ) ) GLOBAL_UNIT_ASSIGNED_CONTEXT ( ( #585, #212, #69 ) ) REPRESENTATION_CONTEXT ( 'NONE', 'WORKASPACE' ) );
#629 = PRESENTATION_LAYER_ASSIGNMENT (  '', '', ( #99 ) ) ;
#630 = CARTESIAN_POINT ( 'NONE',  ( 2.649999999999999467, 2.699999999999999734, 5.500000000000000000 ) ) ;
#631 = SURFACE_SIDE_STYLE ('',( #477 ) ) ;
#632 =( NAMED_UNIT ( * ) PLANE_ANGLE_UNIT ( ) SI_UNIT ( $, .RADIAN. ) );
#633 = EDGE_CURVE ( 'NONE', #616, #148, #920, .T. ) ;
#634 = EDGE_LOOP ( 'NONE', ( #424, #31, #650, #593 ) ) ;
#635 = FACE_OUTER_BOUND ( 'NONE', #533, .T. ) ;
#636 = LINE ( 'NONE', #494, #95 ) ;
#637 = ORIENTED_EDGE ( 'NONE', *, *, #452, .F. ) ;
#638 = PRESENTATION_STYLE_ASSIGNMENT (( #96 ) ) ;
#639 = CARTESIAN_POINT ( 'NONE',  ( 2.799999999999996714, -3.199999999999999289, 5.500000000000000000 ) ) ;
#640 = PRESENTATION_LAYER_ASSIGNMENT (  '', '', ( #872 ) ) ;
#641 =( NAMED_UNIT ( * ) PLANE_ANGLE_UNIT ( ) SI_UNIT ( $, .RADIAN. ) );
#642 = ORIENTED_EDGE ( 'NONE', *, *, #547, .T. ) ;
#643 = VECTOR ( 'NONE', #453, 1000.000000000000000 ) ;
#644 = MECHANICAL_DESIGN_GEOMETRIC_PRESENTATION_REPRESENTATION (  '', ( #404 ), #370 ) ;
#645 = AXIS2_PLACEMENT_3D ( 'NONE', #811, #164, #451 ) ;
#646 = CARTESIAN_POINT ( 'NONE',  ( 2.649999999999999467, -2.699999999999999289, 5.500000000000000000 ) ) ;
#647 = CARTESIAN_POINT ( 'NONE',  ( 2.623753400942222314, 2.699999999999999734, 5.799999999999999822 ) ) ;
#648 = PRESENTATION_STYLE_ASSIGNMENT (( #201 ) ) ;
#649 =( NAMED_UNIT ( * ) SI_UNIT ( $, .STERADIAN. ) SOLID_ANGLE_UNIT ( ) );
#650 = ORIENTED_EDGE ( 'NONE', *, *, #772, .F. ) ;
#651 = SURFACE_STYLE_USAGE ( .BOTH. , #62 ) ;
#652 = CARTESIAN_POINT ( 'NONE',  ( 2.799999999999996714, -3.199999999999999289, 5.500000000000000000 ) ) ;
#653 = LINE ( 'NONE', #647, #661 ) ;
#654 =( NAMED_UNIT ( * ) PLANE_ANGLE_UNIT ( ) SI_UNIT ( $, .RADIAN. ) );
#655 = ADVANCED_FACE ( 'NONE', ( #203 ), #293, .T. ) ;
#656 = DIRECTION ( 'NONE',  ( 0.08682659386424779191, -0.08682659386424777803, -0.9924325091389669673 ) ) ;
#657 = ORIENTED_EDGE ( 'NONE', *, *, #434, .F. ) ;
#658 =( LENGTH_UNIT ( ) NAMED_UNIT ( * ) SI_UNIT ( .MILLI., .METRE. ) );
#659 = DIRECTION ( 'NONE',  ( -1.000000000000000000, 1.636531581110195409E-16, -0.000000000000000000 ) ) ;
#660 = COLOUR_RGB ( '',0.7921568627450980005, 0.8196078431372548767, 0.9333333333333333481 ) ;
#661 = VECTOR ( 'NONE', #864, 1000.000000000000000 ) ;
#662 = UNCERTAINTY_MEASURE_WITH_UNIT (LENGTH_MEASURE( 1.000000000000000082E-05 ), #50, 'distance_accuracy_value', 'NONE');
#663 = EDGE_CURVE ( 'NONE', #764, #67, #431, .T. ) ;
#664 = MECHANICAL_DESIGN_GEOMETRIC_PRESENTATION_REPRESENTATION (  '', ( #887 ), #482 ) ;
#665 = COLOUR_RGB ( '',0.6470588235294117974, 0.6196078431372549211, 0.5882352941176470784 ) ;
#666 = DIRECTION ( 'NONE',  ( 0.000000000000000000, 0.000000000000000000, 1.000000000000000000 ) ) ;
#667 = AXIS2_PLACEMENT_3D ( 'NONE', #144, #285, #292 ) ;
#668 =( NAMED_UNIT ( * ) SI_UNIT ( $, .STERADIAN. ) SOLID_ANGLE_UNIT ( ) );
#669 =( LENGTH_UNIT ( ) NAMED_UNIT ( * ) SI_UNIT ( .MILLI., .METRE. ) );
#670 = EDGE_CURVE ( 'NONE', #921, #526, #792, .T. ) ;
#671 = DIRECTION ( 'NONE',  ( 0.000000000000000000, 1.000000000000000000, 0.000000000000000000 ) ) ;
#672 = FILL_AREA_STYLE ('',( #529 ) ) ;
#673 = DIRECTION ( 'NONE',  ( 1.000000000000000000, 0.000000000000000000, 0.000000000000000000 ) ) ;
#674 = FILL_AREA_STYLE_COLOUR ( '', #334 ) ;
#675 = ORIENTED_EDGE ( 'NONE', *, *, #253, .F. ) ;
#676 = DIRECTION ( 'NONE',  ( 0.000000000000000000, 0.000000000000000000, 1.000000000000000000 ) ) ;
#677 = PRESENTATION_LAYER_ASSIGNMENT (  '', '', ( #528 ) ) ;
#678 = VECTOR ( 'NONE', #591, 1000.000000000000000 ) ;
#679 = FACE_OUTER_BOUND ( 'NONE', #395, .T. ) ;
#680 = LINE ( 'NONE', #686, #643 ) ;
#681 = FILL_AREA_STYLE_COLOUR ( '', #893 ) ;
#682 = VECTOR ( 'NONE', #845, 1000.000000000000000 ) ;
#683 = ORIENTED_EDGE ( 'NONE', *, *, #822, .T. ) ;
#684 =( NAMED_UNIT ( * ) PLANE_ANGLE_UNIT ( ) SI_UNIT ( $, .RADIAN. ) );
#685 = ORIENTED_EDGE ( 'NONE', *, *, #817, .F. ) ;
#686 = CARTESIAN_POINT ( 'NONE',  ( -2.799999999999997158, 3.200000000000001066, 5.500000000000000000 ) ) ;
#687 = ORIENTED_EDGE ( 'NONE', *, *, #861, .F. ) ;
#688 = DIRECTION ( 'NONE',  ( -1.222728063271258712E-16, 0.9961946980917455452, 0.08715574274765836016 ) ) ;
#689 =( NAMED_UNIT ( * ) SI_UNIT ( $, .STERADIAN. ) SOLID_ANGLE_UNIT ( ) );
#690 = VERTEX_POINT ( 'NONE', #354 ) ;
#691 = STYLED_ITEM ( 'NONE', ( #831 ), #179 ) ;
#692 = VECTOR ( 'NONE', #380, 1000.000000000000000 ) ;
#693 = MECHANICAL_DESIGN_GEOMETRIC_PRESENTATION_REPRESENTATION (  '', ( #559 ), #502 ) ;
#694 =( GEOMETRIC_REPRESENTATION_CONTEXT ( 3 ) GLOBAL_UNCERTAINTY_ASSIGNED_CONTEXT ( ( #724 ) ) GLOBAL_UNIT_ASSIGNED_CONTEXT ( ( #903, #897, #835 ) ) REPRESENTATION_CONTEXT ( 'NONE', 'WORKASPACE' ) );
#695 = ORIENTED_EDGE ( 'NONE', *, *, #141, .T. ) ;
#696 = CARTESIAN_POINT ( 'NONE',  ( -2.650000000000000355, 1.299999999999999600, 5.500000000000000000 ) ) ;
#697 = SURFACE_STYLE_FILL_AREA ( #487 ) ;
#698 = UNCERTAINTY_MEASURE_WITH_UNIT (LENGTH_MEASURE( 1.000000000000000082E-05 ), #919, 'distance_accuracy_value', 'NONE');
#699 = ORIENTED_EDGE ( 'NONE', *, *, #768, .F. ) ;
#700 = SURFACE_STYLE_FILL_AREA ( #409 ) ;
#701 = FACE_OUTER_BOUND ( 'NONE', #418, .T. ) ;
#702 = ADVANCED_FACE ( 'NONE', ( #286 ), #784, .T. ) ;
#703 = AXIS2_PLACEMENT_3D ( 'NONE', #506, #726, #290 ) ;
#704 = CARTESIAN_POINT ( 'NONE',  ( 2.649999999999999911, -1.299999999999999600, 5.500000000000000000 ) ) ;
#705 = DIRECTION ( 'NONE',  ( 0.000000000000000000, -0.000000000000000000, -1.000000000000000000 ) ) ;
#706 = SURFACE_STYLE_FILL_AREA ( #430 ) ;
#707 = VECTOR ( 'NONE', #749, 1000.000000000000000 ) ;
#708 = AXIS2_PLACEMENT_3D ( 'NONE', #90, #676, #877 ) ;
#709 = CARTESIAN_POINT ( 'NONE',  ( -2.650000000000000355, 2.700000000000000622, 5.500000000000000000 ) ) ;
#710 = FILL_AREA_STYLE ('',( #271 ) ) ;
#711 = PRESENTATION_STYLE_ASSIGNMENT (( #126 ) ) ;
#712 = ORIENTED_EDGE ( 'NONE', *, *, #488, .F. ) ;
#713 = ORIENTED_EDGE ( 'NONE', *, *, #306, .T. ) ;
#714 = LINE ( 'NONE', #433, #574 ) ;
#715 = DIRECTION ( 'NONE',  ( 0.000000000000000000, 0.000000000000000000, 1.000000000000000000 ) ) ;
#716 = ORIENTED_EDGE ( 'NONE', *, *, #782, .T. ) ;
#717 = FILL_AREA_STYLE_COLOUR ( '', #326 ) ;
#718 = FILL_AREA_STYLE ('',( #786 ) ) ;
#719 =( GEOMETRIC_REPRESENTATION_CONTEXT ( 3 ) GLOBAL_UNCERTAINTY_ASSIGNED_CONTEXT ( ( #824 ) ) GLOBAL_UNIT_ASSIGNED_CONTEXT ( ( #134, #684, #243 ) ) REPRESENTATION_CONTEXT ( 'NONE', 'WORKASPACE' ) );
#720 =( GEOMETRIC_REPRESENTATION_CONTEXT ( 3 ) GLOBAL_UNCERTAINTY_ASSIGNED_CONTEXT ( ( #330 ) ) GLOBAL_UNIT_ASSIGNED_CONTEXT ( ( #598, #602, #391 ) ) REPRESENTATION_CONTEXT ( 'NONE', 'WORKASPACE' ) );
#721 = MANIFOLD_SOLID_BREP ( 'Boss-Extrude2', #153 ) ;
#722 =( NAMED_UNIT ( * ) SI_UNIT ( $, .STERADIAN. ) SOLID_ANGLE_UNIT ( ) );
#723 = ORIENTED_EDGE ( 'NONE', *, *, #162, .T. ) ;
#724 = UNCERTAINTY_MEASURE_WITH_UNIT (LENGTH_MEASURE( 1.000000000000000082E-05 ), #903, 'distance_accuracy_value', 'NONE');
#725 = CARTESIAN_POINT ( 'NONE',  ( 2.799999999999999822, -2.699999999999999289, 0.000000000000000000 ) ) ;
#726 = DIRECTION ( 'NONE',  ( 0.000000000000000000, 0.000000000000000000, 1.000000000000000000 ) ) ;
#727 = LINE ( 'NONE', #71, #261 ) ;
#728 = SURFACE_SIDE_STYLE ('',( #221 ) ) ;
#729 = ADVANCED_FACE ( 'NONE', ( #30 ), #15, .T. ) ;
#730 = ORIENTED_EDGE ( 'NONE', *, *, #108, .F. ) ;
#731 = PLANE ( 'NONE',  #857 ) ;
#732 = CARTESIAN_POINT ( 'NONE',  ( -2.649999999999999911, -2.699999999999998845, 5.500000000000000000 ) ) ;
#733 = MECHANICAL_DESIGN_GEOMETRIC_PRESENTATION_REPRESENTATION (  '', ( #872 ), #132 ) ;
#734 = ORIENTED_EDGE ( 'NONE', *, *, #133, .F. ) ;
#735 = ADVANCED_FACE ( 'NONE', ( #750 ), #384, .T. ) ;
#736 = CIRCLE ( 'NONE', #365, 0.5000000000000000000 ) ;
#737 = CIRCLE ( 'NONE', #708, 0.5000000000000000000 ) ;
#738 = CARTESIAN_POINT ( 'NONE',  ( -2.623753400942222758, -2.673753400942221692, 5.799999999999999822 ) ) ;
#739 = MECHANICAL_DESIGN_GEOMETRIC_PRESENTATION_REPRESENTATION (  '', ( #81 ), #364 ) ;
#740 = SURFACE_STYLE_USAGE ( .BOTH. , #869 ) ;
#741 = SURFACE_STYLE_USAGE ( .BOTH. , #151 ) ;
#742 = SURFACE_STYLE_USAGE ( .BOTH. , #390 ) ;
#743 =( NAMED_UNIT ( * ) PLANE_ANGLE_UNIT ( ) SI_UNIT ( $, .RADIAN. ) );
#744 = ORIENTED_EDGE ( 'NONE', *, *, #861, .T. ) ;
#745 = DIRECTION ( 'NONE',  ( 0.08715574274765837404, 0.000000000000000000, 0.9961946980917455452 ) ) ;
#746 = ADVANCED_FACE ( 'NONE', ( #701 ), #544, .F. ) ;
#747 = CARTESIAN_POINT ( 'NONE',  ( -2.649999999999999911, -1.300000000000000266, 5.500000000000000000 ) ) ;
#748 = DIRECTION ( 'NONE',  ( 0.000000000000000000, -0.08715574274765836016, 0.9961946980917455452 ) ) ;
#749 = DIRECTION ( 'NONE',  ( -0.000000000000000000, -0.000000000000000000, -1.000000000000000000 ) ) ;
#750 = FACE_OUTER_BOUND ( 'NONE', #827, .T. ) ;
#751 = ORIENTED_EDGE ( 'NONE', *, *, #907, .F. ) ;
#752 = AXIS2_PLACEMENT_3D ( 'NONE', #200, #561, #340 ) ;
#753 = ORIENTED_EDGE ( 'NONE', *, *, #314, .T. ) ;
#754 = ORIENTED_EDGE ( 'NONE', *, *, #817, .T. ) ;
#755 = FACE_OUTER_BOUND ( 'NONE', #432, .T. ) ;
#756 = MECHANICAL_DESIGN_GEOMETRIC_PRESENTATION_REPRESENTATION (  '', ( #233 ), #779 ) ;
#757 = DIRECTION ( 'NONE',  ( -0.9961946980917455452, 0.000000000000000000, 0.08715574274765837404 ) ) ;
#758 = CARTESIAN_POINT ( 'NONE',  ( -2.799999999999999378, -2.699999999999999289, 5.500000000000000000 ) ) ;
#759 = CARTESIAN_POINT ( 'NONE',  ( -3.300000000000000711, 2.699999999999997513, 5.500000000000000000 ) ) ;
#760 =( NAMED_UNIT ( * ) PLANE_ANGLE_UNIT ( ) SI_UNIT ( $, .RADIAN. ) );
#761 = VERTEX_POINT ( 'NONE', #49 ) ;
#762 = ORIENTED_EDGE ( 'NONE', *, *, #381, .F. ) ;
#763 = CARTESIAN_POINT ( 'NONE',  ( 2.799999999999998934, 2.700000000000001066, 5.500000000000000000 ) ) ;
#764 = VERTEX_POINT ( 'NONE', #400 ) ;
#765 = VECTOR ( 'NONE', #143, 1000.000000000000000 ) ;
#766 = COLOUR_RGB ( '',0.8431372549019607865, 0.8156862745098039102, 0.7529411764705882248 ) ;
#767 = EDGE_LOOP ( 'NONE', ( #77, #770, #244, #303 ) ) ;
#768 = EDGE_CURVE ( 'NONE', #176, #347, #777, .T. ) ;
#769 = UNCERTAINTY_MEASURE_WITH_UNIT (LENGTH_MEASURE( 1.000000000000000082E-05 ), #669, 'distance_accuracy_value', 'NONE');
#770 = ORIENTED_EDGE ( 'NONE', *, *, #547, .F. ) ;
#771 = ORIENTED_EDGE ( 'NONE', *, *, #12, .T. ) ;
#772 = EDGE_CURVE ( 'NONE', #131, #319, #255, .T. ) ;
#773 = PRESENTATION_STYLE_ASSIGNMENT (( #268 ) ) ;
#774 = DIRECTION ( 'NONE',  ( 0.000000000000000000, -1.000000000000000000, 0.000000000000000000 ) ) ;
#775 = PRESENTATION_LAYER_ASSIGNMENT (  '', '', ( #246 ) ) ;
#776 = DIRECTION ( 'NONE',  ( 1.000000000000000000, 0.000000000000000000, 0.000000000000000000 ) ) ;
#777 = LINE ( 'NONE', #121, #181 ) ;
#778 = APPLICATION_CONTEXT ( 'automotive_design' ) ;
#779 =( GEOMETRIC_REPRESENTATION_CONTEXT ( 3 ) GLOBAL_UNCERTAINTY_ASSIGNED_CONTEXT ( ( #189 ) ) GLOBAL_UNIT_ASSIGNED_CONTEXT ( ( #87, #219, #64 ) ) REPRESENTATION_CONTEXT ( 'NONE', 'WORKASPACE' ) );
#780 = PRESENTATION_LAYER_ASSIGNMENT (  '', '', ( #416 ) ) ;
#781 =( NAMED_UNIT ( * ) SI_UNIT ( $, .STERADIAN. ) SOLID_ANGLE_UNIT ( ) );
#782 = EDGE_CURVE ( 'NONE', #204, #67, #328, .T. ) ;
#783 =( NAMED_UNIT ( * ) SI_UNIT ( $, .STERADIAN. ) SOLID_ANGLE_UNIT ( ) );
#784 = PLANE ( 'NONE',  #878 ) ;
#785 = VERTEX_POINT ( 'NONE', #540 ) ;
#786 = FILL_AREA_STYLE_COLOUR ( '', #496 ) ;
#787 = SURFACE_STYLE_USAGE ( .BOTH. , #373 ) ;
#788 = LINE ( 'NONE', #486, #2 ) ;
#789 = LINE ( 'NONE', #145, #137 ) ;
#790 = ORIENTED_EDGE ( 'NONE', *, *, #830, .T. ) ;
#791 = DIRECTION ( 'NONE',  ( 1.000000000000000000, -8.182657905550978279E-17, 0.000000000000000000 ) ) ;
#792 = LINE ( 'NONE', #358, #829 ) ;
#793 = UNCERTAINTY_MEASURE_WITH_UNIT (LENGTH_MEASURE( 1.000000000000000082E-05 ), #16, 'distance_accuracy_value', 'NONE');
#794 = DIRECTION ( 'NONE',  ( -0.08682659386424779191, 0.08682659386424780579, -0.9924325091389669673 ) ) ;
#795 = EDGE_CURVE ( 'NONE', #521, #764, #636, .T. ) ;
#796 = FILL_AREA_STYLE_COLOUR ( '', #611 ) ;
#797 =( NAMED_UNIT ( * ) SI_UNIT ( $, .STERADIAN. ) SOLID_ANGLE_UNIT ( ) );
#798 = SURFACE_SIDE_STYLE ('',( #492 ) ) ;
#799 = SURFACE_STYLE_FILL_AREA ( #850 ) ;
#800 = PRESENTATION_STYLE_ASSIGNMENT (( #505 ) ) ;
#801 = CARTESIAN_POINT ( 'NONE',  ( -2.799999999999996270, -3.199999999999999289, 0.000000000000000000 ) ) ;
#802 = SURFACE_STYLE_FILL_AREA ( #588 ) ;
#803 = ORIENTED_EDGE ( 'NONE', *, *, #569, .T. ) ;
#804 = COLOUR_RGB ( '',0.6470588235294117974, 0.6196078431372549211, 0.5882352941176470784 ) ;
#805 = PRESENTATION_LAYER_ASSIGNMENT (  '', '', ( #905 ) ) ;
#806 = PRESENTATION_STYLE_ASSIGNMENT (( #787 ) ) ;
#807 = DIRECTION ( 'NONE',  ( -2.409338161078901646E-16, 1.000000000000000000, 0.000000000000000000 ) ) ;
#808 = ORIENTED_EDGE ( 'NONE', *, *, #86, .T. ) ;
#809 = EDGE_CURVE ( 'NONE', #605, #594, #53, .T. ) ;
#810 = CARTESIAN_POINT ( 'NONE',  ( -2.799999999999997158, 3.200000000000001066, 0.000000000000000000 ) ) ;
#811 = CARTESIAN_POINT ( 'NONE',  ( 0.000000000000000000, 0.000000000000000000, 5.799999999999999822 ) ) ;
#812 = PRODUCT ( 'SRP6060FA-100M', 'SRP6060FA-100M', '', ( #213 ) ) ;
#813 = EDGE_CURVE ( 'NONE', #131, #785, #3, .T. ) ;
#814 = EDGE_LOOP ( 'NONE', ( #734, #462, #860, #152, #281, #127, #165, #699 ) ) ;
#815 = DIRECTION ( 'NONE',  ( -0.000000000000000000, -0.000000000000000000, -1.000000000000000000 ) ) ;
#816 = EDGE_LOOP ( 'NONE', ( #753, #481, #323, #414 ) ) ;
#817 = EDGE_CURVE ( 'NONE', #161, #176, #714, .T. ) ;
#818 = COLOUR_RGB ( '',0.8431372549019607865, 0.8156862745098039102, 0.7529411764705882248 ) ;
#819 = ORIENTED_EDGE ( 'NONE', *, *, #600, .F. ) ;
#820 = DIRECTION ( 'NONE',  ( 0.000000000000000000, 0.000000000000000000, 1.000000000000000000 ) ) ;
#821 = DIRECTION ( 'NONE',  ( -0.000000000000000000, -1.000000000000000000, 0.000000000000000000 ) ) ;
#822 = EDGE_CURVE ( 'NONE', #266, #464, #557, .T. ) ;
#823 = LINE ( 'NONE', #696, #171 ) ;
#824 = UNCERTAINTY_MEASURE_WITH_UNIT (LENGTH_MEASURE( 1.000000000000000082E-05 ), #134, 'distance_accuracy_value', 'NONE');
#825 = CARTESIAN_POINT ( 'NONE',  ( 2.610044055769044302, 2.660044055769044569, 5.956698532366033305 ) ) ;
#826 = CARTESIAN_POINT ( 'NONE',  ( -2.799999999999997158, 3.200000000000001066, 5.500000000000000000 ) ) ;
#827 = EDGE_LOOP ( 'NONE', ( #515, #904, #155, #790 ) ) ;
#828 = AXIS2_PLACEMENT_3D ( 'NONE', #553, #478, #776 ) ;
#829 = VECTOR ( 'NONE', #656, 1000.000000000000114 ) ;
#830 = EDGE_CURVE ( 'NONE', #894, #616, #788, .T. ) ;
#831 = PRESENTATION_STYLE_ASSIGNMENT (( #264 ) ) ;
#832 = CARTESIAN_POINT ( 'NONE',  ( 2.623753400942222314, 1.326246599057777198, 5.799999999999999822 ) ) ;
#833 =( NAMED_UNIT ( * ) PLANE_ANGLE_UNIT ( ) SI_UNIT ( $, .RADIAN. ) );
#834 = CARTESIAN_POINT ( 'NONE',  ( -2.650000000000000355, -2.699999999999999734, 5.500000000000000000 ) ) ;
#835 =( NAMED_UNIT ( * ) SI_UNIT ( $, .STERADIAN. ) SOLID_ANGLE_UNIT ( ) );
#836 = LINE ( 'NONE', #413, #331 ) ;
#837 = AXIS2_PLACEMENT_3D ( 'NONE', #142, #715, #510 ) ;
#838 = ORIENTED_EDGE ( 'NONE', *, *, #795, .F. ) ;
#839 = AXIS2_PLACEMENT_3D ( 'NONE', #300, #371, #426 ) ;
#840 =( LENGTH_UNIT ( ) NAMED_UNIT ( * ) SI_UNIT ( .MILLI., .METRE. ) );
#841 = FILL_AREA_STYLE ('',( #220 ) ) ;
#842 = PRESENTATION_STYLE_ASSIGNMENT (( #265 ) ) ;
#843 = EDGE_CURVE ( 'NONE', #475, #921, #70, .T. ) ;
#844 = PRESENTATION_LAYER_ASSIGNMENT (  '', '', ( #184 ) ) ;
#845 = DIRECTION ( 'NONE',  ( 0.000000000000000000, -1.000000000000000000, 0.000000000000000000 ) ) ;
#846 = STYLED_ITEM ( 'NONE', ( #648 ), #419 ) ;
#847 = SURFACE_SIDE_STYLE ('',( #625 ) ) ;
#848 =( NAMED_UNIT ( * ) SI_UNIT ( $, .STERADIAN. ) SOLID_ANGLE_UNIT ( ) );
#849 = PRESENTATION_STYLE_ASSIGNMENT (( #146 ) ) ;
#850 = FILL_AREA_STYLE ('',( #57 ) ) ;
#851 = CARTESIAN_POINT ( 'NONE',  ( 3.299999999999999822, -2.699999999999999289, 0.000000000000000000 ) ) ;
#852 = APPLICATION_CONTEXT ( 'automotive_design' ) ;
#853 = DIRECTION ( 'NONE',  ( -0.000000000000000000, -0.000000000000000000, -1.000000000000000000 ) ) ;
#854 = DIRECTION ( 'NONE',  ( -0.000000000000000000, -0.000000000000000000, -1.000000000000000000 ) ) ;
#855 = EDGE_CURVE ( 'NONE', #925, #616, #269, .T. ) ;
#856 = UNCERTAINTY_MEASURE_WITH_UNIT (LENGTH_MEASURE( 1.000000000000000082E-05 ), #159, 'distance_accuracy_value', 'NONE');
#857 = AXIS2_PLACEMENT_3D ( 'NONE', #348, #757, #745 ) ;
#858 = DIRECTION ( 'NONE',  ( 0.000000000000000000, 0.000000000000000000, 1.000000000000000000 ) ) ;
#859 = SURFACE_STYLE_USAGE ( .BOTH. , #573 ) ;
#860 = ORIENTED_EDGE ( 'NONE', *, *, #295, .F. ) ;
#861 = EDGE_CURVE ( 'NONE', #921, #493, #653, .T. ) ;
#862 = AXIS2_PLACEMENT_3D ( 'NONE', #316, #688, #748 ) ;
#863 = SURFACE_STYLE_FILL_AREA ( #296 ) ;
#864 = DIRECTION ( 'NONE',  ( -0.000000000000000000, 1.000000000000000000, -0.000000000000000000 ) ) ;
#865 = PLANE ( 'NONE',  #596 ) ;
#866 = CARTESIAN_POINT ( 'NONE',  ( 3.299999999999999822, -2.699999999999999289, 5.500000000000000000 ) ) ;
#867 = UNCERTAINTY_MEASURE_WITH_UNIT (LENGTH_MEASURE( 1.000000000000000082E-05 ), #46, 'distance_accuracy_value', 'NONE');
#868 = APPLICATION_PROTOCOL_DEFINITION ( 'draft international standard', 'automotive_design', 1998, #852 ) ;
#869 = SURFACE_SIDE_STYLE ('',( #297 ) ) ;
#870 = DIRECTION ( 'NONE',  ( -0.000000000000000000, -0.000000000000000000, -1.000000000000000000 ) ) ;
#871 = DIRECTION ( 'NONE',  ( 0.08715574274765836016, 0.000000000000000000, -0.9961946980917455452 ) ) ;
#872 = STYLED_ITEM ( 'NONE', ( #614 ), #899 ) ;
#873 = ADVANCED_FACE ( 'NONE', ( #556 ), #924, .T. ) ;
#874 = VECTOR ( 'NONE', #104, 1000.000000000000000 ) ;
#875 = FACE_OUTER_BOUND ( 'NONE', #504, .T. ) ;
#876 = VECTOR ( 'NONE', #791, 1000.000000000000000 ) ;
#877 = DIRECTION ( 'NONE',  ( 1.000000000000000000, 0.000000000000000000, 0.000000000000000000 ) ) ;
#878 = AXIS2_PLACEMENT_3D ( 'NONE', #885, #174, #446 ) ;
#879 = MECHANICAL_DESIGN_GEOMETRIC_PRESENTATION_REPRESENTATION (  '', ( #560 ), #694 ) ;
#880 = CARTESIAN_POINT ( 'NONE',  ( -2.649999999999999911, -1.326246599057777420, 5.799999999999999822 ) ) ;
#881 = FILL_AREA_STYLE_COLOUR ( '', #766 ) ;
#882 = ADVANCED_FACE ( 'NONE', ( #56 ), #731, .T. ) ;
#883 =( LENGTH_UNIT ( ) NAMED_UNIT ( * ) SI_UNIT ( .MILLI., .METRE. ) );
#884 = FILL_AREA_STYLE ('',( #881 ) ) ;
#885 = CARTESIAN_POINT ( 'NONE',  ( 2.799999999999998934, 2.700000000000001066, 0.000000000000000000 ) ) ;
#886 = COLOUR_RGB ( '',0.6470588235294117974, 0.6196078431372549211, 0.5882352941176470784 ) ;
#887 = STYLED_ITEM ( 'NONE', ( #88 ), #39 ) ;
#888 = PRESENTATION_LAYER_ASSIGNMENT (  '', '', ( #249 ) ) ;
#889 =( NAMED_UNIT ( * ) PLANE_ANGLE_UNIT ( ) SI_UNIT ( $, .RADIAN. ) );
#890 = AXIS2_PLACEMENT_3D ( 'NONE', #567, #854, #298 ) ;
#891 = LINE ( 'NONE', #535, #111 ) ;
#892 = DIRECTION ( 'NONE',  ( -1.000000000000000000, -1.227398685832646557E-16, -0.000000000000000000 ) ) ;
#893 = COLOUR_RGB ( '',0.6470588235294117974, 0.6196078431372549211, 0.5882352941176470784 ) ;
#894 = VERTEX_POINT ( 'NONE', #175 ) ;
#895 = CARTESIAN_POINT ( 'NONE',  ( 2.799999999999995826, 3.200000000000001066, 5.500000000000000000 ) ) ;
#896 = DIRECTION ( 'NONE',  ( 1.000000000000000000, 8.182657905550977046E-17, 0.000000000000000000 ) ) ;
#897 =( NAMED_UNIT ( * ) PLANE_ANGLE_UNIT ( ) SI_UNIT ( $, .RADIAN. ) );
#898 = UNCERTAINTY_MEASURE_WITH_UNIT (LENGTH_MEASURE( 1.000000000000000082E-05 ), #256, 'distance_accuracy_value', 'NONE');
#899 = ADVANCED_FACE ( 'NONE', ( #396, #85, #386 ), #116, .F. ) ;
#900 =( NAMED_UNIT ( * ) SI_UNIT ( $, .STERADIAN. ) SOLID_ANGLE_UNIT ( ) );
#901 = VECTOR ( 'NONE', #258, 1000.000000000000000 ) ;
#902 = CARTESIAN_POINT ( 'NONE',  ( 0.000000000000000000, 0.000000000000000000, 5.799999999999999822 ) ) ;
#903 =( LENGTH_UNIT ( ) NAMED_UNIT ( * ) SI_UNIT ( .MILLI., .METRE. ) );
#904 = ORIENTED_EDGE ( 'NONE', *, *, #51, .F. ) ;
#905 = STYLED_ITEM ( 'NONE', ( #214 ), #471 ) ;
#906 = MECHANICAL_DESIGN_GEOMETRIC_PRESENTATION_REPRESENTATION (  '', ( #186 ), #20 ) ;
#907 = EDGE_CURVE ( 'NONE', #521, #204, #196, .T. ) ;
#908 = ORIENTED_EDGE ( 'NONE', *, *, #210, .T. ) ;
#909 = CARTESIAN_POINT ( 'NONE',  ( 2.639445599637106010, -2.689445599637104944, 5.620637348172158987 ) ) ;
#910 = ORIENTED_EDGE ( 'NONE', *, *, #809, .F. ) ;
#911 = EDGE_CURVE ( 'NONE', #315, #594, #836, .T. ) ;
#912 = FACE_OUTER_BOUND ( 'NONE', #325, .T. ) ;
#913 = CARTESIAN_POINT ( 'NONE',  ( -2.649999999999999911, -1.300000000000000266, 5.500000000000000000 ) ) ;
#914 =( LENGTH_UNIT ( ) NAMED_UNIT ( * ) SI_UNIT ( .MILLI., .METRE. ) );
#915 = APPLICATION_PROTOCOL_DEFINITION ( 'draft international standard', 'automotive_design', 1998, #778 ) ;
#916 = PRESENTATION_LAYER_ASSIGNMENT (  '', '', ( #233 ) ) ;
#917 = ORIENTED_EDGE ( 'NONE', *, *, #604, .F. ) ;
#918 =( LENGTH_UNIT ( ) NAMED_UNIT ( * ) SI_UNIT ( .MILLI., .METRE. ) );
#919 =( LENGTH_UNIT ( ) NAMED_UNIT ( * ) SI_UNIT ( .MILLI., .METRE. ) );
#920 = LINE ( 'NONE', #369, #682 ) ;
#921 = VERTEX_POINT ( 'NONE', #832 ) ;
#922 = PRESENTATION_STYLE_ASSIGNMENT (( #651 ) ) ;
#923 = FACE_OUTER_BOUND ( 'NONE', #538, .T. ) ;
#924 = PLANE ( 'NONE',  #839 ) ;
#925 = VERTEX_POINT ( 'NONE', #345 ) ;
#926 = FILL_AREA_STYLE ('',( #229 ) ) ;
ENDSEC;
END-ISO-10303-21;
